G04 EAGLE Gerber RS-274X export*
G75*
%MOMM*%
%FSLAX34Y34*%
%LPD*%
%INBottom_Copper*%
%IPPOS*%
%AMOC8*
5,1,8,0,0,1.08239X$1,22.5*%
G01*
%ADD10C,0.000000*%
%ADD11C,1.700000*%
%ADD12C,5.842000*%
%ADD13R,5.842000X5.842000*%
%ADD14C,1.006400*%
%ADD15C,0.406400*%
%ADD16C,0.609600*%

G36*
X527150Y4740D02*
X527150Y4740D01*
X527169Y4744D01*
X527222Y4745D01*
X564612Y8230D01*
X564634Y8235D01*
X564708Y8243D01*
X601726Y14554D01*
X601744Y14559D01*
X601797Y14568D01*
X614809Y17558D01*
X614943Y17606D01*
X615076Y17651D01*
X615091Y17661D01*
X615108Y17667D01*
X615225Y17747D01*
X615343Y17824D01*
X615355Y17837D01*
X615370Y17847D01*
X615462Y17954D01*
X615559Y18058D01*
X615567Y18074D01*
X615579Y18087D01*
X615642Y18213D01*
X615709Y18338D01*
X615714Y18355D01*
X615721Y18371D01*
X615752Y18510D01*
X615786Y18647D01*
X615785Y18665D01*
X615789Y18682D01*
X615784Y18824D01*
X615783Y18965D01*
X615778Y18989D01*
X615777Y19000D01*
X615772Y19018D01*
X615751Y19123D01*
X603688Y64143D01*
X603518Y64779D01*
X604584Y70415D01*
X607990Y75030D01*
X613061Y77710D01*
X618793Y77924D01*
X624050Y75631D01*
X627791Y71283D01*
X627961Y70647D01*
X627962Y70647D01*
X640024Y25627D01*
X640078Y25496D01*
X640128Y25363D01*
X640138Y25349D01*
X640145Y25333D01*
X640229Y25219D01*
X640310Y25103D01*
X640324Y25091D01*
X640334Y25077D01*
X640444Y24988D01*
X640552Y24896D01*
X640568Y24888D01*
X640581Y24877D01*
X640710Y24818D01*
X640837Y24756D01*
X640854Y24752D01*
X640870Y24745D01*
X641010Y24720D01*
X641148Y24691D01*
X641166Y24691D01*
X641183Y24688D01*
X641324Y24698D01*
X641466Y24705D01*
X641490Y24711D01*
X641500Y24711D01*
X641519Y24717D01*
X641623Y24742D01*
X654386Y28660D01*
X654404Y28667D01*
X654455Y28683D01*
X689669Y41726D01*
X689688Y41736D01*
X689758Y41763D01*
X723881Y57440D01*
X723897Y57450D01*
X723946Y57472D01*
X735741Y63728D01*
X735857Y63809D01*
X735975Y63887D01*
X735987Y63900D01*
X736001Y63911D01*
X736093Y64018D01*
X736188Y64124D01*
X736196Y64139D01*
X736208Y64152D01*
X736270Y64280D01*
X736336Y64405D01*
X736340Y64422D01*
X736347Y64438D01*
X736376Y64577D01*
X736409Y64715D01*
X736408Y64732D01*
X736412Y64750D01*
X736405Y64891D01*
X736402Y65033D01*
X736398Y65050D01*
X736397Y65067D01*
X736355Y65203D01*
X736317Y65339D01*
X736306Y65361D01*
X736303Y65371D01*
X736293Y65388D01*
X736246Y65483D01*
X713911Y104168D01*
X712613Y106417D01*
X712184Y112137D01*
X714280Y117476D01*
X715745Y118835D01*
X715745Y118836D01*
X718481Y121374D01*
X718484Y121377D01*
X723965Y123068D01*
X729636Y122213D01*
X734375Y118982D01*
X735809Y116498D01*
X736914Y114585D01*
X758009Y78048D01*
X758095Y77935D01*
X758177Y77820D01*
X758190Y77809D01*
X758201Y77795D01*
X758313Y77706D01*
X758421Y77616D01*
X758437Y77608D01*
X758450Y77597D01*
X758580Y77540D01*
X758708Y77478D01*
X758725Y77475D01*
X758741Y77468D01*
X758881Y77444D01*
X759020Y77417D01*
X759037Y77418D01*
X759054Y77415D01*
X759196Y77426D01*
X759337Y77434D01*
X759354Y77440D01*
X759371Y77441D01*
X759506Y77488D01*
X759640Y77530D01*
X759661Y77542D01*
X759672Y77545D01*
X759688Y77556D01*
X759782Y77607D01*
X771097Y84694D01*
X771112Y84707D01*
X771157Y84735D01*
X801795Y106447D01*
X801811Y106462D01*
X801872Y106506D01*
X830775Y130481D01*
X830788Y130495D01*
X830829Y130528D01*
X840604Y139623D01*
X840695Y139732D01*
X840788Y139838D01*
X840796Y139854D01*
X840807Y139867D01*
X840869Y139996D01*
X840933Y140122D01*
X840937Y140139D01*
X840944Y140155D01*
X840972Y140294D01*
X841003Y140432D01*
X841002Y140449D01*
X841005Y140467D01*
X840997Y140608D01*
X840993Y140750D01*
X840988Y140767D01*
X840987Y140784D01*
X840944Y140919D01*
X840904Y141055D01*
X840896Y141070D01*
X840890Y141087D01*
X840815Y141207D01*
X840743Y141329D01*
X840727Y141347D01*
X840721Y141356D01*
X840707Y141370D01*
X840636Y141450D01*
X810803Y171283D01*
X809241Y172845D01*
X808755Y173331D01*
X807679Y174407D01*
X807213Y174873D01*
X805319Y180287D01*
X805961Y185986D01*
X809012Y190843D01*
X813869Y193894D01*
X819568Y194536D01*
X824982Y192642D01*
X825448Y192177D01*
X825448Y192176D01*
X858405Y159219D01*
X858517Y159132D01*
X858626Y159043D01*
X858642Y159035D01*
X858656Y159024D01*
X858786Y158968D01*
X858915Y158908D01*
X858932Y158905D01*
X858948Y158898D01*
X859088Y158876D01*
X859227Y158850D01*
X859245Y158851D01*
X859262Y158848D01*
X859403Y158862D01*
X859545Y158871D01*
X859561Y158876D01*
X859579Y158878D01*
X859712Y158926D01*
X859847Y158970D01*
X859862Y158980D01*
X859878Y158986D01*
X859995Y159065D01*
X860115Y159142D01*
X860132Y159158D01*
X860141Y159164D01*
X860154Y159179D01*
X860232Y159252D01*
X869327Y169027D01*
X869338Y169042D01*
X869375Y169081D01*
X893349Y197984D01*
X893361Y198002D01*
X893408Y198060D01*
X915121Y228699D01*
X915130Y228716D01*
X915153Y228747D01*
X915157Y228752D01*
X915158Y228755D01*
X915161Y228759D01*
X916424Y230774D01*
X916424Y230775D01*
X922249Y240074D01*
X922308Y240202D01*
X922372Y240330D01*
X922375Y240347D01*
X922383Y240363D01*
X922408Y240502D01*
X922438Y240641D01*
X922437Y240658D01*
X922440Y240675D01*
X922431Y240816D01*
X922425Y240958D01*
X922420Y240975D01*
X922419Y240993D01*
X922374Y241127D01*
X922333Y241263D01*
X922324Y241278D01*
X922319Y241295D01*
X922242Y241414D01*
X922169Y241535D01*
X922156Y241547D01*
X922147Y241562D01*
X922043Y241659D01*
X921942Y241758D01*
X921922Y241771D01*
X921914Y241779D01*
X921897Y241788D01*
X921808Y241847D01*
X885270Y262942D01*
X883874Y263748D01*
X881443Y265151D01*
X881443Y265152D01*
X880873Y265481D01*
X877642Y270220D01*
X876787Y275891D01*
X878478Y281372D01*
X882379Y285576D01*
X887718Y287672D01*
X893438Y287243D01*
X894739Y286492D01*
X934373Y263609D01*
X934504Y263554D01*
X934632Y263496D01*
X934650Y263493D01*
X934666Y263486D01*
X934806Y263465D01*
X934945Y263441D01*
X934963Y263442D01*
X934980Y263440D01*
X935122Y263454D01*
X935263Y263465D01*
X935279Y263471D01*
X935297Y263473D01*
X935430Y263522D01*
X935564Y263568D01*
X935578Y263577D01*
X935595Y263584D01*
X935711Y263664D01*
X935830Y263742D01*
X935842Y263755D01*
X935856Y263765D01*
X935948Y263872D01*
X936044Y263977D01*
X936057Y263997D01*
X936064Y264006D01*
X936073Y264023D01*
X936128Y264114D01*
X942384Y275909D01*
X942391Y275927D01*
X942416Y275974D01*
X958093Y310098D01*
X958100Y310118D01*
X958130Y310187D01*
X971173Y345401D01*
X971178Y345420D01*
X971196Y345469D01*
X975114Y358233D01*
X975138Y358372D01*
X975166Y358512D01*
X975165Y358529D01*
X975168Y358547D01*
X975157Y358688D01*
X975150Y358829D01*
X975144Y358846D01*
X975143Y358864D01*
X975097Y358998D01*
X975055Y359133D01*
X975046Y359148D01*
X975040Y359164D01*
X974962Y359283D01*
X974888Y359403D01*
X974875Y359415D01*
X974865Y359430D01*
X974760Y359526D01*
X974658Y359624D01*
X974643Y359632D01*
X974630Y359644D01*
X974505Y359710D01*
X974381Y359780D01*
X974358Y359788D01*
X974349Y359793D01*
X974330Y359797D01*
X974229Y359832D01*
X933476Y370751D01*
X931342Y371323D01*
X931272Y371341D01*
X929208Y371894D01*
X929208Y371895D01*
X928572Y372065D01*
X924224Y375806D01*
X921931Y381063D01*
X922145Y386795D01*
X924825Y391866D01*
X929440Y395272D01*
X935076Y396338D01*
X935712Y396168D01*
X937977Y395561D01*
X939980Y395025D01*
X939980Y395024D01*
X980733Y384104D01*
X980874Y384085D01*
X981013Y384062D01*
X981031Y384063D01*
X981048Y384061D01*
X981189Y384077D01*
X981330Y384090D01*
X981347Y384095D01*
X981364Y384097D01*
X981496Y384148D01*
X981630Y384195D01*
X981645Y384205D01*
X981661Y384211D01*
X981776Y384293D01*
X981894Y384372D01*
X981906Y384385D01*
X981920Y384396D01*
X982011Y384503D01*
X982106Y384609D01*
X982114Y384625D01*
X982126Y384638D01*
X982187Y384765D01*
X982253Y384892D01*
X982259Y384915D01*
X982264Y384925D01*
X982268Y384944D01*
X982298Y385046D01*
X985288Y398058D01*
X985290Y398078D01*
X985302Y398129D01*
X991613Y435148D01*
X991614Y435169D01*
X991625Y435243D01*
X995110Y472633D01*
X995109Y472652D01*
X995113Y472671D01*
X995112Y472681D01*
X995115Y472706D01*
X995595Y486048D01*
X995582Y486190D01*
X995574Y486331D01*
X995568Y486348D01*
X995567Y486365D01*
X995519Y486499D01*
X995475Y486633D01*
X995466Y486648D01*
X995460Y486665D01*
X995381Y486782D01*
X995305Y486902D01*
X995293Y486914D01*
X995283Y486929D01*
X995177Y487023D01*
X995074Y487120D01*
X995058Y487129D01*
X995045Y487140D01*
X994919Y487205D01*
X994795Y487274D01*
X994778Y487278D01*
X994763Y487286D01*
X994625Y487318D01*
X994487Y487353D01*
X994463Y487355D01*
X994453Y487357D01*
X994433Y487356D01*
X994327Y487363D01*
X947060Y487363D01*
X941893Y489852D01*
X938316Y494336D01*
X937040Y499928D01*
X938316Y505520D01*
X941893Y510004D01*
X947060Y512493D01*
X994327Y512493D01*
X994467Y512510D01*
X994608Y512524D01*
X994625Y512530D01*
X994642Y512533D01*
X994774Y512585D01*
X994907Y512633D01*
X994921Y512643D01*
X994938Y512650D01*
X995052Y512733D01*
X995169Y512813D01*
X995181Y512826D01*
X995195Y512836D01*
X995285Y512945D01*
X995379Y513052D01*
X995387Y513068D01*
X995398Y513081D01*
X995458Y513209D01*
X995522Y513336D01*
X995526Y513353D01*
X995533Y513369D01*
X995560Y513508D01*
X995591Y513647D01*
X995591Y513671D01*
X995593Y513681D01*
X995592Y513701D01*
X995595Y513808D01*
X995115Y527150D01*
X995112Y527169D01*
X995110Y527222D01*
X991625Y564612D01*
X991621Y564634D01*
X991613Y564708D01*
X985302Y601726D01*
X985296Y601744D01*
X985288Y601797D01*
X982298Y614809D01*
X982250Y614942D01*
X982205Y615076D01*
X982195Y615091D01*
X982189Y615108D01*
X982109Y615225D01*
X982032Y615343D01*
X982019Y615355D01*
X982009Y615370D01*
X981902Y615463D01*
X981798Y615559D01*
X981782Y615567D01*
X981769Y615579D01*
X981642Y615642D01*
X981518Y615709D01*
X981501Y615714D01*
X981485Y615721D01*
X981346Y615752D01*
X981209Y615786D01*
X981191Y615785D01*
X981174Y615789D01*
X981032Y615784D01*
X980891Y615783D01*
X980867Y615778D01*
X980856Y615777D01*
X980838Y615772D01*
X980733Y615751D01*
X935712Y603688D01*
X935076Y603518D01*
X929440Y604584D01*
X924825Y607990D01*
X922145Y613061D01*
X921931Y618793D01*
X924224Y624050D01*
X928572Y627791D01*
X929208Y627961D01*
X931732Y628638D01*
X933476Y629105D01*
X974229Y640024D01*
X974360Y640078D01*
X974493Y640128D01*
X974507Y640138D01*
X974523Y640145D01*
X974637Y640229D01*
X974753Y640310D01*
X974765Y640324D01*
X974779Y640334D01*
X974868Y640444D01*
X974960Y640552D01*
X974968Y640568D01*
X974979Y640581D01*
X975038Y640710D01*
X975100Y640837D01*
X975104Y640854D01*
X975111Y640870D01*
X975136Y641010D01*
X975165Y641148D01*
X975165Y641166D01*
X975168Y641183D01*
X975158Y641324D01*
X975151Y641466D01*
X975145Y641490D01*
X975145Y641500D01*
X975139Y641519D01*
X975114Y641623D01*
X971196Y654386D01*
X971189Y654404D01*
X971173Y654455D01*
X958130Y689669D01*
X958120Y689688D01*
X958093Y689758D01*
X942416Y723881D01*
X942406Y723897D01*
X942384Y723946D01*
X936128Y735741D01*
X936047Y735857D01*
X935969Y735975D01*
X935956Y735987D01*
X935945Y736001D01*
X935838Y736093D01*
X935732Y736188D01*
X935717Y736196D01*
X935704Y736208D01*
X935576Y736270D01*
X935451Y736336D01*
X935434Y736340D01*
X935418Y736347D01*
X935279Y736376D01*
X935141Y736409D01*
X935124Y736408D01*
X935106Y736412D01*
X934965Y736405D01*
X934823Y736402D01*
X934806Y736398D01*
X934789Y736397D01*
X934654Y736355D01*
X934517Y736317D01*
X934495Y736306D01*
X934485Y736303D01*
X934468Y736293D01*
X934373Y736246D01*
X895962Y714070D01*
X895922Y714047D01*
X895921Y714047D01*
X893438Y712613D01*
X887718Y712184D01*
X882379Y714280D01*
X878478Y718484D01*
X876787Y723965D01*
X877642Y729636D01*
X880873Y734375D01*
X881443Y734704D01*
X881444Y734705D01*
X884277Y736341D01*
X885270Y736914D01*
X921808Y758009D01*
X921920Y758094D01*
X922036Y758177D01*
X922047Y758191D01*
X922061Y758201D01*
X922149Y758312D01*
X922240Y758421D01*
X922248Y758437D01*
X922259Y758450D01*
X922317Y758580D01*
X922378Y758708D01*
X922381Y758725D01*
X922388Y758741D01*
X922412Y758881D01*
X922439Y759020D01*
X922438Y759037D01*
X922441Y759054D01*
X922429Y759196D01*
X922422Y759337D01*
X922416Y759354D01*
X922415Y759371D01*
X922368Y759506D01*
X922325Y759640D01*
X922314Y759661D01*
X922310Y759672D01*
X922300Y759688D01*
X922249Y759782D01*
X915161Y771097D01*
X915149Y771112D01*
X915121Y771157D01*
X893408Y801796D01*
X893393Y801812D01*
X893349Y801872D01*
X869375Y830775D01*
X869360Y830788D01*
X869327Y830829D01*
X860232Y840604D01*
X860123Y840694D01*
X860017Y840788D01*
X860001Y840796D01*
X859988Y840808D01*
X859860Y840869D01*
X859733Y840933D01*
X859716Y840937D01*
X859700Y840944D01*
X859561Y840972D01*
X859423Y841003D01*
X859406Y841002D01*
X859388Y841005D01*
X859247Y840997D01*
X859105Y840993D01*
X859088Y840988D01*
X859071Y840987D01*
X858936Y840944D01*
X858800Y840904D01*
X858785Y840896D01*
X858768Y840890D01*
X858648Y840815D01*
X858526Y840743D01*
X858508Y840727D01*
X858499Y840721D01*
X858485Y840707D01*
X858405Y840637D01*
X828572Y810803D01*
X826524Y808755D01*
X826524Y808754D01*
X825448Y807679D01*
X824982Y807213D01*
X819568Y805319D01*
X813869Y805961D01*
X809012Y809012D01*
X805961Y813869D01*
X805319Y819568D01*
X807213Y824982D01*
X807679Y825448D01*
X809009Y826779D01*
X809241Y827010D01*
X810803Y828572D01*
X840637Y858405D01*
X840723Y858517D01*
X840813Y858627D01*
X840821Y858642D01*
X840831Y858656D01*
X840888Y858786D01*
X840948Y858915D01*
X840951Y858932D01*
X840958Y858948D01*
X840980Y859088D01*
X841006Y859227D01*
X841005Y859245D01*
X841008Y859262D01*
X840994Y859403D01*
X840985Y859545D01*
X840980Y859561D01*
X840978Y859579D01*
X840930Y859713D01*
X840886Y859847D01*
X840876Y859862D01*
X840870Y859878D01*
X840791Y859995D01*
X840714Y860115D01*
X840698Y860132D01*
X840692Y860141D01*
X840677Y860154D01*
X840604Y860232D01*
X830829Y869327D01*
X830814Y869338D01*
X830775Y869375D01*
X801872Y893349D01*
X801854Y893361D01*
X801796Y893408D01*
X771157Y915121D01*
X771140Y915130D01*
X771109Y915153D01*
X771104Y915157D01*
X771101Y915158D01*
X771097Y915161D01*
X759782Y922249D01*
X759654Y922308D01*
X759526Y922372D01*
X759509Y922375D01*
X759493Y922383D01*
X759354Y922408D01*
X759215Y922438D01*
X759198Y922437D01*
X759181Y922440D01*
X759040Y922431D01*
X758898Y922425D01*
X758881Y922420D01*
X758863Y922419D01*
X758729Y922374D01*
X758593Y922333D01*
X758578Y922324D01*
X758561Y922319D01*
X758442Y922242D01*
X758321Y922169D01*
X758309Y922156D01*
X758294Y922147D01*
X758197Y922043D01*
X758098Y921942D01*
X758085Y921922D01*
X758077Y921914D01*
X758068Y921897D01*
X758009Y921808D01*
X736914Y885270D01*
X736108Y883874D01*
X734705Y881443D01*
X734704Y881443D01*
X734375Y880873D01*
X729636Y877642D01*
X723965Y876787D01*
X718484Y878478D01*
X714280Y882379D01*
X712184Y887718D01*
X712613Y893438D01*
X713986Y895817D01*
X736246Y934373D01*
X736301Y934503D01*
X736359Y934632D01*
X736362Y934650D01*
X736369Y934666D01*
X736390Y934806D01*
X736414Y934945D01*
X736413Y934963D01*
X736415Y934980D01*
X736401Y935122D01*
X736390Y935263D01*
X736384Y935279D01*
X736382Y935297D01*
X736333Y935430D01*
X736287Y935564D01*
X736278Y935578D01*
X736272Y935595D01*
X736191Y935711D01*
X736113Y935830D01*
X736100Y935842D01*
X736090Y935856D01*
X735983Y935948D01*
X735878Y936044D01*
X735858Y936057D01*
X735850Y936064D01*
X735832Y936072D01*
X735741Y936128D01*
X723946Y942384D01*
X723928Y942391D01*
X723881Y942416D01*
X689758Y958093D01*
X689737Y958099D01*
X689669Y958130D01*
X654455Y971173D01*
X654436Y971178D01*
X654386Y971196D01*
X641623Y975114D01*
X641483Y975138D01*
X641344Y975166D01*
X641327Y975165D01*
X641309Y975168D01*
X641168Y975157D01*
X641027Y975150D01*
X641010Y975144D01*
X640992Y975143D01*
X640859Y975097D01*
X640723Y975055D01*
X640708Y975046D01*
X640692Y975040D01*
X640573Y974962D01*
X640453Y974888D01*
X640441Y974875D01*
X640426Y974865D01*
X640330Y974760D01*
X640232Y974658D01*
X640224Y974643D01*
X640212Y974630D01*
X640146Y974505D01*
X640076Y974381D01*
X640068Y974358D01*
X640063Y974349D01*
X640059Y974330D01*
X640024Y974229D01*
X629105Y933476D01*
X628533Y931342D01*
X628515Y931272D01*
X628514Y931272D01*
X627962Y929208D01*
X627961Y929208D01*
X627791Y928572D01*
X624050Y924224D01*
X618793Y921931D01*
X613061Y922145D01*
X607990Y924825D01*
X604584Y929440D01*
X603518Y935076D01*
X603688Y935712D01*
X615751Y980733D01*
X615770Y980873D01*
X615793Y981013D01*
X615792Y981031D01*
X615794Y981048D01*
X615778Y981189D01*
X615765Y981330D01*
X615760Y981346D01*
X615758Y981364D01*
X615707Y981496D01*
X615660Y981630D01*
X615650Y981644D01*
X615644Y981661D01*
X615562Y981776D01*
X615483Y981894D01*
X615470Y981906D01*
X615460Y981920D01*
X615351Y982012D01*
X615246Y982106D01*
X615230Y982114D01*
X615217Y982126D01*
X615089Y982187D01*
X614963Y982252D01*
X614940Y982259D01*
X614931Y982264D01*
X614912Y982268D01*
X614809Y982298D01*
X601797Y985288D01*
X601778Y985290D01*
X601726Y985302D01*
X564708Y991613D01*
X564686Y991614D01*
X564612Y991625D01*
X527222Y995110D01*
X527204Y995109D01*
X527185Y995113D01*
X527174Y995112D01*
X527150Y995115D01*
X513808Y995595D01*
X513666Y995582D01*
X513525Y995573D01*
X513508Y995568D01*
X513491Y995567D01*
X513357Y995519D01*
X513223Y995475D01*
X513208Y995466D01*
X513191Y995460D01*
X513074Y995381D01*
X512954Y995305D01*
X512942Y995292D01*
X512927Y995283D01*
X512833Y995177D01*
X512736Y995074D01*
X512727Y995058D01*
X512716Y995045D01*
X512651Y994919D01*
X512582Y994795D01*
X512578Y994778D01*
X512570Y994763D01*
X512538Y994625D01*
X512503Y994487D01*
X512501Y994463D01*
X512499Y994453D01*
X512500Y994433D01*
X512493Y994327D01*
X512493Y947060D01*
X510004Y941893D01*
X505520Y938316D01*
X499928Y937040D01*
X494336Y938316D01*
X489852Y941893D01*
X487363Y947060D01*
X487363Y994327D01*
X487346Y994467D01*
X487332Y994608D01*
X487326Y994625D01*
X487323Y994642D01*
X487271Y994774D01*
X487223Y994907D01*
X487213Y994921D01*
X487206Y994938D01*
X487123Y995052D01*
X487043Y995169D01*
X487030Y995181D01*
X487020Y995195D01*
X486910Y995286D01*
X486804Y995379D01*
X486788Y995387D01*
X486775Y995398D01*
X486646Y995458D01*
X486520Y995522D01*
X486503Y995526D01*
X486487Y995533D01*
X486348Y995560D01*
X486209Y995591D01*
X486185Y995591D01*
X486175Y995593D01*
X486155Y995592D01*
X486048Y995595D01*
X472706Y995115D01*
X472687Y995112D01*
X472633Y995110D01*
X435243Y991625D01*
X435222Y991621D01*
X435148Y991613D01*
X398129Y985302D01*
X398111Y985296D01*
X398058Y985288D01*
X385046Y982298D01*
X384913Y982250D01*
X384779Y982205D01*
X384764Y982195D01*
X384747Y982189D01*
X384631Y982109D01*
X384512Y982032D01*
X384500Y982019D01*
X384485Y982009D01*
X384392Y981902D01*
X384296Y981798D01*
X384288Y981782D01*
X384276Y981769D01*
X384212Y981642D01*
X384146Y981518D01*
X384142Y981501D01*
X384134Y981485D01*
X384103Y981346D01*
X384070Y981209D01*
X384070Y981191D01*
X384066Y981174D01*
X384071Y981032D01*
X384072Y980891D01*
X384077Y980867D01*
X384078Y980856D01*
X384083Y980838D01*
X384104Y980733D01*
X395024Y939980D01*
X395596Y937846D01*
X395664Y937595D01*
X396168Y935712D01*
X396338Y935076D01*
X395272Y929440D01*
X391866Y924825D01*
X386795Y922145D01*
X381063Y921931D01*
X375806Y924224D01*
X372065Y928572D01*
X371895Y929208D01*
X371218Y931732D01*
X370751Y933476D01*
X359832Y974229D01*
X359778Y974360D01*
X359728Y974493D01*
X359718Y974507D01*
X359711Y974523D01*
X359627Y974637D01*
X359546Y974753D01*
X359532Y974765D01*
X359522Y974779D01*
X359412Y974868D01*
X359304Y974960D01*
X359288Y974968D01*
X359275Y974979D01*
X359146Y975038D01*
X359019Y975100D01*
X359002Y975104D01*
X358986Y975111D01*
X358846Y975137D01*
X358708Y975166D01*
X358690Y975165D01*
X358673Y975168D01*
X358532Y975158D01*
X358390Y975151D01*
X358366Y975146D01*
X358356Y975145D01*
X358337Y975139D01*
X358233Y975114D01*
X345469Y971196D01*
X345452Y971189D01*
X345401Y971173D01*
X310187Y958130D01*
X310167Y958120D01*
X310098Y958093D01*
X275974Y942416D01*
X275958Y942406D01*
X275909Y942384D01*
X264114Y936128D01*
X263998Y936047D01*
X263880Y935969D01*
X263868Y935956D01*
X263854Y935945D01*
X263762Y935838D01*
X263667Y935732D01*
X263659Y935717D01*
X263647Y935704D01*
X263585Y935576D01*
X263519Y935451D01*
X263515Y935434D01*
X263508Y935418D01*
X263479Y935279D01*
X263446Y935141D01*
X263447Y935124D01*
X263443Y935106D01*
X263450Y934964D01*
X263453Y934823D01*
X263457Y934806D01*
X263458Y934789D01*
X263500Y934653D01*
X263538Y934517D01*
X263549Y934495D01*
X263552Y934485D01*
X263562Y934468D01*
X263609Y934373D01*
X286362Y894963D01*
X287243Y893438D01*
X287672Y887718D01*
X285576Y882379D01*
X284055Y880967D01*
X281372Y878478D01*
X275891Y876787D01*
X270220Y877642D01*
X265481Y880873D01*
X265152Y881443D01*
X265151Y881444D01*
X263515Y884277D01*
X262942Y885270D01*
X241847Y921808D01*
X241762Y921920D01*
X241679Y922036D01*
X241665Y922047D01*
X241655Y922061D01*
X241544Y922149D01*
X241435Y922240D01*
X241419Y922248D01*
X241406Y922259D01*
X241276Y922317D01*
X241148Y922378D01*
X241131Y922381D01*
X241115Y922388D01*
X240975Y922412D01*
X240836Y922439D01*
X240819Y922438D01*
X240802Y922441D01*
X240660Y922429D01*
X240519Y922422D01*
X240502Y922416D01*
X240485Y922415D01*
X240350Y922368D01*
X240216Y922325D01*
X240195Y922314D01*
X240184Y922310D01*
X240168Y922300D01*
X240074Y922249D01*
X228759Y915161D01*
X228744Y915149D01*
X228699Y915121D01*
X198060Y893408D01*
X198044Y893393D01*
X197984Y893349D01*
X169081Y869375D01*
X169068Y869360D01*
X169027Y869327D01*
X167896Y868275D01*
X166532Y867006D01*
X166532Y867005D01*
X165168Y865736D01*
X162440Y863198D01*
X159712Y860659D01*
X159252Y860232D01*
X159162Y860123D01*
X159068Y860017D01*
X159060Y860001D01*
X159048Y859988D01*
X158988Y859860D01*
X158923Y859733D01*
X158919Y859716D01*
X158912Y859700D01*
X158884Y859561D01*
X158853Y859423D01*
X158854Y859406D01*
X158851Y859388D01*
X158859Y859247D01*
X158863Y859105D01*
X158868Y859088D01*
X158869Y859071D01*
X158912Y858936D01*
X158951Y858800D01*
X158960Y858785D01*
X158966Y858768D01*
X159041Y858648D01*
X159113Y858526D01*
X159129Y858508D01*
X159135Y858499D01*
X159149Y858485D01*
X159219Y858405D01*
X189052Y828572D01*
X192642Y824982D01*
X194536Y819568D01*
X193894Y813869D01*
X193633Y813452D01*
X193632Y813452D01*
X192835Y812183D01*
X192037Y810914D01*
X192037Y810913D01*
X191240Y809644D01*
X190843Y809012D01*
X185986Y805961D01*
X180287Y805319D01*
X174873Y807213D01*
X174407Y807679D01*
X173076Y809009D01*
X171283Y810803D01*
X141450Y840636D01*
X141339Y840723D01*
X141229Y840813D01*
X141213Y840821D01*
X141199Y840831D01*
X141069Y840888D01*
X140940Y840948D01*
X140923Y840951D01*
X140907Y840958D01*
X140767Y840980D01*
X140628Y841006D01*
X140610Y841005D01*
X140593Y841008D01*
X140452Y840994D01*
X140310Y840985D01*
X140294Y840979D01*
X140276Y840978D01*
X140143Y840930D01*
X140008Y840886D01*
X139993Y840876D01*
X139977Y840870D01*
X139859Y840790D01*
X139740Y840714D01*
X139723Y840698D01*
X139714Y840692D01*
X139701Y840677D01*
X139623Y840604D01*
X130528Y830829D01*
X130517Y830814D01*
X130481Y830775D01*
X106506Y801872D01*
X106494Y801854D01*
X106447Y801795D01*
X84735Y771157D01*
X84726Y771140D01*
X84703Y771109D01*
X84699Y771104D01*
X84698Y771101D01*
X84694Y771097D01*
X81014Y765221D01*
X81014Y765220D01*
X77607Y759782D01*
X77548Y759653D01*
X77484Y759526D01*
X77481Y759509D01*
X77473Y759493D01*
X77448Y759354D01*
X77418Y759215D01*
X77419Y759198D01*
X77416Y759181D01*
X77425Y759040D01*
X77431Y758898D01*
X77436Y758881D01*
X77437Y758863D01*
X77482Y758729D01*
X77523Y758593D01*
X77532Y758578D01*
X77537Y758561D01*
X77614Y758442D01*
X77687Y758321D01*
X77700Y758309D01*
X77709Y758294D01*
X77813Y758197D01*
X77914Y758098D01*
X77934Y758085D01*
X77942Y758077D01*
X77959Y758068D01*
X78048Y758009D01*
X114585Y736914D01*
X116498Y735809D01*
X118982Y734375D01*
X122213Y729636D01*
X123068Y723965D01*
X121377Y718484D01*
X117476Y714280D01*
X112137Y712184D01*
X106417Y712613D01*
X104333Y713816D01*
X104333Y713817D01*
X65483Y736246D01*
X65353Y736301D01*
X65224Y736359D01*
X65206Y736362D01*
X65190Y736369D01*
X65050Y736390D01*
X64911Y736414D01*
X64893Y736413D01*
X64876Y736415D01*
X64734Y736401D01*
X64593Y736390D01*
X64577Y736384D01*
X64559Y736382D01*
X64426Y736333D01*
X64292Y736287D01*
X64278Y736278D01*
X64261Y736272D01*
X64145Y736191D01*
X64026Y736113D01*
X64015Y736100D01*
X64000Y736090D01*
X63907Y735983D01*
X63812Y735878D01*
X63799Y735858D01*
X63792Y735850D01*
X63783Y735832D01*
X63728Y735741D01*
X57472Y723946D01*
X57465Y723928D01*
X57440Y723881D01*
X41763Y689758D01*
X41757Y689737D01*
X41726Y689669D01*
X28683Y654455D01*
X28678Y654436D01*
X28660Y654386D01*
X24742Y641623D01*
X24718Y641483D01*
X24690Y641344D01*
X24691Y641327D01*
X24688Y641309D01*
X24699Y641168D01*
X24706Y641027D01*
X24712Y641010D01*
X24713Y640992D01*
X24759Y640859D01*
X24801Y640723D01*
X24810Y640708D01*
X24816Y640692D01*
X24893Y640574D01*
X24968Y640453D01*
X24981Y640440D01*
X24991Y640426D01*
X25095Y640331D01*
X25198Y640232D01*
X25213Y640224D01*
X25226Y640212D01*
X25351Y640146D01*
X25475Y640076D01*
X25498Y640068D01*
X25507Y640063D01*
X25526Y640059D01*
X25627Y640024D01*
X70646Y627962D01*
X70647Y627961D01*
X71283Y627791D01*
X75631Y624050D01*
X77924Y618793D01*
X77710Y613061D01*
X75030Y607990D01*
X70415Y604584D01*
X64779Y603518D01*
X64143Y603688D01*
X19123Y615751D01*
X18983Y615770D01*
X18843Y615793D01*
X18825Y615792D01*
X18808Y615794D01*
X18667Y615778D01*
X18526Y615765D01*
X18510Y615760D01*
X18492Y615758D01*
X18360Y615707D01*
X18226Y615660D01*
X18211Y615650D01*
X18195Y615644D01*
X18080Y615562D01*
X17962Y615483D01*
X17950Y615470D01*
X17936Y615460D01*
X17844Y615351D01*
X17750Y615246D01*
X17742Y615230D01*
X17730Y615217D01*
X17669Y615089D01*
X17603Y614963D01*
X17597Y614940D01*
X17592Y614930D01*
X17588Y614912D01*
X17558Y614809D01*
X14568Y601797D01*
X14566Y601778D01*
X14554Y601726D01*
X8243Y564708D01*
X8242Y564686D01*
X8230Y564612D01*
X4745Y527222D01*
X4746Y527203D01*
X4740Y527150D01*
X4260Y513808D01*
X4273Y513666D01*
X4282Y513525D01*
X4287Y513508D01*
X4289Y513491D01*
X4336Y513357D01*
X4380Y513223D01*
X4389Y513208D01*
X4395Y513191D01*
X4474Y513074D01*
X4550Y512954D01*
X4563Y512942D01*
X4572Y512927D01*
X4678Y512833D01*
X4781Y512736D01*
X4797Y512727D01*
X4810Y512716D01*
X4936Y512651D01*
X5060Y512582D01*
X5077Y512578D01*
X5092Y512570D01*
X5231Y512538D01*
X5368Y512503D01*
X5392Y512501D01*
X5402Y512499D01*
X5422Y512500D01*
X5528Y512493D01*
X52796Y512493D01*
X57963Y510004D01*
X61540Y505520D01*
X62816Y499928D01*
X61540Y494336D01*
X57963Y489852D01*
X52796Y487363D01*
X5528Y487363D01*
X5388Y487346D01*
X5247Y487332D01*
X5230Y487326D01*
X5213Y487323D01*
X5081Y487271D01*
X4948Y487223D01*
X4934Y487213D01*
X4917Y487206D01*
X4803Y487123D01*
X4686Y487043D01*
X4674Y487030D01*
X4660Y487020D01*
X4569Y486910D01*
X4476Y486804D01*
X4468Y486788D01*
X4457Y486775D01*
X4397Y486646D01*
X4333Y486520D01*
X4329Y486503D01*
X4322Y486487D01*
X4295Y486348D01*
X4264Y486209D01*
X4264Y486185D01*
X4262Y486175D01*
X4263Y486155D01*
X4260Y486048D01*
X4740Y472706D01*
X4744Y472687D01*
X4745Y472633D01*
X8230Y435243D01*
X8235Y435222D01*
X8243Y435148D01*
X14554Y398129D01*
X14559Y398111D01*
X14568Y398058D01*
X17558Y385046D01*
X17606Y384913D01*
X17651Y384779D01*
X17661Y384764D01*
X17667Y384747D01*
X17748Y384630D01*
X17824Y384512D01*
X17837Y384500D01*
X17847Y384485D01*
X17954Y384392D01*
X18058Y384296D01*
X18074Y384288D01*
X18087Y384276D01*
X18214Y384213D01*
X18338Y384146D01*
X18355Y384142D01*
X18371Y384134D01*
X18510Y384103D01*
X18647Y384070D01*
X18665Y384070D01*
X18682Y384066D01*
X18824Y384071D01*
X18965Y384072D01*
X18989Y384077D01*
X19000Y384078D01*
X19018Y384083D01*
X19123Y384104D01*
X59875Y395024D01*
X59875Y395025D01*
X62009Y395596D01*
X62456Y395716D01*
X64142Y396168D01*
X64143Y396168D01*
X65261Y396468D01*
X71765Y394725D01*
X76526Y389964D01*
X78269Y383460D01*
X76526Y376955D01*
X71765Y372194D01*
X70647Y371895D01*
X25627Y359832D01*
X25496Y359778D01*
X25363Y359728D01*
X25349Y359718D01*
X25333Y359711D01*
X25219Y359627D01*
X25103Y359546D01*
X25091Y359532D01*
X25077Y359522D01*
X24988Y359412D01*
X24896Y359304D01*
X24888Y359288D01*
X24877Y359275D01*
X24818Y359146D01*
X24756Y359019D01*
X24752Y359002D01*
X24745Y358986D01*
X24720Y358846D01*
X24690Y358708D01*
X24691Y358690D01*
X24688Y358673D01*
X24698Y358531D01*
X24705Y358390D01*
X24710Y358366D01*
X24711Y358356D01*
X24717Y358337D01*
X24742Y358233D01*
X28660Y345469D01*
X28667Y345452D01*
X28683Y345401D01*
X41726Y310187D01*
X41736Y310167D01*
X41763Y310098D01*
X57440Y275974D01*
X57450Y275958D01*
X57472Y275909D01*
X63728Y264114D01*
X63809Y263999D01*
X63887Y263880D01*
X63900Y263868D01*
X63911Y263854D01*
X64018Y263762D01*
X64124Y263667D01*
X64139Y263659D01*
X64152Y263647D01*
X64280Y263585D01*
X64405Y263519D01*
X64422Y263515D01*
X64438Y263508D01*
X64577Y263479D01*
X64715Y263446D01*
X64732Y263447D01*
X64750Y263443D01*
X64891Y263450D01*
X65033Y263453D01*
X65050Y263457D01*
X65067Y263458D01*
X65203Y263500D01*
X65339Y263538D01*
X65361Y263549D01*
X65371Y263552D01*
X65388Y263562D01*
X65483Y263609D01*
X102020Y284704D01*
X103934Y285809D01*
X106417Y287243D01*
X112137Y287672D01*
X117476Y285576D01*
X121377Y281372D01*
X123068Y275891D01*
X122213Y270220D01*
X118982Y265481D01*
X116499Y264047D01*
X116498Y264047D01*
X114585Y262942D01*
X78048Y241847D01*
X77935Y241761D01*
X77820Y241679D01*
X77809Y241666D01*
X77795Y241655D01*
X77706Y241543D01*
X77616Y241435D01*
X77608Y241419D01*
X77597Y241406D01*
X77540Y241276D01*
X77478Y241148D01*
X77475Y241131D01*
X77468Y241115D01*
X77444Y240975D01*
X77417Y240836D01*
X77418Y240819D01*
X77415Y240802D01*
X77426Y240660D01*
X77434Y240519D01*
X77440Y240502D01*
X77441Y240485D01*
X77488Y240350D01*
X77530Y240216D01*
X77542Y240195D01*
X77545Y240184D01*
X77556Y240168D01*
X77607Y240074D01*
X84694Y228759D01*
X84707Y228744D01*
X84735Y228699D01*
X106447Y198061D01*
X106462Y198045D01*
X106506Y197984D01*
X130481Y169081D01*
X130495Y169068D01*
X130528Y169027D01*
X139623Y159252D01*
X139732Y159161D01*
X139838Y159068D01*
X139854Y159060D01*
X139867Y159048D01*
X139995Y158987D01*
X140122Y158923D01*
X140139Y158919D01*
X140155Y158912D01*
X140294Y158884D01*
X140432Y158853D01*
X140449Y158854D01*
X140467Y158851D01*
X140608Y158859D01*
X140750Y158863D01*
X140767Y158868D01*
X140784Y158869D01*
X140919Y158912D01*
X141055Y158952D01*
X141070Y158960D01*
X141087Y158966D01*
X141207Y159041D01*
X141329Y159113D01*
X141347Y159129D01*
X141356Y159135D01*
X141370Y159149D01*
X141450Y159219D01*
X172845Y190614D01*
X173422Y191192D01*
X174407Y192176D01*
X175225Y192995D01*
X181730Y194738D01*
X188234Y192995D01*
X192995Y188234D01*
X194738Y181730D01*
X192995Y175225D01*
X159219Y141450D01*
X159132Y141338D01*
X159043Y141229D01*
X159035Y141213D01*
X159025Y141199D01*
X158968Y141069D01*
X158908Y140940D01*
X158905Y140923D01*
X158898Y140907D01*
X158876Y140767D01*
X158850Y140628D01*
X158851Y140610D01*
X158848Y140593D01*
X158862Y140452D01*
X158871Y140310D01*
X158876Y140294D01*
X158878Y140276D01*
X158926Y140143D01*
X158970Y140008D01*
X158980Y139993D01*
X158986Y139977D01*
X159065Y139859D01*
X159142Y139740D01*
X159158Y139723D01*
X159164Y139714D01*
X159179Y139701D01*
X159252Y139623D01*
X169027Y130528D01*
X169042Y130517D01*
X169081Y130481D01*
X197984Y106506D01*
X198002Y106494D01*
X198061Y106447D01*
X228699Y84735D01*
X228716Y84725D01*
X228759Y84694D01*
X240074Y77607D01*
X240203Y77548D01*
X240330Y77484D01*
X240347Y77481D01*
X240363Y77473D01*
X240502Y77448D01*
X240641Y77418D01*
X240658Y77419D01*
X240675Y77416D01*
X240816Y77425D01*
X240958Y77431D01*
X240975Y77436D01*
X240993Y77437D01*
X241127Y77482D01*
X241263Y77523D01*
X241278Y77532D01*
X241295Y77537D01*
X241414Y77614D01*
X241535Y77687D01*
X241547Y77700D01*
X241562Y77709D01*
X241659Y77813D01*
X241758Y77914D01*
X241771Y77934D01*
X241779Y77942D01*
X241788Y77959D01*
X241847Y78048D01*
X262942Y114585D01*
X264047Y116498D01*
X265481Y118982D01*
X270220Y122213D01*
X275891Y123068D01*
X281372Y121377D01*
X285576Y117476D01*
X287672Y112137D01*
X287243Y106417D01*
X285809Y103934D01*
X285809Y103933D01*
X284705Y102021D01*
X284704Y102020D01*
X263609Y65483D01*
X263555Y65353D01*
X263496Y65224D01*
X263493Y65206D01*
X263486Y65190D01*
X263465Y65050D01*
X263441Y64911D01*
X263442Y64893D01*
X263440Y64876D01*
X263454Y64734D01*
X263465Y64593D01*
X263471Y64577D01*
X263473Y64559D01*
X263522Y64426D01*
X263568Y64292D01*
X263577Y64278D01*
X263584Y64261D01*
X263664Y64145D01*
X263742Y64026D01*
X263755Y64014D01*
X263765Y64000D01*
X263872Y63908D01*
X263977Y63812D01*
X263998Y63799D01*
X264006Y63792D01*
X264023Y63784D01*
X264114Y63728D01*
X275909Y57472D01*
X275927Y57465D01*
X275974Y57440D01*
X310098Y41763D01*
X310118Y41756D01*
X310187Y41726D01*
X345401Y28683D01*
X345420Y28678D01*
X345469Y28660D01*
X358233Y24742D01*
X358373Y24718D01*
X358512Y24690D01*
X358529Y24691D01*
X358547Y24688D01*
X358688Y24699D01*
X358829Y24706D01*
X358846Y24712D01*
X358864Y24713D01*
X358997Y24759D01*
X359133Y24801D01*
X359148Y24810D01*
X359164Y24816D01*
X359282Y24894D01*
X359403Y24968D01*
X359416Y24981D01*
X359430Y24991D01*
X359526Y25096D01*
X359624Y25198D01*
X359632Y25213D01*
X359644Y25226D01*
X359710Y25351D01*
X359780Y25475D01*
X359788Y25498D01*
X359793Y25507D01*
X359797Y25526D01*
X359832Y25627D01*
X371894Y70647D01*
X371895Y70647D01*
X372194Y71765D01*
X376955Y76526D01*
X383460Y78269D01*
X389964Y76526D01*
X394725Y71765D01*
X396468Y65261D01*
X396168Y64143D01*
X395643Y62183D01*
X395596Y62009D01*
X395025Y59876D01*
X395024Y59875D01*
X384104Y19123D01*
X384085Y18983D01*
X384062Y18843D01*
X384063Y18825D01*
X384061Y18808D01*
X384077Y18667D01*
X384090Y18526D01*
X384095Y18509D01*
X384097Y18492D01*
X384148Y18360D01*
X384195Y18226D01*
X384205Y18211D01*
X384211Y18195D01*
X384293Y18080D01*
X384372Y17962D01*
X384385Y17950D01*
X384396Y17936D01*
X384504Y17844D01*
X384609Y17750D01*
X384625Y17742D01*
X384638Y17730D01*
X384766Y17669D01*
X384892Y17603D01*
X384915Y17597D01*
X384925Y17592D01*
X384944Y17588D01*
X385046Y17558D01*
X398058Y14568D01*
X398078Y14566D01*
X398129Y14554D01*
X435148Y8243D01*
X435169Y8242D01*
X435243Y8230D01*
X472633Y4745D01*
X472652Y4746D01*
X472671Y4742D01*
X472681Y4743D01*
X472706Y4740D01*
X486048Y4260D01*
X486190Y4273D01*
X486331Y4282D01*
X486348Y4287D01*
X486365Y4289D01*
X486499Y4336D01*
X486633Y4380D01*
X486648Y4389D01*
X486665Y4395D01*
X486782Y4474D01*
X486902Y4550D01*
X486914Y4563D01*
X486929Y4572D01*
X487023Y4678D01*
X487120Y4781D01*
X487129Y4797D01*
X487140Y4810D01*
X487205Y4936D01*
X487274Y5060D01*
X487278Y5077D01*
X487286Y5092D01*
X487318Y5231D01*
X487353Y5368D01*
X487355Y5392D01*
X487357Y5402D01*
X487356Y5422D01*
X487363Y5528D01*
X487363Y52796D01*
X489852Y57963D01*
X494336Y61540D01*
X499928Y62816D01*
X505520Y61540D01*
X510004Y57963D01*
X512493Y52796D01*
X512493Y5528D01*
X512510Y5388D01*
X512524Y5247D01*
X512530Y5230D01*
X512533Y5213D01*
X512585Y5081D01*
X512633Y4948D01*
X512643Y4934D01*
X512650Y4917D01*
X512733Y4803D01*
X512813Y4686D01*
X512826Y4674D01*
X512836Y4660D01*
X512946Y4569D01*
X513052Y4476D01*
X513068Y4468D01*
X513081Y4457D01*
X513209Y4397D01*
X513336Y4333D01*
X513353Y4329D01*
X513369Y4322D01*
X513508Y4295D01*
X513647Y4264D01*
X513671Y4264D01*
X513681Y4262D01*
X513701Y4263D01*
X513808Y4260D01*
X527150Y4740D01*
G37*
%LPC*%
G36*
X424571Y400935D02*
X424571Y400935D01*
X420364Y403364D01*
X417935Y407571D01*
X417935Y415194D01*
X417918Y415332D01*
X417905Y415470D01*
X417898Y415489D01*
X417895Y415509D01*
X417844Y415639D01*
X417797Y415770D01*
X417786Y415786D01*
X417778Y415805D01*
X417697Y415917D01*
X417619Y416033D01*
X417603Y416046D01*
X417592Y416062D01*
X417484Y416151D01*
X417380Y416243D01*
X417362Y416252D01*
X417347Y416265D01*
X417221Y416325D01*
X417097Y416388D01*
X417077Y416392D01*
X417059Y416401D01*
X416922Y416427D01*
X416787Y416457D01*
X416766Y416457D01*
X416747Y416461D01*
X416608Y416452D01*
X416469Y416448D01*
X416449Y416442D01*
X416429Y416441D01*
X416297Y416398D01*
X416163Y416359D01*
X416146Y416349D01*
X416127Y416343D01*
X416009Y416269D01*
X415889Y416198D01*
X415868Y416179D01*
X415858Y416173D01*
X415844Y416158D01*
X415769Y416091D01*
X414979Y415301D01*
X411294Y413775D01*
X407306Y413775D01*
X403621Y415301D01*
X400801Y418121D01*
X399275Y421806D01*
X399275Y425794D01*
X400844Y429580D01*
X400857Y429628D01*
X400878Y429673D01*
X400898Y429781D01*
X400928Y429887D01*
X400928Y429937D01*
X400938Y429986D01*
X400931Y430095D01*
X400933Y430205D01*
X400921Y430253D01*
X400918Y430303D01*
X400884Y430407D01*
X400858Y430514D01*
X400835Y430558D01*
X400820Y430605D01*
X400761Y430698D01*
X400710Y430795D01*
X400676Y430832D01*
X400650Y430874D01*
X400570Y430949D01*
X400496Y431031D01*
X400454Y431058D01*
X400418Y431092D01*
X400322Y431145D01*
X400230Y431205D01*
X400183Y431222D01*
X400140Y431246D01*
X400033Y431273D01*
X399929Y431309D01*
X399880Y431313D01*
X399832Y431325D01*
X399671Y431335D01*
X393529Y431335D01*
X393480Y431329D01*
X393430Y431331D01*
X393323Y431309D01*
X393214Y431295D01*
X393167Y431277D01*
X393119Y431267D01*
X393020Y431219D01*
X392918Y431178D01*
X392878Y431149D01*
X392833Y431127D01*
X392749Y431056D01*
X392660Y430992D01*
X392629Y430953D01*
X392591Y430921D01*
X392528Y430831D01*
X392458Y430747D01*
X392437Y430702D01*
X392408Y430661D01*
X392369Y430558D01*
X392322Y430459D01*
X392313Y430410D01*
X392295Y430364D01*
X392283Y430254D01*
X392262Y430147D01*
X392265Y430097D01*
X392260Y430048D01*
X392275Y429939D01*
X392282Y429829D01*
X392297Y429782D01*
X392304Y429733D01*
X392356Y429580D01*
X393925Y425794D01*
X393925Y421806D01*
X392399Y418121D01*
X389579Y415301D01*
X385894Y413775D01*
X381906Y413775D01*
X378221Y415301D01*
X375401Y418121D01*
X373875Y421806D01*
X373875Y425794D01*
X375444Y429580D01*
X375457Y429628D01*
X375478Y429673D01*
X375498Y429781D01*
X375528Y429887D01*
X375528Y429937D01*
X375538Y429986D01*
X375531Y430095D01*
X375533Y430205D01*
X375521Y430253D01*
X375518Y430303D01*
X375484Y430407D01*
X375458Y430514D01*
X375435Y430558D01*
X375420Y430605D01*
X375361Y430698D01*
X375310Y430795D01*
X375276Y430832D01*
X375250Y430874D01*
X375170Y430949D01*
X375096Y431031D01*
X375054Y431058D01*
X375018Y431092D01*
X374922Y431145D01*
X374830Y431205D01*
X374783Y431222D01*
X374740Y431246D01*
X374633Y431273D01*
X374529Y431309D01*
X374480Y431313D01*
X374432Y431325D01*
X374271Y431335D01*
X368129Y431335D01*
X368080Y431329D01*
X368030Y431331D01*
X367923Y431309D01*
X367814Y431295D01*
X367767Y431277D01*
X367719Y431267D01*
X367620Y431219D01*
X367518Y431178D01*
X367478Y431149D01*
X367433Y431127D01*
X367349Y431056D01*
X367260Y430992D01*
X367229Y430953D01*
X367191Y430921D01*
X367128Y430831D01*
X367058Y430747D01*
X367037Y430702D01*
X367008Y430661D01*
X366969Y430558D01*
X366922Y430459D01*
X366913Y430410D01*
X366895Y430364D01*
X366883Y430254D01*
X366862Y430147D01*
X366865Y430097D01*
X366860Y430048D01*
X366875Y429939D01*
X366882Y429829D01*
X366897Y429782D01*
X366904Y429733D01*
X366956Y429580D01*
X368525Y425794D01*
X368525Y421806D01*
X366999Y418121D01*
X364179Y415301D01*
X360494Y413775D01*
X356506Y413775D01*
X352821Y415301D01*
X350001Y418121D01*
X348475Y421806D01*
X348475Y425794D01*
X350001Y429479D01*
X352821Y432299D01*
X356506Y433825D01*
X359931Y433825D01*
X360062Y433841D01*
X360194Y433852D01*
X360219Y433861D01*
X360246Y433865D01*
X360369Y433913D01*
X360494Y433957D01*
X360517Y433972D01*
X360542Y433982D01*
X360649Y434059D01*
X360759Y434133D01*
X360777Y434153D01*
X360799Y434168D01*
X360884Y434271D01*
X360972Y434369D01*
X360985Y434393D01*
X361002Y434413D01*
X361059Y434533D01*
X361120Y434650D01*
X361126Y434677D01*
X361138Y434701D01*
X361163Y434831D01*
X361193Y434960D01*
X361192Y434987D01*
X361197Y435013D01*
X361189Y435146D01*
X361187Y435278D01*
X361179Y435304D01*
X361178Y435331D01*
X361137Y435457D01*
X361101Y435584D01*
X361084Y435619D01*
X361080Y435633D01*
X361068Y435652D01*
X361030Y435729D01*
X359735Y437971D01*
X359735Y562029D01*
X360829Y563924D01*
X360865Y564009D01*
X360910Y564090D01*
X360926Y564155D01*
X360952Y564217D01*
X360966Y564308D01*
X360989Y564398D01*
X360996Y564515D01*
X360999Y564531D01*
X360998Y564540D01*
X360999Y564558D01*
X360999Y573701D01*
X369282Y573701D01*
X369269Y573615D01*
X368732Y571962D01*
X367992Y570510D01*
X367959Y570417D01*
X367916Y570327D01*
X367905Y570268D01*
X367884Y570211D01*
X367875Y570112D01*
X367856Y570014D01*
X367860Y569954D01*
X367855Y569894D01*
X367870Y569796D01*
X367876Y569697D01*
X367895Y569640D01*
X367904Y569580D01*
X367944Y569489D01*
X367974Y569395D01*
X368006Y569344D01*
X368030Y569288D01*
X368091Y569210D01*
X368144Y569126D01*
X368188Y569085D01*
X368225Y569037D01*
X368304Y568976D01*
X368376Y568908D01*
X368429Y568879D01*
X368476Y568842D01*
X368568Y568802D01*
X368655Y568754D01*
X368713Y568739D01*
X368768Y568715D01*
X368866Y568700D01*
X368962Y568675D01*
X369062Y568669D01*
X369082Y568665D01*
X369095Y568667D01*
X369123Y568665D01*
X374271Y568665D01*
X374320Y568671D01*
X374370Y568669D01*
X374477Y568691D01*
X374586Y568705D01*
X374633Y568723D01*
X374681Y568733D01*
X374780Y568781D01*
X374882Y568822D01*
X374922Y568851D01*
X374967Y568873D01*
X375051Y568944D01*
X375140Y569008D01*
X375171Y569047D01*
X375209Y569079D01*
X375272Y569169D01*
X375342Y569253D01*
X375363Y569298D01*
X375392Y569339D01*
X375431Y569442D01*
X375478Y569541D01*
X375487Y569590D01*
X375505Y569636D01*
X375517Y569746D01*
X375538Y569853D01*
X375535Y569903D01*
X375540Y569952D01*
X375525Y570061D01*
X375518Y570171D01*
X375503Y570218D01*
X375496Y570267D01*
X375444Y570420D01*
X373875Y574206D01*
X373875Y578194D01*
X375401Y581879D01*
X378221Y584699D01*
X381906Y586225D01*
X385894Y586225D01*
X389579Y584699D01*
X392399Y581879D01*
X393925Y578194D01*
X393925Y574206D01*
X392356Y570420D01*
X392343Y570372D01*
X392322Y570327D01*
X392302Y570219D01*
X392272Y570113D01*
X392272Y570063D01*
X392262Y570014D01*
X392269Y569905D01*
X392267Y569795D01*
X392279Y569747D01*
X392282Y569697D01*
X392316Y569593D01*
X392342Y569486D01*
X392365Y569442D01*
X392380Y569395D01*
X392439Y569302D01*
X392490Y569205D01*
X392524Y569168D01*
X392550Y569126D01*
X392630Y569051D01*
X392704Y568969D01*
X392746Y568942D01*
X392782Y568908D01*
X392878Y568855D01*
X392970Y568795D01*
X393017Y568778D01*
X393060Y568754D01*
X393167Y568727D01*
X393271Y568691D01*
X393320Y568687D01*
X393368Y568675D01*
X393529Y568665D01*
X399671Y568665D01*
X399720Y568671D01*
X399770Y568669D01*
X399877Y568691D01*
X399986Y568705D01*
X400033Y568723D01*
X400081Y568733D01*
X400180Y568781D01*
X400282Y568822D01*
X400322Y568851D01*
X400367Y568873D01*
X400451Y568944D01*
X400540Y569008D01*
X400571Y569047D01*
X400609Y569079D01*
X400672Y569169D01*
X400742Y569253D01*
X400763Y569298D01*
X400792Y569339D01*
X400831Y569442D01*
X400878Y569541D01*
X400887Y569590D01*
X400905Y569636D01*
X400917Y569746D01*
X400938Y569853D01*
X400935Y569903D01*
X400940Y569952D01*
X400925Y570061D01*
X400918Y570171D01*
X400903Y570218D01*
X400896Y570267D01*
X400844Y570420D01*
X399275Y574206D01*
X399275Y578194D01*
X400801Y581879D01*
X403621Y584699D01*
X407306Y586225D01*
X411294Y586225D01*
X414979Y584699D01*
X415769Y583909D01*
X415878Y583824D01*
X415985Y583735D01*
X416004Y583726D01*
X416020Y583714D01*
X416147Y583658D01*
X416273Y583599D01*
X416293Y583595D01*
X416312Y583587D01*
X416450Y583565D01*
X416586Y583539D01*
X416606Y583541D01*
X416626Y583537D01*
X416765Y583551D01*
X416903Y583559D01*
X416922Y583565D01*
X416942Y583567D01*
X417074Y583614D01*
X417205Y583657D01*
X417223Y583668D01*
X417242Y583675D01*
X417357Y583753D01*
X417474Y583827D01*
X417488Y583842D01*
X417505Y583853D01*
X417597Y583957D01*
X417692Y584059D01*
X417702Y584077D01*
X417715Y584092D01*
X417778Y584216D01*
X417846Y584337D01*
X417851Y584357D01*
X417860Y584375D01*
X417890Y584511D01*
X417925Y584645D01*
X417927Y584673D01*
X417930Y584685D01*
X417929Y584706D01*
X417935Y584806D01*
X417935Y592429D01*
X420364Y596636D01*
X424571Y599065D01*
X437429Y599065D01*
X441636Y596636D01*
X444065Y592429D01*
X444065Y407571D01*
X441636Y403364D01*
X437429Y400935D01*
X424571Y400935D01*
G37*
%LPD*%
%LPC*%
G36*
X290158Y469265D02*
X290158Y469265D01*
X289265Y470158D01*
X289265Y529842D01*
X290158Y530735D01*
X349842Y530735D01*
X350735Y529842D01*
X350735Y470158D01*
X349842Y469265D01*
X290158Y469265D01*
G37*
%LPD*%
%LPC*%
G36*
X495954Y469265D02*
X495954Y469265D01*
X488137Y471360D01*
X481128Y475406D01*
X475406Y481128D01*
X471360Y488137D01*
X469265Y495954D01*
X469265Y504046D01*
X471360Y511863D01*
X475406Y518872D01*
X481128Y524594D01*
X488137Y528640D01*
X495954Y530735D01*
X504046Y530735D01*
X511863Y528640D01*
X518872Y524594D01*
X524594Y518872D01*
X528640Y511863D01*
X530735Y504046D01*
X530735Y495954D01*
X528640Y488137D01*
X524594Y481128D01*
X518872Y475406D01*
X511863Y471360D01*
X504046Y469265D01*
X495954Y469265D01*
G37*
%LPD*%
%LPC*%
G36*
X236890Y467588D02*
X236890Y467588D01*
X233206Y469114D01*
X230386Y471935D01*
X228860Y475619D01*
X228860Y479607D01*
X228993Y479929D01*
X229001Y479958D01*
X229014Y479984D01*
X229043Y480111D01*
X229077Y480236D01*
X229078Y480266D01*
X229084Y480294D01*
X229080Y480424D01*
X229082Y480554D01*
X229075Y480583D01*
X229074Y480612D01*
X229038Y480737D01*
X229008Y480863D01*
X228994Y480890D01*
X228986Y480918D01*
X228920Y481029D01*
X228859Y481145D01*
X228839Y481166D01*
X228824Y481192D01*
X228718Y481313D01*
X212927Y497103D01*
X212927Y554394D01*
X230606Y572073D01*
X254394Y572073D01*
X257444Y569022D01*
X270958Y555509D01*
X270966Y555503D01*
X270971Y555496D01*
X271091Y555406D01*
X271210Y555314D01*
X271218Y555310D01*
X271225Y555304D01*
X271370Y555233D01*
X273246Y554457D01*
X276066Y551637D01*
X277592Y547952D01*
X277592Y543964D01*
X276066Y540279D01*
X273246Y537459D01*
X269561Y535933D01*
X265573Y535933D01*
X261888Y537459D01*
X259068Y540279D01*
X257542Y543964D01*
X257542Y547952D01*
X259068Y551637D01*
X259585Y552153D01*
X259658Y552247D01*
X259737Y552336D01*
X259755Y552372D01*
X259780Y552404D01*
X259827Y552514D01*
X259881Y552620D01*
X259890Y552659D01*
X259906Y552696D01*
X259925Y552814D01*
X259951Y552930D01*
X259950Y552970D01*
X259956Y553010D01*
X259945Y553129D01*
X259941Y553248D01*
X259930Y553287D01*
X259926Y553327D01*
X259886Y553439D01*
X259853Y553553D01*
X259832Y553588D01*
X259819Y553626D01*
X259752Y553725D01*
X259691Y553827D01*
X259652Y553873D01*
X259640Y553889D01*
X259625Y553903D01*
X259585Y553948D01*
X250978Y562556D01*
X250899Y562616D01*
X250827Y562684D01*
X250774Y562713D01*
X250726Y562750D01*
X250635Y562790D01*
X250549Y562838D01*
X250490Y562853D01*
X250435Y562877D01*
X250337Y562892D01*
X250241Y562917D01*
X250141Y562923D01*
X250120Y562927D01*
X250108Y562925D01*
X250080Y562927D01*
X234920Y562927D01*
X234822Y562915D01*
X234723Y562912D01*
X234664Y562895D01*
X234604Y562887D01*
X234512Y562851D01*
X234417Y562823D01*
X234365Y562793D01*
X234309Y562770D01*
X234229Y562712D01*
X234143Y562662D01*
X234068Y562596D01*
X234051Y562584D01*
X234043Y562574D01*
X234022Y562556D01*
X222444Y550978D01*
X222384Y550899D01*
X222316Y550827D01*
X222287Y550774D01*
X222250Y550726D01*
X222210Y550635D01*
X222162Y550549D01*
X222147Y550490D01*
X222123Y550435D01*
X222108Y550337D01*
X222083Y550241D01*
X222077Y550141D01*
X222073Y550120D01*
X222075Y550108D01*
X222073Y550080D01*
X222073Y501417D01*
X222085Y501319D01*
X222088Y501220D01*
X222105Y501162D01*
X222113Y501102D01*
X222149Y501010D01*
X222177Y500915D01*
X222207Y500862D01*
X222230Y500806D01*
X222288Y500726D01*
X222338Y500641D01*
X222404Y500565D01*
X222416Y500549D01*
X222426Y500541D01*
X222444Y500520D01*
X235185Y487779D01*
X235208Y487761D01*
X235227Y487739D01*
X235333Y487664D01*
X235436Y487584D01*
X235463Y487573D01*
X235487Y487556D01*
X235609Y487510D01*
X235728Y487458D01*
X235757Y487454D01*
X235785Y487443D01*
X235914Y487429D01*
X236042Y487408D01*
X236071Y487411D01*
X236101Y487408D01*
X236229Y487426D01*
X236359Y487438D01*
X236386Y487448D01*
X236416Y487452D01*
X236568Y487504D01*
X236890Y487638D01*
X240878Y487638D01*
X244563Y486112D01*
X247383Y483292D01*
X248909Y479607D01*
X248909Y475619D01*
X247383Y471935D01*
X244563Y469114D01*
X240878Y467588D01*
X236890Y467588D01*
G37*
%LPD*%
%LPC*%
G36*
X698696Y488443D02*
X698696Y488443D01*
X696286Y489441D01*
X694441Y491286D01*
X693443Y493696D01*
X693443Y496304D01*
X694441Y498714D01*
X696286Y500559D01*
X698696Y501557D01*
X701304Y501557D01*
X703714Y500559D01*
X705344Y498928D01*
X705422Y498868D01*
X705495Y498800D01*
X705548Y498771D01*
X705595Y498734D01*
X705686Y498694D01*
X705773Y498646D01*
X705832Y498631D01*
X705887Y498607D01*
X705985Y498592D01*
X706081Y498567D01*
X706181Y498561D01*
X706201Y498557D01*
X706214Y498559D01*
X706242Y498557D01*
X713001Y498557D01*
X713099Y498569D01*
X713198Y498572D01*
X713256Y498589D01*
X713317Y498597D01*
X713409Y498633D01*
X713504Y498661D01*
X713556Y498691D01*
X713612Y498714D01*
X713692Y498772D01*
X713778Y498822D01*
X713853Y498888D01*
X713870Y498900D01*
X713877Y498910D01*
X713899Y498928D01*
X718527Y503557D01*
X750501Y503557D01*
X750599Y503569D01*
X750698Y503572D01*
X750756Y503589D01*
X750817Y503597D01*
X750909Y503633D01*
X751004Y503661D01*
X751056Y503691D01*
X751112Y503714D01*
X751192Y503772D01*
X751278Y503822D01*
X751353Y503888D01*
X751370Y503900D01*
X751377Y503910D01*
X751399Y503928D01*
X756072Y508601D01*
X756132Y508680D01*
X756200Y508752D01*
X756229Y508805D01*
X756266Y508853D01*
X756306Y508944D01*
X756354Y509030D01*
X756369Y509089D01*
X756393Y509145D01*
X756408Y509243D01*
X756433Y509338D01*
X756439Y509438D01*
X756443Y509459D01*
X756441Y509471D01*
X756443Y509499D01*
X756443Y515065D01*
X756440Y515095D01*
X756442Y515124D01*
X756420Y515252D01*
X756403Y515381D01*
X756393Y515408D01*
X756388Y515437D01*
X756334Y515556D01*
X756286Y515676D01*
X756269Y515700D01*
X756257Y515727D01*
X756176Y515829D01*
X756100Y515934D01*
X756077Y515953D01*
X756058Y515976D01*
X755955Y516054D01*
X755855Y516137D01*
X755828Y516149D01*
X755804Y516167D01*
X755660Y516238D01*
X753591Y517095D01*
X750771Y519915D01*
X749245Y523599D01*
X749245Y527587D01*
X750771Y531272D01*
X753591Y534092D01*
X757276Y535618D01*
X761264Y535618D01*
X764949Y534092D01*
X767769Y531272D01*
X769295Y527587D01*
X769295Y523599D01*
X767769Y519915D01*
X764949Y517095D01*
X764340Y516843D01*
X764315Y516828D01*
X764287Y516819D01*
X764177Y516749D01*
X764064Y516685D01*
X764043Y516665D01*
X764018Y516649D01*
X763929Y516554D01*
X763836Y516464D01*
X763820Y516439D01*
X763800Y516417D01*
X763737Y516303D01*
X763669Y516193D01*
X763661Y516164D01*
X763646Y516139D01*
X763614Y516013D01*
X763576Y515889D01*
X763574Y515859D01*
X763567Y515831D01*
X763557Y515670D01*
X763557Y506027D01*
X753973Y496443D01*
X721999Y496443D01*
X721901Y496431D01*
X721802Y496428D01*
X721744Y496411D01*
X721683Y496403D01*
X721591Y496367D01*
X721496Y496339D01*
X721444Y496309D01*
X721388Y496286D01*
X721308Y496228D01*
X721222Y496178D01*
X721147Y496112D01*
X721130Y496100D01*
X721123Y496090D01*
X721101Y496072D01*
X716473Y491443D01*
X706242Y491443D01*
X706143Y491431D01*
X706044Y491428D01*
X705986Y491411D01*
X705926Y491403D01*
X705834Y491367D01*
X705739Y491339D01*
X705687Y491309D01*
X705630Y491286D01*
X705550Y491228D01*
X705465Y491178D01*
X705390Y491112D01*
X705373Y491100D01*
X705365Y491090D01*
X705344Y491072D01*
X703714Y489441D01*
X701304Y488443D01*
X698696Y488443D01*
G37*
%LPD*%
%LPC*%
G36*
X572539Y362539D02*
X572539Y362539D01*
X572539Y391751D01*
X599544Y391751D01*
X600191Y391578D01*
X600770Y391243D01*
X601243Y390770D01*
X601578Y390191D01*
X601751Y389544D01*
X601751Y362539D01*
X572539Y362539D01*
G37*
%LPD*%
%LPC*%
G36*
X538249Y362539D02*
X538249Y362539D01*
X538249Y389544D01*
X538422Y390191D01*
X538757Y390770D01*
X539230Y391243D01*
X539809Y391578D01*
X540456Y391751D01*
X567461Y391751D01*
X567461Y362539D01*
X538249Y362539D01*
G37*
%LPD*%
%LPC*%
G36*
X572539Y328249D02*
X572539Y328249D01*
X572539Y357461D01*
X601751Y357461D01*
X601751Y330456D01*
X601578Y329809D01*
X601243Y329230D01*
X600770Y328757D01*
X600191Y328422D01*
X599544Y328249D01*
X572539Y328249D01*
G37*
%LPD*%
%LPC*%
G36*
X540456Y328249D02*
X540456Y328249D01*
X539809Y328422D01*
X539230Y328757D01*
X538757Y329230D01*
X538422Y329809D01*
X538249Y330456D01*
X538249Y357461D01*
X567461Y357461D01*
X567461Y328249D01*
X540456Y328249D01*
G37*
%LPD*%
%LPC*%
G36*
X676320Y333959D02*
X676320Y333959D01*
X672635Y335485D01*
X669815Y338305D01*
X668289Y341989D01*
X668289Y345978D01*
X669815Y349662D01*
X672635Y352482D01*
X676320Y354008D01*
X680308Y354008D01*
X683992Y352482D01*
X686812Y349662D01*
X688338Y345978D01*
X688338Y341989D01*
X686812Y338305D01*
X683992Y335485D01*
X680308Y333959D01*
X676320Y333959D01*
G37*
%LPD*%
%LPC*%
G36*
X707900Y594011D02*
X707900Y594011D01*
X704216Y595537D01*
X701396Y598357D01*
X699869Y602041D01*
X699869Y606029D01*
X701396Y609714D01*
X704216Y612534D01*
X707900Y614060D01*
X711888Y614060D01*
X715573Y612534D01*
X718393Y609714D01*
X719919Y606029D01*
X719919Y602041D01*
X718393Y598357D01*
X715573Y595537D01*
X711888Y594011D01*
X707900Y594011D01*
G37*
%LPD*%
%LPC*%
G36*
X587212Y243551D02*
X587212Y243551D01*
X583528Y245077D01*
X580708Y247897D01*
X579182Y251581D01*
X579182Y255569D01*
X580708Y259254D01*
X583528Y262074D01*
X587212Y263600D01*
X591201Y263600D01*
X594885Y262074D01*
X597705Y259254D01*
X599231Y255569D01*
X599231Y251581D01*
X597705Y247897D01*
X594885Y245077D01*
X591201Y243551D01*
X587212Y243551D01*
G37*
%LPD*%
%LPC*%
G36*
X386835Y252649D02*
X386835Y252649D01*
X383151Y254175D01*
X380331Y256995D01*
X378805Y260679D01*
X378805Y264667D01*
X380331Y268352D01*
X383151Y271172D01*
X386835Y272698D01*
X390824Y272698D01*
X394508Y271172D01*
X397328Y268352D01*
X398854Y264667D01*
X398854Y260679D01*
X397328Y256995D01*
X394508Y254175D01*
X390824Y252649D01*
X386835Y252649D01*
G37*
%LPD*%
%LPC*%
G36*
X609176Y727302D02*
X609176Y727302D01*
X605492Y728828D01*
X602672Y731648D01*
X601146Y735333D01*
X601146Y739321D01*
X602672Y743005D01*
X605492Y745825D01*
X609176Y747351D01*
X613165Y747351D01*
X616849Y745825D01*
X619669Y743005D01*
X621195Y739321D01*
X621195Y735333D01*
X619669Y731648D01*
X616849Y728828D01*
X613165Y727302D01*
X609176Y727302D01*
G37*
%LPD*%
%LPC*%
G36*
X482240Y726383D02*
X482240Y726383D01*
X478555Y727909D01*
X475735Y730729D01*
X474209Y734413D01*
X474209Y738401D01*
X475735Y742086D01*
X478555Y744906D01*
X482240Y746432D01*
X486228Y746432D01*
X489912Y744906D01*
X492732Y742086D01*
X494258Y738401D01*
X494258Y734413D01*
X492732Y730729D01*
X489912Y727909D01*
X486228Y726383D01*
X482240Y726383D01*
G37*
%LPD*%
%LPC*%
G36*
X513772Y253568D02*
X513772Y253568D01*
X510088Y255094D01*
X507268Y257914D01*
X505742Y261599D01*
X505742Y265587D01*
X507268Y269271D01*
X510088Y272091D01*
X513772Y273617D01*
X517760Y273617D01*
X521445Y272091D01*
X524265Y269271D01*
X525791Y265587D01*
X525791Y261599D01*
X524265Y257914D01*
X521445Y255094D01*
X517760Y253568D01*
X513772Y253568D01*
G37*
%LPD*%
%LPC*%
G36*
X452048Y257542D02*
X452048Y257542D01*
X448363Y259068D01*
X445543Y261888D01*
X444017Y265573D01*
X444017Y269561D01*
X445543Y273246D01*
X448363Y276066D01*
X452048Y277592D01*
X456036Y277592D01*
X459721Y276066D01*
X462541Y273246D01*
X464067Y269561D01*
X464067Y265573D01*
X462541Y261888D01*
X459721Y259068D01*
X456036Y257542D01*
X452048Y257542D01*
G37*
%LPD*%
%LPC*%
G36*
X543964Y722408D02*
X543964Y722408D01*
X540279Y723934D01*
X537459Y726754D01*
X535933Y730439D01*
X535933Y734427D01*
X537459Y738112D01*
X540279Y740932D01*
X543964Y742458D01*
X547952Y742458D01*
X551637Y740932D01*
X554457Y738112D01*
X555983Y734427D01*
X555983Y730439D01*
X554457Y726754D01*
X551637Y723934D01*
X547952Y722408D01*
X543964Y722408D01*
G37*
%LPD*%
%LPC*%
G36*
X518564Y722408D02*
X518564Y722408D01*
X514879Y723934D01*
X512059Y726754D01*
X510533Y730439D01*
X510533Y734427D01*
X512059Y738112D01*
X514879Y740932D01*
X518564Y742458D01*
X522552Y742458D01*
X526237Y740932D01*
X529057Y738112D01*
X530583Y734427D01*
X530583Y730439D01*
X529057Y726754D01*
X526237Y723934D01*
X522552Y722408D01*
X518564Y722408D01*
G37*
%LPD*%
%LPC*%
G36*
X477448Y257542D02*
X477448Y257542D01*
X473763Y259068D01*
X470943Y261888D01*
X469417Y265573D01*
X469417Y269561D01*
X470943Y273246D01*
X473763Y276066D01*
X477448Y277592D01*
X481436Y277592D01*
X485121Y276066D01*
X487941Y273246D01*
X489467Y269561D01*
X489467Y265573D01*
X487941Y261888D01*
X485121Y259068D01*
X481436Y257542D01*
X477448Y257542D01*
G37*
%LPD*%
%LPC*%
G36*
X538307Y260142D02*
X538307Y260142D01*
X534622Y261668D01*
X531802Y264488D01*
X530276Y268173D01*
X530276Y272161D01*
X531802Y275845D01*
X534622Y278665D01*
X538307Y280191D01*
X542295Y280191D01*
X545979Y278665D01*
X548799Y275845D01*
X550326Y272161D01*
X550326Y268173D01*
X548799Y264488D01*
X545979Y261668D01*
X542295Y260142D01*
X538307Y260142D01*
G37*
%LPD*%
%LPC*%
G36*
X457705Y719809D02*
X457705Y719809D01*
X454021Y721335D01*
X451201Y724155D01*
X449674Y727839D01*
X449674Y731827D01*
X451201Y735512D01*
X454021Y738332D01*
X457705Y739858D01*
X461693Y739858D01*
X465378Y738332D01*
X468198Y735512D01*
X469724Y731827D01*
X469724Y727839D01*
X468198Y724155D01*
X465378Y721335D01*
X461693Y719809D01*
X457705Y719809D01*
G37*
%LPD*%
%LPC*%
G36*
X574422Y265704D02*
X574422Y265704D01*
X570738Y267230D01*
X567918Y270050D01*
X566392Y273734D01*
X566392Y277722D01*
X567918Y281407D01*
X570738Y284227D01*
X574422Y285753D01*
X578411Y285753D01*
X582095Y284227D01*
X584915Y281407D01*
X586441Y277722D01*
X586441Y273734D01*
X584915Y270050D01*
X582095Y267230D01*
X578411Y265704D01*
X574422Y265704D01*
G37*
%LPD*%
%LPC*%
G36*
X421589Y714247D02*
X421589Y714247D01*
X417905Y715773D01*
X415085Y718593D01*
X413559Y722278D01*
X413559Y726266D01*
X415085Y729950D01*
X417905Y732770D01*
X421589Y734296D01*
X425578Y734296D01*
X429262Y732770D01*
X432082Y729950D01*
X433608Y726266D01*
X433608Y722278D01*
X432082Y718593D01*
X429262Y715773D01*
X425578Y714247D01*
X421589Y714247D01*
G37*
%LPD*%
%LPC*%
G36*
X417991Y270783D02*
X417991Y270783D01*
X414306Y272309D01*
X411486Y275129D01*
X409960Y278814D01*
X409960Y282802D01*
X411486Y286486D01*
X414306Y289306D01*
X417991Y290832D01*
X421979Y290832D01*
X425663Y289306D01*
X428483Y286486D01*
X430009Y282802D01*
X430009Y278814D01*
X428483Y275129D01*
X425663Y272309D01*
X421979Y270783D01*
X417991Y270783D01*
G37*
%LPD*%
%LPC*%
G36*
X578021Y709168D02*
X578021Y709168D01*
X574337Y710694D01*
X571517Y713514D01*
X569991Y717198D01*
X569991Y721186D01*
X571517Y724871D01*
X574337Y727691D01*
X578021Y729217D01*
X582009Y729217D01*
X585694Y727691D01*
X588514Y724871D01*
X590040Y721186D01*
X590040Y717198D01*
X588514Y713514D01*
X585694Y710694D01*
X582009Y709168D01*
X578021Y709168D01*
G37*
%LPD*%
%LPC*%
G36*
X647952Y275036D02*
X647952Y275036D01*
X644268Y276562D01*
X641448Y279382D01*
X639921Y283066D01*
X639921Y287054D01*
X641448Y290739D01*
X644268Y293559D01*
X647952Y295085D01*
X651940Y295085D01*
X655625Y293559D01*
X658445Y290739D01*
X659971Y287054D01*
X659971Y283066D01*
X658445Y279382D01*
X655625Y276562D01*
X651940Y275036D01*
X647952Y275036D01*
G37*
%LPD*%
%LPC*%
G36*
X348060Y704915D02*
X348060Y704915D01*
X344375Y706441D01*
X341555Y709261D01*
X340029Y712946D01*
X340029Y716934D01*
X341555Y720618D01*
X344375Y723438D01*
X348060Y724964D01*
X352048Y724964D01*
X355732Y723438D01*
X358552Y720618D01*
X360079Y716934D01*
X360079Y712946D01*
X358552Y709261D01*
X355732Y706441D01*
X352048Y704915D01*
X348060Y704915D01*
G37*
%LPD*%
%LPC*%
G36*
X393456Y277357D02*
X393456Y277357D01*
X389772Y278883D01*
X386952Y281703D01*
X385425Y285388D01*
X385425Y289376D01*
X386952Y293060D01*
X389772Y295880D01*
X393456Y297406D01*
X397444Y297406D01*
X401129Y295880D01*
X403949Y293060D01*
X405475Y289376D01*
X405475Y285388D01*
X403949Y281703D01*
X401129Y278883D01*
X397444Y277357D01*
X393456Y277357D01*
G37*
%LPD*%
%LPC*%
G36*
X602556Y702594D02*
X602556Y702594D01*
X598871Y704120D01*
X596051Y706940D01*
X594525Y710624D01*
X594525Y714612D01*
X596051Y718297D01*
X598871Y721117D01*
X602556Y722643D01*
X606544Y722643D01*
X610228Y721117D01*
X613048Y718297D01*
X614575Y714612D01*
X614575Y710624D01*
X613048Y706940D01*
X610228Y704120D01*
X606544Y702594D01*
X602556Y702594D01*
G37*
%LPD*%
%LPC*%
G36*
X399592Y701547D02*
X399592Y701547D01*
X395908Y703073D01*
X393088Y705893D01*
X391562Y709578D01*
X391562Y713566D01*
X393088Y717250D01*
X395908Y720070D01*
X399592Y721596D01*
X403581Y721596D01*
X407265Y720070D01*
X410085Y717250D01*
X411611Y713566D01*
X411611Y709578D01*
X410085Y705893D01*
X407265Y703073D01*
X403581Y701547D01*
X399592Y701547D01*
G37*
%LPD*%
%LPC*%
G36*
X596419Y278404D02*
X596419Y278404D01*
X592735Y279930D01*
X589915Y282750D01*
X588389Y286434D01*
X588389Y290422D01*
X589915Y294107D01*
X592735Y296927D01*
X596419Y298453D01*
X600408Y298453D01*
X604092Y296927D01*
X606912Y294107D01*
X608438Y290422D01*
X608438Y286434D01*
X606912Y282750D01*
X604092Y279930D01*
X600408Y278404D01*
X596419Y278404D01*
G37*
%LPD*%
%LPC*%
G36*
X756019Y444017D02*
X756019Y444017D01*
X752334Y445543D01*
X749514Y448363D01*
X747988Y452048D01*
X747988Y456036D01*
X749514Y459721D01*
X752334Y462541D01*
X756019Y464067D01*
X760007Y464067D01*
X763692Y462541D01*
X766512Y459721D01*
X768038Y456036D01*
X768038Y452048D01*
X766512Y448363D01*
X763692Y445543D01*
X760007Y444017D01*
X756019Y444017D01*
G37*
%LPD*%
%LPC*%
G36*
X663240Y691404D02*
X663240Y691404D01*
X659556Y692930D01*
X656736Y695750D01*
X655210Y699435D01*
X655210Y703423D01*
X656736Y707107D01*
X659556Y709927D01*
X663240Y711453D01*
X667228Y711453D01*
X670913Y709927D01*
X673733Y707107D01*
X675259Y703423D01*
X675259Y699435D01*
X673733Y695750D01*
X670913Y692930D01*
X667228Y691404D01*
X663240Y691404D01*
G37*
%LPD*%
%LPC*%
G36*
X650506Y439175D02*
X650506Y439175D01*
X646821Y440701D01*
X644001Y443521D01*
X642475Y447206D01*
X642475Y451194D01*
X644001Y454879D01*
X646821Y457699D01*
X650506Y459225D01*
X654494Y459225D01*
X658179Y457699D01*
X660999Y454879D01*
X662525Y451194D01*
X662525Y447206D01*
X660999Y443521D01*
X658179Y440701D01*
X654494Y439175D01*
X650506Y439175D01*
G37*
%LPD*%
%LPC*%
G36*
X366147Y686827D02*
X366147Y686827D01*
X362463Y688353D01*
X359643Y691173D01*
X358117Y694858D01*
X358117Y698846D01*
X359643Y702530D01*
X362463Y705350D01*
X366147Y706877D01*
X370136Y706877D01*
X373820Y705350D01*
X376640Y702530D01*
X378166Y698846D01*
X378166Y694858D01*
X376640Y691173D01*
X373820Y688353D01*
X370136Y686827D01*
X366147Y686827D01*
G37*
%LPD*%
%LPC*%
G36*
X627762Y685019D02*
X627762Y685019D01*
X624077Y686545D01*
X621257Y689365D01*
X619731Y693050D01*
X619731Y697038D01*
X621257Y700722D01*
X624077Y703542D01*
X627762Y705068D01*
X631750Y705068D01*
X635434Y703542D01*
X638254Y700722D01*
X639780Y697038D01*
X639780Y693050D01*
X638254Y689365D01*
X635434Y686545D01*
X631750Y685019D01*
X627762Y685019D01*
G37*
%LPD*%
%LPC*%
G36*
X268173Y449674D02*
X268173Y449674D01*
X264488Y451201D01*
X261668Y454021D01*
X260142Y457705D01*
X260142Y461693D01*
X261668Y465378D01*
X264488Y468198D01*
X268173Y469724D01*
X272161Y469724D01*
X275845Y468198D01*
X278665Y465378D01*
X280191Y461693D01*
X280191Y457705D01*
X278665Y454021D01*
X275845Y451201D01*
X272161Y449674D01*
X268173Y449674D01*
G37*
%LPD*%
%LPC*%
G36*
X329199Y289509D02*
X329199Y289509D01*
X325515Y291035D01*
X322695Y293855D01*
X321169Y297539D01*
X321169Y301527D01*
X322695Y305212D01*
X325515Y308032D01*
X329199Y309558D01*
X333188Y309558D01*
X336872Y308032D01*
X339692Y305212D01*
X341218Y301527D01*
X341218Y297539D01*
X339692Y293855D01*
X336872Y291035D01*
X333188Y289509D01*
X329199Y289509D01*
G37*
%LPD*%
%LPC*%
G36*
X629864Y293123D02*
X629864Y293123D01*
X626180Y294649D01*
X623360Y297470D01*
X621834Y301154D01*
X621834Y305142D01*
X623360Y308827D01*
X626180Y311647D01*
X629864Y313173D01*
X633852Y313173D01*
X637537Y311647D01*
X640357Y308827D01*
X641883Y305142D01*
X641883Y301154D01*
X640357Y297470D01*
X637537Y294649D01*
X633852Y293123D01*
X629864Y293123D01*
G37*
%LPD*%
%LPC*%
G36*
X648568Y670450D02*
X648568Y670450D01*
X644884Y671976D01*
X642064Y674796D01*
X640537Y678481D01*
X640537Y682469D01*
X642064Y686153D01*
X644884Y688973D01*
X648568Y690499D01*
X652556Y690499D01*
X656241Y688973D01*
X659061Y686153D01*
X660587Y682469D01*
X660587Y678481D01*
X659061Y674796D01*
X656241Y671976D01*
X652556Y670450D01*
X648568Y670450D01*
G37*
%LPD*%
%LPC*%
G36*
X348187Y668867D02*
X348187Y668867D01*
X344503Y670393D01*
X341682Y673213D01*
X340156Y676897D01*
X340156Y680885D01*
X341682Y684570D01*
X344503Y687390D01*
X348187Y688916D01*
X352175Y688916D01*
X355860Y687390D01*
X358680Y684570D01*
X360206Y680885D01*
X360206Y676897D01*
X358680Y673213D01*
X355860Y670393D01*
X352175Y668867D01*
X348187Y668867D01*
G37*
%LPD*%
%LPC*%
G36*
X552206Y439175D02*
X552206Y439175D01*
X548521Y440701D01*
X545701Y443521D01*
X544175Y447206D01*
X544175Y451194D01*
X545701Y454879D01*
X548521Y457699D01*
X552206Y459225D01*
X556194Y459225D01*
X559879Y457699D01*
X562699Y454879D01*
X564225Y451194D01*
X564225Y447206D01*
X562699Y443521D01*
X559879Y440701D01*
X556194Y439175D01*
X552206Y439175D01*
G37*
%LPD*%
%LPC*%
G36*
X297539Y658782D02*
X297539Y658782D01*
X293855Y660308D01*
X291035Y663128D01*
X289509Y666812D01*
X289509Y670801D01*
X291035Y674485D01*
X293855Y677305D01*
X297539Y678831D01*
X301527Y678831D01*
X305212Y677305D01*
X308032Y674485D01*
X309558Y670801D01*
X309558Y666812D01*
X308032Y663128D01*
X305212Y660308D01*
X301527Y658782D01*
X297539Y658782D01*
G37*
%LPD*%
%LPC*%
G36*
X363986Y298962D02*
X363986Y298962D01*
X360302Y300488D01*
X357482Y303308D01*
X355956Y306992D01*
X355956Y310980D01*
X357482Y314665D01*
X360302Y317485D01*
X363986Y319011D01*
X367975Y319011D01*
X371659Y317485D01*
X374479Y314665D01*
X376005Y310980D01*
X376005Y306992D01*
X374479Y303308D01*
X371659Y300488D01*
X367975Y298962D01*
X363986Y298962D01*
G37*
%LPD*%
%LPC*%
G36*
X647825Y311084D02*
X647825Y311084D01*
X644140Y312610D01*
X641320Y315430D01*
X639794Y319114D01*
X639794Y323103D01*
X641320Y326787D01*
X644140Y329607D01*
X647825Y331133D01*
X651813Y331133D01*
X655497Y329607D01*
X658317Y326787D01*
X659844Y323103D01*
X659844Y319114D01*
X658317Y315430D01*
X655497Y312610D01*
X651813Y311084D01*
X647825Y311084D01*
G37*
%LPD*%
%LPC*%
G36*
X341989Y311662D02*
X341989Y311662D01*
X338305Y313188D01*
X335485Y316008D01*
X333959Y319692D01*
X333959Y323680D01*
X335485Y327365D01*
X338305Y330185D01*
X341989Y331711D01*
X345978Y331711D01*
X349662Y330185D01*
X352482Y327365D01*
X354008Y323680D01*
X354008Y319692D01*
X352482Y316008D01*
X349662Y313188D01*
X345978Y311662D01*
X341989Y311662D01*
G37*
%LPD*%
%LPC*%
G36*
X319692Y645992D02*
X319692Y645992D01*
X316008Y647518D01*
X313188Y650338D01*
X311662Y654022D01*
X311662Y658011D01*
X313188Y661695D01*
X316008Y664515D01*
X319692Y666041D01*
X323680Y666041D01*
X327365Y664515D01*
X330185Y661695D01*
X331711Y658011D01*
X331711Y654022D01*
X330185Y650338D01*
X327365Y647518D01*
X323680Y645992D01*
X319692Y645992D01*
G37*
%LPD*%
%LPC*%
G36*
X673822Y644790D02*
X673822Y644790D01*
X670137Y646316D01*
X667317Y649137D01*
X665791Y652821D01*
X665791Y656809D01*
X667317Y660494D01*
X670137Y663314D01*
X673822Y664840D01*
X677810Y664840D01*
X681495Y663314D01*
X684315Y660494D01*
X685841Y656809D01*
X685841Y652821D01*
X684315Y649137D01*
X681495Y646316D01*
X677810Y644790D01*
X673822Y644790D01*
G37*
%LPD*%
%LPC*%
G36*
X709744Y641775D02*
X709744Y641775D01*
X706060Y643301D01*
X703240Y646121D01*
X701713Y649806D01*
X701713Y653794D01*
X703240Y657479D01*
X706060Y660299D01*
X709744Y661825D01*
X713732Y661825D01*
X717417Y660299D01*
X720237Y657479D01*
X721763Y653794D01*
X721763Y649806D01*
X720237Y646121D01*
X717417Y643301D01*
X713732Y641775D01*
X709744Y641775D01*
G37*
%LPD*%
%LPC*%
G36*
X552206Y464575D02*
X552206Y464575D01*
X548521Y466101D01*
X545701Y468921D01*
X544175Y472606D01*
X544175Y476594D01*
X545701Y480279D01*
X548521Y483099D01*
X552206Y484625D01*
X556194Y484625D01*
X559879Y483099D01*
X562699Y480279D01*
X564225Y476594D01*
X564225Y472606D01*
X562699Y468921D01*
X559879Y466101D01*
X556194Y464575D01*
X552206Y464575D01*
G37*
%LPD*%
%LPC*%
G36*
X698473Y321169D02*
X698473Y321169D01*
X694788Y322695D01*
X691968Y325515D01*
X690442Y329199D01*
X690442Y333188D01*
X691968Y336872D01*
X694788Y339692D01*
X698473Y341218D01*
X702461Y341218D01*
X706145Y339692D01*
X708965Y336872D01*
X710491Y333188D01*
X710491Y329199D01*
X708965Y325515D01*
X706145Y322695D01*
X702461Y321169D01*
X698473Y321169D01*
G37*
%LPD*%
%LPC*%
G36*
X650506Y464575D02*
X650506Y464575D01*
X646821Y466101D01*
X644001Y468921D01*
X642475Y472606D01*
X642475Y476594D01*
X644001Y480279D01*
X646821Y483099D01*
X650506Y484625D01*
X654494Y484625D01*
X658179Y483099D01*
X660999Y480279D01*
X662525Y476594D01*
X662525Y472606D01*
X660999Y468921D01*
X658179Y466101D01*
X654494Y464575D01*
X650506Y464575D01*
G37*
%LPD*%
%LPC*%
G36*
X690149Y625333D02*
X690149Y625333D01*
X686464Y626859D01*
X683644Y629679D01*
X682118Y633363D01*
X682118Y637352D01*
X683644Y641036D01*
X686464Y643856D01*
X690149Y645382D01*
X694137Y645382D01*
X697821Y643856D01*
X700641Y641036D01*
X702168Y637352D01*
X702168Y633363D01*
X700641Y629679D01*
X697821Y626859D01*
X694137Y625333D01*
X690149Y625333D01*
G37*
%LPD*%
%LPC*%
G36*
X306992Y623995D02*
X306992Y623995D01*
X303308Y625521D01*
X300488Y628341D01*
X298962Y632025D01*
X298962Y636014D01*
X300488Y639698D01*
X303308Y642518D01*
X306992Y644044D01*
X310980Y644044D01*
X314665Y642518D01*
X317485Y639698D01*
X319011Y636014D01*
X319011Y632025D01*
X317485Y628341D01*
X314665Y625521D01*
X310980Y623995D01*
X306992Y623995D01*
G37*
%LPD*%
%LPC*%
G36*
X730439Y469417D02*
X730439Y469417D01*
X726754Y470943D01*
X723934Y473763D01*
X722408Y477448D01*
X722408Y481436D01*
X723934Y485121D01*
X726754Y487941D01*
X730439Y489467D01*
X734427Y489467D01*
X738112Y487941D01*
X740932Y485121D01*
X742458Y481436D01*
X742458Y477448D01*
X740932Y473763D01*
X738112Y470943D01*
X734427Y469417D01*
X730439Y469417D01*
G37*
%LPD*%
%LPC*%
G36*
X452048Y231962D02*
X452048Y231962D01*
X448363Y233488D01*
X445543Y236308D01*
X444017Y239993D01*
X444017Y243981D01*
X445543Y247666D01*
X448363Y250486D01*
X452048Y252012D01*
X456036Y252012D01*
X459721Y250486D01*
X462541Y247666D01*
X464067Y243981D01*
X464067Y239993D01*
X462541Y236308D01*
X459721Y233488D01*
X456036Y231962D01*
X452048Y231962D01*
G37*
%LPD*%
%LPC*%
G36*
X261599Y474209D02*
X261599Y474209D01*
X257914Y475735D01*
X255094Y478555D01*
X253568Y482240D01*
X253568Y486228D01*
X255094Y489912D01*
X257914Y492732D01*
X261599Y494258D01*
X265587Y494258D01*
X269271Y492732D01*
X272091Y489912D01*
X273617Y486228D01*
X273617Y482240D01*
X272091Y478555D01*
X269271Y475735D01*
X265587Y474209D01*
X261599Y474209D01*
G37*
%LPD*%
%LPC*%
G36*
X260679Y601146D02*
X260679Y601146D01*
X256995Y602672D01*
X254175Y605492D01*
X252649Y609176D01*
X252649Y613165D01*
X254175Y616849D01*
X256995Y619669D01*
X260679Y621195D01*
X264667Y621195D01*
X268352Y619669D01*
X271172Y616849D01*
X272698Y613165D01*
X272698Y609176D01*
X271172Y605492D01*
X268352Y602672D01*
X264667Y601146D01*
X260679Y601146D01*
G37*
%LPD*%
%LPC*%
G36*
X283066Y340029D02*
X283066Y340029D01*
X279382Y341555D01*
X276562Y344375D01*
X275036Y348060D01*
X275036Y352048D01*
X276562Y355732D01*
X279382Y358552D01*
X283066Y360079D01*
X287054Y360079D01*
X290739Y358552D01*
X293559Y355732D01*
X295085Y352048D01*
X295085Y348060D01*
X293559Y344375D01*
X290739Y341555D01*
X287054Y340029D01*
X283066Y340029D01*
G37*
%LPD*%
%LPC*%
G36*
X285388Y594525D02*
X285388Y594525D01*
X281703Y596051D01*
X278883Y598871D01*
X277357Y602556D01*
X277357Y606544D01*
X278883Y610228D01*
X281703Y613048D01*
X285388Y614575D01*
X289376Y614575D01*
X293060Y613048D01*
X295880Y610228D01*
X297406Y606544D01*
X297406Y602556D01*
X295880Y598871D01*
X293060Y596051D01*
X289376Y594525D01*
X285388Y594525D01*
G37*
%LPD*%
%LPC*%
G36*
X730439Y444017D02*
X730439Y444017D01*
X726754Y445543D01*
X723934Y448363D01*
X722408Y452048D01*
X722408Y456036D01*
X723934Y459721D01*
X726754Y462541D01*
X730439Y464067D01*
X734427Y464067D01*
X738112Y462541D01*
X740932Y459721D01*
X742458Y456036D01*
X742458Y452048D01*
X740932Y448363D01*
X738112Y445543D01*
X734427Y444017D01*
X730439Y444017D01*
G37*
%LPD*%
%LPC*%
G36*
X319114Y340156D02*
X319114Y340156D01*
X315430Y341682D01*
X312610Y344503D01*
X311084Y348187D01*
X311084Y352175D01*
X312610Y355860D01*
X315430Y358680D01*
X319114Y360206D01*
X323103Y360206D01*
X326787Y358680D01*
X329607Y355860D01*
X331133Y352175D01*
X331133Y348187D01*
X329607Y344503D01*
X326787Y341682D01*
X323103Y340156D01*
X319114Y340156D01*
G37*
%LPD*%
%LPC*%
G36*
X741818Y581801D02*
X741818Y581801D01*
X738133Y583327D01*
X735313Y586147D01*
X733787Y589832D01*
X733787Y593820D01*
X735313Y597504D01*
X738133Y600324D01*
X741818Y601850D01*
X745806Y601850D01*
X749491Y600324D01*
X752311Y597504D01*
X753837Y593820D01*
X753837Y589832D01*
X752311Y586147D01*
X749491Y583327D01*
X745806Y581801D01*
X741818Y581801D01*
G37*
%LPD*%
%LPC*%
G36*
X408799Y736400D02*
X408799Y736400D01*
X405115Y737926D01*
X402295Y740746D01*
X400769Y744431D01*
X400769Y748419D01*
X402295Y752103D01*
X405115Y754923D01*
X408799Y756449D01*
X412788Y756449D01*
X416472Y754923D01*
X419292Y752103D01*
X420818Y748419D01*
X420818Y744431D01*
X419292Y740746D01*
X416472Y737926D01*
X412788Y736400D01*
X408799Y736400D01*
G37*
%LPD*%
%LPC*%
G36*
X689020Y355956D02*
X689020Y355956D01*
X685335Y357482D01*
X682515Y360302D01*
X680989Y363986D01*
X680989Y367975D01*
X682515Y371659D01*
X685335Y374479D01*
X689020Y376005D01*
X693008Y376005D01*
X696692Y374479D01*
X699512Y371659D01*
X701038Y367975D01*
X701038Y363986D01*
X699512Y360302D01*
X696692Y357482D01*
X693008Y355956D01*
X689020Y355956D01*
G37*
%LPD*%
%LPC*%
G36*
X301154Y358117D02*
X301154Y358117D01*
X297470Y359643D01*
X294649Y362463D01*
X293123Y366147D01*
X293123Y370136D01*
X294649Y373820D01*
X297470Y376640D01*
X301154Y378166D01*
X305142Y378166D01*
X308827Y376640D01*
X311647Y373820D01*
X313173Y370136D01*
X313173Y366147D01*
X311647Y362463D01*
X308827Y359643D01*
X305142Y358117D01*
X301154Y358117D01*
G37*
%LPD*%
%LPC*%
G36*
X718635Y570990D02*
X718635Y570990D01*
X714950Y572517D01*
X712130Y575337D01*
X710604Y579021D01*
X710604Y583009D01*
X712130Y586694D01*
X714950Y589514D01*
X718635Y591040D01*
X722623Y591040D01*
X726307Y589514D01*
X729127Y586694D01*
X730653Y583009D01*
X730653Y579021D01*
X729127Y575337D01*
X726307Y572517D01*
X722623Y570990D01*
X718635Y570990D01*
G37*
%LPD*%
%LPC*%
G36*
X278814Y569991D02*
X278814Y569991D01*
X275129Y571517D01*
X272309Y574337D01*
X270783Y578021D01*
X270783Y582009D01*
X272309Y585694D01*
X275129Y588514D01*
X278814Y590040D01*
X282802Y590040D01*
X286486Y588514D01*
X289306Y585694D01*
X290832Y582009D01*
X290832Y578021D01*
X289306Y574337D01*
X286486Y571517D01*
X282802Y569991D01*
X278814Y569991D01*
G37*
%LPD*%
%LPC*%
G36*
X552206Y489975D02*
X552206Y489975D01*
X548521Y491501D01*
X545701Y494321D01*
X544175Y498006D01*
X544175Y501994D01*
X545701Y505679D01*
X548521Y508499D01*
X552206Y510025D01*
X556194Y510025D01*
X559879Y508499D01*
X562699Y505679D01*
X564225Y501994D01*
X564225Y498006D01*
X562699Y494321D01*
X559879Y491501D01*
X556194Y489975D01*
X552206Y489975D01*
G37*
%LPD*%
%LPC*%
G36*
X650506Y489975D02*
X650506Y489975D01*
X646821Y491501D01*
X644001Y494321D01*
X642475Y498006D01*
X642475Y501994D01*
X644001Y505679D01*
X646821Y508499D01*
X650506Y510025D01*
X654494Y510025D01*
X658179Y508499D01*
X660999Y505679D01*
X662525Y501994D01*
X662525Y498006D01*
X660999Y494321D01*
X658179Y491501D01*
X654494Y489975D01*
X650506Y489975D01*
G37*
%LPD*%
%LPC*%
G36*
X520393Y228860D02*
X520393Y228860D01*
X516708Y230386D01*
X513888Y233206D01*
X512362Y236890D01*
X512362Y240878D01*
X513888Y244563D01*
X516708Y247383D01*
X520393Y248909D01*
X524381Y248909D01*
X528065Y247383D01*
X530885Y244563D01*
X532412Y240878D01*
X532412Y236890D01*
X530885Y233206D01*
X528065Y230386D01*
X524381Y228860D01*
X520393Y228860D01*
G37*
%LPD*%
%LPC*%
G36*
X552206Y566175D02*
X552206Y566175D01*
X548521Y567701D01*
X545701Y570521D01*
X544175Y574206D01*
X544175Y578194D01*
X545701Y581879D01*
X548521Y584699D01*
X552206Y586225D01*
X556194Y586225D01*
X559879Y584699D01*
X562699Y581879D01*
X564225Y578194D01*
X564225Y574206D01*
X562699Y570521D01*
X559879Y567701D01*
X556194Y566175D01*
X552206Y566175D01*
G37*
%LPD*%
%LPC*%
G36*
X552206Y413775D02*
X552206Y413775D01*
X548521Y415301D01*
X545701Y418121D01*
X544175Y421806D01*
X544175Y425794D01*
X545701Y429479D01*
X548521Y432299D01*
X552206Y433825D01*
X556194Y433825D01*
X559879Y432299D01*
X562699Y429479D01*
X564225Y425794D01*
X564225Y421806D01*
X562699Y418121D01*
X559879Y415301D01*
X556194Y413775D01*
X552206Y413775D01*
G37*
%LPD*%
%LPC*%
G36*
X735333Y378805D02*
X735333Y378805D01*
X731648Y380331D01*
X728828Y383151D01*
X727302Y386835D01*
X727302Y390824D01*
X728828Y394508D01*
X731648Y397328D01*
X735333Y398854D01*
X739321Y398854D01*
X743005Y397328D01*
X745825Y394508D01*
X747351Y390824D01*
X747351Y386835D01*
X745825Y383151D01*
X743005Y380331D01*
X739321Y378805D01*
X735333Y378805D01*
G37*
%LPD*%
%LPC*%
G36*
X543964Y747988D02*
X543964Y747988D01*
X540279Y749514D01*
X537459Y752334D01*
X535933Y756019D01*
X535933Y760007D01*
X537459Y763692D01*
X540279Y766512D01*
X543964Y768038D01*
X547952Y768038D01*
X551637Y766512D01*
X554457Y763692D01*
X555983Y760007D01*
X555983Y756019D01*
X554457Y752334D01*
X551637Y749514D01*
X547952Y747988D01*
X543964Y747988D01*
G37*
%LPD*%
%LPC*%
G36*
X710624Y385425D02*
X710624Y385425D01*
X706940Y386952D01*
X704120Y389772D01*
X702594Y393456D01*
X702594Y397444D01*
X704120Y401129D01*
X706940Y403949D01*
X710624Y405475D01*
X714612Y405475D01*
X718297Y403949D01*
X721117Y401129D01*
X722643Y397444D01*
X722643Y393456D01*
X721117Y389772D01*
X718297Y386952D01*
X714612Y385425D01*
X710624Y385425D01*
G37*
%LPD*%
%LPC*%
G36*
X650506Y540775D02*
X650506Y540775D01*
X646821Y542301D01*
X644001Y545121D01*
X642475Y548806D01*
X642475Y552794D01*
X644001Y556479D01*
X646821Y559299D01*
X650506Y560825D01*
X654494Y560825D01*
X658179Y559299D01*
X660999Y556479D01*
X662525Y552794D01*
X662525Y548806D01*
X660999Y545121D01*
X658179Y542301D01*
X654494Y540775D01*
X650506Y540775D01*
G37*
%LPD*%
%LPC*%
G36*
X552206Y540775D02*
X552206Y540775D01*
X548521Y542301D01*
X545701Y545121D01*
X544175Y548806D01*
X544175Y552794D01*
X545701Y556479D01*
X548521Y559299D01*
X552206Y560825D01*
X556194Y560825D01*
X559879Y559299D01*
X562699Y556479D01*
X564225Y552794D01*
X564225Y548806D01*
X562699Y545121D01*
X559879Y542301D01*
X556194Y540775D01*
X552206Y540775D01*
G37*
%LPD*%
%LPC*%
G36*
X286434Y391562D02*
X286434Y391562D01*
X282750Y393088D01*
X279930Y395908D01*
X278404Y399592D01*
X278404Y403581D01*
X279930Y407265D01*
X282750Y410085D01*
X286434Y411611D01*
X290422Y411611D01*
X294107Y410085D01*
X296927Y407265D01*
X298453Y403581D01*
X298453Y399592D01*
X296927Y395908D01*
X294107Y393088D01*
X290422Y391562D01*
X286434Y391562D01*
G37*
%LPD*%
%LPC*%
G36*
X727674Y536141D02*
X727674Y536141D01*
X723989Y537667D01*
X721169Y540487D01*
X719643Y544171D01*
X719643Y548159D01*
X721169Y551844D01*
X723989Y554664D01*
X727674Y556190D01*
X731662Y556190D01*
X735346Y554664D01*
X738167Y551844D01*
X739693Y548159D01*
X739693Y544171D01*
X738167Y540487D01*
X735346Y537667D01*
X731662Y536141D01*
X727674Y536141D01*
G37*
%LPD*%
%LPC*%
G36*
X239993Y535933D02*
X239993Y535933D01*
X236308Y537459D01*
X233488Y540279D01*
X231962Y543964D01*
X231962Y547952D01*
X233488Y551637D01*
X236308Y554457D01*
X239993Y555983D01*
X243981Y555983D01*
X247666Y554457D01*
X250486Y551637D01*
X252012Y547952D01*
X252012Y543964D01*
X250486Y540279D01*
X247666Y537459D01*
X243981Y535933D01*
X239993Y535933D01*
G37*
%LPD*%
%LPC*%
G36*
X251581Y400769D02*
X251581Y400769D01*
X247897Y402295D01*
X245077Y405115D01*
X243551Y408799D01*
X243551Y412788D01*
X245077Y416472D01*
X247897Y419292D01*
X251581Y420818D01*
X255569Y420818D01*
X259254Y419292D01*
X262074Y416472D01*
X263600Y412788D01*
X263600Y408799D01*
X262074Y405115D01*
X259254Y402295D01*
X255569Y400769D01*
X251581Y400769D01*
G37*
%LPD*%
%LPC*%
G36*
X717198Y409960D02*
X717198Y409960D01*
X713514Y411486D01*
X710694Y414306D01*
X709168Y417991D01*
X709168Y421979D01*
X710694Y425663D01*
X713514Y428483D01*
X717198Y430009D01*
X721186Y430009D01*
X724871Y428483D01*
X727691Y425663D01*
X729217Y421979D01*
X729217Y417991D01*
X727691Y414306D01*
X724871Y411486D01*
X721186Y409960D01*
X717198Y409960D01*
G37*
%LPD*%
%LPC*%
G36*
X273734Y413559D02*
X273734Y413559D01*
X270050Y415085D01*
X267230Y417905D01*
X265704Y421589D01*
X265704Y425578D01*
X267230Y429262D01*
X270050Y432082D01*
X273734Y433608D01*
X277722Y433608D01*
X281407Y432082D01*
X284227Y429262D01*
X285753Y425578D01*
X285753Y421589D01*
X284227Y417905D01*
X281407Y415085D01*
X277722Y413559D01*
X273734Y413559D01*
G37*
%LPD*%
%LPC*%
G36*
X265573Y510533D02*
X265573Y510533D01*
X261888Y512059D01*
X259068Y514879D01*
X257542Y518564D01*
X257542Y522552D01*
X259068Y526237D01*
X261888Y529057D01*
X265573Y530583D01*
X269561Y530583D01*
X273246Y529057D01*
X276066Y526237D01*
X277592Y522552D01*
X277592Y518564D01*
X276066Y514879D01*
X273246Y512059D01*
X269561Y510533D01*
X265573Y510533D01*
G37*
%LPD*%
%LPC*%
G36*
X475619Y751091D02*
X475619Y751091D01*
X471935Y752617D01*
X469114Y755437D01*
X467588Y759122D01*
X467588Y763110D01*
X469114Y766794D01*
X471935Y769614D01*
X475619Y771140D01*
X479607Y771140D01*
X483292Y769614D01*
X486112Y766794D01*
X487638Y763110D01*
X487638Y759122D01*
X486112Y755437D01*
X483292Y752617D01*
X479607Y751091D01*
X475619Y751091D01*
G37*
%LPD*%
%LPC*%
G36*
X650506Y515375D02*
X650506Y515375D01*
X646821Y516901D01*
X644001Y519721D01*
X642475Y523406D01*
X642475Y527394D01*
X644001Y531079D01*
X646821Y533899D01*
X650506Y535425D01*
X654494Y535425D01*
X658179Y533899D01*
X660999Y531079D01*
X662525Y527394D01*
X662525Y523406D01*
X660999Y519721D01*
X658179Y516901D01*
X654494Y515375D01*
X650506Y515375D01*
G37*
%LPD*%
%LPC*%
G36*
X732085Y511126D02*
X732085Y511126D01*
X728400Y512653D01*
X725580Y515473D01*
X724054Y519157D01*
X724054Y523145D01*
X725580Y526830D01*
X728400Y529650D01*
X732085Y531176D01*
X736073Y531176D01*
X739757Y529650D01*
X742577Y526830D01*
X744103Y523145D01*
X744103Y519157D01*
X742577Y515473D01*
X739757Y512653D01*
X736073Y511126D01*
X732085Y511126D01*
G37*
%LPD*%
%LPC*%
G36*
X481941Y244666D02*
X481941Y244666D01*
X481941Y252950D01*
X482027Y252936D01*
X483680Y252399D01*
X485229Y251610D01*
X486635Y250588D01*
X487863Y249360D01*
X488885Y247954D01*
X489674Y246405D01*
X490211Y244752D01*
X490225Y244666D01*
X481941Y244666D01*
G37*
%LPD*%
%LPC*%
G36*
X244666Y523057D02*
X244666Y523057D01*
X244666Y531341D01*
X244752Y531327D01*
X246405Y530790D01*
X247954Y530001D01*
X249360Y528979D01*
X250588Y527751D01*
X251610Y526345D01*
X252399Y524796D01*
X252936Y523143D01*
X252950Y523057D01*
X244666Y523057D01*
G37*
%LPD*%
%LPC*%
G36*
X523057Y760332D02*
X523057Y760332D01*
X523057Y768616D01*
X523143Y768602D01*
X524796Y768065D01*
X526345Y767276D01*
X527751Y766254D01*
X528979Y765026D01*
X530001Y763620D01*
X530790Y762071D01*
X531327Y760418D01*
X531341Y760332D01*
X523057Y760332D01*
G37*
%LPD*%
%LPC*%
G36*
X760332Y481941D02*
X760332Y481941D01*
X760332Y490225D01*
X760418Y490211D01*
X762071Y489674D01*
X763620Y488885D01*
X765026Y487863D01*
X766254Y486635D01*
X767276Y485229D01*
X768065Y483680D01*
X768602Y482027D01*
X768616Y481941D01*
X760332Y481941D01*
G37*
%LPD*%
%LPC*%
G36*
X360999Y578699D02*
X360999Y578699D01*
X360999Y586983D01*
X361085Y586969D01*
X362738Y586432D01*
X364287Y585643D01*
X365693Y584621D01*
X366921Y583393D01*
X367943Y581987D01*
X368732Y580438D01*
X369269Y578785D01*
X369283Y578699D01*
X360999Y578699D01*
G37*
%LPD*%
%LPC*%
G36*
X556699Y527899D02*
X556699Y527899D01*
X556699Y536183D01*
X556785Y536169D01*
X558438Y535632D01*
X559987Y534843D01*
X561393Y533821D01*
X562621Y532593D01*
X563643Y531187D01*
X564432Y529638D01*
X564969Y527985D01*
X564983Y527899D01*
X556699Y527899D01*
G37*
%LPD*%
%LPC*%
G36*
X556699Y522901D02*
X556699Y522901D01*
X564982Y522901D01*
X564969Y522815D01*
X564432Y521162D01*
X563643Y519613D01*
X562621Y518207D01*
X561393Y516979D01*
X559987Y515957D01*
X558438Y515168D01*
X556785Y514631D01*
X556699Y514618D01*
X556699Y522901D01*
G37*
%LPD*%
%LPC*%
G36*
X481941Y239668D02*
X481941Y239668D01*
X490224Y239668D01*
X490211Y239582D01*
X489674Y237929D01*
X488885Y236380D01*
X487863Y234974D01*
X486635Y233746D01*
X485229Y232724D01*
X483680Y231935D01*
X482027Y231398D01*
X481941Y231385D01*
X481941Y239668D01*
G37*
%LPD*%
%LPC*%
G36*
X244666Y518059D02*
X244666Y518059D01*
X252949Y518059D01*
X252936Y517973D01*
X252399Y516320D01*
X251610Y514771D01*
X250588Y513365D01*
X249360Y512137D01*
X247954Y511115D01*
X246405Y510326D01*
X244752Y509789D01*
X244666Y509776D01*
X244666Y518059D01*
G37*
%LPD*%
%LPC*%
G36*
X347718Y578699D02*
X347718Y578699D01*
X347731Y578785D01*
X348268Y580438D01*
X349057Y581987D01*
X350079Y583393D01*
X351307Y584621D01*
X352713Y585643D01*
X354262Y586432D01*
X355915Y586969D01*
X356001Y586982D01*
X356001Y578699D01*
X347718Y578699D01*
G37*
%LPD*%
%LPC*%
G36*
X543418Y527899D02*
X543418Y527899D01*
X543431Y527985D01*
X543968Y529638D01*
X544757Y531187D01*
X545779Y532593D01*
X547007Y533821D01*
X548413Y534843D01*
X549962Y535632D01*
X551615Y536169D01*
X551701Y536182D01*
X551701Y527899D01*
X543418Y527899D01*
G37*
%LPD*%
%LPC*%
G36*
X231385Y523057D02*
X231385Y523057D01*
X231398Y523143D01*
X231935Y524796D01*
X232724Y526345D01*
X233746Y527751D01*
X234974Y528979D01*
X236380Y530001D01*
X237929Y530790D01*
X239582Y531327D01*
X239668Y531340D01*
X239668Y523057D01*
X231385Y523057D01*
G37*
%LPD*%
%LPC*%
G36*
X509776Y760332D02*
X509776Y760332D01*
X509789Y760418D01*
X510326Y762071D01*
X511115Y763620D01*
X512137Y765026D01*
X513365Y766254D01*
X514771Y767276D01*
X516320Y768065D01*
X517973Y768602D01*
X518059Y768615D01*
X518059Y760332D01*
X509776Y760332D01*
G37*
%LPD*%
%LPC*%
G36*
X747051Y481941D02*
X747051Y481941D01*
X747064Y482027D01*
X747601Y483680D01*
X748390Y485229D01*
X749412Y486635D01*
X750640Y487863D01*
X752046Y488885D01*
X753595Y489674D01*
X755248Y490211D01*
X755334Y490224D01*
X755334Y481941D01*
X747051Y481941D01*
G37*
%LPD*%
%LPC*%
G36*
X468660Y244666D02*
X468660Y244666D01*
X468673Y244752D01*
X469210Y246405D01*
X469999Y247954D01*
X471021Y249360D01*
X472249Y250588D01*
X473655Y251610D01*
X475204Y252399D01*
X476857Y252936D01*
X476943Y252949D01*
X476943Y244666D01*
X468660Y244666D01*
G37*
%LPD*%
%LPC*%
G36*
X760332Y476943D02*
X760332Y476943D01*
X768615Y476943D01*
X768602Y476857D01*
X768065Y475204D01*
X767276Y473655D01*
X766254Y472249D01*
X765026Y471021D01*
X763620Y469999D01*
X762071Y469210D01*
X760418Y468673D01*
X760332Y468660D01*
X760332Y476943D01*
G37*
%LPD*%
%LPC*%
G36*
X523057Y755334D02*
X523057Y755334D01*
X531340Y755334D01*
X531327Y755248D01*
X530790Y753595D01*
X530001Y752046D01*
X528979Y750640D01*
X527751Y749412D01*
X526345Y748390D01*
X524796Y747601D01*
X523143Y747064D01*
X523057Y747051D01*
X523057Y755334D01*
G37*
%LPD*%
%LPC*%
G36*
X661922Y312540D02*
X661922Y312540D01*
X661993Y312591D01*
X663541Y313380D01*
X665194Y313917D01*
X666910Y314189D01*
X668648Y314189D01*
X670365Y313917D01*
X672018Y313380D01*
X673566Y312591D01*
X673637Y312540D01*
X667779Y306683D01*
X661922Y312540D01*
G37*
%LPD*%
%LPC*%
G36*
X335755Y696852D02*
X335755Y696852D01*
X341612Y702709D01*
X341664Y702638D01*
X342452Y701090D01*
X342989Y699437D01*
X343261Y697721D01*
X343261Y695983D01*
X342989Y694266D01*
X342452Y692614D01*
X341664Y691065D01*
X341612Y690995D01*
X335755Y696852D01*
G37*
%LPD*%
%LPC*%
G36*
X326363Y706244D02*
X326363Y706244D01*
X326434Y706295D01*
X327982Y707084D01*
X329635Y707621D01*
X331352Y707893D01*
X333089Y707893D01*
X334806Y707621D01*
X336459Y707084D01*
X338007Y706295D01*
X338078Y706244D01*
X332221Y700386D01*
X326363Y706244D01*
G37*
%LPD*%
%LPC*%
G36*
X671314Y303148D02*
X671314Y303148D01*
X677171Y309005D01*
X677222Y308935D01*
X678011Y307386D01*
X678548Y305733D01*
X678820Y304017D01*
X678820Y302279D01*
X678548Y300563D01*
X678011Y298910D01*
X677222Y297362D01*
X677171Y297291D01*
X671314Y303148D01*
G37*
%LPD*%
%LPC*%
G36*
X306683Y332221D02*
X306683Y332221D01*
X312540Y338078D01*
X312591Y338007D01*
X313380Y336459D01*
X313917Y334806D01*
X314189Y333089D01*
X314189Y331352D01*
X313917Y329635D01*
X313380Y327982D01*
X312591Y326434D01*
X312540Y326363D01*
X306683Y332221D01*
G37*
%LPD*%
%LPC*%
G36*
X297291Y341612D02*
X297291Y341612D01*
X297362Y341664D01*
X298910Y342452D01*
X300563Y342989D01*
X302279Y343261D01*
X304017Y343261D01*
X305733Y342989D01*
X307386Y342452D01*
X308935Y341664D01*
X309005Y341612D01*
X303148Y335755D01*
X297291Y341612D01*
G37*
%LPD*%
%LPC*%
G36*
X239582Y509789D02*
X239582Y509789D01*
X237929Y510326D01*
X236380Y511115D01*
X234974Y512137D01*
X233746Y513365D01*
X232724Y514771D01*
X231935Y516320D01*
X231398Y517973D01*
X231385Y518059D01*
X239668Y518059D01*
X239668Y509776D01*
X239582Y509789D01*
G37*
%LPD*%
%LPC*%
G36*
X476857Y231398D02*
X476857Y231398D01*
X475204Y231935D01*
X473655Y232724D01*
X472249Y233746D01*
X471021Y234974D01*
X469999Y236380D01*
X469210Y237929D01*
X468673Y239582D01*
X468660Y239668D01*
X476943Y239668D01*
X476943Y231385D01*
X476857Y231398D01*
G37*
%LPD*%
%LPC*%
G36*
X755248Y468673D02*
X755248Y468673D01*
X753595Y469210D01*
X752046Y469999D01*
X750640Y471021D01*
X749412Y472249D01*
X748390Y473655D01*
X747601Y475204D01*
X747064Y476857D01*
X747051Y476943D01*
X755334Y476943D01*
X755334Y468660D01*
X755248Y468673D01*
G37*
%LPD*%
%LPC*%
G36*
X551615Y514631D02*
X551615Y514631D01*
X549962Y515168D01*
X548413Y515957D01*
X547007Y516979D01*
X545779Y518207D01*
X544757Y519613D01*
X543968Y521162D01*
X543431Y522815D01*
X543418Y522901D01*
X551701Y522901D01*
X551701Y514618D01*
X551615Y514631D01*
G37*
%LPD*%
%LPC*%
G36*
X355915Y565431D02*
X355915Y565431D01*
X354262Y565968D01*
X352713Y566757D01*
X351307Y567779D01*
X350079Y569007D01*
X349057Y570413D01*
X348268Y571962D01*
X347731Y573615D01*
X347718Y573701D01*
X356001Y573701D01*
X356001Y565418D01*
X355915Y565431D01*
G37*
%LPD*%
%LPC*%
G36*
X517973Y747064D02*
X517973Y747064D01*
X516320Y747601D01*
X514771Y748390D01*
X513365Y749412D01*
X512137Y750640D01*
X511115Y752046D01*
X510326Y753595D01*
X509789Y755248D01*
X509776Y755334D01*
X518059Y755334D01*
X518059Y747051D01*
X517973Y747064D01*
G37*
%LPD*%
%LPC*%
G36*
X293705Y326434D02*
X293705Y326434D01*
X292916Y327982D01*
X292379Y329635D01*
X292107Y331352D01*
X292107Y333089D01*
X292379Y334806D01*
X292916Y336459D01*
X293705Y338007D01*
X293756Y338078D01*
X299614Y332221D01*
X293756Y326363D01*
X293705Y326434D01*
G37*
%LPD*%
%LPC*%
G36*
X322778Y691065D02*
X322778Y691065D01*
X321989Y692614D01*
X321452Y694266D01*
X321180Y695983D01*
X321180Y697721D01*
X321452Y699437D01*
X321989Y701090D01*
X322778Y702639D01*
X322829Y702709D01*
X328686Y696852D01*
X322829Y690995D01*
X322778Y691065D01*
G37*
%LPD*%
%LPC*%
G36*
X302279Y321180D02*
X302279Y321180D01*
X300563Y321452D01*
X298910Y321989D01*
X297361Y322778D01*
X297291Y322829D01*
X303148Y328686D01*
X309005Y322829D01*
X308935Y322778D01*
X307386Y321989D01*
X305733Y321452D01*
X304017Y321180D01*
X302279Y321180D01*
G37*
%LPD*%
%LPC*%
G36*
X666910Y292107D02*
X666910Y292107D01*
X665194Y292379D01*
X663541Y292916D01*
X661993Y293705D01*
X661922Y293756D01*
X667779Y299614D01*
X673637Y293756D01*
X673566Y293705D01*
X672018Y292916D01*
X670365Y292379D01*
X668648Y292107D01*
X666910Y292107D01*
G37*
%LPD*%
%LPC*%
G36*
X658337Y297361D02*
X658337Y297361D01*
X657548Y298910D01*
X657011Y300563D01*
X656739Y302279D01*
X656739Y304017D01*
X657011Y305733D01*
X657548Y307386D01*
X658337Y308935D01*
X658388Y309005D01*
X664245Y303148D01*
X658388Y297291D01*
X658337Y297361D01*
G37*
%LPD*%
%LPC*%
G36*
X331352Y685811D02*
X331352Y685811D01*
X329635Y686083D01*
X327982Y686620D01*
X326434Y687409D01*
X326363Y687460D01*
X332221Y693317D01*
X338078Y687460D01*
X338007Y687409D01*
X336459Y686620D01*
X334806Y686083D01*
X333089Y685811D01*
X331352Y685811D01*
G37*
%LPD*%
%LPC*%
G36*
X755273Y561617D02*
X755273Y561617D01*
X755551Y561617D01*
X757267Y561345D01*
X758920Y560808D01*
X760469Y560019D01*
X761875Y558997D01*
X763103Y557769D01*
X764125Y556363D01*
X764865Y554909D01*
X756709Y553471D01*
X755273Y561617D01*
G37*
%LPD*%
%LPC*%
G36*
X636936Y724075D02*
X636936Y724075D01*
X637132Y724271D01*
X638538Y725293D01*
X640086Y726082D01*
X641739Y726619D01*
X643456Y726891D01*
X645194Y726891D01*
X646910Y726619D01*
X648461Y726115D01*
X643711Y719331D01*
X636936Y724075D01*
G37*
%LPD*%
%LPC*%
G36*
X757577Y548549D02*
X757577Y548549D01*
X765723Y549985D01*
X765723Y549707D01*
X765451Y547991D01*
X764914Y546338D01*
X764125Y544789D01*
X763103Y543383D01*
X761875Y542155D01*
X760469Y541133D01*
X759015Y540393D01*
X757577Y548549D01*
G37*
%LPD*%
%LPC*%
G36*
X647805Y716464D02*
X647805Y716464D01*
X652550Y723239D01*
X652746Y723043D01*
X653768Y721637D01*
X654556Y720088D01*
X655093Y718435D01*
X655365Y716719D01*
X655365Y714981D01*
X655093Y713265D01*
X654589Y711714D01*
X647805Y716464D01*
G37*
%LPD*%
%LPC*%
G36*
X743641Y551445D02*
X743641Y551445D01*
X743913Y553161D01*
X744450Y554814D01*
X745239Y556363D01*
X746261Y557769D01*
X747489Y558997D01*
X748896Y560019D01*
X750349Y560759D01*
X751787Y552603D01*
X743641Y551167D01*
X743641Y551445D01*
G37*
%LPD*%
%LPC*%
G36*
X643456Y704809D02*
X643456Y704809D01*
X641739Y705081D01*
X640188Y705585D01*
X644938Y712369D01*
X651714Y707625D01*
X651517Y707429D01*
X650111Y706407D01*
X648563Y705618D01*
X646910Y705081D01*
X645194Y704809D01*
X643456Y704809D01*
G37*
%LPD*%
%LPC*%
G36*
X753813Y539535D02*
X753813Y539535D01*
X752097Y539807D01*
X750444Y540344D01*
X748896Y541133D01*
X747489Y542155D01*
X746261Y543383D01*
X745239Y544789D01*
X744499Y546243D01*
X752655Y547681D01*
X754091Y539535D01*
X753813Y539535D01*
G37*
%LPD*%
%LPC*%
G36*
X635903Y708657D02*
X635903Y708657D01*
X634882Y710064D01*
X634093Y711612D01*
X633556Y713265D01*
X633284Y714981D01*
X633284Y716719D01*
X633556Y718435D01*
X634060Y719987D01*
X640844Y715236D01*
X636100Y708461D01*
X635903Y708657D01*
G37*
%LPD*%
%LPC*%
G36*
X730628Y625586D02*
X730628Y625586D01*
X732045Y625811D01*
X733783Y625811D01*
X735500Y625539D01*
X737153Y625002D01*
X738701Y624213D01*
X740107Y623191D01*
X741336Y621962D01*
X741611Y621583D01*
X734123Y618091D01*
X730628Y625586D01*
G37*
%LPD*%
%LPC*%
G36*
X736236Y613561D02*
X736236Y613561D01*
X743731Y617056D01*
X743955Y615639D01*
X743955Y613901D01*
X743683Y612184D01*
X743146Y610532D01*
X742357Y608983D01*
X741336Y607577D01*
X740107Y606348D01*
X739728Y606073D01*
X736236Y613561D01*
G37*
%LPD*%
%LPC*%
G36*
X721874Y613901D02*
X721874Y613901D01*
X721874Y615639D01*
X722146Y617355D01*
X722683Y619008D01*
X723471Y620556D01*
X724493Y621962D01*
X725722Y623191D01*
X726101Y623467D01*
X729593Y615979D01*
X722098Y612484D01*
X721874Y613901D01*
G37*
%LPD*%
%LPC*%
G36*
X732045Y603729D02*
X732045Y603729D01*
X730329Y604001D01*
X728676Y604538D01*
X727128Y605327D01*
X725722Y606348D01*
X724493Y607577D01*
X724217Y607957D01*
X731705Y611449D01*
X735200Y603954D01*
X733783Y603729D01*
X732045Y603729D01*
G37*
%LPD*%
%LPC*%
G36*
X392300Y732654D02*
X392300Y732654D01*
X399451Y736782D01*
X399655Y736154D01*
X399927Y734438D01*
X399927Y732700D01*
X399655Y730983D01*
X399118Y729331D01*
X398329Y727782D01*
X397308Y726376D01*
X396431Y725499D01*
X392300Y732654D01*
G37*
%LPD*%
%LPC*%
G36*
X614528Y265516D02*
X614528Y265516D01*
X621678Y269645D01*
X621882Y269017D01*
X622154Y267300D01*
X622154Y265562D01*
X621882Y263846D01*
X621345Y262193D01*
X620556Y260645D01*
X619535Y259239D01*
X618658Y258362D01*
X614528Y265516D01*
G37*
%LPD*%
%LPC*%
G36*
X278920Y654264D02*
X278920Y654264D01*
X279797Y655141D01*
X281203Y656162D01*
X282751Y656951D01*
X284404Y657488D01*
X286120Y657760D01*
X287858Y657760D01*
X289575Y657488D01*
X290203Y657284D01*
X286074Y650133D01*
X278920Y654264D01*
G37*
%LPD*%
%LPC*%
G36*
X345211Y294534D02*
X345211Y294534D01*
X346088Y295411D01*
X347494Y296432D01*
X349042Y297221D01*
X350695Y297758D01*
X352412Y298030D01*
X354149Y298030D01*
X355866Y297758D01*
X356494Y297554D01*
X352366Y290403D01*
X345211Y294534D01*
G37*
%LPD*%
%LPC*%
G36*
X269845Y387972D02*
X269845Y387972D01*
X276996Y392100D01*
X277200Y391472D01*
X277472Y389755D01*
X277472Y388018D01*
X277200Y386301D01*
X276663Y384648D01*
X275874Y383100D01*
X274853Y381694D01*
X273976Y380817D01*
X269845Y387972D01*
G37*
%LPD*%
%LPC*%
G36*
X704941Y360825D02*
X704941Y360825D01*
X705818Y361702D01*
X707224Y362723D01*
X708773Y363512D01*
X710425Y364049D01*
X712142Y364321D01*
X713880Y364321D01*
X715596Y364049D01*
X716224Y363845D01*
X712096Y356695D01*
X704941Y360825D01*
G37*
%LPD*%
%LPC*%
G36*
X245261Y464166D02*
X245261Y464166D01*
X246501Y464166D01*
X248218Y463894D01*
X249870Y463357D01*
X251419Y462568D01*
X252825Y461547D01*
X254054Y460318D01*
X255075Y458912D01*
X255375Y458323D01*
X247399Y456186D01*
X245261Y464166D01*
G37*
%LPD*%
%LPC*%
G36*
X416472Y258040D02*
X416472Y258040D01*
X418609Y266016D01*
X419197Y265716D01*
X420603Y264695D01*
X421832Y263466D01*
X422854Y262060D01*
X423642Y260511D01*
X424180Y258859D01*
X424451Y257142D01*
X424451Y255902D01*
X416472Y258040D01*
G37*
%LPD*%
%LPC*%
G36*
X607900Y276996D02*
X607900Y276996D01*
X608528Y277200D01*
X610245Y277472D01*
X611982Y277472D01*
X613699Y277200D01*
X615352Y276663D01*
X616900Y275874D01*
X618306Y274853D01*
X619183Y273976D01*
X612028Y269845D01*
X607900Y276996D01*
G37*
%LPD*%
%LPC*%
G36*
X263218Y399451D02*
X263218Y399451D01*
X263846Y399655D01*
X265562Y399927D01*
X267300Y399927D01*
X269017Y399655D01*
X270669Y399118D01*
X272218Y398329D01*
X273624Y397308D01*
X274501Y396431D01*
X267346Y392301D01*
X263218Y399451D01*
G37*
%LPD*%
%LPC*%
G36*
X290403Y647634D02*
X290403Y647634D01*
X294534Y654789D01*
X295411Y653912D01*
X296432Y652506D01*
X297221Y650958D01*
X297758Y649305D01*
X298030Y647588D01*
X298030Y645851D01*
X297758Y644134D01*
X297554Y643506D01*
X290403Y647634D01*
G37*
%LPD*%
%LPC*%
G36*
X352412Y275949D02*
X352412Y275949D01*
X350695Y276220D01*
X350067Y276425D01*
X354195Y283575D01*
X361350Y279445D01*
X360473Y278568D01*
X359067Y277546D01*
X357519Y276757D01*
X355866Y276220D01*
X354149Y275949D01*
X352412Y275949D01*
G37*
%LPD*%
%LPC*%
G36*
X600345Y263846D02*
X600345Y263846D01*
X600073Y265562D01*
X600073Y267300D01*
X600345Y269017D01*
X600882Y270669D01*
X601671Y272218D01*
X602692Y273624D01*
X603569Y274501D01*
X607699Y267346D01*
X600549Y263218D01*
X600345Y263846D01*
G37*
%LPD*%
%LPC*%
G36*
X712142Y342240D02*
X712142Y342240D01*
X710425Y342512D01*
X709797Y342716D01*
X713926Y349866D01*
X721080Y345736D01*
X720203Y344859D01*
X718797Y343838D01*
X717249Y343049D01*
X715596Y342512D01*
X713880Y342240D01*
X712142Y342240D01*
G37*
%LPD*%
%LPC*%
G36*
X255662Y386301D02*
X255662Y386301D01*
X255391Y388018D01*
X255391Y389755D01*
X255662Y391472D01*
X256199Y393125D01*
X256988Y394673D01*
X258010Y396079D01*
X258887Y396956D01*
X263017Y389801D01*
X255867Y385673D01*
X255662Y386301D01*
G37*
%LPD*%
%LPC*%
G36*
X378118Y730983D02*
X378118Y730983D01*
X377846Y732700D01*
X377846Y734438D01*
X378118Y736154D01*
X378655Y737807D01*
X379444Y739355D01*
X380465Y740761D01*
X381342Y741638D01*
X385472Y734484D01*
X378322Y730355D01*
X378118Y730983D01*
G37*
%LPD*%
%LPC*%
G36*
X286120Y635679D02*
X286120Y635679D01*
X284404Y635951D01*
X283776Y636155D01*
X287904Y643305D01*
X295059Y639175D01*
X294182Y638298D01*
X292776Y637277D01*
X291227Y636488D01*
X289575Y635951D01*
X287858Y635679D01*
X286120Y635679D01*
G37*
%LPD*%
%LPC*%
G36*
X546504Y256673D02*
X546504Y256673D01*
X547744Y256673D01*
X549460Y256401D01*
X551113Y255864D01*
X552661Y255075D01*
X554067Y254054D01*
X555296Y252825D01*
X556318Y251419D01*
X556618Y250830D01*
X548642Y248693D01*
X546504Y256673D01*
G37*
%LPD*%
%LPC*%
G36*
X746788Y415178D02*
X746788Y415178D01*
X748925Y423153D01*
X749513Y422854D01*
X750919Y421832D01*
X752148Y420603D01*
X753170Y419197D01*
X753959Y417649D01*
X754496Y415996D01*
X754767Y414280D01*
X754767Y413040D01*
X746788Y415178D01*
G37*
%LPD*%
%LPC*%
G36*
X589650Y745494D02*
X589650Y745494D01*
X591787Y753470D01*
X592376Y753170D01*
X593782Y752148D01*
X595011Y750919D01*
X596032Y749513D01*
X596821Y747965D01*
X597358Y746312D01*
X597630Y744596D01*
X597630Y743356D01*
X589650Y745494D01*
G37*
%LPD*%
%LPC*%
G36*
X259334Y588357D02*
X259334Y588357D01*
X261471Y596332D01*
X262060Y596032D01*
X263466Y595011D01*
X264695Y593782D01*
X265716Y592376D01*
X266505Y590828D01*
X267042Y589175D01*
X267314Y587458D01*
X267314Y586218D01*
X259334Y588357D01*
G37*
%LPD*%
%LPC*%
G36*
X452754Y765408D02*
X452754Y765408D01*
X453994Y765408D01*
X455711Y765137D01*
X457363Y764600D01*
X458912Y763811D01*
X460318Y762789D01*
X461547Y761560D01*
X462568Y760154D01*
X462868Y759566D01*
X454892Y757429D01*
X452754Y765408D01*
G37*
%LPD*%
%LPC*%
G36*
X549936Y243865D02*
X549936Y243865D01*
X557916Y246003D01*
X557916Y244763D01*
X557644Y243047D01*
X557107Y241394D01*
X556318Y239846D01*
X555296Y238440D01*
X554067Y237211D01*
X552661Y236189D01*
X552073Y235889D01*
X549936Y243865D01*
G37*
%LPD*%
%LPC*%
G36*
X248693Y451358D02*
X248693Y451358D01*
X256673Y453496D01*
X256673Y452256D01*
X256401Y450540D01*
X255864Y448887D01*
X255075Y447339D01*
X254054Y445933D01*
X252825Y444704D01*
X251419Y443682D01*
X250830Y443382D01*
X248693Y451358D01*
G37*
%LPD*%
%LPC*%
G36*
X403668Y261471D02*
X403668Y261471D01*
X403968Y262060D01*
X404989Y263466D01*
X406218Y264695D01*
X407624Y265716D01*
X409172Y266505D01*
X410825Y267042D01*
X412542Y267314D01*
X413782Y267314D01*
X411643Y259334D01*
X403668Y261471D01*
G37*
%LPD*%
%LPC*%
G36*
X456186Y752600D02*
X456186Y752600D01*
X464166Y754739D01*
X464166Y753499D01*
X463894Y751782D01*
X463357Y750130D01*
X462568Y748581D01*
X461547Y747175D01*
X460318Y745946D01*
X458912Y744925D01*
X458323Y744625D01*
X456186Y752600D01*
G37*
%LPD*%
%LPC*%
G36*
X576846Y748925D02*
X576846Y748925D01*
X577146Y749513D01*
X578168Y750919D01*
X579397Y752148D01*
X580803Y753170D01*
X582351Y753959D01*
X584004Y754496D01*
X585720Y754767D01*
X586960Y754767D01*
X584822Y746788D01*
X576846Y748925D01*
G37*
%LPD*%
%LPC*%
G36*
X733984Y418609D02*
X733984Y418609D01*
X734284Y419197D01*
X735305Y420603D01*
X736534Y421832D01*
X737940Y422854D01*
X739489Y423642D01*
X741141Y424180D01*
X742858Y424451D01*
X744098Y424451D01*
X741959Y416472D01*
X733984Y418609D01*
G37*
%LPD*%
%LPC*%
G36*
X246530Y591787D02*
X246530Y591787D01*
X246830Y592376D01*
X247852Y593782D01*
X249081Y595011D01*
X250487Y596032D01*
X252035Y596821D01*
X253688Y597358D01*
X255404Y597630D01*
X256644Y597630D01*
X254506Y589650D01*
X246530Y591787D01*
G37*
%LPD*%
%LPC*%
G36*
X356695Y287904D02*
X356695Y287904D01*
X360825Y295059D01*
X361702Y294182D01*
X362723Y292776D01*
X363512Y291227D01*
X364049Y289575D01*
X364321Y287858D01*
X364321Y286120D01*
X364049Y284404D01*
X363845Y283776D01*
X356695Y287904D01*
G37*
%LPD*%
%LPC*%
G36*
X716425Y354195D02*
X716425Y354195D01*
X720555Y361350D01*
X721432Y360473D01*
X722454Y359067D01*
X723243Y357519D01*
X723780Y355866D01*
X724051Y354149D01*
X724051Y352412D01*
X723780Y350695D01*
X723575Y350067D01*
X716425Y354195D01*
G37*
%LPD*%
%LPC*%
G36*
X385673Y744133D02*
X385673Y744133D01*
X386301Y744338D01*
X388018Y744609D01*
X389755Y744609D01*
X391472Y744338D01*
X393125Y743801D01*
X394673Y743012D01*
X396079Y741990D01*
X396956Y741113D01*
X389801Y736983D01*
X385673Y744133D01*
G37*
%LPD*%
%LPC*%
G36*
X234591Y453994D02*
X234591Y453994D01*
X234863Y455711D01*
X235400Y457363D01*
X236189Y458912D01*
X237211Y460318D01*
X238440Y461547D01*
X239846Y462568D01*
X240434Y462868D01*
X242571Y454892D01*
X234591Y452754D01*
X234591Y453994D01*
G37*
%LPD*%
%LPC*%
G36*
X413040Y245232D02*
X413040Y245232D01*
X415178Y253212D01*
X423153Y251075D01*
X422854Y250487D01*
X421832Y249081D01*
X420603Y247852D01*
X419197Y246830D01*
X417649Y246041D01*
X415996Y245504D01*
X414280Y245232D01*
X413040Y245232D01*
G37*
%LPD*%
%LPC*%
G36*
X442084Y755237D02*
X442084Y755237D01*
X442356Y756953D01*
X442893Y758606D01*
X443682Y760154D01*
X444704Y761560D01*
X445933Y762789D01*
X447339Y763811D01*
X447927Y764111D01*
X450064Y756135D01*
X442084Y753997D01*
X442084Y755237D01*
G37*
%LPD*%
%LPC*%
G36*
X255902Y575549D02*
X255902Y575549D01*
X258040Y583528D01*
X266016Y581391D01*
X265716Y580803D01*
X264695Y579397D01*
X263466Y578168D01*
X262060Y577146D01*
X260511Y576357D01*
X258859Y575820D01*
X257142Y575549D01*
X255902Y575549D01*
G37*
%LPD*%
%LPC*%
G36*
X704589Y346088D02*
X704589Y346088D01*
X703568Y347494D01*
X702779Y349042D01*
X702242Y350695D01*
X701970Y352412D01*
X701970Y354149D01*
X702242Y355866D01*
X702446Y356494D01*
X709597Y352366D01*
X705466Y345211D01*
X704589Y346088D01*
G37*
%LPD*%
%LPC*%
G36*
X278568Y639527D02*
X278568Y639527D01*
X277546Y640933D01*
X276757Y642481D01*
X276220Y644134D01*
X275949Y645851D01*
X275949Y647588D01*
X276220Y649305D01*
X276425Y649933D01*
X283575Y645805D01*
X279445Y638650D01*
X278568Y639527D01*
G37*
%LPD*%
%LPC*%
G36*
X265562Y377846D02*
X265562Y377846D01*
X263846Y378118D01*
X262193Y378655D01*
X260645Y379444D01*
X259239Y380465D01*
X258362Y381342D01*
X265516Y385472D01*
X269645Y378322D01*
X269017Y378118D01*
X267300Y377846D01*
X265562Y377846D01*
G37*
%LPD*%
%LPC*%
G36*
X610245Y255391D02*
X610245Y255391D01*
X608528Y255662D01*
X606875Y256199D01*
X605327Y256988D01*
X603921Y258010D01*
X603044Y258887D01*
X610199Y263017D01*
X614327Y255867D01*
X613699Y255662D01*
X611982Y255391D01*
X610245Y255391D01*
G37*
%LPD*%
%LPC*%
G36*
X388018Y722528D02*
X388018Y722528D01*
X386301Y722800D01*
X384648Y723337D01*
X383100Y724126D01*
X381694Y725147D01*
X380817Y726024D01*
X387972Y730155D01*
X392100Y723004D01*
X391472Y722800D01*
X389755Y722528D01*
X388018Y722528D01*
G37*
%LPD*%
%LPC*%
G36*
X344859Y279797D02*
X344859Y279797D01*
X343838Y281203D01*
X343049Y282751D01*
X342512Y284404D01*
X342240Y286120D01*
X342240Y287858D01*
X342512Y289575D01*
X342716Y290203D01*
X349866Y286074D01*
X345736Y278920D01*
X344859Y279797D01*
G37*
%LPD*%
%LPC*%
G36*
X535834Y246501D02*
X535834Y246501D01*
X536106Y248218D01*
X536643Y249870D01*
X537432Y251419D01*
X538453Y252825D01*
X539682Y254054D01*
X541088Y255075D01*
X541677Y255375D01*
X543814Y247399D01*
X535834Y245261D01*
X535834Y246501D01*
G37*
%LPD*%
%LPC*%
G36*
X586218Y732686D02*
X586218Y732686D01*
X588357Y740666D01*
X596332Y738529D01*
X596032Y737940D01*
X595011Y736534D01*
X593782Y735305D01*
X592376Y734284D01*
X590828Y733495D01*
X589175Y732958D01*
X587458Y732686D01*
X586218Y732686D01*
G37*
%LPD*%
%LPC*%
G36*
X743356Y402370D02*
X743356Y402370D01*
X745494Y410350D01*
X753470Y408213D01*
X753170Y407624D01*
X752148Y406218D01*
X750919Y404989D01*
X749513Y403968D01*
X747965Y403179D01*
X746312Y402642D01*
X744596Y402370D01*
X743356Y402370D01*
G37*
%LPD*%
%LPC*%
G36*
X698795Y670834D02*
X698795Y670834D01*
X705118Y676140D01*
X705505Y675380D01*
X706042Y673727D01*
X706314Y672011D01*
X706314Y670273D01*
X706042Y668556D01*
X705505Y666904D01*
X704716Y665355D01*
X704102Y664509D01*
X698795Y670834D01*
G37*
%LPD*%
%LPC*%
G36*
X407624Y246830D02*
X407624Y246830D01*
X406218Y247852D01*
X404989Y249081D01*
X403968Y250487D01*
X403179Y252035D01*
X402642Y253688D01*
X402370Y255404D01*
X402370Y256644D01*
X410350Y254506D01*
X408213Y246530D01*
X407624Y246830D01*
G37*
%LPD*%
%LPC*%
G36*
X244763Y442084D02*
X244763Y442084D01*
X243047Y442356D01*
X241394Y442893D01*
X239846Y443682D01*
X238440Y444704D01*
X237211Y445933D01*
X236189Y447339D01*
X235889Y447927D01*
X243865Y450064D01*
X246003Y442084D01*
X244763Y442084D01*
G37*
%LPD*%
%LPC*%
G36*
X737940Y403968D02*
X737940Y403968D01*
X736534Y404989D01*
X735305Y406218D01*
X734284Y407624D01*
X733495Y409172D01*
X732958Y410825D01*
X732686Y412542D01*
X732686Y413782D01*
X740666Y411643D01*
X738529Y403668D01*
X737940Y403968D01*
G37*
%LPD*%
%LPC*%
G36*
X580803Y734284D02*
X580803Y734284D01*
X579397Y735305D01*
X578168Y736534D01*
X577146Y737940D01*
X576357Y739489D01*
X575820Y741141D01*
X575549Y742858D01*
X575549Y744098D01*
X583528Y741959D01*
X581391Y733984D01*
X580803Y734284D01*
G37*
%LPD*%
%LPC*%
G36*
X452256Y743327D02*
X452256Y743327D01*
X450540Y743599D01*
X448887Y744136D01*
X447339Y744925D01*
X445933Y745946D01*
X444704Y747175D01*
X443682Y748581D01*
X443382Y749170D01*
X451358Y751307D01*
X453496Y743327D01*
X452256Y743327D01*
G37*
%LPD*%
%LPC*%
G36*
X546006Y234591D02*
X546006Y234591D01*
X544289Y234863D01*
X542637Y235400D01*
X541088Y236189D01*
X539682Y237211D01*
X538453Y238440D01*
X537432Y239846D01*
X537132Y240434D01*
X545108Y242571D01*
X547246Y234591D01*
X546006Y234591D01*
G37*
%LPD*%
%LPC*%
G36*
X250487Y577146D02*
X250487Y577146D01*
X249081Y578168D01*
X247852Y579397D01*
X246830Y580803D01*
X246041Y582351D01*
X245504Y584004D01*
X245232Y585720D01*
X245232Y586960D01*
X253212Y584822D01*
X251075Y576847D01*
X250487Y577146D01*
G37*
%LPD*%
%LPC*%
G36*
X690275Y680987D02*
X690275Y680987D01*
X691035Y681374D01*
X692688Y681911D01*
X694405Y682183D01*
X696142Y682183D01*
X697859Y681911D01*
X699512Y681374D01*
X701060Y680585D01*
X701906Y679970D01*
X695582Y674663D01*
X690275Y680987D01*
G37*
%LPD*%
%LPC*%
G36*
X685042Y666904D02*
X685042Y666904D01*
X684505Y668556D01*
X684233Y670273D01*
X684233Y672011D01*
X684505Y673727D01*
X685042Y675380D01*
X685831Y676928D01*
X686445Y677775D01*
X691752Y671450D01*
X685429Y666144D01*
X685042Y666904D01*
G37*
%LPD*%
%LPC*%
G36*
X694405Y660101D02*
X694405Y660101D01*
X692688Y660373D01*
X691035Y660910D01*
X689487Y661699D01*
X688641Y662314D01*
X694965Y667621D01*
X700272Y661297D01*
X699512Y660910D01*
X697859Y660373D01*
X696142Y660101D01*
X694405Y660101D01*
G37*
%LPD*%
%LPC*%
G36*
X569999Y359999D02*
X569999Y359999D01*
X569999Y360001D01*
X570001Y360001D01*
X570001Y359999D01*
X569999Y359999D01*
G37*
%LPD*%
D10*
X14835Y621108D02*
X12201Y610027D01*
X9820Y598889D01*
X7693Y587700D01*
X5821Y576465D01*
X4206Y565191D01*
X2848Y553882D01*
X1748Y542546D01*
X906Y531187D01*
X324Y519813D01*
X0Y508428D01*
X49928Y508428D01*
X50135Y508425D01*
X50342Y508418D01*
X50548Y508405D01*
X50755Y508388D01*
X50960Y508365D01*
X51166Y508337D01*
X51370Y508305D01*
X51574Y508267D01*
X51776Y508225D01*
X51978Y508177D01*
X52178Y508125D01*
X52377Y508068D01*
X52574Y508006D01*
X52770Y507939D01*
X52964Y507867D01*
X53157Y507791D01*
X53347Y507710D01*
X53536Y507624D01*
X53722Y507534D01*
X53906Y507440D01*
X54088Y507340D01*
X54267Y507237D01*
X54444Y507129D01*
X54618Y507017D01*
X54789Y506901D01*
X54958Y506780D01*
X55123Y506656D01*
X55285Y506527D01*
X55444Y506395D01*
X55600Y506259D01*
X55753Y506119D01*
X55902Y505975D01*
X56047Y505828D01*
X56189Y505677D01*
X56327Y505523D01*
X56462Y505365D01*
X56592Y505205D01*
X56718Y505041D01*
X56841Y504874D01*
X56959Y504704D01*
X57074Y504531D01*
X57184Y504356D01*
X57289Y504178D01*
X57391Y503997D01*
X57487Y503815D01*
X57580Y503629D01*
X57668Y503442D01*
X57751Y503252D01*
X57830Y503061D01*
X57904Y502868D01*
X57973Y502672D01*
X58037Y502476D01*
X58097Y502278D01*
X58152Y502078D01*
X58202Y501877D01*
X58247Y501675D01*
X58287Y501472D01*
X58322Y501268D01*
X58352Y501063D01*
X58377Y500858D01*
X58397Y500652D01*
X58412Y500445D01*
X58422Y500238D01*
X58427Y500031D01*
X58427Y499825D01*
X58422Y499618D01*
X58412Y499411D01*
X58397Y499204D01*
X58377Y498998D01*
X58352Y498793D01*
X58322Y498588D01*
X58287Y498384D01*
X58247Y498181D01*
X58202Y497979D01*
X58152Y497778D01*
X58097Y497578D01*
X58037Y497380D01*
X57973Y497184D01*
X57904Y496988D01*
X57830Y496795D01*
X57751Y496604D01*
X57668Y496414D01*
X57580Y496227D01*
X57487Y496041D01*
X57391Y495859D01*
X57289Y495678D01*
X57184Y495500D01*
X57074Y495325D01*
X56959Y495152D01*
X56841Y494982D01*
X56718Y494815D01*
X56592Y494651D01*
X56462Y494491D01*
X56327Y494333D01*
X56189Y494179D01*
X56047Y494028D01*
X55902Y493881D01*
X55753Y493737D01*
X55600Y493597D01*
X55444Y493461D01*
X55285Y493329D01*
X55123Y493200D01*
X54958Y493076D01*
X54789Y492955D01*
X54618Y492839D01*
X54444Y492727D01*
X54267Y492619D01*
X54088Y492516D01*
X53906Y492416D01*
X53722Y492322D01*
X53536Y492232D01*
X53347Y492146D01*
X53157Y492065D01*
X52964Y491989D01*
X52770Y491917D01*
X52574Y491850D01*
X52377Y491788D01*
X52178Y491731D01*
X51978Y491679D01*
X51776Y491631D01*
X51574Y491589D01*
X51370Y491551D01*
X51166Y491519D01*
X50960Y491491D01*
X50755Y491468D01*
X50548Y491451D01*
X50342Y491438D01*
X50135Y491431D01*
X49928Y491428D01*
X0Y491428D01*
X-1Y491428D02*
X323Y480043D01*
X905Y468668D01*
X1747Y457309D01*
X2847Y445973D01*
X4205Y434664D01*
X5820Y423390D01*
X7692Y412155D01*
X9819Y400966D01*
X12200Y389828D01*
X14834Y378747D01*
X14835Y378747D02*
X63061Y391670D01*
X63263Y391722D01*
X63467Y391768D01*
X63671Y391810D01*
X63876Y391846D01*
X64083Y391878D01*
X64290Y391904D01*
X64497Y391926D01*
X64705Y391942D01*
X64913Y391953D01*
X65122Y391959D01*
X65331Y391960D01*
X65539Y391955D01*
X65748Y391946D01*
X65956Y391932D01*
X66163Y391912D01*
X66370Y391887D01*
X66577Y391858D01*
X66783Y391823D01*
X66987Y391783D01*
X67191Y391738D01*
X67394Y391688D01*
X67595Y391633D01*
X67795Y391574D01*
X67993Y391509D01*
X68190Y391439D01*
X68385Y391365D01*
X68578Y391286D01*
X68769Y391202D01*
X68958Y391114D01*
X69145Y391021D01*
X69329Y390923D01*
X69511Y390821D01*
X69690Y390715D01*
X69867Y390604D01*
X70041Y390489D01*
X70212Y390369D01*
X70380Y390246D01*
X70545Y390118D01*
X70707Y389986D01*
X70865Y389851D01*
X71021Y389711D01*
X71172Y389568D01*
X71320Y389421D01*
X71465Y389271D01*
X71606Y389117D01*
X71742Y388959D01*
X71875Y388798D01*
X72005Y388634D01*
X72129Y388467D01*
X72250Y388297D01*
X72367Y388124D01*
X72479Y387949D01*
X72587Y387770D01*
X72691Y387589D01*
X72790Y387405D01*
X72884Y387219D01*
X72974Y387031D01*
X73060Y386841D01*
X73140Y386648D01*
X73216Y386454D01*
X73287Y386258D01*
X73354Y386060D01*
X73415Y385861D01*
X73471Y385660D01*
X73523Y385458D01*
X73569Y385254D01*
X73611Y385050D01*
X73647Y384845D01*
X73679Y384638D01*
X73705Y384431D01*
X73727Y384224D01*
X73743Y384016D01*
X73754Y383808D01*
X73760Y383599D01*
X73761Y383390D01*
X73756Y383182D01*
X73747Y382973D01*
X73733Y382765D01*
X73713Y382558D01*
X73688Y382351D01*
X73659Y382144D01*
X73624Y381938D01*
X73584Y381734D01*
X73539Y381530D01*
X73489Y381327D01*
X73434Y381126D01*
X73375Y380926D01*
X73310Y380728D01*
X73240Y380531D01*
X73166Y380336D01*
X73087Y380143D01*
X73003Y379952D01*
X72915Y379763D01*
X72822Y379576D01*
X72724Y379392D01*
X72622Y379210D01*
X72516Y379031D01*
X72405Y378854D01*
X72290Y378680D01*
X72170Y378509D01*
X72047Y378341D01*
X71919Y378176D01*
X71787Y378014D01*
X71652Y377856D01*
X71512Y377700D01*
X71369Y377549D01*
X71222Y377401D01*
X71072Y377256D01*
X70918Y377115D01*
X70760Y376979D01*
X70599Y376846D01*
X70435Y376716D01*
X70268Y376592D01*
X70098Y376471D01*
X69925Y376354D01*
X69750Y376242D01*
X69571Y376134D01*
X69390Y376030D01*
X69206Y375931D01*
X69020Y375837D01*
X68832Y375747D01*
X68642Y375661D01*
X68449Y375581D01*
X68255Y375505D01*
X68059Y375434D01*
X67861Y375367D01*
X67662Y375306D01*
X67461Y375250D01*
X67461Y375249D02*
X19235Y362327D01*
X22494Y351414D01*
X26000Y340577D01*
X29753Y329824D01*
X33750Y319158D01*
X37988Y308586D01*
X42466Y298114D01*
X47182Y287746D01*
X52132Y277489D01*
X57315Y267347D01*
X62728Y257325D01*
X105966Y282289D01*
X106146Y282390D01*
X106329Y282487D01*
X106515Y282580D01*
X106702Y282668D01*
X106892Y282751D01*
X107083Y282830D01*
X107276Y282903D01*
X107471Y282973D01*
X107668Y283037D01*
X107866Y283097D01*
X108066Y283152D01*
X108267Y283202D01*
X108469Y283247D01*
X108672Y283287D01*
X108876Y283322D01*
X109081Y283352D01*
X109286Y283377D01*
X109492Y283397D01*
X109699Y283412D01*
X109905Y283422D01*
X110112Y283427D01*
X110319Y283427D01*
X110526Y283422D01*
X110733Y283412D01*
X110940Y283397D01*
X111146Y283377D01*
X111351Y283352D01*
X111556Y283322D01*
X111760Y283287D01*
X111963Y283247D01*
X112165Y283202D01*
X112366Y283152D01*
X112565Y283097D01*
X112764Y283037D01*
X112960Y282973D01*
X113155Y282904D01*
X113349Y282830D01*
X113540Y282751D01*
X113730Y282668D01*
X113917Y282580D01*
X114102Y282487D01*
X114285Y282391D01*
X114466Y282289D01*
X114644Y282184D01*
X114819Y282074D01*
X114992Y281959D01*
X115162Y281841D01*
X115329Y281719D01*
X115492Y281592D01*
X115653Y281462D01*
X115811Y281327D01*
X115965Y281189D01*
X116116Y281047D01*
X116263Y280902D01*
X116406Y280753D01*
X116546Y280600D01*
X116683Y280444D01*
X116815Y280285D01*
X116944Y280123D01*
X117068Y279958D01*
X117189Y279789D01*
X117305Y279618D01*
X117417Y279444D01*
X117525Y279267D01*
X117628Y279088D01*
X117727Y278906D01*
X117822Y278722D01*
X117912Y278536D01*
X117998Y278347D01*
X118079Y278157D01*
X118155Y277965D01*
X118227Y277770D01*
X118294Y277574D01*
X118356Y277377D01*
X118413Y277178D01*
X118465Y276978D01*
X118513Y276776D01*
X118555Y276574D01*
X118593Y276370D01*
X118625Y276166D01*
X118653Y275961D01*
X118676Y275755D01*
X118693Y275549D01*
X118706Y275342D01*
X118713Y275135D01*
X118716Y274928D01*
X118713Y274721D01*
X118706Y274514D01*
X118693Y274308D01*
X118676Y274101D01*
X118653Y273896D01*
X118625Y273690D01*
X118593Y273486D01*
X118555Y273283D01*
X118513Y273080D01*
X118465Y272878D01*
X118413Y272678D01*
X118356Y272479D01*
X118294Y272282D01*
X118227Y272086D01*
X118155Y271892D01*
X118079Y271699D01*
X117998Y271509D01*
X117912Y271320D01*
X117822Y271134D01*
X117728Y270950D01*
X117628Y270768D01*
X117525Y270589D01*
X117417Y270412D01*
X117305Y270238D01*
X117189Y270067D01*
X117068Y269898D01*
X116944Y269733D01*
X116815Y269571D01*
X116683Y269412D01*
X116547Y269256D01*
X116407Y269103D01*
X116263Y268954D01*
X116116Y268809D01*
X115965Y268667D01*
X115811Y268529D01*
X115653Y268395D01*
X115493Y268264D01*
X115329Y268138D01*
X115162Y268015D01*
X114992Y267897D01*
X114819Y267782D01*
X114644Y267673D01*
X114466Y267567D01*
X71228Y242603D01*
X77200Y232905D01*
X83392Y223345D01*
X89800Y213929D01*
X96421Y204661D01*
X103251Y195547D01*
X110287Y186590D01*
X117525Y177796D01*
X124962Y169170D01*
X132593Y160715D01*
X140415Y152436D01*
X175719Y187740D01*
X175720Y187740D02*
X175869Y187886D01*
X176022Y188028D01*
X176178Y188166D01*
X176338Y188301D01*
X176501Y188431D01*
X176667Y188557D01*
X176836Y188679D01*
X177008Y188797D01*
X177183Y188911D01*
X177360Y189021D01*
X177540Y189126D01*
X177723Y189226D01*
X177908Y189322D01*
X178096Y189414D01*
X178285Y189501D01*
X178477Y189583D01*
X178671Y189660D01*
X178866Y189733D01*
X179064Y189801D01*
X179263Y189864D01*
X179463Y189922D01*
X179665Y189975D01*
X179868Y190023D01*
X180072Y190067D01*
X180277Y190105D01*
X180483Y190138D01*
X180690Y190166D01*
X180897Y190189D01*
X181105Y190207D01*
X181313Y190220D01*
X181521Y190227D01*
X181730Y190230D01*
X181939Y190227D01*
X182147Y190220D01*
X182355Y190207D01*
X182563Y190189D01*
X182770Y190166D01*
X182977Y190138D01*
X183183Y190105D01*
X183388Y190067D01*
X183592Y190023D01*
X183795Y189975D01*
X183997Y189922D01*
X184197Y189864D01*
X184396Y189801D01*
X184594Y189733D01*
X184789Y189660D01*
X184983Y189583D01*
X185175Y189501D01*
X185364Y189414D01*
X185552Y189322D01*
X185737Y189226D01*
X185920Y189126D01*
X186100Y189021D01*
X186277Y188911D01*
X186452Y188797D01*
X186624Y188679D01*
X186793Y188557D01*
X186959Y188431D01*
X187122Y188301D01*
X187282Y188166D01*
X187438Y188028D01*
X187591Y187886D01*
X187740Y187740D01*
X187886Y187591D01*
X188028Y187438D01*
X188166Y187282D01*
X188301Y187122D01*
X188431Y186959D01*
X188557Y186793D01*
X188679Y186624D01*
X188797Y186452D01*
X188911Y186277D01*
X189021Y186100D01*
X189126Y185920D01*
X189226Y185737D01*
X189322Y185552D01*
X189414Y185364D01*
X189501Y185175D01*
X189583Y184983D01*
X189660Y184789D01*
X189733Y184594D01*
X189801Y184396D01*
X189864Y184197D01*
X189922Y183997D01*
X189975Y183795D01*
X190023Y183592D01*
X190067Y183388D01*
X190105Y183183D01*
X190138Y182977D01*
X190166Y182770D01*
X190189Y182563D01*
X190207Y182355D01*
X190220Y182147D01*
X190227Y181939D01*
X190230Y181730D01*
X190227Y181521D01*
X190220Y181313D01*
X190207Y181105D01*
X190189Y180897D01*
X190166Y180690D01*
X190138Y180483D01*
X190105Y180277D01*
X190067Y180072D01*
X190023Y179868D01*
X189975Y179665D01*
X189922Y179463D01*
X189864Y179263D01*
X189801Y179064D01*
X189733Y178866D01*
X189660Y178671D01*
X189583Y178477D01*
X189501Y178285D01*
X189414Y178096D01*
X189322Y177908D01*
X189226Y177723D01*
X189126Y177540D01*
X189021Y177360D01*
X188911Y177183D01*
X188797Y177008D01*
X188679Y176836D01*
X188557Y176667D01*
X188431Y176501D01*
X188301Y176338D01*
X188166Y176178D01*
X188028Y176022D01*
X187886Y175869D01*
X187740Y175720D01*
X187740Y175719D02*
X152436Y140415D01*
X160715Y132593D01*
X169170Y124962D01*
X177796Y117525D01*
X186590Y110287D01*
X195547Y103251D01*
X204661Y96421D01*
X213929Y89800D01*
X223345Y83392D01*
X232905Y77200D01*
X242603Y71228D01*
X267567Y114466D01*
X267673Y114644D01*
X267782Y114819D01*
X267897Y114992D01*
X268015Y115162D01*
X268138Y115329D01*
X268264Y115493D01*
X268395Y115653D01*
X268529Y115811D01*
X268667Y115965D01*
X268809Y116116D01*
X268954Y116263D01*
X269103Y116407D01*
X269256Y116547D01*
X269412Y116683D01*
X269571Y116815D01*
X269733Y116944D01*
X269898Y117068D01*
X270067Y117189D01*
X270238Y117305D01*
X270412Y117417D01*
X270589Y117525D01*
X270768Y117628D01*
X270950Y117728D01*
X271134Y117822D01*
X271320Y117912D01*
X271509Y117998D01*
X271699Y118079D01*
X271892Y118155D01*
X272086Y118227D01*
X272282Y118294D01*
X272479Y118356D01*
X272678Y118413D01*
X272878Y118465D01*
X273080Y118513D01*
X273283Y118555D01*
X273486Y118593D01*
X273690Y118625D01*
X273896Y118653D01*
X274101Y118676D01*
X274308Y118693D01*
X274514Y118706D01*
X274721Y118713D01*
X274928Y118716D01*
X275135Y118713D01*
X275342Y118706D01*
X275549Y118693D01*
X275755Y118676D01*
X275961Y118653D01*
X276166Y118625D01*
X276370Y118593D01*
X276574Y118555D01*
X276776Y118513D01*
X276978Y118465D01*
X277178Y118413D01*
X277377Y118356D01*
X277574Y118294D01*
X277770Y118227D01*
X277965Y118155D01*
X278157Y118079D01*
X278347Y117998D01*
X278536Y117912D01*
X278722Y117822D01*
X278906Y117727D01*
X279088Y117628D01*
X279267Y117525D01*
X279444Y117417D01*
X279618Y117305D01*
X279789Y117189D01*
X279958Y117068D01*
X280123Y116944D01*
X280285Y116815D01*
X280444Y116683D01*
X280600Y116546D01*
X280753Y116406D01*
X280902Y116263D01*
X281047Y116116D01*
X281189Y115965D01*
X281327Y115811D01*
X281462Y115653D01*
X281592Y115492D01*
X281719Y115329D01*
X281841Y115162D01*
X281959Y114992D01*
X282074Y114819D01*
X282184Y114644D01*
X282289Y114466D01*
X282391Y114285D01*
X282487Y114102D01*
X282580Y113917D01*
X282668Y113730D01*
X282751Y113540D01*
X282830Y113349D01*
X282904Y113155D01*
X282973Y112960D01*
X283037Y112764D01*
X283097Y112565D01*
X283152Y112366D01*
X283202Y112165D01*
X283247Y111963D01*
X283287Y111760D01*
X283322Y111556D01*
X283352Y111351D01*
X283377Y111146D01*
X283397Y110940D01*
X283412Y110733D01*
X283422Y110526D01*
X283427Y110319D01*
X283427Y110112D01*
X283422Y109905D01*
X283412Y109699D01*
X283397Y109492D01*
X283377Y109286D01*
X283352Y109081D01*
X283322Y108876D01*
X283287Y108672D01*
X283247Y108469D01*
X283202Y108267D01*
X283152Y108066D01*
X283097Y107866D01*
X283037Y107668D01*
X282973Y107471D01*
X282903Y107276D01*
X282830Y107083D01*
X282751Y106892D01*
X282668Y106702D01*
X282580Y106515D01*
X282487Y106329D01*
X282390Y106146D01*
X282289Y105966D01*
X257325Y62728D01*
X267347Y57315D01*
X277489Y52132D01*
X287746Y47182D01*
X298114Y42466D01*
X308586Y37988D01*
X319158Y33750D01*
X329824Y29753D01*
X340577Y26000D01*
X351414Y22494D01*
X362327Y19235D01*
X375249Y67461D01*
X375250Y67461D02*
X375306Y67662D01*
X375367Y67861D01*
X375434Y68059D01*
X375505Y68255D01*
X375581Y68449D01*
X375661Y68642D01*
X375747Y68832D01*
X375837Y69020D01*
X375931Y69206D01*
X376030Y69390D01*
X376134Y69571D01*
X376242Y69750D01*
X376354Y69925D01*
X376471Y70098D01*
X376592Y70268D01*
X376716Y70435D01*
X376846Y70599D01*
X376979Y70760D01*
X377115Y70918D01*
X377256Y71072D01*
X377401Y71222D01*
X377549Y71369D01*
X377700Y71512D01*
X377856Y71652D01*
X378014Y71787D01*
X378176Y71919D01*
X378341Y72047D01*
X378509Y72170D01*
X378680Y72290D01*
X378854Y72405D01*
X379031Y72516D01*
X379210Y72622D01*
X379392Y72724D01*
X379576Y72822D01*
X379763Y72915D01*
X379952Y73003D01*
X380143Y73087D01*
X380336Y73166D01*
X380531Y73240D01*
X380728Y73310D01*
X380926Y73375D01*
X381126Y73434D01*
X381327Y73489D01*
X381530Y73539D01*
X381734Y73584D01*
X381938Y73624D01*
X382144Y73659D01*
X382351Y73688D01*
X382558Y73713D01*
X382765Y73733D01*
X382973Y73747D01*
X383182Y73756D01*
X383390Y73761D01*
X383599Y73760D01*
X383808Y73754D01*
X384016Y73743D01*
X384224Y73727D01*
X384431Y73705D01*
X384638Y73679D01*
X384845Y73647D01*
X385050Y73611D01*
X385254Y73569D01*
X385458Y73523D01*
X385660Y73471D01*
X385861Y73415D01*
X386060Y73354D01*
X386258Y73287D01*
X386454Y73216D01*
X386648Y73140D01*
X386841Y73060D01*
X387031Y72974D01*
X387219Y72884D01*
X387405Y72790D01*
X387589Y72691D01*
X387770Y72587D01*
X387949Y72479D01*
X388124Y72367D01*
X388297Y72250D01*
X388467Y72129D01*
X388634Y72005D01*
X388798Y71875D01*
X388959Y71742D01*
X389117Y71606D01*
X389271Y71465D01*
X389421Y71320D01*
X389568Y71172D01*
X389711Y71021D01*
X389851Y70865D01*
X389986Y70707D01*
X390118Y70545D01*
X390246Y70380D01*
X390369Y70212D01*
X390489Y70041D01*
X390604Y69867D01*
X390715Y69690D01*
X390821Y69511D01*
X390923Y69329D01*
X391021Y69145D01*
X391114Y68958D01*
X391202Y68769D01*
X391286Y68578D01*
X391365Y68385D01*
X391439Y68190D01*
X391509Y67993D01*
X391574Y67795D01*
X391633Y67595D01*
X391688Y67394D01*
X391738Y67191D01*
X391783Y66987D01*
X391823Y66783D01*
X391858Y66577D01*
X391887Y66370D01*
X391912Y66163D01*
X391932Y65956D01*
X391946Y65748D01*
X391955Y65539D01*
X391960Y65331D01*
X391959Y65122D01*
X391953Y64913D01*
X391942Y64705D01*
X391926Y64497D01*
X391904Y64290D01*
X391878Y64083D01*
X391846Y63876D01*
X391810Y63671D01*
X391768Y63467D01*
X391722Y63263D01*
X391670Y63061D01*
X378747Y14835D01*
X378747Y14834D02*
X389828Y12200D01*
X400966Y9819D01*
X412155Y7692D01*
X423390Y5820D01*
X434664Y4205D01*
X445973Y2847D01*
X457309Y1747D01*
X468668Y905D01*
X480043Y323D01*
X491428Y-1D01*
X491428Y0D02*
X491428Y49928D01*
X491431Y50135D01*
X491438Y50342D01*
X491451Y50548D01*
X491468Y50755D01*
X491491Y50960D01*
X491519Y51166D01*
X491551Y51370D01*
X491589Y51574D01*
X491631Y51776D01*
X491679Y51978D01*
X491731Y52178D01*
X491788Y52377D01*
X491850Y52574D01*
X491917Y52770D01*
X491989Y52964D01*
X492065Y53157D01*
X492146Y53347D01*
X492232Y53536D01*
X492322Y53722D01*
X492416Y53906D01*
X492516Y54088D01*
X492619Y54267D01*
X492727Y54444D01*
X492839Y54618D01*
X492955Y54789D01*
X493076Y54958D01*
X493200Y55123D01*
X493329Y55285D01*
X493461Y55444D01*
X493597Y55600D01*
X493737Y55753D01*
X493881Y55902D01*
X494028Y56047D01*
X494179Y56189D01*
X494333Y56327D01*
X494491Y56462D01*
X494651Y56592D01*
X494815Y56718D01*
X494982Y56841D01*
X495152Y56959D01*
X495325Y57074D01*
X495500Y57184D01*
X495678Y57289D01*
X495859Y57391D01*
X496041Y57487D01*
X496227Y57580D01*
X496414Y57668D01*
X496604Y57751D01*
X496795Y57830D01*
X496988Y57904D01*
X497184Y57973D01*
X497380Y58037D01*
X497578Y58097D01*
X497778Y58152D01*
X497979Y58202D01*
X498181Y58247D01*
X498384Y58287D01*
X498588Y58322D01*
X498793Y58352D01*
X498998Y58377D01*
X499204Y58397D01*
X499411Y58412D01*
X499618Y58422D01*
X499825Y58427D01*
X500031Y58427D01*
X500238Y58422D01*
X500445Y58412D01*
X500652Y58397D01*
X500858Y58377D01*
X501063Y58352D01*
X501268Y58322D01*
X501472Y58287D01*
X501675Y58247D01*
X501877Y58202D01*
X502078Y58152D01*
X502278Y58097D01*
X502476Y58037D01*
X502672Y57973D01*
X502868Y57904D01*
X503061Y57830D01*
X503252Y57751D01*
X503442Y57668D01*
X503629Y57580D01*
X503815Y57487D01*
X503997Y57391D01*
X504178Y57289D01*
X504356Y57184D01*
X504531Y57074D01*
X504704Y56959D01*
X504874Y56841D01*
X505041Y56718D01*
X505205Y56592D01*
X505365Y56462D01*
X505523Y56327D01*
X505677Y56189D01*
X505828Y56047D01*
X505975Y55902D01*
X506119Y55753D01*
X506259Y55600D01*
X506395Y55444D01*
X506527Y55285D01*
X506656Y55123D01*
X506780Y54958D01*
X506901Y54789D01*
X507017Y54618D01*
X507129Y54444D01*
X507237Y54267D01*
X507340Y54088D01*
X507440Y53906D01*
X507534Y53722D01*
X507624Y53536D01*
X507710Y53347D01*
X507791Y53157D01*
X507867Y52964D01*
X507939Y52770D01*
X508006Y52574D01*
X508068Y52377D01*
X508125Y52178D01*
X508177Y51978D01*
X508225Y51776D01*
X508267Y51574D01*
X508305Y51370D01*
X508337Y51166D01*
X508365Y50960D01*
X508388Y50755D01*
X508405Y50548D01*
X508418Y50342D01*
X508425Y50135D01*
X508428Y49928D01*
X508428Y0D01*
X519813Y324D01*
X531187Y906D01*
X542546Y1748D01*
X553882Y2848D01*
X565191Y4206D01*
X576465Y5821D01*
X587700Y7693D01*
X598889Y9820D01*
X610027Y12201D01*
X621108Y14835D01*
X608186Y63061D01*
X608187Y63061D02*
X608135Y63262D01*
X608089Y63463D01*
X608048Y63666D01*
X608012Y63870D01*
X607980Y64075D01*
X607954Y64280D01*
X607932Y64486D01*
X607916Y64692D01*
X607905Y64899D01*
X607898Y65106D01*
X607897Y65313D01*
X607901Y65520D01*
X607910Y65727D01*
X607924Y65933D01*
X607942Y66139D01*
X607966Y66345D01*
X607995Y66550D01*
X608029Y66754D01*
X608068Y66957D01*
X608112Y67160D01*
X608160Y67361D01*
X608214Y67561D01*
X608272Y67759D01*
X608336Y67956D01*
X608404Y68152D01*
X608476Y68346D01*
X608554Y68538D01*
X608636Y68728D01*
X608723Y68916D01*
X608814Y69101D01*
X608910Y69285D01*
X609010Y69466D01*
X609115Y69645D01*
X609224Y69821D01*
X609337Y69994D01*
X609454Y70165D01*
X609576Y70332D01*
X609701Y70497D01*
X609831Y70658D01*
X609964Y70817D01*
X610101Y70972D01*
X610242Y71123D01*
X610387Y71271D01*
X610535Y71416D01*
X610686Y71557D01*
X610841Y71694D01*
X611000Y71827D01*
X611161Y71957D01*
X611326Y72082D01*
X611493Y72204D01*
X611664Y72321D01*
X611837Y72434D01*
X612013Y72543D01*
X612192Y72648D01*
X612373Y72748D01*
X612557Y72844D01*
X612742Y72935D01*
X612930Y73022D01*
X613120Y73104D01*
X613312Y73182D01*
X613506Y73254D01*
X613702Y73322D01*
X613899Y73386D01*
X614097Y73444D01*
X614297Y73498D01*
X614498Y73546D01*
X614701Y73590D01*
X614904Y73629D01*
X615108Y73663D01*
X615313Y73692D01*
X615519Y73716D01*
X615725Y73734D01*
X615931Y73748D01*
X616138Y73757D01*
X616345Y73761D01*
X616552Y73760D01*
X616759Y73753D01*
X616966Y73742D01*
X617172Y73726D01*
X617378Y73704D01*
X617583Y73678D01*
X617788Y73646D01*
X617992Y73610D01*
X618195Y73569D01*
X618396Y73523D01*
X618597Y73471D01*
X618796Y73415D01*
X618994Y73355D01*
X619190Y73289D01*
X619385Y73218D01*
X619578Y73143D01*
X619769Y73064D01*
X619958Y72979D01*
X620145Y72890D01*
X620330Y72797D01*
X620512Y72699D01*
X620692Y72596D01*
X620869Y72489D01*
X621044Y72378D01*
X621216Y72263D01*
X621385Y72144D01*
X621551Y72020D01*
X621714Y71893D01*
X621874Y71761D01*
X622031Y71626D01*
X622184Y71487D01*
X622334Y71344D01*
X622480Y71198D01*
X622623Y71048D01*
X622762Y70895D01*
X622897Y70738D01*
X623029Y70578D01*
X623156Y70415D01*
X623280Y70249D01*
X623399Y70080D01*
X623514Y69908D01*
X623625Y69733D01*
X623732Y69556D01*
X623835Y69376D01*
X623933Y69194D01*
X624026Y69009D01*
X624115Y68822D01*
X624200Y68633D01*
X624279Y68442D01*
X624354Y68249D01*
X624425Y68054D01*
X624491Y67858D01*
X624551Y67660D01*
X624607Y67461D01*
X637529Y19235D01*
X648443Y22494D01*
X659279Y26001D01*
X670033Y29753D01*
X680698Y33750D01*
X691270Y37988D01*
X701742Y42467D01*
X712109Y47182D01*
X722367Y52133D01*
X732509Y57315D01*
X742530Y62728D01*
X717567Y105966D01*
X717466Y106146D01*
X717369Y106329D01*
X717276Y106515D01*
X717188Y106702D01*
X717105Y106892D01*
X717026Y107083D01*
X716953Y107276D01*
X716883Y107471D01*
X716819Y107668D01*
X716759Y107866D01*
X716704Y108066D01*
X716654Y108267D01*
X716609Y108469D01*
X716569Y108672D01*
X716534Y108876D01*
X716504Y109081D01*
X716479Y109286D01*
X716459Y109492D01*
X716444Y109699D01*
X716434Y109905D01*
X716429Y110112D01*
X716429Y110319D01*
X716434Y110526D01*
X716444Y110733D01*
X716459Y110940D01*
X716479Y111146D01*
X716504Y111351D01*
X716534Y111556D01*
X716569Y111760D01*
X716609Y111963D01*
X716654Y112165D01*
X716704Y112366D01*
X716759Y112565D01*
X716819Y112764D01*
X716883Y112960D01*
X716952Y113155D01*
X717026Y113349D01*
X717105Y113540D01*
X717188Y113730D01*
X717276Y113917D01*
X717369Y114102D01*
X717465Y114285D01*
X717567Y114466D01*
X717672Y114644D01*
X717782Y114819D01*
X717897Y114992D01*
X718015Y115162D01*
X718137Y115329D01*
X718264Y115492D01*
X718394Y115653D01*
X718529Y115811D01*
X718667Y115965D01*
X718809Y116116D01*
X718954Y116263D01*
X719103Y116406D01*
X719256Y116546D01*
X719412Y116683D01*
X719571Y116815D01*
X719733Y116944D01*
X719898Y117068D01*
X720067Y117189D01*
X720238Y117305D01*
X720412Y117417D01*
X720589Y117525D01*
X720768Y117628D01*
X720950Y117727D01*
X721134Y117822D01*
X721320Y117912D01*
X721509Y117998D01*
X721699Y118079D01*
X721891Y118155D01*
X722086Y118227D01*
X722282Y118294D01*
X722479Y118356D01*
X722678Y118413D01*
X722878Y118465D01*
X723080Y118513D01*
X723282Y118555D01*
X723486Y118593D01*
X723690Y118625D01*
X723895Y118653D01*
X724101Y118676D01*
X724307Y118693D01*
X724514Y118706D01*
X724721Y118713D01*
X724928Y118716D01*
X725135Y118713D01*
X725342Y118706D01*
X725548Y118693D01*
X725755Y118676D01*
X725960Y118653D01*
X726166Y118625D01*
X726370Y118593D01*
X726573Y118555D01*
X726776Y118513D01*
X726978Y118465D01*
X727178Y118413D01*
X727377Y118356D01*
X727574Y118294D01*
X727770Y118227D01*
X727964Y118155D01*
X728157Y118079D01*
X728347Y117998D01*
X728536Y117912D01*
X728722Y117822D01*
X728906Y117728D01*
X729088Y117628D01*
X729267Y117525D01*
X729444Y117417D01*
X729618Y117305D01*
X729789Y117189D01*
X729958Y117068D01*
X730123Y116944D01*
X730285Y116815D01*
X730444Y116683D01*
X730600Y116547D01*
X730753Y116407D01*
X730902Y116263D01*
X731047Y116116D01*
X731189Y115965D01*
X731327Y115811D01*
X731461Y115653D01*
X731592Y115493D01*
X731718Y115329D01*
X731841Y115162D01*
X731959Y114992D01*
X732074Y114819D01*
X732183Y114644D01*
X732289Y114466D01*
X757253Y71228D01*
X766951Y77200D01*
X776511Y83392D01*
X785927Y89800D01*
X795195Y96421D01*
X804309Y103251D01*
X813266Y110287D01*
X822060Y117525D01*
X830686Y124962D01*
X839141Y132593D01*
X847420Y140415D01*
X812115Y175719D01*
X812116Y175720D02*
X811971Y175868D01*
X811830Y176019D01*
X811693Y176174D01*
X811560Y176333D01*
X811430Y176494D01*
X811305Y176659D01*
X811183Y176826D01*
X811066Y176997D01*
X810953Y177170D01*
X810844Y177346D01*
X810739Y177525D01*
X810639Y177706D01*
X810543Y177890D01*
X810452Y178075D01*
X810365Y178263D01*
X810283Y178453D01*
X810205Y178645D01*
X810133Y178839D01*
X810065Y179035D01*
X810001Y179232D01*
X809943Y179430D01*
X809889Y179630D01*
X809841Y179831D01*
X809797Y180034D01*
X809758Y180237D01*
X809724Y180441D01*
X809695Y180646D01*
X809671Y180852D01*
X809653Y181058D01*
X809639Y181264D01*
X809630Y181471D01*
X809626Y181678D01*
X809627Y181885D01*
X809634Y182092D01*
X809645Y182299D01*
X809661Y182505D01*
X809683Y182711D01*
X809709Y182916D01*
X809741Y183121D01*
X809777Y183325D01*
X809818Y183528D01*
X809864Y183729D01*
X809916Y183930D01*
X809972Y184129D01*
X810032Y184327D01*
X810098Y184523D01*
X810169Y184718D01*
X810244Y184911D01*
X810323Y185102D01*
X810408Y185291D01*
X810497Y185478D01*
X810590Y185663D01*
X810688Y185845D01*
X810791Y186025D01*
X810898Y186202D01*
X811009Y186377D01*
X811124Y186549D01*
X811243Y186718D01*
X811367Y186884D01*
X811494Y187047D01*
X811626Y187207D01*
X811761Y187364D01*
X811900Y187517D01*
X812043Y187667D01*
X812189Y187813D01*
X812339Y187956D01*
X812492Y188095D01*
X812649Y188230D01*
X812809Y188362D01*
X812972Y188489D01*
X813138Y188613D01*
X813307Y188732D01*
X813479Y188847D01*
X813654Y188958D01*
X813831Y189065D01*
X814011Y189168D01*
X814193Y189266D01*
X814378Y189359D01*
X814565Y189448D01*
X814754Y189533D01*
X814945Y189612D01*
X815138Y189687D01*
X815333Y189758D01*
X815529Y189824D01*
X815727Y189884D01*
X815926Y189940D01*
X816127Y189992D01*
X816328Y190038D01*
X816531Y190079D01*
X816735Y190115D01*
X816940Y190147D01*
X817145Y190173D01*
X817351Y190195D01*
X817557Y190211D01*
X817764Y190222D01*
X817971Y190229D01*
X818178Y190230D01*
X818385Y190226D01*
X818592Y190217D01*
X818798Y190203D01*
X819004Y190185D01*
X819210Y190161D01*
X819415Y190132D01*
X819619Y190098D01*
X819822Y190059D01*
X820025Y190015D01*
X820226Y189967D01*
X820426Y189913D01*
X820624Y189855D01*
X820821Y189791D01*
X821017Y189723D01*
X821211Y189651D01*
X821403Y189573D01*
X821593Y189491D01*
X821781Y189404D01*
X821966Y189313D01*
X822150Y189217D01*
X822331Y189117D01*
X822510Y189012D01*
X822686Y188903D01*
X822859Y188790D01*
X823030Y188673D01*
X823197Y188551D01*
X823362Y188426D01*
X823523Y188296D01*
X823682Y188163D01*
X823837Y188026D01*
X823988Y187885D01*
X824136Y187740D01*
X859440Y152436D01*
X859440Y152437D02*
X867262Y160716D01*
X874893Y169171D01*
X882330Y177798D01*
X889568Y186591D01*
X896604Y195548D01*
X903435Y204662D01*
X910055Y213930D01*
X916464Y223346D01*
X922655Y232905D01*
X928628Y242604D01*
X928628Y242603D02*
X885389Y267567D01*
X885211Y267673D01*
X885036Y267782D01*
X884863Y267897D01*
X884693Y268015D01*
X884526Y268138D01*
X884362Y268264D01*
X884202Y268395D01*
X884044Y268529D01*
X883890Y268667D01*
X883739Y268809D01*
X883592Y268954D01*
X883448Y269103D01*
X883308Y269256D01*
X883172Y269412D01*
X883040Y269571D01*
X882911Y269733D01*
X882787Y269898D01*
X882666Y270067D01*
X882550Y270238D01*
X882438Y270412D01*
X882330Y270589D01*
X882227Y270768D01*
X882127Y270950D01*
X882033Y271134D01*
X881943Y271320D01*
X881857Y271509D01*
X881776Y271699D01*
X881700Y271892D01*
X881628Y272086D01*
X881561Y272282D01*
X881499Y272479D01*
X881442Y272678D01*
X881390Y272878D01*
X881342Y273080D01*
X881300Y273283D01*
X881262Y273486D01*
X881230Y273690D01*
X881202Y273896D01*
X881179Y274101D01*
X881162Y274308D01*
X881149Y274514D01*
X881142Y274721D01*
X881139Y274928D01*
X881142Y275135D01*
X881149Y275342D01*
X881162Y275549D01*
X881179Y275755D01*
X881202Y275961D01*
X881230Y276166D01*
X881262Y276370D01*
X881300Y276574D01*
X881342Y276776D01*
X881390Y276978D01*
X881442Y277178D01*
X881499Y277377D01*
X881561Y277574D01*
X881628Y277770D01*
X881700Y277965D01*
X881776Y278157D01*
X881857Y278347D01*
X881943Y278536D01*
X882033Y278722D01*
X882128Y278906D01*
X882227Y279088D01*
X882330Y279267D01*
X882438Y279444D01*
X882550Y279618D01*
X882666Y279789D01*
X882787Y279958D01*
X882911Y280123D01*
X883040Y280285D01*
X883172Y280444D01*
X883309Y280600D01*
X883449Y280753D01*
X883592Y280902D01*
X883739Y281047D01*
X883890Y281189D01*
X884044Y281327D01*
X884202Y281462D01*
X884363Y281592D01*
X884526Y281719D01*
X884693Y281841D01*
X884863Y281959D01*
X885036Y282074D01*
X885211Y282184D01*
X885389Y282289D01*
X885570Y282391D01*
X885753Y282487D01*
X885938Y282580D01*
X886125Y282668D01*
X886315Y282751D01*
X886506Y282830D01*
X886700Y282904D01*
X886895Y282973D01*
X887091Y283037D01*
X887290Y283097D01*
X887489Y283152D01*
X887690Y283202D01*
X887892Y283247D01*
X888095Y283287D01*
X888299Y283322D01*
X888504Y283352D01*
X888709Y283377D01*
X888915Y283397D01*
X889122Y283412D01*
X889329Y283422D01*
X889536Y283427D01*
X889743Y283427D01*
X889950Y283422D01*
X890156Y283412D01*
X890363Y283397D01*
X890569Y283377D01*
X890774Y283352D01*
X890979Y283322D01*
X891183Y283287D01*
X891386Y283247D01*
X891588Y283202D01*
X891789Y283152D01*
X891989Y283097D01*
X892187Y283037D01*
X892384Y282973D01*
X892579Y282903D01*
X892772Y282830D01*
X892963Y282751D01*
X893153Y282668D01*
X893340Y282580D01*
X893526Y282487D01*
X893709Y282390D01*
X893889Y282289D01*
X937128Y257325D01*
X942541Y267347D01*
X947724Y277489D01*
X952674Y287746D01*
X957390Y298114D01*
X961868Y308586D01*
X966106Y319158D01*
X970103Y329824D01*
X973856Y340577D01*
X977362Y351414D01*
X980621Y362327D01*
X932394Y375249D01*
X932394Y375250D02*
X932195Y375306D01*
X931997Y375366D01*
X931801Y375432D01*
X931606Y375503D01*
X931413Y375578D01*
X931222Y375657D01*
X931033Y375742D01*
X930846Y375831D01*
X930661Y375924D01*
X930479Y376022D01*
X930299Y376125D01*
X930122Y376232D01*
X929947Y376343D01*
X929775Y376458D01*
X929606Y376577D01*
X929440Y376701D01*
X929277Y376828D01*
X929117Y376960D01*
X928960Y377095D01*
X928807Y377234D01*
X928657Y377377D01*
X928511Y377523D01*
X928368Y377673D01*
X928229Y377826D01*
X928094Y377983D01*
X927962Y378143D01*
X927835Y378306D01*
X927711Y378472D01*
X927592Y378641D01*
X927477Y378813D01*
X927366Y378988D01*
X927259Y379165D01*
X927156Y379345D01*
X927058Y379527D01*
X926965Y379712D01*
X926876Y379899D01*
X926791Y380088D01*
X926712Y380279D01*
X926637Y380472D01*
X926566Y380667D01*
X926500Y380863D01*
X926440Y381061D01*
X926384Y381260D01*
X926332Y381461D01*
X926286Y381662D01*
X926245Y381865D01*
X926209Y382069D01*
X926177Y382274D01*
X926151Y382479D01*
X926129Y382685D01*
X926113Y382891D01*
X926102Y383098D01*
X926095Y383305D01*
X926094Y383512D01*
X926098Y383719D01*
X926107Y383926D01*
X926121Y384132D01*
X926139Y384338D01*
X926163Y384544D01*
X926192Y384749D01*
X926226Y384953D01*
X926265Y385156D01*
X926309Y385359D01*
X926357Y385560D01*
X926411Y385760D01*
X926469Y385958D01*
X926533Y386155D01*
X926601Y386351D01*
X926673Y386545D01*
X926751Y386737D01*
X926833Y386927D01*
X926920Y387115D01*
X927011Y387300D01*
X927107Y387484D01*
X927207Y387665D01*
X927312Y387844D01*
X927421Y388020D01*
X927534Y388193D01*
X927651Y388364D01*
X927773Y388531D01*
X927898Y388696D01*
X928028Y388857D01*
X928161Y389016D01*
X928298Y389171D01*
X928439Y389322D01*
X928584Y389470D01*
X928732Y389615D01*
X928883Y389756D01*
X929038Y389893D01*
X929197Y390026D01*
X929358Y390156D01*
X929523Y390281D01*
X929690Y390403D01*
X929861Y390520D01*
X930034Y390633D01*
X930210Y390742D01*
X930389Y390847D01*
X930570Y390947D01*
X930754Y391043D01*
X930939Y391134D01*
X931127Y391221D01*
X931317Y391303D01*
X931509Y391381D01*
X931703Y391453D01*
X931899Y391521D01*
X932096Y391585D01*
X932294Y391643D01*
X932494Y391697D01*
X932695Y391745D01*
X932898Y391789D01*
X933101Y391828D01*
X933305Y391862D01*
X933510Y391891D01*
X933716Y391915D01*
X933922Y391933D01*
X934128Y391947D01*
X934335Y391956D01*
X934542Y391960D01*
X934749Y391959D01*
X934956Y391952D01*
X935163Y391941D01*
X935369Y391925D01*
X935575Y391903D01*
X935780Y391877D01*
X935985Y391845D01*
X936189Y391809D01*
X936392Y391768D01*
X936593Y391722D01*
X936794Y391670D01*
X985021Y378747D01*
X987655Y389828D01*
X990036Y400966D01*
X992163Y412155D01*
X994035Y423390D01*
X995650Y434665D01*
X997008Y445973D01*
X998108Y457310D01*
X998949Y468668D01*
X999532Y480043D01*
X999855Y491428D01*
X949928Y491428D01*
X949721Y491431D01*
X949514Y491438D01*
X949308Y491451D01*
X949101Y491468D01*
X948896Y491491D01*
X948690Y491519D01*
X948486Y491551D01*
X948282Y491589D01*
X948080Y491631D01*
X947878Y491679D01*
X947678Y491731D01*
X947479Y491788D01*
X947282Y491850D01*
X947086Y491917D01*
X946892Y491989D01*
X946699Y492065D01*
X946509Y492146D01*
X946320Y492232D01*
X946134Y492322D01*
X945950Y492416D01*
X945768Y492516D01*
X945589Y492619D01*
X945412Y492727D01*
X945238Y492839D01*
X945067Y492955D01*
X944898Y493076D01*
X944733Y493200D01*
X944571Y493329D01*
X944412Y493461D01*
X944256Y493597D01*
X944103Y493737D01*
X943954Y493881D01*
X943809Y494028D01*
X943667Y494179D01*
X943529Y494333D01*
X943394Y494491D01*
X943264Y494651D01*
X943138Y494815D01*
X943015Y494982D01*
X942897Y495152D01*
X942782Y495325D01*
X942672Y495500D01*
X942567Y495678D01*
X942465Y495859D01*
X942369Y496041D01*
X942276Y496227D01*
X942188Y496414D01*
X942105Y496604D01*
X942026Y496795D01*
X941952Y496988D01*
X941883Y497184D01*
X941819Y497380D01*
X941759Y497578D01*
X941704Y497778D01*
X941654Y497979D01*
X941609Y498181D01*
X941569Y498384D01*
X941534Y498588D01*
X941504Y498793D01*
X941479Y498998D01*
X941459Y499204D01*
X941444Y499411D01*
X941434Y499618D01*
X941429Y499825D01*
X941429Y500031D01*
X941434Y500238D01*
X941444Y500445D01*
X941459Y500652D01*
X941479Y500858D01*
X941504Y501063D01*
X941534Y501268D01*
X941569Y501472D01*
X941609Y501675D01*
X941654Y501877D01*
X941704Y502078D01*
X941759Y502278D01*
X941819Y502476D01*
X941883Y502672D01*
X941952Y502868D01*
X942026Y503061D01*
X942105Y503252D01*
X942188Y503442D01*
X942276Y503629D01*
X942369Y503815D01*
X942465Y503997D01*
X942567Y504178D01*
X942672Y504356D01*
X942782Y504531D01*
X942897Y504704D01*
X943015Y504874D01*
X943138Y505041D01*
X943264Y505205D01*
X943394Y505365D01*
X943529Y505523D01*
X943667Y505677D01*
X943809Y505828D01*
X943954Y505975D01*
X944103Y506119D01*
X944256Y506259D01*
X944412Y506395D01*
X944571Y506527D01*
X944733Y506656D01*
X944898Y506780D01*
X945067Y506901D01*
X945238Y507017D01*
X945412Y507129D01*
X945589Y507237D01*
X945768Y507340D01*
X945950Y507440D01*
X946134Y507534D01*
X946320Y507624D01*
X946509Y507710D01*
X946699Y507791D01*
X946892Y507867D01*
X947086Y507939D01*
X947282Y508006D01*
X947479Y508068D01*
X947678Y508125D01*
X947878Y508177D01*
X948080Y508225D01*
X948282Y508267D01*
X948486Y508305D01*
X948690Y508337D01*
X948896Y508365D01*
X949101Y508388D01*
X949308Y508405D01*
X949514Y508418D01*
X949721Y508425D01*
X949928Y508428D01*
X999855Y508428D01*
X999856Y508428D02*
X999533Y519813D01*
X998950Y531188D01*
X998109Y542547D01*
X997009Y553883D01*
X995651Y565191D01*
X994036Y576466D01*
X992164Y587701D01*
X990037Y598890D01*
X987656Y610028D01*
X985022Y621108D01*
X985021Y621108D02*
X936794Y608186D01*
X936794Y608187D02*
X936593Y608135D01*
X936392Y608089D01*
X936189Y608048D01*
X935985Y608012D01*
X935780Y607980D01*
X935575Y607954D01*
X935369Y607932D01*
X935163Y607916D01*
X934956Y607905D01*
X934749Y607898D01*
X934542Y607897D01*
X934335Y607901D01*
X934128Y607910D01*
X933922Y607924D01*
X933716Y607942D01*
X933510Y607966D01*
X933305Y607995D01*
X933101Y608029D01*
X932898Y608068D01*
X932695Y608112D01*
X932494Y608160D01*
X932294Y608214D01*
X932096Y608272D01*
X931899Y608336D01*
X931703Y608404D01*
X931509Y608476D01*
X931317Y608554D01*
X931127Y608636D01*
X930939Y608723D01*
X930754Y608814D01*
X930570Y608910D01*
X930389Y609010D01*
X930210Y609115D01*
X930034Y609224D01*
X929861Y609337D01*
X929690Y609454D01*
X929523Y609576D01*
X929358Y609701D01*
X929197Y609831D01*
X929038Y609964D01*
X928883Y610101D01*
X928732Y610242D01*
X928584Y610387D01*
X928439Y610535D01*
X928298Y610686D01*
X928161Y610841D01*
X928028Y611000D01*
X927898Y611161D01*
X927773Y611326D01*
X927651Y611493D01*
X927534Y611664D01*
X927421Y611837D01*
X927312Y612013D01*
X927207Y612192D01*
X927107Y612373D01*
X927011Y612557D01*
X926920Y612742D01*
X926833Y612930D01*
X926751Y613120D01*
X926673Y613312D01*
X926601Y613506D01*
X926533Y613702D01*
X926469Y613899D01*
X926411Y614097D01*
X926357Y614297D01*
X926309Y614498D01*
X926265Y614701D01*
X926226Y614904D01*
X926192Y615108D01*
X926163Y615313D01*
X926139Y615519D01*
X926121Y615725D01*
X926107Y615931D01*
X926098Y616138D01*
X926094Y616345D01*
X926095Y616552D01*
X926102Y616759D01*
X926113Y616966D01*
X926129Y617172D01*
X926151Y617378D01*
X926177Y617583D01*
X926209Y617788D01*
X926245Y617992D01*
X926286Y618195D01*
X926332Y618396D01*
X926384Y618597D01*
X926440Y618796D01*
X926500Y618994D01*
X926566Y619190D01*
X926637Y619385D01*
X926712Y619578D01*
X926791Y619769D01*
X926876Y619958D01*
X926965Y620145D01*
X927058Y620330D01*
X927156Y620512D01*
X927259Y620692D01*
X927366Y620869D01*
X927477Y621044D01*
X927592Y621216D01*
X927711Y621385D01*
X927835Y621551D01*
X927962Y621714D01*
X928094Y621874D01*
X928229Y622031D01*
X928368Y622184D01*
X928511Y622334D01*
X928657Y622480D01*
X928807Y622623D01*
X928960Y622762D01*
X929117Y622897D01*
X929277Y623029D01*
X929440Y623156D01*
X929606Y623280D01*
X929775Y623399D01*
X929947Y623514D01*
X930122Y623625D01*
X930299Y623732D01*
X930479Y623835D01*
X930661Y623933D01*
X930846Y624026D01*
X931033Y624115D01*
X931222Y624200D01*
X931413Y624279D01*
X931606Y624354D01*
X931801Y624425D01*
X931997Y624491D01*
X932195Y624551D01*
X932394Y624607D01*
X980621Y637529D01*
X977362Y648443D01*
X973855Y659279D01*
X970103Y670033D01*
X966106Y680698D01*
X961868Y691270D01*
X957389Y701742D01*
X952674Y712109D01*
X947723Y722367D01*
X942541Y732509D01*
X937128Y742530D01*
X893889Y717567D01*
X893709Y717466D01*
X893526Y717369D01*
X893340Y717276D01*
X893153Y717188D01*
X892963Y717105D01*
X892772Y717026D01*
X892579Y716953D01*
X892384Y716883D01*
X892187Y716819D01*
X891989Y716759D01*
X891789Y716704D01*
X891588Y716654D01*
X891386Y716609D01*
X891183Y716569D01*
X890979Y716534D01*
X890774Y716504D01*
X890569Y716479D01*
X890363Y716459D01*
X890156Y716444D01*
X889950Y716434D01*
X889743Y716429D01*
X889536Y716429D01*
X889329Y716434D01*
X889122Y716444D01*
X888915Y716459D01*
X888709Y716479D01*
X888504Y716504D01*
X888299Y716534D01*
X888095Y716569D01*
X887892Y716609D01*
X887690Y716654D01*
X887489Y716704D01*
X887290Y716759D01*
X887091Y716819D01*
X886895Y716883D01*
X886700Y716952D01*
X886506Y717026D01*
X886315Y717105D01*
X886125Y717188D01*
X885938Y717276D01*
X885753Y717369D01*
X885570Y717465D01*
X885389Y717567D01*
X885211Y717672D01*
X885036Y717782D01*
X884863Y717897D01*
X884693Y718015D01*
X884526Y718137D01*
X884363Y718264D01*
X884202Y718394D01*
X884044Y718529D01*
X883890Y718667D01*
X883739Y718809D01*
X883592Y718954D01*
X883449Y719103D01*
X883309Y719256D01*
X883172Y719412D01*
X883040Y719571D01*
X882911Y719733D01*
X882787Y719898D01*
X882666Y720067D01*
X882550Y720238D01*
X882438Y720412D01*
X882330Y720589D01*
X882227Y720768D01*
X882128Y720950D01*
X882033Y721134D01*
X881943Y721320D01*
X881857Y721509D01*
X881776Y721699D01*
X881700Y721891D01*
X881628Y722086D01*
X881561Y722282D01*
X881499Y722479D01*
X881442Y722678D01*
X881390Y722878D01*
X881342Y723080D01*
X881300Y723282D01*
X881262Y723486D01*
X881230Y723690D01*
X881202Y723895D01*
X881179Y724101D01*
X881162Y724307D01*
X881149Y724514D01*
X881142Y724721D01*
X881139Y724928D01*
X881142Y725135D01*
X881149Y725342D01*
X881162Y725548D01*
X881179Y725755D01*
X881202Y725960D01*
X881230Y726166D01*
X881262Y726370D01*
X881300Y726573D01*
X881342Y726776D01*
X881390Y726978D01*
X881442Y727178D01*
X881499Y727377D01*
X881561Y727574D01*
X881628Y727770D01*
X881700Y727964D01*
X881776Y728157D01*
X881857Y728347D01*
X881943Y728536D01*
X882033Y728722D01*
X882127Y728906D01*
X882227Y729088D01*
X882330Y729267D01*
X882438Y729444D01*
X882550Y729618D01*
X882666Y729789D01*
X882787Y729958D01*
X882911Y730123D01*
X883040Y730285D01*
X883172Y730444D01*
X883308Y730600D01*
X883448Y730753D01*
X883592Y730902D01*
X883739Y731047D01*
X883890Y731189D01*
X884044Y731327D01*
X884202Y731461D01*
X884362Y731592D01*
X884526Y731718D01*
X884693Y731841D01*
X884863Y731959D01*
X885036Y732074D01*
X885211Y732183D01*
X885389Y732289D01*
X928628Y757253D01*
X928628Y757252D02*
X922655Y766951D01*
X916464Y776510D01*
X910055Y785926D01*
X903435Y795194D01*
X896604Y804308D01*
X889568Y813265D01*
X882330Y822058D01*
X874893Y830685D01*
X867262Y839140D01*
X859440Y847419D01*
X859440Y847420D02*
X824136Y812115D01*
X824136Y812116D02*
X823988Y811971D01*
X823837Y811830D01*
X823682Y811693D01*
X823523Y811560D01*
X823362Y811430D01*
X823197Y811305D01*
X823030Y811183D01*
X822859Y811066D01*
X822686Y810953D01*
X822510Y810844D01*
X822331Y810739D01*
X822150Y810639D01*
X821966Y810543D01*
X821781Y810452D01*
X821593Y810365D01*
X821403Y810283D01*
X821211Y810205D01*
X821017Y810133D01*
X820821Y810065D01*
X820624Y810001D01*
X820426Y809943D01*
X820226Y809889D01*
X820025Y809841D01*
X819822Y809797D01*
X819619Y809758D01*
X819415Y809724D01*
X819210Y809695D01*
X819004Y809671D01*
X818798Y809653D01*
X818592Y809639D01*
X818385Y809630D01*
X818178Y809626D01*
X817971Y809627D01*
X817764Y809634D01*
X817557Y809645D01*
X817351Y809661D01*
X817145Y809683D01*
X816940Y809709D01*
X816735Y809741D01*
X816531Y809777D01*
X816328Y809818D01*
X816127Y809864D01*
X815926Y809916D01*
X815727Y809972D01*
X815529Y810032D01*
X815333Y810098D01*
X815138Y810169D01*
X814945Y810244D01*
X814754Y810323D01*
X814565Y810408D01*
X814378Y810497D01*
X814193Y810590D01*
X814011Y810688D01*
X813831Y810791D01*
X813654Y810898D01*
X813479Y811009D01*
X813307Y811124D01*
X813138Y811243D01*
X812972Y811367D01*
X812809Y811494D01*
X812649Y811626D01*
X812492Y811761D01*
X812339Y811900D01*
X812189Y812043D01*
X812043Y812189D01*
X811900Y812339D01*
X811761Y812492D01*
X811626Y812649D01*
X811494Y812809D01*
X811367Y812972D01*
X811243Y813138D01*
X811124Y813307D01*
X811009Y813479D01*
X810898Y813654D01*
X810791Y813831D01*
X810688Y814011D01*
X810590Y814193D01*
X810497Y814378D01*
X810408Y814565D01*
X810323Y814754D01*
X810244Y814945D01*
X810169Y815138D01*
X810098Y815333D01*
X810032Y815529D01*
X809972Y815727D01*
X809916Y815926D01*
X809864Y816127D01*
X809818Y816328D01*
X809777Y816531D01*
X809741Y816735D01*
X809709Y816940D01*
X809683Y817145D01*
X809661Y817351D01*
X809645Y817557D01*
X809634Y817764D01*
X809627Y817971D01*
X809626Y818178D01*
X809630Y818385D01*
X809639Y818592D01*
X809653Y818798D01*
X809671Y819004D01*
X809695Y819210D01*
X809724Y819415D01*
X809758Y819619D01*
X809797Y819822D01*
X809841Y820025D01*
X809889Y820226D01*
X809943Y820426D01*
X810001Y820624D01*
X810065Y820821D01*
X810133Y821017D01*
X810205Y821211D01*
X810283Y821403D01*
X810365Y821593D01*
X810452Y821781D01*
X810543Y821966D01*
X810639Y822150D01*
X810739Y822331D01*
X810844Y822510D01*
X810953Y822686D01*
X811066Y822859D01*
X811183Y823030D01*
X811305Y823197D01*
X811430Y823362D01*
X811560Y823523D01*
X811693Y823682D01*
X811830Y823837D01*
X811971Y823988D01*
X812116Y824136D01*
X812115Y824136D02*
X847420Y859440D01*
X847419Y859440D02*
X839140Y867262D01*
X830685Y874893D01*
X822058Y882330D01*
X813265Y889568D01*
X804308Y896604D01*
X795194Y903435D01*
X785926Y910055D01*
X776510Y916464D01*
X766951Y922655D01*
X757252Y928628D01*
X757253Y928628D02*
X732289Y885389D01*
X732183Y885211D01*
X732074Y885036D01*
X731959Y884863D01*
X731841Y884693D01*
X731718Y884526D01*
X731592Y884362D01*
X731461Y884202D01*
X731327Y884044D01*
X731189Y883890D01*
X731047Y883739D01*
X730902Y883592D01*
X730753Y883448D01*
X730600Y883308D01*
X730444Y883172D01*
X730285Y883040D01*
X730123Y882911D01*
X729958Y882787D01*
X729789Y882666D01*
X729618Y882550D01*
X729444Y882438D01*
X729267Y882330D01*
X729088Y882227D01*
X728906Y882127D01*
X728722Y882033D01*
X728536Y881943D01*
X728347Y881857D01*
X728157Y881776D01*
X727964Y881700D01*
X727770Y881628D01*
X727574Y881561D01*
X727377Y881499D01*
X727178Y881442D01*
X726978Y881390D01*
X726776Y881342D01*
X726573Y881300D01*
X726370Y881262D01*
X726166Y881230D01*
X725960Y881202D01*
X725755Y881179D01*
X725548Y881162D01*
X725342Y881149D01*
X725135Y881142D01*
X724928Y881139D01*
X724721Y881142D01*
X724514Y881149D01*
X724307Y881162D01*
X724101Y881179D01*
X723895Y881202D01*
X723690Y881230D01*
X723486Y881262D01*
X723282Y881300D01*
X723080Y881342D01*
X722878Y881390D01*
X722678Y881442D01*
X722479Y881499D01*
X722282Y881561D01*
X722086Y881628D01*
X721891Y881700D01*
X721699Y881776D01*
X721509Y881857D01*
X721320Y881943D01*
X721134Y882033D01*
X720950Y882128D01*
X720768Y882227D01*
X720589Y882330D01*
X720412Y882438D01*
X720238Y882550D01*
X720067Y882666D01*
X719898Y882787D01*
X719733Y882911D01*
X719571Y883040D01*
X719412Y883172D01*
X719256Y883309D01*
X719103Y883449D01*
X718954Y883592D01*
X718809Y883739D01*
X718667Y883890D01*
X718529Y884044D01*
X718394Y884202D01*
X718264Y884363D01*
X718137Y884526D01*
X718015Y884693D01*
X717897Y884863D01*
X717782Y885036D01*
X717672Y885211D01*
X717567Y885389D01*
X717465Y885570D01*
X717369Y885753D01*
X717276Y885938D01*
X717188Y886125D01*
X717105Y886315D01*
X717026Y886506D01*
X716952Y886700D01*
X716883Y886895D01*
X716819Y887091D01*
X716759Y887290D01*
X716704Y887489D01*
X716654Y887690D01*
X716609Y887892D01*
X716569Y888095D01*
X716534Y888299D01*
X716504Y888504D01*
X716479Y888709D01*
X716459Y888915D01*
X716444Y889122D01*
X716434Y889329D01*
X716429Y889536D01*
X716429Y889743D01*
X716434Y889950D01*
X716444Y890156D01*
X716459Y890363D01*
X716479Y890569D01*
X716504Y890774D01*
X716534Y890979D01*
X716569Y891183D01*
X716609Y891386D01*
X716654Y891588D01*
X716704Y891789D01*
X716759Y891989D01*
X716819Y892187D01*
X716883Y892384D01*
X716953Y892579D01*
X717026Y892772D01*
X717105Y892963D01*
X717188Y893153D01*
X717276Y893340D01*
X717369Y893526D01*
X717466Y893709D01*
X717567Y893889D01*
X742530Y937128D01*
X732509Y942541D01*
X722367Y947723D01*
X712109Y952674D01*
X701742Y957389D01*
X691270Y961868D01*
X680698Y966106D01*
X670033Y970103D01*
X659279Y973855D01*
X648443Y977362D01*
X637529Y980621D01*
X624607Y932394D01*
X624551Y932195D01*
X624491Y931997D01*
X624425Y931801D01*
X624354Y931606D01*
X624279Y931413D01*
X624200Y931222D01*
X624115Y931033D01*
X624026Y930846D01*
X623933Y930661D01*
X623835Y930479D01*
X623732Y930299D01*
X623625Y930122D01*
X623514Y929947D01*
X623399Y929775D01*
X623280Y929606D01*
X623156Y929440D01*
X623029Y929277D01*
X622897Y929117D01*
X622762Y928960D01*
X622623Y928807D01*
X622480Y928657D01*
X622334Y928511D01*
X622184Y928368D01*
X622031Y928229D01*
X621874Y928094D01*
X621714Y927962D01*
X621551Y927835D01*
X621385Y927711D01*
X621216Y927592D01*
X621044Y927477D01*
X620869Y927366D01*
X620692Y927259D01*
X620512Y927156D01*
X620330Y927058D01*
X620145Y926965D01*
X619958Y926876D01*
X619769Y926791D01*
X619578Y926712D01*
X619385Y926637D01*
X619190Y926566D01*
X618994Y926500D01*
X618796Y926440D01*
X618597Y926384D01*
X618396Y926332D01*
X618195Y926286D01*
X617992Y926245D01*
X617788Y926209D01*
X617583Y926177D01*
X617378Y926151D01*
X617172Y926129D01*
X616966Y926113D01*
X616759Y926102D01*
X616552Y926095D01*
X616345Y926094D01*
X616138Y926098D01*
X615931Y926107D01*
X615725Y926121D01*
X615519Y926139D01*
X615313Y926163D01*
X615108Y926192D01*
X614904Y926226D01*
X614701Y926265D01*
X614498Y926309D01*
X614297Y926357D01*
X614097Y926411D01*
X613899Y926469D01*
X613702Y926533D01*
X613506Y926601D01*
X613312Y926673D01*
X613120Y926751D01*
X612930Y926833D01*
X612742Y926920D01*
X612557Y927011D01*
X612373Y927107D01*
X612192Y927207D01*
X612013Y927312D01*
X611837Y927421D01*
X611664Y927534D01*
X611493Y927651D01*
X611326Y927773D01*
X611161Y927898D01*
X611000Y928028D01*
X610841Y928161D01*
X610686Y928298D01*
X610535Y928439D01*
X610387Y928584D01*
X610242Y928732D01*
X610101Y928883D01*
X609964Y929038D01*
X609831Y929197D01*
X609701Y929358D01*
X609576Y929523D01*
X609454Y929690D01*
X609337Y929861D01*
X609224Y930034D01*
X609115Y930210D01*
X609010Y930389D01*
X608910Y930570D01*
X608814Y930754D01*
X608723Y930939D01*
X608636Y931127D01*
X608554Y931317D01*
X608476Y931509D01*
X608404Y931703D01*
X608336Y931899D01*
X608272Y932096D01*
X608214Y932294D01*
X608160Y932494D01*
X608112Y932695D01*
X608068Y932898D01*
X608029Y933101D01*
X607995Y933305D01*
X607966Y933510D01*
X607942Y933716D01*
X607924Y933922D01*
X607910Y934128D01*
X607901Y934335D01*
X607897Y934542D01*
X607898Y934749D01*
X607905Y934956D01*
X607916Y935163D01*
X607932Y935369D01*
X607954Y935575D01*
X607980Y935780D01*
X608012Y935985D01*
X608048Y936189D01*
X608089Y936392D01*
X608135Y936593D01*
X608187Y936794D01*
X608186Y936794D02*
X621108Y985021D01*
X621108Y985022D02*
X610028Y987656D01*
X598890Y990037D01*
X587701Y992164D01*
X576466Y994036D01*
X565191Y995651D01*
X553883Y997009D01*
X542547Y998109D01*
X531188Y998950D01*
X519813Y999533D01*
X508428Y999856D01*
X508428Y999855D02*
X508428Y949928D01*
X508425Y949721D01*
X508418Y949514D01*
X508405Y949308D01*
X508388Y949101D01*
X508365Y948896D01*
X508337Y948690D01*
X508305Y948486D01*
X508267Y948282D01*
X508225Y948080D01*
X508177Y947878D01*
X508125Y947678D01*
X508068Y947479D01*
X508006Y947282D01*
X507939Y947086D01*
X507867Y946892D01*
X507791Y946699D01*
X507710Y946509D01*
X507624Y946320D01*
X507534Y946134D01*
X507440Y945950D01*
X507340Y945768D01*
X507237Y945589D01*
X507129Y945412D01*
X507017Y945238D01*
X506901Y945067D01*
X506780Y944898D01*
X506656Y944733D01*
X506527Y944571D01*
X506395Y944412D01*
X506259Y944256D01*
X506119Y944103D01*
X505975Y943954D01*
X505828Y943809D01*
X505677Y943667D01*
X505523Y943529D01*
X505365Y943394D01*
X505205Y943264D01*
X505041Y943138D01*
X504874Y943015D01*
X504704Y942897D01*
X504531Y942782D01*
X504356Y942672D01*
X504178Y942567D01*
X503997Y942465D01*
X503815Y942369D01*
X503629Y942276D01*
X503442Y942188D01*
X503252Y942105D01*
X503061Y942026D01*
X502868Y941952D01*
X502672Y941883D01*
X502476Y941819D01*
X502278Y941759D01*
X502078Y941704D01*
X501877Y941654D01*
X501675Y941609D01*
X501472Y941569D01*
X501268Y941534D01*
X501063Y941504D01*
X500858Y941479D01*
X500652Y941459D01*
X500445Y941444D01*
X500238Y941434D01*
X500031Y941429D01*
X499825Y941429D01*
X499618Y941434D01*
X499411Y941444D01*
X499204Y941459D01*
X498998Y941479D01*
X498793Y941504D01*
X498588Y941534D01*
X498384Y941569D01*
X498181Y941609D01*
X497979Y941654D01*
X497778Y941704D01*
X497578Y941759D01*
X497380Y941819D01*
X497184Y941883D01*
X496988Y941952D01*
X496795Y942026D01*
X496604Y942105D01*
X496414Y942188D01*
X496227Y942276D01*
X496041Y942369D01*
X495859Y942465D01*
X495678Y942567D01*
X495500Y942672D01*
X495325Y942782D01*
X495152Y942897D01*
X494982Y943015D01*
X494815Y943138D01*
X494651Y943264D01*
X494491Y943394D01*
X494333Y943529D01*
X494179Y943667D01*
X494028Y943809D01*
X493881Y943954D01*
X493737Y944103D01*
X493597Y944256D01*
X493461Y944412D01*
X493329Y944571D01*
X493200Y944733D01*
X493076Y944898D01*
X492955Y945067D01*
X492839Y945238D01*
X492727Y945412D01*
X492619Y945589D01*
X492516Y945768D01*
X492416Y945950D01*
X492322Y946134D01*
X492232Y946320D01*
X492146Y946509D01*
X492065Y946699D01*
X491989Y946892D01*
X491917Y947086D01*
X491850Y947282D01*
X491788Y947479D01*
X491731Y947678D01*
X491679Y947878D01*
X491631Y948080D01*
X491589Y948282D01*
X491551Y948486D01*
X491519Y948690D01*
X491491Y948896D01*
X491468Y949101D01*
X491451Y949308D01*
X491438Y949514D01*
X491431Y949721D01*
X491428Y949928D01*
X491428Y999855D01*
X480043Y999532D01*
X468668Y998949D01*
X457310Y998108D01*
X445973Y997008D01*
X434665Y995650D01*
X423390Y994035D01*
X412155Y992163D01*
X400966Y990036D01*
X389828Y987655D01*
X378747Y985021D01*
X391670Y936794D01*
X391722Y936593D01*
X391768Y936392D01*
X391809Y936189D01*
X391845Y935985D01*
X391877Y935780D01*
X391903Y935575D01*
X391925Y935369D01*
X391941Y935163D01*
X391952Y934956D01*
X391959Y934749D01*
X391960Y934542D01*
X391956Y934335D01*
X391947Y934128D01*
X391933Y933922D01*
X391915Y933716D01*
X391891Y933510D01*
X391862Y933305D01*
X391828Y933101D01*
X391789Y932898D01*
X391745Y932695D01*
X391697Y932494D01*
X391643Y932294D01*
X391585Y932096D01*
X391521Y931899D01*
X391453Y931703D01*
X391381Y931509D01*
X391303Y931317D01*
X391221Y931127D01*
X391134Y930939D01*
X391043Y930754D01*
X390947Y930570D01*
X390847Y930389D01*
X390742Y930210D01*
X390633Y930034D01*
X390520Y929861D01*
X390403Y929690D01*
X390281Y929523D01*
X390156Y929358D01*
X390026Y929197D01*
X389893Y929038D01*
X389756Y928883D01*
X389615Y928732D01*
X389470Y928584D01*
X389322Y928439D01*
X389171Y928298D01*
X389016Y928161D01*
X388857Y928028D01*
X388696Y927898D01*
X388531Y927773D01*
X388364Y927651D01*
X388193Y927534D01*
X388020Y927421D01*
X387844Y927312D01*
X387665Y927207D01*
X387484Y927107D01*
X387300Y927011D01*
X387115Y926920D01*
X386927Y926833D01*
X386737Y926751D01*
X386545Y926673D01*
X386351Y926601D01*
X386155Y926533D01*
X385958Y926469D01*
X385760Y926411D01*
X385560Y926357D01*
X385359Y926309D01*
X385156Y926265D01*
X384953Y926226D01*
X384749Y926192D01*
X384544Y926163D01*
X384338Y926139D01*
X384132Y926121D01*
X383926Y926107D01*
X383719Y926098D01*
X383512Y926094D01*
X383305Y926095D01*
X383098Y926102D01*
X382891Y926113D01*
X382685Y926129D01*
X382479Y926151D01*
X382274Y926177D01*
X382069Y926209D01*
X381865Y926245D01*
X381662Y926286D01*
X381461Y926332D01*
X381260Y926384D01*
X381061Y926440D01*
X380863Y926500D01*
X380667Y926566D01*
X380472Y926637D01*
X380279Y926712D01*
X380088Y926791D01*
X379899Y926876D01*
X379712Y926965D01*
X379527Y927058D01*
X379345Y927156D01*
X379165Y927259D01*
X378988Y927366D01*
X378813Y927477D01*
X378641Y927592D01*
X378472Y927711D01*
X378306Y927835D01*
X378143Y927962D01*
X377983Y928094D01*
X377826Y928229D01*
X377673Y928368D01*
X377523Y928511D01*
X377377Y928657D01*
X377234Y928807D01*
X377095Y928960D01*
X376960Y929117D01*
X376828Y929277D01*
X376701Y929440D01*
X376577Y929606D01*
X376458Y929775D01*
X376343Y929947D01*
X376232Y930122D01*
X376125Y930299D01*
X376022Y930479D01*
X375924Y930661D01*
X375831Y930846D01*
X375742Y931033D01*
X375657Y931222D01*
X375578Y931413D01*
X375503Y931606D01*
X375432Y931801D01*
X375366Y931997D01*
X375306Y932195D01*
X375250Y932394D01*
X375249Y932394D02*
X362327Y980621D01*
X351414Y977362D01*
X340577Y973856D01*
X329824Y970103D01*
X319158Y966106D01*
X308586Y961868D01*
X298114Y957390D01*
X287746Y952674D01*
X277489Y947724D01*
X267347Y942541D01*
X257325Y937128D01*
X282289Y893889D01*
X282390Y893709D01*
X282487Y893526D01*
X282580Y893340D01*
X282668Y893153D01*
X282751Y892963D01*
X282830Y892772D01*
X282903Y892579D01*
X282973Y892384D01*
X283037Y892187D01*
X283097Y891989D01*
X283152Y891789D01*
X283202Y891588D01*
X283247Y891386D01*
X283287Y891183D01*
X283322Y890979D01*
X283352Y890774D01*
X283377Y890569D01*
X283397Y890363D01*
X283412Y890156D01*
X283422Y889950D01*
X283427Y889743D01*
X283427Y889536D01*
X283422Y889329D01*
X283412Y889122D01*
X283397Y888915D01*
X283377Y888709D01*
X283352Y888504D01*
X283322Y888299D01*
X283287Y888095D01*
X283247Y887892D01*
X283202Y887690D01*
X283152Y887489D01*
X283097Y887290D01*
X283037Y887091D01*
X282973Y886895D01*
X282904Y886700D01*
X282830Y886506D01*
X282751Y886315D01*
X282668Y886125D01*
X282580Y885938D01*
X282487Y885753D01*
X282391Y885570D01*
X282289Y885389D01*
X282184Y885211D01*
X282074Y885036D01*
X281959Y884863D01*
X281841Y884693D01*
X281719Y884526D01*
X281592Y884363D01*
X281462Y884202D01*
X281327Y884044D01*
X281189Y883890D01*
X281047Y883739D01*
X280902Y883592D01*
X280753Y883449D01*
X280600Y883309D01*
X280444Y883172D01*
X280285Y883040D01*
X280123Y882911D01*
X279958Y882787D01*
X279789Y882666D01*
X279618Y882550D01*
X279444Y882438D01*
X279267Y882330D01*
X279088Y882227D01*
X278906Y882128D01*
X278722Y882033D01*
X278536Y881943D01*
X278347Y881857D01*
X278157Y881776D01*
X277965Y881700D01*
X277770Y881628D01*
X277574Y881561D01*
X277377Y881499D01*
X277178Y881442D01*
X276978Y881390D01*
X276776Y881342D01*
X276574Y881300D01*
X276370Y881262D01*
X276166Y881230D01*
X275961Y881202D01*
X275755Y881179D01*
X275549Y881162D01*
X275342Y881149D01*
X275135Y881142D01*
X274928Y881139D01*
X274721Y881142D01*
X274514Y881149D01*
X274308Y881162D01*
X274101Y881179D01*
X273896Y881202D01*
X273690Y881230D01*
X273486Y881262D01*
X273283Y881300D01*
X273080Y881342D01*
X272878Y881390D01*
X272678Y881442D01*
X272479Y881499D01*
X272282Y881561D01*
X272086Y881628D01*
X271892Y881700D01*
X271699Y881776D01*
X271509Y881857D01*
X271320Y881943D01*
X271134Y882033D01*
X270950Y882127D01*
X270768Y882227D01*
X270589Y882330D01*
X270412Y882438D01*
X270238Y882550D01*
X270067Y882666D01*
X269898Y882787D01*
X269733Y882911D01*
X269571Y883040D01*
X269412Y883172D01*
X269256Y883308D01*
X269103Y883448D01*
X268954Y883592D01*
X268809Y883739D01*
X268667Y883890D01*
X268529Y884044D01*
X268395Y884202D01*
X268264Y884362D01*
X268138Y884526D01*
X268015Y884693D01*
X267897Y884863D01*
X267782Y885036D01*
X267673Y885211D01*
X267567Y885389D01*
X242603Y928628D01*
X242604Y928628D02*
X232905Y922655D01*
X223346Y916464D01*
X213930Y910055D01*
X204662Y903435D01*
X195548Y896604D01*
X186591Y889568D01*
X177798Y882330D01*
X169171Y874893D01*
X160716Y867262D01*
X152437Y859440D01*
X152436Y859440D02*
X187740Y824136D01*
X187885Y823988D01*
X188026Y823837D01*
X188163Y823682D01*
X188296Y823523D01*
X188426Y823362D01*
X188551Y823197D01*
X188673Y823030D01*
X188790Y822859D01*
X188903Y822686D01*
X189012Y822510D01*
X189117Y822331D01*
X189217Y822150D01*
X189313Y821966D01*
X189404Y821781D01*
X189491Y821593D01*
X189573Y821403D01*
X189651Y821211D01*
X189723Y821017D01*
X189791Y820821D01*
X189855Y820624D01*
X189913Y820426D01*
X189967Y820226D01*
X190015Y820025D01*
X190059Y819822D01*
X190098Y819619D01*
X190132Y819415D01*
X190161Y819210D01*
X190185Y819004D01*
X190203Y818798D01*
X190217Y818592D01*
X190226Y818385D01*
X190230Y818178D01*
X190229Y817971D01*
X190222Y817764D01*
X190211Y817557D01*
X190195Y817351D01*
X190173Y817145D01*
X190147Y816940D01*
X190115Y816735D01*
X190079Y816531D01*
X190038Y816328D01*
X189992Y816127D01*
X189940Y815926D01*
X189884Y815727D01*
X189824Y815529D01*
X189758Y815333D01*
X189687Y815138D01*
X189612Y814945D01*
X189533Y814754D01*
X189448Y814565D01*
X189359Y814378D01*
X189266Y814193D01*
X189168Y814011D01*
X189065Y813831D01*
X188958Y813654D01*
X188847Y813479D01*
X188732Y813307D01*
X188613Y813138D01*
X188489Y812972D01*
X188362Y812809D01*
X188230Y812649D01*
X188095Y812492D01*
X187956Y812339D01*
X187813Y812189D01*
X187667Y812043D01*
X187517Y811900D01*
X187364Y811761D01*
X187207Y811626D01*
X187047Y811494D01*
X186884Y811367D01*
X186718Y811243D01*
X186549Y811124D01*
X186377Y811009D01*
X186202Y810898D01*
X186025Y810791D01*
X185845Y810688D01*
X185663Y810590D01*
X185478Y810497D01*
X185291Y810408D01*
X185102Y810323D01*
X184911Y810244D01*
X184718Y810169D01*
X184523Y810098D01*
X184327Y810032D01*
X184129Y809972D01*
X183930Y809916D01*
X183729Y809864D01*
X183528Y809818D01*
X183325Y809777D01*
X183121Y809741D01*
X182916Y809709D01*
X182711Y809683D01*
X182505Y809661D01*
X182299Y809645D01*
X182092Y809634D01*
X181885Y809627D01*
X181678Y809626D01*
X181471Y809630D01*
X181264Y809639D01*
X181058Y809653D01*
X180852Y809671D01*
X180646Y809695D01*
X180441Y809724D01*
X180237Y809758D01*
X180034Y809797D01*
X179831Y809841D01*
X179630Y809889D01*
X179430Y809943D01*
X179232Y810001D01*
X179035Y810065D01*
X178839Y810133D01*
X178645Y810205D01*
X178453Y810283D01*
X178263Y810365D01*
X178075Y810452D01*
X177890Y810543D01*
X177706Y810639D01*
X177525Y810739D01*
X177346Y810844D01*
X177170Y810953D01*
X176997Y811066D01*
X176826Y811183D01*
X176659Y811305D01*
X176494Y811430D01*
X176333Y811560D01*
X176174Y811693D01*
X176019Y811830D01*
X175868Y811971D01*
X175720Y812116D01*
X175719Y812115D02*
X140415Y847420D01*
X132593Y839141D01*
X124962Y830686D01*
X117525Y822060D01*
X110287Y813266D01*
X103251Y804309D01*
X96421Y795195D01*
X89800Y785927D01*
X83392Y776511D01*
X77200Y766951D01*
X71228Y757253D01*
X114466Y732289D01*
X114644Y732183D01*
X114819Y732074D01*
X114992Y731959D01*
X115162Y731841D01*
X115329Y731718D01*
X115493Y731592D01*
X115653Y731461D01*
X115811Y731327D01*
X115965Y731189D01*
X116116Y731047D01*
X116263Y730902D01*
X116407Y730753D01*
X116547Y730600D01*
X116683Y730444D01*
X116815Y730285D01*
X116944Y730123D01*
X117068Y729958D01*
X117189Y729789D01*
X117305Y729618D01*
X117417Y729444D01*
X117525Y729267D01*
X117628Y729088D01*
X117728Y728906D01*
X117822Y728722D01*
X117912Y728536D01*
X117998Y728347D01*
X118079Y728157D01*
X118155Y727964D01*
X118227Y727770D01*
X118294Y727574D01*
X118356Y727377D01*
X118413Y727178D01*
X118465Y726978D01*
X118513Y726776D01*
X118555Y726573D01*
X118593Y726370D01*
X118625Y726166D01*
X118653Y725960D01*
X118676Y725755D01*
X118693Y725548D01*
X118706Y725342D01*
X118713Y725135D01*
X118716Y724928D01*
X118713Y724721D01*
X118706Y724514D01*
X118693Y724307D01*
X118676Y724101D01*
X118653Y723895D01*
X118625Y723690D01*
X118593Y723486D01*
X118555Y723282D01*
X118513Y723080D01*
X118465Y722878D01*
X118413Y722678D01*
X118356Y722479D01*
X118294Y722282D01*
X118227Y722086D01*
X118155Y721891D01*
X118079Y721699D01*
X117998Y721509D01*
X117912Y721320D01*
X117822Y721134D01*
X117727Y720950D01*
X117628Y720768D01*
X117525Y720589D01*
X117417Y720412D01*
X117305Y720238D01*
X117189Y720067D01*
X117068Y719898D01*
X116944Y719733D01*
X116815Y719571D01*
X116683Y719412D01*
X116546Y719256D01*
X116406Y719103D01*
X116263Y718954D01*
X116116Y718809D01*
X115965Y718667D01*
X115811Y718529D01*
X115653Y718394D01*
X115492Y718264D01*
X115329Y718137D01*
X115162Y718015D01*
X114992Y717897D01*
X114819Y717782D01*
X114644Y717672D01*
X114466Y717567D01*
X114285Y717465D01*
X114102Y717369D01*
X113917Y717276D01*
X113730Y717188D01*
X113540Y717105D01*
X113349Y717026D01*
X113155Y716952D01*
X112960Y716883D01*
X112764Y716819D01*
X112565Y716759D01*
X112366Y716704D01*
X112165Y716654D01*
X111963Y716609D01*
X111760Y716569D01*
X111556Y716534D01*
X111351Y716504D01*
X111146Y716479D01*
X110940Y716459D01*
X110733Y716444D01*
X110526Y716434D01*
X110319Y716429D01*
X110112Y716429D01*
X109905Y716434D01*
X109699Y716444D01*
X109492Y716459D01*
X109286Y716479D01*
X109081Y716504D01*
X108876Y716534D01*
X108672Y716569D01*
X108469Y716609D01*
X108267Y716654D01*
X108066Y716704D01*
X107866Y716759D01*
X107668Y716819D01*
X107471Y716883D01*
X107276Y716953D01*
X107083Y717026D01*
X106892Y717105D01*
X106702Y717188D01*
X106515Y717276D01*
X106329Y717369D01*
X106146Y717466D01*
X105966Y717567D01*
X62728Y742530D01*
X57315Y732509D01*
X52133Y722367D01*
X47182Y712109D01*
X42467Y701742D01*
X37988Y691270D01*
X33750Y680698D01*
X29753Y670033D01*
X26001Y659279D01*
X22494Y648443D01*
X19235Y637529D01*
X67461Y624607D01*
X67660Y624551D01*
X67858Y624491D01*
X68054Y624425D01*
X68249Y624354D01*
X68442Y624279D01*
X68633Y624200D01*
X68822Y624115D01*
X69009Y624026D01*
X69194Y623933D01*
X69376Y623835D01*
X69556Y623732D01*
X69733Y623625D01*
X69908Y623514D01*
X70080Y623399D01*
X70249Y623280D01*
X70415Y623156D01*
X70578Y623029D01*
X70738Y622897D01*
X70895Y622762D01*
X71048Y622623D01*
X71198Y622480D01*
X71344Y622334D01*
X71487Y622184D01*
X71626Y622031D01*
X71761Y621874D01*
X71893Y621714D01*
X72020Y621551D01*
X72144Y621385D01*
X72263Y621216D01*
X72378Y621044D01*
X72489Y620869D01*
X72596Y620692D01*
X72699Y620512D01*
X72797Y620330D01*
X72890Y620145D01*
X72979Y619958D01*
X73064Y619769D01*
X73143Y619578D01*
X73218Y619385D01*
X73289Y619190D01*
X73355Y618994D01*
X73415Y618796D01*
X73471Y618597D01*
X73523Y618396D01*
X73569Y618195D01*
X73610Y617992D01*
X73646Y617788D01*
X73678Y617583D01*
X73704Y617378D01*
X73726Y617172D01*
X73742Y616966D01*
X73753Y616759D01*
X73760Y616552D01*
X73761Y616345D01*
X73757Y616138D01*
X73748Y615931D01*
X73734Y615725D01*
X73716Y615519D01*
X73692Y615313D01*
X73663Y615108D01*
X73629Y614904D01*
X73590Y614701D01*
X73546Y614498D01*
X73498Y614297D01*
X73444Y614097D01*
X73386Y613899D01*
X73322Y613702D01*
X73254Y613506D01*
X73182Y613312D01*
X73104Y613120D01*
X73022Y612930D01*
X72935Y612742D01*
X72844Y612557D01*
X72748Y612373D01*
X72648Y612192D01*
X72543Y612013D01*
X72434Y611837D01*
X72321Y611664D01*
X72204Y611493D01*
X72082Y611326D01*
X71957Y611161D01*
X71827Y611000D01*
X71694Y610841D01*
X71557Y610686D01*
X71416Y610535D01*
X71271Y610387D01*
X71123Y610242D01*
X70972Y610101D01*
X70817Y609964D01*
X70658Y609831D01*
X70497Y609701D01*
X70332Y609576D01*
X70165Y609454D01*
X69994Y609337D01*
X69821Y609224D01*
X69645Y609115D01*
X69466Y609010D01*
X69285Y608910D01*
X69101Y608814D01*
X68916Y608723D01*
X68728Y608636D01*
X68538Y608554D01*
X68346Y608476D01*
X68152Y608404D01*
X67956Y608336D01*
X67759Y608272D01*
X67561Y608214D01*
X67361Y608160D01*
X67160Y608112D01*
X66957Y608068D01*
X66754Y608029D01*
X66550Y607995D01*
X66345Y607966D01*
X66139Y607942D01*
X65933Y607924D01*
X65727Y607910D01*
X65520Y607901D01*
X65313Y607897D01*
X65106Y607898D01*
X64899Y607905D01*
X64692Y607916D01*
X64486Y607932D01*
X64280Y607954D01*
X64075Y607980D01*
X63870Y608012D01*
X63666Y608048D01*
X63463Y608089D01*
X63262Y608135D01*
X63061Y608187D01*
X63061Y608186D02*
X14835Y621108D01*
X427000Y405000D02*
X435000Y405000D01*
X435140Y405002D01*
X435280Y405008D01*
X435420Y405018D01*
X435560Y405031D01*
X435699Y405049D01*
X435838Y405071D01*
X435975Y405096D01*
X436113Y405125D01*
X436249Y405158D01*
X436384Y405195D01*
X436518Y405236D01*
X436651Y405281D01*
X436783Y405329D01*
X436913Y405381D01*
X437042Y405436D01*
X437169Y405495D01*
X437295Y405558D01*
X437419Y405624D01*
X437540Y405693D01*
X437660Y405766D01*
X437778Y405843D01*
X437893Y405922D01*
X438007Y406005D01*
X438117Y406091D01*
X438226Y406180D01*
X438332Y406272D01*
X438435Y406367D01*
X438536Y406464D01*
X438633Y406565D01*
X438728Y406668D01*
X438820Y406774D01*
X438909Y406883D01*
X438995Y406993D01*
X439078Y407107D01*
X439157Y407222D01*
X439234Y407340D01*
X439307Y407460D01*
X439376Y407581D01*
X439442Y407705D01*
X439505Y407831D01*
X439564Y407958D01*
X439619Y408087D01*
X439671Y408217D01*
X439719Y408349D01*
X439764Y408482D01*
X439805Y408616D01*
X439842Y408751D01*
X439875Y408887D01*
X439904Y409025D01*
X439929Y409162D01*
X439951Y409301D01*
X439969Y409440D01*
X439982Y409580D01*
X439992Y409720D01*
X439998Y409860D01*
X440000Y410000D01*
X440000Y590000D01*
X439998Y590140D01*
X439992Y590280D01*
X439982Y590420D01*
X439969Y590560D01*
X439951Y590699D01*
X439929Y590838D01*
X439904Y590975D01*
X439875Y591113D01*
X439842Y591249D01*
X439805Y591384D01*
X439764Y591518D01*
X439719Y591651D01*
X439671Y591783D01*
X439619Y591913D01*
X439564Y592042D01*
X439505Y592169D01*
X439442Y592295D01*
X439376Y592419D01*
X439307Y592540D01*
X439234Y592660D01*
X439157Y592778D01*
X439078Y592893D01*
X438995Y593007D01*
X438909Y593117D01*
X438820Y593226D01*
X438728Y593332D01*
X438633Y593435D01*
X438536Y593536D01*
X438435Y593633D01*
X438332Y593728D01*
X438226Y593820D01*
X438117Y593909D01*
X438007Y593995D01*
X437893Y594078D01*
X437778Y594157D01*
X437660Y594234D01*
X437540Y594307D01*
X437419Y594376D01*
X437295Y594442D01*
X437169Y594505D01*
X437042Y594564D01*
X436913Y594619D01*
X436783Y594671D01*
X436651Y594719D01*
X436518Y594764D01*
X436384Y594805D01*
X436249Y594842D01*
X436113Y594875D01*
X435975Y594904D01*
X435838Y594929D01*
X435699Y594951D01*
X435560Y594969D01*
X435420Y594982D01*
X435280Y594992D01*
X435140Y594998D01*
X435000Y595000D01*
X427000Y595000D01*
X426860Y594998D01*
X426720Y594992D01*
X426580Y594982D01*
X426440Y594969D01*
X426301Y594951D01*
X426162Y594929D01*
X426025Y594904D01*
X425887Y594875D01*
X425751Y594842D01*
X425616Y594805D01*
X425482Y594764D01*
X425349Y594719D01*
X425217Y594671D01*
X425087Y594619D01*
X424958Y594564D01*
X424831Y594505D01*
X424705Y594442D01*
X424581Y594376D01*
X424460Y594307D01*
X424340Y594234D01*
X424222Y594157D01*
X424107Y594078D01*
X423993Y593995D01*
X423883Y593909D01*
X423774Y593820D01*
X423668Y593728D01*
X423565Y593633D01*
X423464Y593536D01*
X423367Y593435D01*
X423272Y593332D01*
X423180Y593226D01*
X423091Y593117D01*
X423005Y593007D01*
X422922Y592893D01*
X422843Y592778D01*
X422766Y592660D01*
X422693Y592540D01*
X422624Y592419D01*
X422558Y592295D01*
X422495Y592169D01*
X422436Y592042D01*
X422381Y591913D01*
X422329Y591783D01*
X422281Y591651D01*
X422236Y591518D01*
X422195Y591384D01*
X422158Y591249D01*
X422125Y591113D01*
X422096Y590975D01*
X422071Y590838D01*
X422049Y590699D01*
X422031Y590560D01*
X422018Y590420D01*
X422008Y590280D01*
X422002Y590140D01*
X422000Y590000D01*
X422000Y564600D01*
X368800Y564600D01*
X368660Y564598D01*
X368520Y564592D01*
X368380Y564582D01*
X368240Y564569D01*
X368101Y564551D01*
X367962Y564529D01*
X367825Y564504D01*
X367687Y564475D01*
X367551Y564442D01*
X367416Y564405D01*
X367282Y564364D01*
X367149Y564319D01*
X367017Y564271D01*
X366887Y564219D01*
X366758Y564164D01*
X366631Y564105D01*
X366505Y564042D01*
X366381Y563976D01*
X366260Y563907D01*
X366140Y563834D01*
X366022Y563757D01*
X365907Y563678D01*
X365793Y563595D01*
X365683Y563509D01*
X365574Y563420D01*
X365468Y563328D01*
X365365Y563233D01*
X365264Y563136D01*
X365167Y563035D01*
X365072Y562932D01*
X364980Y562826D01*
X364891Y562717D01*
X364805Y562607D01*
X364722Y562493D01*
X364643Y562378D01*
X364566Y562260D01*
X364493Y562140D01*
X364424Y562019D01*
X364358Y561895D01*
X364295Y561769D01*
X364236Y561642D01*
X364181Y561513D01*
X364129Y561383D01*
X364081Y561251D01*
X364036Y561118D01*
X363995Y560984D01*
X363958Y560849D01*
X363925Y560713D01*
X363896Y560575D01*
X363871Y560438D01*
X363849Y560299D01*
X363831Y560160D01*
X363818Y560020D01*
X363808Y559880D01*
X363802Y559740D01*
X363800Y559600D01*
X363800Y440400D01*
X363802Y440260D01*
X363808Y440120D01*
X363818Y439980D01*
X363831Y439840D01*
X363849Y439701D01*
X363871Y439562D01*
X363896Y439425D01*
X363925Y439287D01*
X363958Y439151D01*
X363995Y439016D01*
X364036Y438882D01*
X364081Y438749D01*
X364129Y438617D01*
X364181Y438487D01*
X364236Y438358D01*
X364295Y438231D01*
X364358Y438105D01*
X364424Y437981D01*
X364493Y437860D01*
X364566Y437740D01*
X364643Y437622D01*
X364722Y437507D01*
X364805Y437393D01*
X364891Y437283D01*
X364980Y437174D01*
X365072Y437068D01*
X365167Y436965D01*
X365264Y436864D01*
X365365Y436767D01*
X365468Y436672D01*
X365574Y436580D01*
X365683Y436491D01*
X365793Y436405D01*
X365907Y436322D01*
X366022Y436243D01*
X366140Y436166D01*
X366260Y436093D01*
X366381Y436024D01*
X366505Y435958D01*
X366631Y435895D01*
X366758Y435836D01*
X366887Y435781D01*
X367017Y435729D01*
X367149Y435681D01*
X367282Y435636D01*
X367416Y435595D01*
X367551Y435558D01*
X367687Y435525D01*
X367825Y435496D01*
X367962Y435471D01*
X368101Y435449D01*
X368240Y435431D01*
X368380Y435418D01*
X368520Y435408D01*
X368660Y435402D01*
X368800Y435400D01*
X422000Y435400D01*
X422000Y410000D01*
X422002Y409860D01*
X422008Y409720D01*
X422018Y409580D01*
X422031Y409440D01*
X422049Y409301D01*
X422071Y409162D01*
X422096Y409025D01*
X422125Y408887D01*
X422158Y408751D01*
X422195Y408616D01*
X422236Y408482D01*
X422281Y408349D01*
X422329Y408217D01*
X422381Y408087D01*
X422436Y407958D01*
X422495Y407831D01*
X422558Y407705D01*
X422624Y407581D01*
X422693Y407460D01*
X422766Y407340D01*
X422843Y407222D01*
X422922Y407107D01*
X423005Y406993D01*
X423091Y406883D01*
X423180Y406774D01*
X423272Y406668D01*
X423367Y406565D01*
X423464Y406464D01*
X423565Y406367D01*
X423668Y406272D01*
X423774Y406180D01*
X423883Y406091D01*
X423993Y406005D01*
X424107Y405922D01*
X424222Y405843D01*
X424340Y405766D01*
X424460Y405693D01*
X424581Y405624D01*
X424705Y405558D01*
X424831Y405495D01*
X424958Y405436D01*
X425087Y405381D01*
X425217Y405329D01*
X425349Y405281D01*
X425482Y405236D01*
X425616Y405195D01*
X425751Y405158D01*
X425887Y405125D01*
X426025Y405096D01*
X426162Y405071D01*
X426301Y405049D01*
X426440Y405031D01*
X426580Y405018D01*
X426720Y405008D01*
X426860Y405002D01*
X427000Y405000D01*
D11*
X759270Y525593D03*
X729668Y546165D03*
X734079Y521151D03*
X754682Y550576D03*
X743812Y591826D03*
X709894Y604035D03*
X720629Y581015D03*
X732914Y614770D03*
X711738Y651800D03*
X675816Y654815D03*
X692143Y635358D03*
X695274Y671142D03*
X665234Y701429D03*
X629756Y695044D03*
X650562Y680475D03*
X644325Y715850D03*
X611170Y737327D03*
X580015Y719192D03*
X604550Y712618D03*
X586589Y743727D03*
X545958Y758013D03*
X520558Y732433D03*
X545958Y732433D03*
X520558Y757833D03*
X477613Y761116D03*
X459699Y729833D03*
X484234Y736407D03*
X453125Y754368D03*
X410794Y746425D03*
X401586Y711572D03*
X423584Y724272D03*
X388886Y733569D03*
X350054Y714940D03*
X350181Y678891D03*
X368142Y696852D03*
X332221Y696852D03*
X299533Y668807D03*
X308986Y634019D03*
X321686Y656017D03*
X286989Y646719D03*
X262673Y611170D03*
X280808Y580015D03*
X287382Y604550D03*
X256273Y586589D03*
X241987Y545958D03*
X267567Y520558D03*
X267567Y545958D03*
X242167Y520558D03*
X238884Y477613D03*
X270167Y459699D03*
X263593Y484234D03*
X245632Y453125D03*
X253575Y410794D03*
X288428Y401586D03*
X275728Y423584D03*
X266431Y388886D03*
X285060Y350054D03*
X321109Y350181D03*
X303148Y368142D03*
X303148Y332221D03*
X331193Y299533D03*
X365981Y308986D03*
X343983Y321686D03*
X353281Y286989D03*
X388830Y262673D03*
X419985Y280808D03*
X395450Y287382D03*
X413411Y256273D03*
X454042Y241987D03*
X479442Y267567D03*
X454042Y267567D03*
X479442Y242167D03*
X522387Y238884D03*
X540301Y270167D03*
X515766Y263593D03*
X546875Y245632D03*
X589206Y253575D03*
X598414Y288428D03*
X576416Y275728D03*
X611114Y266431D03*
X649946Y285060D03*
X649819Y321109D03*
X631858Y303148D03*
X667779Y303148D03*
X700467Y331193D03*
X691014Y365981D03*
X678314Y343983D03*
X713011Y353281D03*
X737327Y388830D03*
X719192Y419985D03*
X712618Y395450D03*
X743727Y413411D03*
X758013Y454042D03*
X732433Y479442D03*
X732433Y454042D03*
X757833Y479442D03*
D12*
X500000Y500000D03*
D13*
X320000Y500000D03*
X570000Y360000D03*
D11*
X409300Y576200D03*
X383900Y576200D03*
X358500Y576200D03*
X409300Y423800D03*
X383900Y423800D03*
X358500Y423800D03*
X554200Y576200D03*
X554200Y525400D03*
X554200Y500000D03*
X554200Y474600D03*
X652500Y500000D03*
X652500Y550800D03*
X652500Y525400D03*
X554200Y550800D03*
X554200Y449200D03*
X554200Y423800D03*
X652500Y474600D03*
X652500Y449200D03*
D14*
X700000Y495000D03*
D15*
X715000Y495000D01*
X720000Y500000D01*
X752500Y500000D02*
X760000Y507500D01*
X760000Y524863D01*
X759270Y525593D01*
X752500Y500000D02*
X720000Y500000D01*
D16*
X267567Y545958D02*
X267567Y552433D01*
X252500Y567500D01*
X232500Y567500D01*
X217500Y552500D01*
X217500Y498997D01*
X238884Y477613D01*
M02*
