M48
;GenerationSoftware,Autodesk,EAGLE,9.5.0*%
;CreationDate,2020-01-12T16:02:30Z*%
FMAT,2
ICI,OFF
METRIC,TZ,000.000
T4C0.600
T3C1.000
T2C3.000
T1C3.300
%
G90
M71
T1
X50000Y50000
T2
X57000Y36000
X32000Y50000
T3
X73408Y52115
X75468Y55058
X74381Y59183
X70989Y60404
X72063Y58102
X73291Y61477
X71174Y65180
X67582Y65482
X69214Y63536
X69527Y67114
X66523Y70143
X62976Y69504
X65056Y68047
X64432Y71585
X61117Y73733
X58002Y71919
X60455Y71262
X58659Y74373
X54596Y75801
X52056Y73243
X54596Y73243
X52056Y75783
X47761Y76112
X45970Y72983
X48423Y73641
X45313Y75437
X41079Y74642
X40159Y71157
X42358Y72427
X38889Y73357
X35005Y71494
X35018Y67889
X36814Y69685
X33222Y69685
X29953Y66881
X30899Y63402
X32169Y65602
X28699Y64672
X26267Y61117
X28081Y58002
X28738Y60455
X25627Y58659
X24199Y54596
X26757Y52056
X26757Y54596
X24217Y52056
X23888Y47761
X27017Y45970
X26359Y48423
X24563Y45313
X25358Y41079
X28843Y40159
X27573Y42358
X26643Y38889
X28506Y35005
X32111Y35018
X65250Y44920
X30315Y33222
X33119Y29953
X36598Y30899
X34398Y32169
X35328Y28699
X38883Y26267
X41998Y28081
X39545Y28738
X41341Y25627
X45404Y24199
X47944Y26757
X45404Y26757
X47944Y24217
X52239Y23888
X54030Y27017
X51577Y26359
X54687Y24563
X58921Y25358
X59841Y28843
X57642Y27573
X61111Y26643
X64995Y28506
X64982Y32111
X63186Y30315
X66778Y30315
X70047Y33119
X69101Y36598
X67831Y34398
X71301Y35328
X73733Y38883
X71919Y41998
X71262Y39545
X74373Y41341
X75801Y45404
X73243Y47944
X73243Y45404
X75783Y47944
X72967Y54617
X75927Y52559
X30315Y36814
X40930Y57620
X38390Y57620
X35850Y57620
X40930Y42380
X38390Y42380
X35850Y42380
X55420Y57620
X55420Y52540
X55420Y50000
X55420Y47460
X65250Y50000
X65250Y55080
X65250Y52540
X55420Y55080
X55420Y44920
X55420Y42380
X65250Y47460
T4
X70000Y49500
M30