G04 EAGLE Gerber RS-274X export*
G75*
%MOMM*%
%FSLAX34Y34*%
%LPD*%
%INMask_Bottom*%
%IPPOS*%
%AMOC8*
5,1,8,0,0,1.08239X$1,22.5*%
G01*
%ADD10C,0.000000*%
%ADD11C,1.903200*%
%ADD12C,6.045200*%
%ADD13R,6.045200X6.045200*%
%ADD14C,1.209600*%


D10*
X14835Y621108D02*
X12201Y610027D01*
X9820Y598889D01*
X7693Y587700D01*
X5821Y576465D01*
X4206Y565191D01*
X2848Y553882D01*
X1748Y542546D01*
X906Y531187D01*
X324Y519813D01*
X0Y508428D01*
X49928Y508428D01*
X50135Y508425D01*
X50342Y508418D01*
X50548Y508405D01*
X50755Y508388D01*
X50960Y508365D01*
X51166Y508337D01*
X51370Y508305D01*
X51574Y508267D01*
X51776Y508225D01*
X51978Y508177D01*
X52178Y508125D01*
X52377Y508068D01*
X52574Y508006D01*
X52770Y507939D01*
X52964Y507867D01*
X53157Y507791D01*
X53347Y507710D01*
X53536Y507624D01*
X53722Y507534D01*
X53906Y507440D01*
X54088Y507340D01*
X54267Y507237D01*
X54444Y507129D01*
X54618Y507017D01*
X54789Y506901D01*
X54958Y506780D01*
X55123Y506656D01*
X55285Y506527D01*
X55444Y506395D01*
X55600Y506259D01*
X55753Y506119D01*
X55902Y505975D01*
X56047Y505828D01*
X56189Y505677D01*
X56327Y505523D01*
X56462Y505365D01*
X56592Y505205D01*
X56718Y505041D01*
X56841Y504874D01*
X56959Y504704D01*
X57074Y504531D01*
X57184Y504356D01*
X57289Y504178D01*
X57391Y503997D01*
X57487Y503815D01*
X57580Y503629D01*
X57668Y503442D01*
X57751Y503252D01*
X57830Y503061D01*
X57904Y502868D01*
X57973Y502672D01*
X58037Y502476D01*
X58097Y502278D01*
X58152Y502078D01*
X58202Y501877D01*
X58247Y501675D01*
X58287Y501472D01*
X58322Y501268D01*
X58352Y501063D01*
X58377Y500858D01*
X58397Y500652D01*
X58412Y500445D01*
X58422Y500238D01*
X58427Y500031D01*
X58427Y499825D01*
X58422Y499618D01*
X58412Y499411D01*
X58397Y499204D01*
X58377Y498998D01*
X58352Y498793D01*
X58322Y498588D01*
X58287Y498384D01*
X58247Y498181D01*
X58202Y497979D01*
X58152Y497778D01*
X58097Y497578D01*
X58037Y497380D01*
X57973Y497184D01*
X57904Y496988D01*
X57830Y496795D01*
X57751Y496604D01*
X57668Y496414D01*
X57580Y496227D01*
X57487Y496041D01*
X57391Y495859D01*
X57289Y495678D01*
X57184Y495500D01*
X57074Y495325D01*
X56959Y495152D01*
X56841Y494982D01*
X56718Y494815D01*
X56592Y494651D01*
X56462Y494491D01*
X56327Y494333D01*
X56189Y494179D01*
X56047Y494028D01*
X55902Y493881D01*
X55753Y493737D01*
X55600Y493597D01*
X55444Y493461D01*
X55285Y493329D01*
X55123Y493200D01*
X54958Y493076D01*
X54789Y492955D01*
X54618Y492839D01*
X54444Y492727D01*
X54267Y492619D01*
X54088Y492516D01*
X53906Y492416D01*
X53722Y492322D01*
X53536Y492232D01*
X53347Y492146D01*
X53157Y492065D01*
X52964Y491989D01*
X52770Y491917D01*
X52574Y491850D01*
X52377Y491788D01*
X52178Y491731D01*
X51978Y491679D01*
X51776Y491631D01*
X51574Y491589D01*
X51370Y491551D01*
X51166Y491519D01*
X50960Y491491D01*
X50755Y491468D01*
X50548Y491451D01*
X50342Y491438D01*
X50135Y491431D01*
X49928Y491428D01*
X0Y491428D01*
X-1Y491428D02*
X323Y480043D01*
X905Y468668D01*
X1747Y457309D01*
X2847Y445973D01*
X4205Y434664D01*
X5820Y423390D01*
X7692Y412155D01*
X9819Y400966D01*
X12200Y389828D01*
X14834Y378747D01*
X14835Y378747D02*
X63061Y391670D01*
X63263Y391722D01*
X63467Y391768D01*
X63671Y391810D01*
X63876Y391846D01*
X64083Y391878D01*
X64290Y391904D01*
X64497Y391926D01*
X64705Y391942D01*
X64913Y391953D01*
X65122Y391959D01*
X65331Y391960D01*
X65539Y391955D01*
X65748Y391946D01*
X65956Y391932D01*
X66163Y391912D01*
X66370Y391887D01*
X66577Y391858D01*
X66783Y391823D01*
X66987Y391783D01*
X67191Y391738D01*
X67394Y391688D01*
X67595Y391633D01*
X67795Y391574D01*
X67993Y391509D01*
X68190Y391439D01*
X68385Y391365D01*
X68578Y391286D01*
X68769Y391202D01*
X68958Y391114D01*
X69145Y391021D01*
X69329Y390923D01*
X69511Y390821D01*
X69690Y390715D01*
X69867Y390604D01*
X70041Y390489D01*
X70212Y390369D01*
X70380Y390246D01*
X70545Y390118D01*
X70707Y389986D01*
X70865Y389851D01*
X71021Y389711D01*
X71172Y389568D01*
X71320Y389421D01*
X71465Y389271D01*
X71606Y389117D01*
X71742Y388959D01*
X71875Y388798D01*
X72005Y388634D01*
X72129Y388467D01*
X72250Y388297D01*
X72367Y388124D01*
X72479Y387949D01*
X72587Y387770D01*
X72691Y387589D01*
X72790Y387405D01*
X72884Y387219D01*
X72974Y387031D01*
X73060Y386841D01*
X73140Y386648D01*
X73216Y386454D01*
X73287Y386258D01*
X73354Y386060D01*
X73415Y385861D01*
X73471Y385660D01*
X73523Y385458D01*
X73569Y385254D01*
X73611Y385050D01*
X73647Y384845D01*
X73679Y384638D01*
X73705Y384431D01*
X73727Y384224D01*
X73743Y384016D01*
X73754Y383808D01*
X73760Y383599D01*
X73761Y383390D01*
X73756Y383182D01*
X73747Y382973D01*
X73733Y382765D01*
X73713Y382558D01*
X73688Y382351D01*
X73659Y382144D01*
X73624Y381938D01*
X73584Y381734D01*
X73539Y381530D01*
X73489Y381327D01*
X73434Y381126D01*
X73375Y380926D01*
X73310Y380728D01*
X73240Y380531D01*
X73166Y380336D01*
X73087Y380143D01*
X73003Y379952D01*
X72915Y379763D01*
X72822Y379576D01*
X72724Y379392D01*
X72622Y379210D01*
X72516Y379031D01*
X72405Y378854D01*
X72290Y378680D01*
X72170Y378509D01*
X72047Y378341D01*
X71919Y378176D01*
X71787Y378014D01*
X71652Y377856D01*
X71512Y377700D01*
X71369Y377549D01*
X71222Y377401D01*
X71072Y377256D01*
X70918Y377115D01*
X70760Y376979D01*
X70599Y376846D01*
X70435Y376716D01*
X70268Y376592D01*
X70098Y376471D01*
X69925Y376354D01*
X69750Y376242D01*
X69571Y376134D01*
X69390Y376030D01*
X69206Y375931D01*
X69020Y375837D01*
X68832Y375747D01*
X68642Y375661D01*
X68449Y375581D01*
X68255Y375505D01*
X68059Y375434D01*
X67861Y375367D01*
X67662Y375306D01*
X67461Y375250D01*
X67461Y375249D02*
X19235Y362327D01*
X22494Y351414D01*
X26000Y340577D01*
X29753Y329824D01*
X33750Y319158D01*
X37988Y308586D01*
X42466Y298114D01*
X47182Y287746D01*
X52132Y277489D01*
X57315Y267347D01*
X62728Y257325D01*
X105966Y282289D01*
X106146Y282390D01*
X106329Y282487D01*
X106515Y282580D01*
X106702Y282668D01*
X106892Y282751D01*
X107083Y282830D01*
X107276Y282903D01*
X107471Y282973D01*
X107668Y283037D01*
X107866Y283097D01*
X108066Y283152D01*
X108267Y283202D01*
X108469Y283247D01*
X108672Y283287D01*
X108876Y283322D01*
X109081Y283352D01*
X109286Y283377D01*
X109492Y283397D01*
X109699Y283412D01*
X109905Y283422D01*
X110112Y283427D01*
X110319Y283427D01*
X110526Y283422D01*
X110733Y283412D01*
X110940Y283397D01*
X111146Y283377D01*
X111351Y283352D01*
X111556Y283322D01*
X111760Y283287D01*
X111963Y283247D01*
X112165Y283202D01*
X112366Y283152D01*
X112565Y283097D01*
X112764Y283037D01*
X112960Y282973D01*
X113155Y282904D01*
X113349Y282830D01*
X113540Y282751D01*
X113730Y282668D01*
X113917Y282580D01*
X114102Y282487D01*
X114285Y282391D01*
X114466Y282289D01*
X114644Y282184D01*
X114819Y282074D01*
X114992Y281959D01*
X115162Y281841D01*
X115329Y281719D01*
X115492Y281592D01*
X115653Y281462D01*
X115811Y281327D01*
X115965Y281189D01*
X116116Y281047D01*
X116263Y280902D01*
X116406Y280753D01*
X116546Y280600D01*
X116683Y280444D01*
X116815Y280285D01*
X116944Y280123D01*
X117068Y279958D01*
X117189Y279789D01*
X117305Y279618D01*
X117417Y279444D01*
X117525Y279267D01*
X117628Y279088D01*
X117727Y278906D01*
X117822Y278722D01*
X117912Y278536D01*
X117998Y278347D01*
X118079Y278157D01*
X118155Y277965D01*
X118227Y277770D01*
X118294Y277574D01*
X118356Y277377D01*
X118413Y277178D01*
X118465Y276978D01*
X118513Y276776D01*
X118555Y276574D01*
X118593Y276370D01*
X118625Y276166D01*
X118653Y275961D01*
X118676Y275755D01*
X118693Y275549D01*
X118706Y275342D01*
X118713Y275135D01*
X118716Y274928D01*
X118713Y274721D01*
X118706Y274514D01*
X118693Y274308D01*
X118676Y274101D01*
X118653Y273896D01*
X118625Y273690D01*
X118593Y273486D01*
X118555Y273283D01*
X118513Y273080D01*
X118465Y272878D01*
X118413Y272678D01*
X118356Y272479D01*
X118294Y272282D01*
X118227Y272086D01*
X118155Y271892D01*
X118079Y271699D01*
X117998Y271509D01*
X117912Y271320D01*
X117822Y271134D01*
X117728Y270950D01*
X117628Y270768D01*
X117525Y270589D01*
X117417Y270412D01*
X117305Y270238D01*
X117189Y270067D01*
X117068Y269898D01*
X116944Y269733D01*
X116815Y269571D01*
X116683Y269412D01*
X116547Y269256D01*
X116407Y269103D01*
X116263Y268954D01*
X116116Y268809D01*
X115965Y268667D01*
X115811Y268529D01*
X115653Y268395D01*
X115493Y268264D01*
X115329Y268138D01*
X115162Y268015D01*
X114992Y267897D01*
X114819Y267782D01*
X114644Y267673D01*
X114466Y267567D01*
X71228Y242603D01*
X77200Y232905D01*
X83392Y223345D01*
X89800Y213929D01*
X96421Y204661D01*
X103251Y195547D01*
X110287Y186590D01*
X117525Y177796D01*
X124962Y169170D01*
X132593Y160715D01*
X140415Y152436D01*
X175719Y187740D01*
X175720Y187740D02*
X175869Y187886D01*
X176022Y188028D01*
X176178Y188166D01*
X176338Y188301D01*
X176501Y188431D01*
X176667Y188557D01*
X176836Y188679D01*
X177008Y188797D01*
X177183Y188911D01*
X177360Y189021D01*
X177540Y189126D01*
X177723Y189226D01*
X177908Y189322D01*
X178096Y189414D01*
X178285Y189501D01*
X178477Y189583D01*
X178671Y189660D01*
X178866Y189733D01*
X179064Y189801D01*
X179263Y189864D01*
X179463Y189922D01*
X179665Y189975D01*
X179868Y190023D01*
X180072Y190067D01*
X180277Y190105D01*
X180483Y190138D01*
X180690Y190166D01*
X180897Y190189D01*
X181105Y190207D01*
X181313Y190220D01*
X181521Y190227D01*
X181730Y190230D01*
X181939Y190227D01*
X182147Y190220D01*
X182355Y190207D01*
X182563Y190189D01*
X182770Y190166D01*
X182977Y190138D01*
X183183Y190105D01*
X183388Y190067D01*
X183592Y190023D01*
X183795Y189975D01*
X183997Y189922D01*
X184197Y189864D01*
X184396Y189801D01*
X184594Y189733D01*
X184789Y189660D01*
X184983Y189583D01*
X185175Y189501D01*
X185364Y189414D01*
X185552Y189322D01*
X185737Y189226D01*
X185920Y189126D01*
X186100Y189021D01*
X186277Y188911D01*
X186452Y188797D01*
X186624Y188679D01*
X186793Y188557D01*
X186959Y188431D01*
X187122Y188301D01*
X187282Y188166D01*
X187438Y188028D01*
X187591Y187886D01*
X187740Y187740D01*
X187886Y187591D01*
X188028Y187438D01*
X188166Y187282D01*
X188301Y187122D01*
X188431Y186959D01*
X188557Y186793D01*
X188679Y186624D01*
X188797Y186452D01*
X188911Y186277D01*
X189021Y186100D01*
X189126Y185920D01*
X189226Y185737D01*
X189322Y185552D01*
X189414Y185364D01*
X189501Y185175D01*
X189583Y184983D01*
X189660Y184789D01*
X189733Y184594D01*
X189801Y184396D01*
X189864Y184197D01*
X189922Y183997D01*
X189975Y183795D01*
X190023Y183592D01*
X190067Y183388D01*
X190105Y183183D01*
X190138Y182977D01*
X190166Y182770D01*
X190189Y182563D01*
X190207Y182355D01*
X190220Y182147D01*
X190227Y181939D01*
X190230Y181730D01*
X190227Y181521D01*
X190220Y181313D01*
X190207Y181105D01*
X190189Y180897D01*
X190166Y180690D01*
X190138Y180483D01*
X190105Y180277D01*
X190067Y180072D01*
X190023Y179868D01*
X189975Y179665D01*
X189922Y179463D01*
X189864Y179263D01*
X189801Y179064D01*
X189733Y178866D01*
X189660Y178671D01*
X189583Y178477D01*
X189501Y178285D01*
X189414Y178096D01*
X189322Y177908D01*
X189226Y177723D01*
X189126Y177540D01*
X189021Y177360D01*
X188911Y177183D01*
X188797Y177008D01*
X188679Y176836D01*
X188557Y176667D01*
X188431Y176501D01*
X188301Y176338D01*
X188166Y176178D01*
X188028Y176022D01*
X187886Y175869D01*
X187740Y175720D01*
X187740Y175719D02*
X152436Y140415D01*
X160715Y132593D01*
X169170Y124962D01*
X177796Y117525D01*
X186590Y110287D01*
X195547Y103251D01*
X204661Y96421D01*
X213929Y89800D01*
X223345Y83392D01*
X232905Y77200D01*
X242603Y71228D01*
X267567Y114466D01*
X267673Y114644D01*
X267782Y114819D01*
X267897Y114992D01*
X268015Y115162D01*
X268138Y115329D01*
X268264Y115493D01*
X268395Y115653D01*
X268529Y115811D01*
X268667Y115965D01*
X268809Y116116D01*
X268954Y116263D01*
X269103Y116407D01*
X269256Y116547D01*
X269412Y116683D01*
X269571Y116815D01*
X269733Y116944D01*
X269898Y117068D01*
X270067Y117189D01*
X270238Y117305D01*
X270412Y117417D01*
X270589Y117525D01*
X270768Y117628D01*
X270950Y117728D01*
X271134Y117822D01*
X271320Y117912D01*
X271509Y117998D01*
X271699Y118079D01*
X271892Y118155D01*
X272086Y118227D01*
X272282Y118294D01*
X272479Y118356D01*
X272678Y118413D01*
X272878Y118465D01*
X273080Y118513D01*
X273283Y118555D01*
X273486Y118593D01*
X273690Y118625D01*
X273896Y118653D01*
X274101Y118676D01*
X274308Y118693D01*
X274514Y118706D01*
X274721Y118713D01*
X274928Y118716D01*
X275135Y118713D01*
X275342Y118706D01*
X275549Y118693D01*
X275755Y118676D01*
X275961Y118653D01*
X276166Y118625D01*
X276370Y118593D01*
X276574Y118555D01*
X276776Y118513D01*
X276978Y118465D01*
X277178Y118413D01*
X277377Y118356D01*
X277574Y118294D01*
X277770Y118227D01*
X277965Y118155D01*
X278157Y118079D01*
X278347Y117998D01*
X278536Y117912D01*
X278722Y117822D01*
X278906Y117727D01*
X279088Y117628D01*
X279267Y117525D01*
X279444Y117417D01*
X279618Y117305D01*
X279789Y117189D01*
X279958Y117068D01*
X280123Y116944D01*
X280285Y116815D01*
X280444Y116683D01*
X280600Y116546D01*
X280753Y116406D01*
X280902Y116263D01*
X281047Y116116D01*
X281189Y115965D01*
X281327Y115811D01*
X281462Y115653D01*
X281592Y115492D01*
X281719Y115329D01*
X281841Y115162D01*
X281959Y114992D01*
X282074Y114819D01*
X282184Y114644D01*
X282289Y114466D01*
X282391Y114285D01*
X282487Y114102D01*
X282580Y113917D01*
X282668Y113730D01*
X282751Y113540D01*
X282830Y113349D01*
X282904Y113155D01*
X282973Y112960D01*
X283037Y112764D01*
X283097Y112565D01*
X283152Y112366D01*
X283202Y112165D01*
X283247Y111963D01*
X283287Y111760D01*
X283322Y111556D01*
X283352Y111351D01*
X283377Y111146D01*
X283397Y110940D01*
X283412Y110733D01*
X283422Y110526D01*
X283427Y110319D01*
X283427Y110112D01*
X283422Y109905D01*
X283412Y109699D01*
X283397Y109492D01*
X283377Y109286D01*
X283352Y109081D01*
X283322Y108876D01*
X283287Y108672D01*
X283247Y108469D01*
X283202Y108267D01*
X283152Y108066D01*
X283097Y107866D01*
X283037Y107668D01*
X282973Y107471D01*
X282903Y107276D01*
X282830Y107083D01*
X282751Y106892D01*
X282668Y106702D01*
X282580Y106515D01*
X282487Y106329D01*
X282390Y106146D01*
X282289Y105966D01*
X257325Y62728D01*
X267347Y57315D01*
X277489Y52132D01*
X287746Y47182D01*
X298114Y42466D01*
X308586Y37988D01*
X319158Y33750D01*
X329824Y29753D01*
X340577Y26000D01*
X351414Y22494D01*
X362327Y19235D01*
X375249Y67461D01*
X375250Y67461D02*
X375306Y67662D01*
X375367Y67861D01*
X375434Y68059D01*
X375505Y68255D01*
X375581Y68449D01*
X375661Y68642D01*
X375747Y68832D01*
X375837Y69020D01*
X375931Y69206D01*
X376030Y69390D01*
X376134Y69571D01*
X376242Y69750D01*
X376354Y69925D01*
X376471Y70098D01*
X376592Y70268D01*
X376716Y70435D01*
X376846Y70599D01*
X376979Y70760D01*
X377115Y70918D01*
X377256Y71072D01*
X377401Y71222D01*
X377549Y71369D01*
X377700Y71512D01*
X377856Y71652D01*
X378014Y71787D01*
X378176Y71919D01*
X378341Y72047D01*
X378509Y72170D01*
X378680Y72290D01*
X378854Y72405D01*
X379031Y72516D01*
X379210Y72622D01*
X379392Y72724D01*
X379576Y72822D01*
X379763Y72915D01*
X379952Y73003D01*
X380143Y73087D01*
X380336Y73166D01*
X380531Y73240D01*
X380728Y73310D01*
X380926Y73375D01*
X381126Y73434D01*
X381327Y73489D01*
X381530Y73539D01*
X381734Y73584D01*
X381938Y73624D01*
X382144Y73659D01*
X382351Y73688D01*
X382558Y73713D01*
X382765Y73733D01*
X382973Y73747D01*
X383182Y73756D01*
X383390Y73761D01*
X383599Y73760D01*
X383808Y73754D01*
X384016Y73743D01*
X384224Y73727D01*
X384431Y73705D01*
X384638Y73679D01*
X384845Y73647D01*
X385050Y73611D01*
X385254Y73569D01*
X385458Y73523D01*
X385660Y73471D01*
X385861Y73415D01*
X386060Y73354D01*
X386258Y73287D01*
X386454Y73216D01*
X386648Y73140D01*
X386841Y73060D01*
X387031Y72974D01*
X387219Y72884D01*
X387405Y72790D01*
X387589Y72691D01*
X387770Y72587D01*
X387949Y72479D01*
X388124Y72367D01*
X388297Y72250D01*
X388467Y72129D01*
X388634Y72005D01*
X388798Y71875D01*
X388959Y71742D01*
X389117Y71606D01*
X389271Y71465D01*
X389421Y71320D01*
X389568Y71172D01*
X389711Y71021D01*
X389851Y70865D01*
X389986Y70707D01*
X390118Y70545D01*
X390246Y70380D01*
X390369Y70212D01*
X390489Y70041D01*
X390604Y69867D01*
X390715Y69690D01*
X390821Y69511D01*
X390923Y69329D01*
X391021Y69145D01*
X391114Y68958D01*
X391202Y68769D01*
X391286Y68578D01*
X391365Y68385D01*
X391439Y68190D01*
X391509Y67993D01*
X391574Y67795D01*
X391633Y67595D01*
X391688Y67394D01*
X391738Y67191D01*
X391783Y66987D01*
X391823Y66783D01*
X391858Y66577D01*
X391887Y66370D01*
X391912Y66163D01*
X391932Y65956D01*
X391946Y65748D01*
X391955Y65539D01*
X391960Y65331D01*
X391959Y65122D01*
X391953Y64913D01*
X391942Y64705D01*
X391926Y64497D01*
X391904Y64290D01*
X391878Y64083D01*
X391846Y63876D01*
X391810Y63671D01*
X391768Y63467D01*
X391722Y63263D01*
X391670Y63061D01*
X378747Y14835D01*
X378747Y14834D02*
X389828Y12200D01*
X400966Y9819D01*
X412155Y7692D01*
X423390Y5820D01*
X434664Y4205D01*
X445973Y2847D01*
X457309Y1747D01*
X468668Y905D01*
X480043Y323D01*
X491428Y-1D01*
X491428Y0D02*
X491428Y49928D01*
X491431Y50135D01*
X491438Y50342D01*
X491451Y50548D01*
X491468Y50755D01*
X491491Y50960D01*
X491519Y51166D01*
X491551Y51370D01*
X491589Y51574D01*
X491631Y51776D01*
X491679Y51978D01*
X491731Y52178D01*
X491788Y52377D01*
X491850Y52574D01*
X491917Y52770D01*
X491989Y52964D01*
X492065Y53157D01*
X492146Y53347D01*
X492232Y53536D01*
X492322Y53722D01*
X492416Y53906D01*
X492516Y54088D01*
X492619Y54267D01*
X492727Y54444D01*
X492839Y54618D01*
X492955Y54789D01*
X493076Y54958D01*
X493200Y55123D01*
X493329Y55285D01*
X493461Y55444D01*
X493597Y55600D01*
X493737Y55753D01*
X493881Y55902D01*
X494028Y56047D01*
X494179Y56189D01*
X494333Y56327D01*
X494491Y56462D01*
X494651Y56592D01*
X494815Y56718D01*
X494982Y56841D01*
X495152Y56959D01*
X495325Y57074D01*
X495500Y57184D01*
X495678Y57289D01*
X495859Y57391D01*
X496041Y57487D01*
X496227Y57580D01*
X496414Y57668D01*
X496604Y57751D01*
X496795Y57830D01*
X496988Y57904D01*
X497184Y57973D01*
X497380Y58037D01*
X497578Y58097D01*
X497778Y58152D01*
X497979Y58202D01*
X498181Y58247D01*
X498384Y58287D01*
X498588Y58322D01*
X498793Y58352D01*
X498998Y58377D01*
X499204Y58397D01*
X499411Y58412D01*
X499618Y58422D01*
X499825Y58427D01*
X500031Y58427D01*
X500238Y58422D01*
X500445Y58412D01*
X500652Y58397D01*
X500858Y58377D01*
X501063Y58352D01*
X501268Y58322D01*
X501472Y58287D01*
X501675Y58247D01*
X501877Y58202D01*
X502078Y58152D01*
X502278Y58097D01*
X502476Y58037D01*
X502672Y57973D01*
X502868Y57904D01*
X503061Y57830D01*
X503252Y57751D01*
X503442Y57668D01*
X503629Y57580D01*
X503815Y57487D01*
X503997Y57391D01*
X504178Y57289D01*
X504356Y57184D01*
X504531Y57074D01*
X504704Y56959D01*
X504874Y56841D01*
X505041Y56718D01*
X505205Y56592D01*
X505365Y56462D01*
X505523Y56327D01*
X505677Y56189D01*
X505828Y56047D01*
X505975Y55902D01*
X506119Y55753D01*
X506259Y55600D01*
X506395Y55444D01*
X506527Y55285D01*
X506656Y55123D01*
X506780Y54958D01*
X506901Y54789D01*
X507017Y54618D01*
X507129Y54444D01*
X507237Y54267D01*
X507340Y54088D01*
X507440Y53906D01*
X507534Y53722D01*
X507624Y53536D01*
X507710Y53347D01*
X507791Y53157D01*
X507867Y52964D01*
X507939Y52770D01*
X508006Y52574D01*
X508068Y52377D01*
X508125Y52178D01*
X508177Y51978D01*
X508225Y51776D01*
X508267Y51574D01*
X508305Y51370D01*
X508337Y51166D01*
X508365Y50960D01*
X508388Y50755D01*
X508405Y50548D01*
X508418Y50342D01*
X508425Y50135D01*
X508428Y49928D01*
X508428Y0D01*
X519813Y324D01*
X531187Y906D01*
X542546Y1748D01*
X553882Y2848D01*
X565191Y4206D01*
X576465Y5821D01*
X587700Y7693D01*
X598889Y9820D01*
X610027Y12201D01*
X621108Y14835D01*
X608186Y63061D01*
X608187Y63061D02*
X608135Y63262D01*
X608089Y63463D01*
X608048Y63666D01*
X608012Y63870D01*
X607980Y64075D01*
X607954Y64280D01*
X607932Y64486D01*
X607916Y64692D01*
X607905Y64899D01*
X607898Y65106D01*
X607897Y65313D01*
X607901Y65520D01*
X607910Y65727D01*
X607924Y65933D01*
X607942Y66139D01*
X607966Y66345D01*
X607995Y66550D01*
X608029Y66754D01*
X608068Y66957D01*
X608112Y67160D01*
X608160Y67361D01*
X608214Y67561D01*
X608272Y67759D01*
X608336Y67956D01*
X608404Y68152D01*
X608476Y68346D01*
X608554Y68538D01*
X608636Y68728D01*
X608723Y68916D01*
X608814Y69101D01*
X608910Y69285D01*
X609010Y69466D01*
X609115Y69645D01*
X609224Y69821D01*
X609337Y69994D01*
X609454Y70165D01*
X609576Y70332D01*
X609701Y70497D01*
X609831Y70658D01*
X609964Y70817D01*
X610101Y70972D01*
X610242Y71123D01*
X610387Y71271D01*
X610535Y71416D01*
X610686Y71557D01*
X610841Y71694D01*
X611000Y71827D01*
X611161Y71957D01*
X611326Y72082D01*
X611493Y72204D01*
X611664Y72321D01*
X611837Y72434D01*
X612013Y72543D01*
X612192Y72648D01*
X612373Y72748D01*
X612557Y72844D01*
X612742Y72935D01*
X612930Y73022D01*
X613120Y73104D01*
X613312Y73182D01*
X613506Y73254D01*
X613702Y73322D01*
X613899Y73386D01*
X614097Y73444D01*
X614297Y73498D01*
X614498Y73546D01*
X614701Y73590D01*
X614904Y73629D01*
X615108Y73663D01*
X615313Y73692D01*
X615519Y73716D01*
X615725Y73734D01*
X615931Y73748D01*
X616138Y73757D01*
X616345Y73761D01*
X616552Y73760D01*
X616759Y73753D01*
X616966Y73742D01*
X617172Y73726D01*
X617378Y73704D01*
X617583Y73678D01*
X617788Y73646D01*
X617992Y73610D01*
X618195Y73569D01*
X618396Y73523D01*
X618597Y73471D01*
X618796Y73415D01*
X618994Y73355D01*
X619190Y73289D01*
X619385Y73218D01*
X619578Y73143D01*
X619769Y73064D01*
X619958Y72979D01*
X620145Y72890D01*
X620330Y72797D01*
X620512Y72699D01*
X620692Y72596D01*
X620869Y72489D01*
X621044Y72378D01*
X621216Y72263D01*
X621385Y72144D01*
X621551Y72020D01*
X621714Y71893D01*
X621874Y71761D01*
X622031Y71626D01*
X622184Y71487D01*
X622334Y71344D01*
X622480Y71198D01*
X622623Y71048D01*
X622762Y70895D01*
X622897Y70738D01*
X623029Y70578D01*
X623156Y70415D01*
X623280Y70249D01*
X623399Y70080D01*
X623514Y69908D01*
X623625Y69733D01*
X623732Y69556D01*
X623835Y69376D01*
X623933Y69194D01*
X624026Y69009D01*
X624115Y68822D01*
X624200Y68633D01*
X624279Y68442D01*
X624354Y68249D01*
X624425Y68054D01*
X624491Y67858D01*
X624551Y67660D01*
X624607Y67461D01*
X637529Y19235D01*
X648443Y22494D01*
X659279Y26001D01*
X670033Y29753D01*
X680698Y33750D01*
X691270Y37988D01*
X701742Y42467D01*
X712109Y47182D01*
X722367Y52133D01*
X732509Y57315D01*
X742530Y62728D01*
X717567Y105966D01*
X717466Y106146D01*
X717369Y106329D01*
X717276Y106515D01*
X717188Y106702D01*
X717105Y106892D01*
X717026Y107083D01*
X716953Y107276D01*
X716883Y107471D01*
X716819Y107668D01*
X716759Y107866D01*
X716704Y108066D01*
X716654Y108267D01*
X716609Y108469D01*
X716569Y108672D01*
X716534Y108876D01*
X716504Y109081D01*
X716479Y109286D01*
X716459Y109492D01*
X716444Y109699D01*
X716434Y109905D01*
X716429Y110112D01*
X716429Y110319D01*
X716434Y110526D01*
X716444Y110733D01*
X716459Y110940D01*
X716479Y111146D01*
X716504Y111351D01*
X716534Y111556D01*
X716569Y111760D01*
X716609Y111963D01*
X716654Y112165D01*
X716704Y112366D01*
X716759Y112565D01*
X716819Y112764D01*
X716883Y112960D01*
X716952Y113155D01*
X717026Y113349D01*
X717105Y113540D01*
X717188Y113730D01*
X717276Y113917D01*
X717369Y114102D01*
X717465Y114285D01*
X717567Y114466D01*
X717672Y114644D01*
X717782Y114819D01*
X717897Y114992D01*
X718015Y115162D01*
X718137Y115329D01*
X718264Y115492D01*
X718394Y115653D01*
X718529Y115811D01*
X718667Y115965D01*
X718809Y116116D01*
X718954Y116263D01*
X719103Y116406D01*
X719256Y116546D01*
X719412Y116683D01*
X719571Y116815D01*
X719733Y116944D01*
X719898Y117068D01*
X720067Y117189D01*
X720238Y117305D01*
X720412Y117417D01*
X720589Y117525D01*
X720768Y117628D01*
X720950Y117727D01*
X721134Y117822D01*
X721320Y117912D01*
X721509Y117998D01*
X721699Y118079D01*
X721891Y118155D01*
X722086Y118227D01*
X722282Y118294D01*
X722479Y118356D01*
X722678Y118413D01*
X722878Y118465D01*
X723080Y118513D01*
X723282Y118555D01*
X723486Y118593D01*
X723690Y118625D01*
X723895Y118653D01*
X724101Y118676D01*
X724307Y118693D01*
X724514Y118706D01*
X724721Y118713D01*
X724928Y118716D01*
X725135Y118713D01*
X725342Y118706D01*
X725548Y118693D01*
X725755Y118676D01*
X725960Y118653D01*
X726166Y118625D01*
X726370Y118593D01*
X726573Y118555D01*
X726776Y118513D01*
X726978Y118465D01*
X727178Y118413D01*
X727377Y118356D01*
X727574Y118294D01*
X727770Y118227D01*
X727964Y118155D01*
X728157Y118079D01*
X728347Y117998D01*
X728536Y117912D01*
X728722Y117822D01*
X728906Y117728D01*
X729088Y117628D01*
X729267Y117525D01*
X729444Y117417D01*
X729618Y117305D01*
X729789Y117189D01*
X729958Y117068D01*
X730123Y116944D01*
X730285Y116815D01*
X730444Y116683D01*
X730600Y116547D01*
X730753Y116407D01*
X730902Y116263D01*
X731047Y116116D01*
X731189Y115965D01*
X731327Y115811D01*
X731461Y115653D01*
X731592Y115493D01*
X731718Y115329D01*
X731841Y115162D01*
X731959Y114992D01*
X732074Y114819D01*
X732183Y114644D01*
X732289Y114466D01*
X757253Y71228D01*
X766951Y77200D01*
X776511Y83392D01*
X785927Y89800D01*
X795195Y96421D01*
X804309Y103251D01*
X813266Y110287D01*
X822060Y117525D01*
X830686Y124962D01*
X839141Y132593D01*
X847420Y140415D01*
X812115Y175719D01*
X812116Y175720D02*
X811971Y175868D01*
X811830Y176019D01*
X811693Y176174D01*
X811560Y176333D01*
X811430Y176494D01*
X811305Y176659D01*
X811183Y176826D01*
X811066Y176997D01*
X810953Y177170D01*
X810844Y177346D01*
X810739Y177525D01*
X810639Y177706D01*
X810543Y177890D01*
X810452Y178075D01*
X810365Y178263D01*
X810283Y178453D01*
X810205Y178645D01*
X810133Y178839D01*
X810065Y179035D01*
X810001Y179232D01*
X809943Y179430D01*
X809889Y179630D01*
X809841Y179831D01*
X809797Y180034D01*
X809758Y180237D01*
X809724Y180441D01*
X809695Y180646D01*
X809671Y180852D01*
X809653Y181058D01*
X809639Y181264D01*
X809630Y181471D01*
X809626Y181678D01*
X809627Y181885D01*
X809634Y182092D01*
X809645Y182299D01*
X809661Y182505D01*
X809683Y182711D01*
X809709Y182916D01*
X809741Y183121D01*
X809777Y183325D01*
X809818Y183528D01*
X809864Y183729D01*
X809916Y183930D01*
X809972Y184129D01*
X810032Y184327D01*
X810098Y184523D01*
X810169Y184718D01*
X810244Y184911D01*
X810323Y185102D01*
X810408Y185291D01*
X810497Y185478D01*
X810590Y185663D01*
X810688Y185845D01*
X810791Y186025D01*
X810898Y186202D01*
X811009Y186377D01*
X811124Y186549D01*
X811243Y186718D01*
X811367Y186884D01*
X811494Y187047D01*
X811626Y187207D01*
X811761Y187364D01*
X811900Y187517D01*
X812043Y187667D01*
X812189Y187813D01*
X812339Y187956D01*
X812492Y188095D01*
X812649Y188230D01*
X812809Y188362D01*
X812972Y188489D01*
X813138Y188613D01*
X813307Y188732D01*
X813479Y188847D01*
X813654Y188958D01*
X813831Y189065D01*
X814011Y189168D01*
X814193Y189266D01*
X814378Y189359D01*
X814565Y189448D01*
X814754Y189533D01*
X814945Y189612D01*
X815138Y189687D01*
X815333Y189758D01*
X815529Y189824D01*
X815727Y189884D01*
X815926Y189940D01*
X816127Y189992D01*
X816328Y190038D01*
X816531Y190079D01*
X816735Y190115D01*
X816940Y190147D01*
X817145Y190173D01*
X817351Y190195D01*
X817557Y190211D01*
X817764Y190222D01*
X817971Y190229D01*
X818178Y190230D01*
X818385Y190226D01*
X818592Y190217D01*
X818798Y190203D01*
X819004Y190185D01*
X819210Y190161D01*
X819415Y190132D01*
X819619Y190098D01*
X819822Y190059D01*
X820025Y190015D01*
X820226Y189967D01*
X820426Y189913D01*
X820624Y189855D01*
X820821Y189791D01*
X821017Y189723D01*
X821211Y189651D01*
X821403Y189573D01*
X821593Y189491D01*
X821781Y189404D01*
X821966Y189313D01*
X822150Y189217D01*
X822331Y189117D01*
X822510Y189012D01*
X822686Y188903D01*
X822859Y188790D01*
X823030Y188673D01*
X823197Y188551D01*
X823362Y188426D01*
X823523Y188296D01*
X823682Y188163D01*
X823837Y188026D01*
X823988Y187885D01*
X824136Y187740D01*
X859440Y152436D01*
X859440Y152437D02*
X867262Y160716D01*
X874893Y169171D01*
X882330Y177798D01*
X889568Y186591D01*
X896604Y195548D01*
X903435Y204662D01*
X910055Y213930D01*
X916464Y223346D01*
X922655Y232905D01*
X928628Y242604D01*
X928628Y242603D02*
X885389Y267567D01*
X885211Y267673D01*
X885036Y267782D01*
X884863Y267897D01*
X884693Y268015D01*
X884526Y268138D01*
X884362Y268264D01*
X884202Y268395D01*
X884044Y268529D01*
X883890Y268667D01*
X883739Y268809D01*
X883592Y268954D01*
X883448Y269103D01*
X883308Y269256D01*
X883172Y269412D01*
X883040Y269571D01*
X882911Y269733D01*
X882787Y269898D01*
X882666Y270067D01*
X882550Y270238D01*
X882438Y270412D01*
X882330Y270589D01*
X882227Y270768D01*
X882127Y270950D01*
X882033Y271134D01*
X881943Y271320D01*
X881857Y271509D01*
X881776Y271699D01*
X881700Y271892D01*
X881628Y272086D01*
X881561Y272282D01*
X881499Y272479D01*
X881442Y272678D01*
X881390Y272878D01*
X881342Y273080D01*
X881300Y273283D01*
X881262Y273486D01*
X881230Y273690D01*
X881202Y273896D01*
X881179Y274101D01*
X881162Y274308D01*
X881149Y274514D01*
X881142Y274721D01*
X881139Y274928D01*
X881142Y275135D01*
X881149Y275342D01*
X881162Y275549D01*
X881179Y275755D01*
X881202Y275961D01*
X881230Y276166D01*
X881262Y276370D01*
X881300Y276574D01*
X881342Y276776D01*
X881390Y276978D01*
X881442Y277178D01*
X881499Y277377D01*
X881561Y277574D01*
X881628Y277770D01*
X881700Y277965D01*
X881776Y278157D01*
X881857Y278347D01*
X881943Y278536D01*
X882033Y278722D01*
X882128Y278906D01*
X882227Y279088D01*
X882330Y279267D01*
X882438Y279444D01*
X882550Y279618D01*
X882666Y279789D01*
X882787Y279958D01*
X882911Y280123D01*
X883040Y280285D01*
X883172Y280444D01*
X883309Y280600D01*
X883449Y280753D01*
X883592Y280902D01*
X883739Y281047D01*
X883890Y281189D01*
X884044Y281327D01*
X884202Y281462D01*
X884363Y281592D01*
X884526Y281719D01*
X884693Y281841D01*
X884863Y281959D01*
X885036Y282074D01*
X885211Y282184D01*
X885389Y282289D01*
X885570Y282391D01*
X885753Y282487D01*
X885938Y282580D01*
X886125Y282668D01*
X886315Y282751D01*
X886506Y282830D01*
X886700Y282904D01*
X886895Y282973D01*
X887091Y283037D01*
X887290Y283097D01*
X887489Y283152D01*
X887690Y283202D01*
X887892Y283247D01*
X888095Y283287D01*
X888299Y283322D01*
X888504Y283352D01*
X888709Y283377D01*
X888915Y283397D01*
X889122Y283412D01*
X889329Y283422D01*
X889536Y283427D01*
X889743Y283427D01*
X889950Y283422D01*
X890156Y283412D01*
X890363Y283397D01*
X890569Y283377D01*
X890774Y283352D01*
X890979Y283322D01*
X891183Y283287D01*
X891386Y283247D01*
X891588Y283202D01*
X891789Y283152D01*
X891989Y283097D01*
X892187Y283037D01*
X892384Y282973D01*
X892579Y282903D01*
X892772Y282830D01*
X892963Y282751D01*
X893153Y282668D01*
X893340Y282580D01*
X893526Y282487D01*
X893709Y282390D01*
X893889Y282289D01*
X937128Y257325D01*
X942541Y267347D01*
X947724Y277489D01*
X952674Y287746D01*
X957390Y298114D01*
X961868Y308586D01*
X966106Y319158D01*
X970103Y329824D01*
X973856Y340577D01*
X977362Y351414D01*
X980621Y362327D01*
X932394Y375249D01*
X932394Y375250D02*
X932195Y375306D01*
X931997Y375366D01*
X931801Y375432D01*
X931606Y375503D01*
X931413Y375578D01*
X931222Y375657D01*
X931033Y375742D01*
X930846Y375831D01*
X930661Y375924D01*
X930479Y376022D01*
X930299Y376125D01*
X930122Y376232D01*
X929947Y376343D01*
X929775Y376458D01*
X929606Y376577D01*
X929440Y376701D01*
X929277Y376828D01*
X929117Y376960D01*
X928960Y377095D01*
X928807Y377234D01*
X928657Y377377D01*
X928511Y377523D01*
X928368Y377673D01*
X928229Y377826D01*
X928094Y377983D01*
X927962Y378143D01*
X927835Y378306D01*
X927711Y378472D01*
X927592Y378641D01*
X927477Y378813D01*
X927366Y378988D01*
X927259Y379165D01*
X927156Y379345D01*
X927058Y379527D01*
X926965Y379712D01*
X926876Y379899D01*
X926791Y380088D01*
X926712Y380279D01*
X926637Y380472D01*
X926566Y380667D01*
X926500Y380863D01*
X926440Y381061D01*
X926384Y381260D01*
X926332Y381461D01*
X926286Y381662D01*
X926245Y381865D01*
X926209Y382069D01*
X926177Y382274D01*
X926151Y382479D01*
X926129Y382685D01*
X926113Y382891D01*
X926102Y383098D01*
X926095Y383305D01*
X926094Y383512D01*
X926098Y383719D01*
X926107Y383926D01*
X926121Y384132D01*
X926139Y384338D01*
X926163Y384544D01*
X926192Y384749D01*
X926226Y384953D01*
X926265Y385156D01*
X926309Y385359D01*
X926357Y385560D01*
X926411Y385760D01*
X926469Y385958D01*
X926533Y386155D01*
X926601Y386351D01*
X926673Y386545D01*
X926751Y386737D01*
X926833Y386927D01*
X926920Y387115D01*
X927011Y387300D01*
X927107Y387484D01*
X927207Y387665D01*
X927312Y387844D01*
X927421Y388020D01*
X927534Y388193D01*
X927651Y388364D01*
X927773Y388531D01*
X927898Y388696D01*
X928028Y388857D01*
X928161Y389016D01*
X928298Y389171D01*
X928439Y389322D01*
X928584Y389470D01*
X928732Y389615D01*
X928883Y389756D01*
X929038Y389893D01*
X929197Y390026D01*
X929358Y390156D01*
X929523Y390281D01*
X929690Y390403D01*
X929861Y390520D01*
X930034Y390633D01*
X930210Y390742D01*
X930389Y390847D01*
X930570Y390947D01*
X930754Y391043D01*
X930939Y391134D01*
X931127Y391221D01*
X931317Y391303D01*
X931509Y391381D01*
X931703Y391453D01*
X931899Y391521D01*
X932096Y391585D01*
X932294Y391643D01*
X932494Y391697D01*
X932695Y391745D01*
X932898Y391789D01*
X933101Y391828D01*
X933305Y391862D01*
X933510Y391891D01*
X933716Y391915D01*
X933922Y391933D01*
X934128Y391947D01*
X934335Y391956D01*
X934542Y391960D01*
X934749Y391959D01*
X934956Y391952D01*
X935163Y391941D01*
X935369Y391925D01*
X935575Y391903D01*
X935780Y391877D01*
X935985Y391845D01*
X936189Y391809D01*
X936392Y391768D01*
X936593Y391722D01*
X936794Y391670D01*
X985021Y378747D01*
X987655Y389828D01*
X990036Y400966D01*
X992163Y412155D01*
X994035Y423390D01*
X995650Y434665D01*
X997008Y445973D01*
X998108Y457310D01*
X998949Y468668D01*
X999532Y480043D01*
X999855Y491428D01*
X949928Y491428D01*
X949721Y491431D01*
X949514Y491438D01*
X949308Y491451D01*
X949101Y491468D01*
X948896Y491491D01*
X948690Y491519D01*
X948486Y491551D01*
X948282Y491589D01*
X948080Y491631D01*
X947878Y491679D01*
X947678Y491731D01*
X947479Y491788D01*
X947282Y491850D01*
X947086Y491917D01*
X946892Y491989D01*
X946699Y492065D01*
X946509Y492146D01*
X946320Y492232D01*
X946134Y492322D01*
X945950Y492416D01*
X945768Y492516D01*
X945589Y492619D01*
X945412Y492727D01*
X945238Y492839D01*
X945067Y492955D01*
X944898Y493076D01*
X944733Y493200D01*
X944571Y493329D01*
X944412Y493461D01*
X944256Y493597D01*
X944103Y493737D01*
X943954Y493881D01*
X943809Y494028D01*
X943667Y494179D01*
X943529Y494333D01*
X943394Y494491D01*
X943264Y494651D01*
X943138Y494815D01*
X943015Y494982D01*
X942897Y495152D01*
X942782Y495325D01*
X942672Y495500D01*
X942567Y495678D01*
X942465Y495859D01*
X942369Y496041D01*
X942276Y496227D01*
X942188Y496414D01*
X942105Y496604D01*
X942026Y496795D01*
X941952Y496988D01*
X941883Y497184D01*
X941819Y497380D01*
X941759Y497578D01*
X941704Y497778D01*
X941654Y497979D01*
X941609Y498181D01*
X941569Y498384D01*
X941534Y498588D01*
X941504Y498793D01*
X941479Y498998D01*
X941459Y499204D01*
X941444Y499411D01*
X941434Y499618D01*
X941429Y499825D01*
X941429Y500031D01*
X941434Y500238D01*
X941444Y500445D01*
X941459Y500652D01*
X941479Y500858D01*
X941504Y501063D01*
X941534Y501268D01*
X941569Y501472D01*
X941609Y501675D01*
X941654Y501877D01*
X941704Y502078D01*
X941759Y502278D01*
X941819Y502476D01*
X941883Y502672D01*
X941952Y502868D01*
X942026Y503061D01*
X942105Y503252D01*
X942188Y503442D01*
X942276Y503629D01*
X942369Y503815D01*
X942465Y503997D01*
X942567Y504178D01*
X942672Y504356D01*
X942782Y504531D01*
X942897Y504704D01*
X943015Y504874D01*
X943138Y505041D01*
X943264Y505205D01*
X943394Y505365D01*
X943529Y505523D01*
X943667Y505677D01*
X943809Y505828D01*
X943954Y505975D01*
X944103Y506119D01*
X944256Y506259D01*
X944412Y506395D01*
X944571Y506527D01*
X944733Y506656D01*
X944898Y506780D01*
X945067Y506901D01*
X945238Y507017D01*
X945412Y507129D01*
X945589Y507237D01*
X945768Y507340D01*
X945950Y507440D01*
X946134Y507534D01*
X946320Y507624D01*
X946509Y507710D01*
X946699Y507791D01*
X946892Y507867D01*
X947086Y507939D01*
X947282Y508006D01*
X947479Y508068D01*
X947678Y508125D01*
X947878Y508177D01*
X948080Y508225D01*
X948282Y508267D01*
X948486Y508305D01*
X948690Y508337D01*
X948896Y508365D01*
X949101Y508388D01*
X949308Y508405D01*
X949514Y508418D01*
X949721Y508425D01*
X949928Y508428D01*
X999855Y508428D01*
X999856Y508428D02*
X999533Y519813D01*
X998950Y531188D01*
X998109Y542547D01*
X997009Y553883D01*
X995651Y565191D01*
X994036Y576466D01*
X992164Y587701D01*
X990037Y598890D01*
X987656Y610028D01*
X985022Y621108D01*
X985021Y621108D02*
X936794Y608186D01*
X936794Y608187D02*
X936593Y608135D01*
X936392Y608089D01*
X936189Y608048D01*
X935985Y608012D01*
X935780Y607980D01*
X935575Y607954D01*
X935369Y607932D01*
X935163Y607916D01*
X934956Y607905D01*
X934749Y607898D01*
X934542Y607897D01*
X934335Y607901D01*
X934128Y607910D01*
X933922Y607924D01*
X933716Y607942D01*
X933510Y607966D01*
X933305Y607995D01*
X933101Y608029D01*
X932898Y608068D01*
X932695Y608112D01*
X932494Y608160D01*
X932294Y608214D01*
X932096Y608272D01*
X931899Y608336D01*
X931703Y608404D01*
X931509Y608476D01*
X931317Y608554D01*
X931127Y608636D01*
X930939Y608723D01*
X930754Y608814D01*
X930570Y608910D01*
X930389Y609010D01*
X930210Y609115D01*
X930034Y609224D01*
X929861Y609337D01*
X929690Y609454D01*
X929523Y609576D01*
X929358Y609701D01*
X929197Y609831D01*
X929038Y609964D01*
X928883Y610101D01*
X928732Y610242D01*
X928584Y610387D01*
X928439Y610535D01*
X928298Y610686D01*
X928161Y610841D01*
X928028Y611000D01*
X927898Y611161D01*
X927773Y611326D01*
X927651Y611493D01*
X927534Y611664D01*
X927421Y611837D01*
X927312Y612013D01*
X927207Y612192D01*
X927107Y612373D01*
X927011Y612557D01*
X926920Y612742D01*
X926833Y612930D01*
X926751Y613120D01*
X926673Y613312D01*
X926601Y613506D01*
X926533Y613702D01*
X926469Y613899D01*
X926411Y614097D01*
X926357Y614297D01*
X926309Y614498D01*
X926265Y614701D01*
X926226Y614904D01*
X926192Y615108D01*
X926163Y615313D01*
X926139Y615519D01*
X926121Y615725D01*
X926107Y615931D01*
X926098Y616138D01*
X926094Y616345D01*
X926095Y616552D01*
X926102Y616759D01*
X926113Y616966D01*
X926129Y617172D01*
X926151Y617378D01*
X926177Y617583D01*
X926209Y617788D01*
X926245Y617992D01*
X926286Y618195D01*
X926332Y618396D01*
X926384Y618597D01*
X926440Y618796D01*
X926500Y618994D01*
X926566Y619190D01*
X926637Y619385D01*
X926712Y619578D01*
X926791Y619769D01*
X926876Y619958D01*
X926965Y620145D01*
X927058Y620330D01*
X927156Y620512D01*
X927259Y620692D01*
X927366Y620869D01*
X927477Y621044D01*
X927592Y621216D01*
X927711Y621385D01*
X927835Y621551D01*
X927962Y621714D01*
X928094Y621874D01*
X928229Y622031D01*
X928368Y622184D01*
X928511Y622334D01*
X928657Y622480D01*
X928807Y622623D01*
X928960Y622762D01*
X929117Y622897D01*
X929277Y623029D01*
X929440Y623156D01*
X929606Y623280D01*
X929775Y623399D01*
X929947Y623514D01*
X930122Y623625D01*
X930299Y623732D01*
X930479Y623835D01*
X930661Y623933D01*
X930846Y624026D01*
X931033Y624115D01*
X931222Y624200D01*
X931413Y624279D01*
X931606Y624354D01*
X931801Y624425D01*
X931997Y624491D01*
X932195Y624551D01*
X932394Y624607D01*
X980621Y637529D01*
X977362Y648443D01*
X973855Y659279D01*
X970103Y670033D01*
X966106Y680698D01*
X961868Y691270D01*
X957389Y701742D01*
X952674Y712109D01*
X947723Y722367D01*
X942541Y732509D01*
X937128Y742530D01*
X893889Y717567D01*
X893709Y717466D01*
X893526Y717369D01*
X893340Y717276D01*
X893153Y717188D01*
X892963Y717105D01*
X892772Y717026D01*
X892579Y716953D01*
X892384Y716883D01*
X892187Y716819D01*
X891989Y716759D01*
X891789Y716704D01*
X891588Y716654D01*
X891386Y716609D01*
X891183Y716569D01*
X890979Y716534D01*
X890774Y716504D01*
X890569Y716479D01*
X890363Y716459D01*
X890156Y716444D01*
X889950Y716434D01*
X889743Y716429D01*
X889536Y716429D01*
X889329Y716434D01*
X889122Y716444D01*
X888915Y716459D01*
X888709Y716479D01*
X888504Y716504D01*
X888299Y716534D01*
X888095Y716569D01*
X887892Y716609D01*
X887690Y716654D01*
X887489Y716704D01*
X887290Y716759D01*
X887091Y716819D01*
X886895Y716883D01*
X886700Y716952D01*
X886506Y717026D01*
X886315Y717105D01*
X886125Y717188D01*
X885938Y717276D01*
X885753Y717369D01*
X885570Y717465D01*
X885389Y717567D01*
X885211Y717672D01*
X885036Y717782D01*
X884863Y717897D01*
X884693Y718015D01*
X884526Y718137D01*
X884363Y718264D01*
X884202Y718394D01*
X884044Y718529D01*
X883890Y718667D01*
X883739Y718809D01*
X883592Y718954D01*
X883449Y719103D01*
X883309Y719256D01*
X883172Y719412D01*
X883040Y719571D01*
X882911Y719733D01*
X882787Y719898D01*
X882666Y720067D01*
X882550Y720238D01*
X882438Y720412D01*
X882330Y720589D01*
X882227Y720768D01*
X882128Y720950D01*
X882033Y721134D01*
X881943Y721320D01*
X881857Y721509D01*
X881776Y721699D01*
X881700Y721891D01*
X881628Y722086D01*
X881561Y722282D01*
X881499Y722479D01*
X881442Y722678D01*
X881390Y722878D01*
X881342Y723080D01*
X881300Y723282D01*
X881262Y723486D01*
X881230Y723690D01*
X881202Y723895D01*
X881179Y724101D01*
X881162Y724307D01*
X881149Y724514D01*
X881142Y724721D01*
X881139Y724928D01*
X881142Y725135D01*
X881149Y725342D01*
X881162Y725548D01*
X881179Y725755D01*
X881202Y725960D01*
X881230Y726166D01*
X881262Y726370D01*
X881300Y726573D01*
X881342Y726776D01*
X881390Y726978D01*
X881442Y727178D01*
X881499Y727377D01*
X881561Y727574D01*
X881628Y727770D01*
X881700Y727964D01*
X881776Y728157D01*
X881857Y728347D01*
X881943Y728536D01*
X882033Y728722D01*
X882127Y728906D01*
X882227Y729088D01*
X882330Y729267D01*
X882438Y729444D01*
X882550Y729618D01*
X882666Y729789D01*
X882787Y729958D01*
X882911Y730123D01*
X883040Y730285D01*
X883172Y730444D01*
X883308Y730600D01*
X883448Y730753D01*
X883592Y730902D01*
X883739Y731047D01*
X883890Y731189D01*
X884044Y731327D01*
X884202Y731461D01*
X884362Y731592D01*
X884526Y731718D01*
X884693Y731841D01*
X884863Y731959D01*
X885036Y732074D01*
X885211Y732183D01*
X885389Y732289D01*
X928628Y757253D01*
X928628Y757252D02*
X922655Y766951D01*
X916464Y776510D01*
X910055Y785926D01*
X903435Y795194D01*
X896604Y804308D01*
X889568Y813265D01*
X882330Y822058D01*
X874893Y830685D01*
X867262Y839140D01*
X859440Y847419D01*
X859440Y847420D02*
X824136Y812115D01*
X824136Y812116D02*
X823988Y811971D01*
X823837Y811830D01*
X823682Y811693D01*
X823523Y811560D01*
X823362Y811430D01*
X823197Y811305D01*
X823030Y811183D01*
X822859Y811066D01*
X822686Y810953D01*
X822510Y810844D01*
X822331Y810739D01*
X822150Y810639D01*
X821966Y810543D01*
X821781Y810452D01*
X821593Y810365D01*
X821403Y810283D01*
X821211Y810205D01*
X821017Y810133D01*
X820821Y810065D01*
X820624Y810001D01*
X820426Y809943D01*
X820226Y809889D01*
X820025Y809841D01*
X819822Y809797D01*
X819619Y809758D01*
X819415Y809724D01*
X819210Y809695D01*
X819004Y809671D01*
X818798Y809653D01*
X818592Y809639D01*
X818385Y809630D01*
X818178Y809626D01*
X817971Y809627D01*
X817764Y809634D01*
X817557Y809645D01*
X817351Y809661D01*
X817145Y809683D01*
X816940Y809709D01*
X816735Y809741D01*
X816531Y809777D01*
X816328Y809818D01*
X816127Y809864D01*
X815926Y809916D01*
X815727Y809972D01*
X815529Y810032D01*
X815333Y810098D01*
X815138Y810169D01*
X814945Y810244D01*
X814754Y810323D01*
X814565Y810408D01*
X814378Y810497D01*
X814193Y810590D01*
X814011Y810688D01*
X813831Y810791D01*
X813654Y810898D01*
X813479Y811009D01*
X813307Y811124D01*
X813138Y811243D01*
X812972Y811367D01*
X812809Y811494D01*
X812649Y811626D01*
X812492Y811761D01*
X812339Y811900D01*
X812189Y812043D01*
X812043Y812189D01*
X811900Y812339D01*
X811761Y812492D01*
X811626Y812649D01*
X811494Y812809D01*
X811367Y812972D01*
X811243Y813138D01*
X811124Y813307D01*
X811009Y813479D01*
X810898Y813654D01*
X810791Y813831D01*
X810688Y814011D01*
X810590Y814193D01*
X810497Y814378D01*
X810408Y814565D01*
X810323Y814754D01*
X810244Y814945D01*
X810169Y815138D01*
X810098Y815333D01*
X810032Y815529D01*
X809972Y815727D01*
X809916Y815926D01*
X809864Y816127D01*
X809818Y816328D01*
X809777Y816531D01*
X809741Y816735D01*
X809709Y816940D01*
X809683Y817145D01*
X809661Y817351D01*
X809645Y817557D01*
X809634Y817764D01*
X809627Y817971D01*
X809626Y818178D01*
X809630Y818385D01*
X809639Y818592D01*
X809653Y818798D01*
X809671Y819004D01*
X809695Y819210D01*
X809724Y819415D01*
X809758Y819619D01*
X809797Y819822D01*
X809841Y820025D01*
X809889Y820226D01*
X809943Y820426D01*
X810001Y820624D01*
X810065Y820821D01*
X810133Y821017D01*
X810205Y821211D01*
X810283Y821403D01*
X810365Y821593D01*
X810452Y821781D01*
X810543Y821966D01*
X810639Y822150D01*
X810739Y822331D01*
X810844Y822510D01*
X810953Y822686D01*
X811066Y822859D01*
X811183Y823030D01*
X811305Y823197D01*
X811430Y823362D01*
X811560Y823523D01*
X811693Y823682D01*
X811830Y823837D01*
X811971Y823988D01*
X812116Y824136D01*
X812115Y824136D02*
X847420Y859440D01*
X847419Y859440D02*
X839140Y867262D01*
X830685Y874893D01*
X822058Y882330D01*
X813265Y889568D01*
X804308Y896604D01*
X795194Y903435D01*
X785926Y910055D01*
X776510Y916464D01*
X766951Y922655D01*
X757252Y928628D01*
X757253Y928628D02*
X732289Y885389D01*
X732183Y885211D01*
X732074Y885036D01*
X731959Y884863D01*
X731841Y884693D01*
X731718Y884526D01*
X731592Y884362D01*
X731461Y884202D01*
X731327Y884044D01*
X731189Y883890D01*
X731047Y883739D01*
X730902Y883592D01*
X730753Y883448D01*
X730600Y883308D01*
X730444Y883172D01*
X730285Y883040D01*
X730123Y882911D01*
X729958Y882787D01*
X729789Y882666D01*
X729618Y882550D01*
X729444Y882438D01*
X729267Y882330D01*
X729088Y882227D01*
X728906Y882127D01*
X728722Y882033D01*
X728536Y881943D01*
X728347Y881857D01*
X728157Y881776D01*
X727964Y881700D01*
X727770Y881628D01*
X727574Y881561D01*
X727377Y881499D01*
X727178Y881442D01*
X726978Y881390D01*
X726776Y881342D01*
X726573Y881300D01*
X726370Y881262D01*
X726166Y881230D01*
X725960Y881202D01*
X725755Y881179D01*
X725548Y881162D01*
X725342Y881149D01*
X725135Y881142D01*
X724928Y881139D01*
X724721Y881142D01*
X724514Y881149D01*
X724307Y881162D01*
X724101Y881179D01*
X723895Y881202D01*
X723690Y881230D01*
X723486Y881262D01*
X723282Y881300D01*
X723080Y881342D01*
X722878Y881390D01*
X722678Y881442D01*
X722479Y881499D01*
X722282Y881561D01*
X722086Y881628D01*
X721891Y881700D01*
X721699Y881776D01*
X721509Y881857D01*
X721320Y881943D01*
X721134Y882033D01*
X720950Y882128D01*
X720768Y882227D01*
X720589Y882330D01*
X720412Y882438D01*
X720238Y882550D01*
X720067Y882666D01*
X719898Y882787D01*
X719733Y882911D01*
X719571Y883040D01*
X719412Y883172D01*
X719256Y883309D01*
X719103Y883449D01*
X718954Y883592D01*
X718809Y883739D01*
X718667Y883890D01*
X718529Y884044D01*
X718394Y884202D01*
X718264Y884363D01*
X718137Y884526D01*
X718015Y884693D01*
X717897Y884863D01*
X717782Y885036D01*
X717672Y885211D01*
X717567Y885389D01*
X717465Y885570D01*
X717369Y885753D01*
X717276Y885938D01*
X717188Y886125D01*
X717105Y886315D01*
X717026Y886506D01*
X716952Y886700D01*
X716883Y886895D01*
X716819Y887091D01*
X716759Y887290D01*
X716704Y887489D01*
X716654Y887690D01*
X716609Y887892D01*
X716569Y888095D01*
X716534Y888299D01*
X716504Y888504D01*
X716479Y888709D01*
X716459Y888915D01*
X716444Y889122D01*
X716434Y889329D01*
X716429Y889536D01*
X716429Y889743D01*
X716434Y889950D01*
X716444Y890156D01*
X716459Y890363D01*
X716479Y890569D01*
X716504Y890774D01*
X716534Y890979D01*
X716569Y891183D01*
X716609Y891386D01*
X716654Y891588D01*
X716704Y891789D01*
X716759Y891989D01*
X716819Y892187D01*
X716883Y892384D01*
X716953Y892579D01*
X717026Y892772D01*
X717105Y892963D01*
X717188Y893153D01*
X717276Y893340D01*
X717369Y893526D01*
X717466Y893709D01*
X717567Y893889D01*
X742530Y937128D01*
X732509Y942541D01*
X722367Y947723D01*
X712109Y952674D01*
X701742Y957389D01*
X691270Y961868D01*
X680698Y966106D01*
X670033Y970103D01*
X659279Y973855D01*
X648443Y977362D01*
X637529Y980621D01*
X624607Y932394D01*
X624551Y932195D01*
X624491Y931997D01*
X624425Y931801D01*
X624354Y931606D01*
X624279Y931413D01*
X624200Y931222D01*
X624115Y931033D01*
X624026Y930846D01*
X623933Y930661D01*
X623835Y930479D01*
X623732Y930299D01*
X623625Y930122D01*
X623514Y929947D01*
X623399Y929775D01*
X623280Y929606D01*
X623156Y929440D01*
X623029Y929277D01*
X622897Y929117D01*
X622762Y928960D01*
X622623Y928807D01*
X622480Y928657D01*
X622334Y928511D01*
X622184Y928368D01*
X622031Y928229D01*
X621874Y928094D01*
X621714Y927962D01*
X621551Y927835D01*
X621385Y927711D01*
X621216Y927592D01*
X621044Y927477D01*
X620869Y927366D01*
X620692Y927259D01*
X620512Y927156D01*
X620330Y927058D01*
X620145Y926965D01*
X619958Y926876D01*
X619769Y926791D01*
X619578Y926712D01*
X619385Y926637D01*
X619190Y926566D01*
X618994Y926500D01*
X618796Y926440D01*
X618597Y926384D01*
X618396Y926332D01*
X618195Y926286D01*
X617992Y926245D01*
X617788Y926209D01*
X617583Y926177D01*
X617378Y926151D01*
X617172Y926129D01*
X616966Y926113D01*
X616759Y926102D01*
X616552Y926095D01*
X616345Y926094D01*
X616138Y926098D01*
X615931Y926107D01*
X615725Y926121D01*
X615519Y926139D01*
X615313Y926163D01*
X615108Y926192D01*
X614904Y926226D01*
X614701Y926265D01*
X614498Y926309D01*
X614297Y926357D01*
X614097Y926411D01*
X613899Y926469D01*
X613702Y926533D01*
X613506Y926601D01*
X613312Y926673D01*
X613120Y926751D01*
X612930Y926833D01*
X612742Y926920D01*
X612557Y927011D01*
X612373Y927107D01*
X612192Y927207D01*
X612013Y927312D01*
X611837Y927421D01*
X611664Y927534D01*
X611493Y927651D01*
X611326Y927773D01*
X611161Y927898D01*
X611000Y928028D01*
X610841Y928161D01*
X610686Y928298D01*
X610535Y928439D01*
X610387Y928584D01*
X610242Y928732D01*
X610101Y928883D01*
X609964Y929038D01*
X609831Y929197D01*
X609701Y929358D01*
X609576Y929523D01*
X609454Y929690D01*
X609337Y929861D01*
X609224Y930034D01*
X609115Y930210D01*
X609010Y930389D01*
X608910Y930570D01*
X608814Y930754D01*
X608723Y930939D01*
X608636Y931127D01*
X608554Y931317D01*
X608476Y931509D01*
X608404Y931703D01*
X608336Y931899D01*
X608272Y932096D01*
X608214Y932294D01*
X608160Y932494D01*
X608112Y932695D01*
X608068Y932898D01*
X608029Y933101D01*
X607995Y933305D01*
X607966Y933510D01*
X607942Y933716D01*
X607924Y933922D01*
X607910Y934128D01*
X607901Y934335D01*
X607897Y934542D01*
X607898Y934749D01*
X607905Y934956D01*
X607916Y935163D01*
X607932Y935369D01*
X607954Y935575D01*
X607980Y935780D01*
X608012Y935985D01*
X608048Y936189D01*
X608089Y936392D01*
X608135Y936593D01*
X608187Y936794D01*
X608186Y936794D02*
X621108Y985021D01*
X621108Y985022D02*
X610028Y987656D01*
X598890Y990037D01*
X587701Y992164D01*
X576466Y994036D01*
X565191Y995651D01*
X553883Y997009D01*
X542547Y998109D01*
X531188Y998950D01*
X519813Y999533D01*
X508428Y999856D01*
X508428Y999855D02*
X508428Y949928D01*
X508425Y949721D01*
X508418Y949514D01*
X508405Y949308D01*
X508388Y949101D01*
X508365Y948896D01*
X508337Y948690D01*
X508305Y948486D01*
X508267Y948282D01*
X508225Y948080D01*
X508177Y947878D01*
X508125Y947678D01*
X508068Y947479D01*
X508006Y947282D01*
X507939Y947086D01*
X507867Y946892D01*
X507791Y946699D01*
X507710Y946509D01*
X507624Y946320D01*
X507534Y946134D01*
X507440Y945950D01*
X507340Y945768D01*
X507237Y945589D01*
X507129Y945412D01*
X507017Y945238D01*
X506901Y945067D01*
X506780Y944898D01*
X506656Y944733D01*
X506527Y944571D01*
X506395Y944412D01*
X506259Y944256D01*
X506119Y944103D01*
X505975Y943954D01*
X505828Y943809D01*
X505677Y943667D01*
X505523Y943529D01*
X505365Y943394D01*
X505205Y943264D01*
X505041Y943138D01*
X504874Y943015D01*
X504704Y942897D01*
X504531Y942782D01*
X504356Y942672D01*
X504178Y942567D01*
X503997Y942465D01*
X503815Y942369D01*
X503629Y942276D01*
X503442Y942188D01*
X503252Y942105D01*
X503061Y942026D01*
X502868Y941952D01*
X502672Y941883D01*
X502476Y941819D01*
X502278Y941759D01*
X502078Y941704D01*
X501877Y941654D01*
X501675Y941609D01*
X501472Y941569D01*
X501268Y941534D01*
X501063Y941504D01*
X500858Y941479D01*
X500652Y941459D01*
X500445Y941444D01*
X500238Y941434D01*
X500031Y941429D01*
X499825Y941429D01*
X499618Y941434D01*
X499411Y941444D01*
X499204Y941459D01*
X498998Y941479D01*
X498793Y941504D01*
X498588Y941534D01*
X498384Y941569D01*
X498181Y941609D01*
X497979Y941654D01*
X497778Y941704D01*
X497578Y941759D01*
X497380Y941819D01*
X497184Y941883D01*
X496988Y941952D01*
X496795Y942026D01*
X496604Y942105D01*
X496414Y942188D01*
X496227Y942276D01*
X496041Y942369D01*
X495859Y942465D01*
X495678Y942567D01*
X495500Y942672D01*
X495325Y942782D01*
X495152Y942897D01*
X494982Y943015D01*
X494815Y943138D01*
X494651Y943264D01*
X494491Y943394D01*
X494333Y943529D01*
X494179Y943667D01*
X494028Y943809D01*
X493881Y943954D01*
X493737Y944103D01*
X493597Y944256D01*
X493461Y944412D01*
X493329Y944571D01*
X493200Y944733D01*
X493076Y944898D01*
X492955Y945067D01*
X492839Y945238D01*
X492727Y945412D01*
X492619Y945589D01*
X492516Y945768D01*
X492416Y945950D01*
X492322Y946134D01*
X492232Y946320D01*
X492146Y946509D01*
X492065Y946699D01*
X491989Y946892D01*
X491917Y947086D01*
X491850Y947282D01*
X491788Y947479D01*
X491731Y947678D01*
X491679Y947878D01*
X491631Y948080D01*
X491589Y948282D01*
X491551Y948486D01*
X491519Y948690D01*
X491491Y948896D01*
X491468Y949101D01*
X491451Y949308D01*
X491438Y949514D01*
X491431Y949721D01*
X491428Y949928D01*
X491428Y999855D01*
X480043Y999532D01*
X468668Y998949D01*
X457310Y998108D01*
X445973Y997008D01*
X434665Y995650D01*
X423390Y994035D01*
X412155Y992163D01*
X400966Y990036D01*
X389828Y987655D01*
X378747Y985021D01*
X391670Y936794D01*
X391722Y936593D01*
X391768Y936392D01*
X391809Y936189D01*
X391845Y935985D01*
X391877Y935780D01*
X391903Y935575D01*
X391925Y935369D01*
X391941Y935163D01*
X391952Y934956D01*
X391959Y934749D01*
X391960Y934542D01*
X391956Y934335D01*
X391947Y934128D01*
X391933Y933922D01*
X391915Y933716D01*
X391891Y933510D01*
X391862Y933305D01*
X391828Y933101D01*
X391789Y932898D01*
X391745Y932695D01*
X391697Y932494D01*
X391643Y932294D01*
X391585Y932096D01*
X391521Y931899D01*
X391453Y931703D01*
X391381Y931509D01*
X391303Y931317D01*
X391221Y931127D01*
X391134Y930939D01*
X391043Y930754D01*
X390947Y930570D01*
X390847Y930389D01*
X390742Y930210D01*
X390633Y930034D01*
X390520Y929861D01*
X390403Y929690D01*
X390281Y929523D01*
X390156Y929358D01*
X390026Y929197D01*
X389893Y929038D01*
X389756Y928883D01*
X389615Y928732D01*
X389470Y928584D01*
X389322Y928439D01*
X389171Y928298D01*
X389016Y928161D01*
X388857Y928028D01*
X388696Y927898D01*
X388531Y927773D01*
X388364Y927651D01*
X388193Y927534D01*
X388020Y927421D01*
X387844Y927312D01*
X387665Y927207D01*
X387484Y927107D01*
X387300Y927011D01*
X387115Y926920D01*
X386927Y926833D01*
X386737Y926751D01*
X386545Y926673D01*
X386351Y926601D01*
X386155Y926533D01*
X385958Y926469D01*
X385760Y926411D01*
X385560Y926357D01*
X385359Y926309D01*
X385156Y926265D01*
X384953Y926226D01*
X384749Y926192D01*
X384544Y926163D01*
X384338Y926139D01*
X384132Y926121D01*
X383926Y926107D01*
X383719Y926098D01*
X383512Y926094D01*
X383305Y926095D01*
X383098Y926102D01*
X382891Y926113D01*
X382685Y926129D01*
X382479Y926151D01*
X382274Y926177D01*
X382069Y926209D01*
X381865Y926245D01*
X381662Y926286D01*
X381461Y926332D01*
X381260Y926384D01*
X381061Y926440D01*
X380863Y926500D01*
X380667Y926566D01*
X380472Y926637D01*
X380279Y926712D01*
X380088Y926791D01*
X379899Y926876D01*
X379712Y926965D01*
X379527Y927058D01*
X379345Y927156D01*
X379165Y927259D01*
X378988Y927366D01*
X378813Y927477D01*
X378641Y927592D01*
X378472Y927711D01*
X378306Y927835D01*
X378143Y927962D01*
X377983Y928094D01*
X377826Y928229D01*
X377673Y928368D01*
X377523Y928511D01*
X377377Y928657D01*
X377234Y928807D01*
X377095Y928960D01*
X376960Y929117D01*
X376828Y929277D01*
X376701Y929440D01*
X376577Y929606D01*
X376458Y929775D01*
X376343Y929947D01*
X376232Y930122D01*
X376125Y930299D01*
X376022Y930479D01*
X375924Y930661D01*
X375831Y930846D01*
X375742Y931033D01*
X375657Y931222D01*
X375578Y931413D01*
X375503Y931606D01*
X375432Y931801D01*
X375366Y931997D01*
X375306Y932195D01*
X375250Y932394D01*
X375249Y932394D02*
X362327Y980621D01*
X351414Y977362D01*
X340577Y973856D01*
X329824Y970103D01*
X319158Y966106D01*
X308586Y961868D01*
X298114Y957390D01*
X287746Y952674D01*
X277489Y947724D01*
X267347Y942541D01*
X257325Y937128D01*
X282289Y893889D01*
X282390Y893709D01*
X282487Y893526D01*
X282580Y893340D01*
X282668Y893153D01*
X282751Y892963D01*
X282830Y892772D01*
X282903Y892579D01*
X282973Y892384D01*
X283037Y892187D01*
X283097Y891989D01*
X283152Y891789D01*
X283202Y891588D01*
X283247Y891386D01*
X283287Y891183D01*
X283322Y890979D01*
X283352Y890774D01*
X283377Y890569D01*
X283397Y890363D01*
X283412Y890156D01*
X283422Y889950D01*
X283427Y889743D01*
X283427Y889536D01*
X283422Y889329D01*
X283412Y889122D01*
X283397Y888915D01*
X283377Y888709D01*
X283352Y888504D01*
X283322Y888299D01*
X283287Y888095D01*
X283247Y887892D01*
X283202Y887690D01*
X283152Y887489D01*
X283097Y887290D01*
X283037Y887091D01*
X282973Y886895D01*
X282904Y886700D01*
X282830Y886506D01*
X282751Y886315D01*
X282668Y886125D01*
X282580Y885938D01*
X282487Y885753D01*
X282391Y885570D01*
X282289Y885389D01*
X282184Y885211D01*
X282074Y885036D01*
X281959Y884863D01*
X281841Y884693D01*
X281719Y884526D01*
X281592Y884363D01*
X281462Y884202D01*
X281327Y884044D01*
X281189Y883890D01*
X281047Y883739D01*
X280902Y883592D01*
X280753Y883449D01*
X280600Y883309D01*
X280444Y883172D01*
X280285Y883040D01*
X280123Y882911D01*
X279958Y882787D01*
X279789Y882666D01*
X279618Y882550D01*
X279444Y882438D01*
X279267Y882330D01*
X279088Y882227D01*
X278906Y882128D01*
X278722Y882033D01*
X278536Y881943D01*
X278347Y881857D01*
X278157Y881776D01*
X277965Y881700D01*
X277770Y881628D01*
X277574Y881561D01*
X277377Y881499D01*
X277178Y881442D01*
X276978Y881390D01*
X276776Y881342D01*
X276574Y881300D01*
X276370Y881262D01*
X276166Y881230D01*
X275961Y881202D01*
X275755Y881179D01*
X275549Y881162D01*
X275342Y881149D01*
X275135Y881142D01*
X274928Y881139D01*
X274721Y881142D01*
X274514Y881149D01*
X274308Y881162D01*
X274101Y881179D01*
X273896Y881202D01*
X273690Y881230D01*
X273486Y881262D01*
X273283Y881300D01*
X273080Y881342D01*
X272878Y881390D01*
X272678Y881442D01*
X272479Y881499D01*
X272282Y881561D01*
X272086Y881628D01*
X271892Y881700D01*
X271699Y881776D01*
X271509Y881857D01*
X271320Y881943D01*
X271134Y882033D01*
X270950Y882127D01*
X270768Y882227D01*
X270589Y882330D01*
X270412Y882438D01*
X270238Y882550D01*
X270067Y882666D01*
X269898Y882787D01*
X269733Y882911D01*
X269571Y883040D01*
X269412Y883172D01*
X269256Y883308D01*
X269103Y883448D01*
X268954Y883592D01*
X268809Y883739D01*
X268667Y883890D01*
X268529Y884044D01*
X268395Y884202D01*
X268264Y884362D01*
X268138Y884526D01*
X268015Y884693D01*
X267897Y884863D01*
X267782Y885036D01*
X267673Y885211D01*
X267567Y885389D01*
X242603Y928628D01*
X242604Y928628D02*
X232905Y922655D01*
X223346Y916464D01*
X213930Y910055D01*
X204662Y903435D01*
X195548Y896604D01*
X186591Y889568D01*
X177798Y882330D01*
X169171Y874893D01*
X160716Y867262D01*
X152437Y859440D01*
X152436Y859440D02*
X187740Y824136D01*
X187885Y823988D01*
X188026Y823837D01*
X188163Y823682D01*
X188296Y823523D01*
X188426Y823362D01*
X188551Y823197D01*
X188673Y823030D01*
X188790Y822859D01*
X188903Y822686D01*
X189012Y822510D01*
X189117Y822331D01*
X189217Y822150D01*
X189313Y821966D01*
X189404Y821781D01*
X189491Y821593D01*
X189573Y821403D01*
X189651Y821211D01*
X189723Y821017D01*
X189791Y820821D01*
X189855Y820624D01*
X189913Y820426D01*
X189967Y820226D01*
X190015Y820025D01*
X190059Y819822D01*
X190098Y819619D01*
X190132Y819415D01*
X190161Y819210D01*
X190185Y819004D01*
X190203Y818798D01*
X190217Y818592D01*
X190226Y818385D01*
X190230Y818178D01*
X190229Y817971D01*
X190222Y817764D01*
X190211Y817557D01*
X190195Y817351D01*
X190173Y817145D01*
X190147Y816940D01*
X190115Y816735D01*
X190079Y816531D01*
X190038Y816328D01*
X189992Y816127D01*
X189940Y815926D01*
X189884Y815727D01*
X189824Y815529D01*
X189758Y815333D01*
X189687Y815138D01*
X189612Y814945D01*
X189533Y814754D01*
X189448Y814565D01*
X189359Y814378D01*
X189266Y814193D01*
X189168Y814011D01*
X189065Y813831D01*
X188958Y813654D01*
X188847Y813479D01*
X188732Y813307D01*
X188613Y813138D01*
X188489Y812972D01*
X188362Y812809D01*
X188230Y812649D01*
X188095Y812492D01*
X187956Y812339D01*
X187813Y812189D01*
X187667Y812043D01*
X187517Y811900D01*
X187364Y811761D01*
X187207Y811626D01*
X187047Y811494D01*
X186884Y811367D01*
X186718Y811243D01*
X186549Y811124D01*
X186377Y811009D01*
X186202Y810898D01*
X186025Y810791D01*
X185845Y810688D01*
X185663Y810590D01*
X185478Y810497D01*
X185291Y810408D01*
X185102Y810323D01*
X184911Y810244D01*
X184718Y810169D01*
X184523Y810098D01*
X184327Y810032D01*
X184129Y809972D01*
X183930Y809916D01*
X183729Y809864D01*
X183528Y809818D01*
X183325Y809777D01*
X183121Y809741D01*
X182916Y809709D01*
X182711Y809683D01*
X182505Y809661D01*
X182299Y809645D01*
X182092Y809634D01*
X181885Y809627D01*
X181678Y809626D01*
X181471Y809630D01*
X181264Y809639D01*
X181058Y809653D01*
X180852Y809671D01*
X180646Y809695D01*
X180441Y809724D01*
X180237Y809758D01*
X180034Y809797D01*
X179831Y809841D01*
X179630Y809889D01*
X179430Y809943D01*
X179232Y810001D01*
X179035Y810065D01*
X178839Y810133D01*
X178645Y810205D01*
X178453Y810283D01*
X178263Y810365D01*
X178075Y810452D01*
X177890Y810543D01*
X177706Y810639D01*
X177525Y810739D01*
X177346Y810844D01*
X177170Y810953D01*
X176997Y811066D01*
X176826Y811183D01*
X176659Y811305D01*
X176494Y811430D01*
X176333Y811560D01*
X176174Y811693D01*
X176019Y811830D01*
X175868Y811971D01*
X175720Y812116D01*
X175719Y812115D02*
X140415Y847420D01*
X132593Y839141D01*
X124962Y830686D01*
X117525Y822060D01*
X110287Y813266D01*
X103251Y804309D01*
X96421Y795195D01*
X89800Y785927D01*
X83392Y776511D01*
X77200Y766951D01*
X71228Y757253D01*
X114466Y732289D01*
X114644Y732183D01*
X114819Y732074D01*
X114992Y731959D01*
X115162Y731841D01*
X115329Y731718D01*
X115493Y731592D01*
X115653Y731461D01*
X115811Y731327D01*
X115965Y731189D01*
X116116Y731047D01*
X116263Y730902D01*
X116407Y730753D01*
X116547Y730600D01*
X116683Y730444D01*
X116815Y730285D01*
X116944Y730123D01*
X117068Y729958D01*
X117189Y729789D01*
X117305Y729618D01*
X117417Y729444D01*
X117525Y729267D01*
X117628Y729088D01*
X117728Y728906D01*
X117822Y728722D01*
X117912Y728536D01*
X117998Y728347D01*
X118079Y728157D01*
X118155Y727964D01*
X118227Y727770D01*
X118294Y727574D01*
X118356Y727377D01*
X118413Y727178D01*
X118465Y726978D01*
X118513Y726776D01*
X118555Y726573D01*
X118593Y726370D01*
X118625Y726166D01*
X118653Y725960D01*
X118676Y725755D01*
X118693Y725548D01*
X118706Y725342D01*
X118713Y725135D01*
X118716Y724928D01*
X118713Y724721D01*
X118706Y724514D01*
X118693Y724307D01*
X118676Y724101D01*
X118653Y723895D01*
X118625Y723690D01*
X118593Y723486D01*
X118555Y723282D01*
X118513Y723080D01*
X118465Y722878D01*
X118413Y722678D01*
X118356Y722479D01*
X118294Y722282D01*
X118227Y722086D01*
X118155Y721891D01*
X118079Y721699D01*
X117998Y721509D01*
X117912Y721320D01*
X117822Y721134D01*
X117727Y720950D01*
X117628Y720768D01*
X117525Y720589D01*
X117417Y720412D01*
X117305Y720238D01*
X117189Y720067D01*
X117068Y719898D01*
X116944Y719733D01*
X116815Y719571D01*
X116683Y719412D01*
X116546Y719256D01*
X116406Y719103D01*
X116263Y718954D01*
X116116Y718809D01*
X115965Y718667D01*
X115811Y718529D01*
X115653Y718394D01*
X115492Y718264D01*
X115329Y718137D01*
X115162Y718015D01*
X114992Y717897D01*
X114819Y717782D01*
X114644Y717672D01*
X114466Y717567D01*
X114285Y717465D01*
X114102Y717369D01*
X113917Y717276D01*
X113730Y717188D01*
X113540Y717105D01*
X113349Y717026D01*
X113155Y716952D01*
X112960Y716883D01*
X112764Y716819D01*
X112565Y716759D01*
X112366Y716704D01*
X112165Y716654D01*
X111963Y716609D01*
X111760Y716569D01*
X111556Y716534D01*
X111351Y716504D01*
X111146Y716479D01*
X110940Y716459D01*
X110733Y716444D01*
X110526Y716434D01*
X110319Y716429D01*
X110112Y716429D01*
X109905Y716434D01*
X109699Y716444D01*
X109492Y716459D01*
X109286Y716479D01*
X109081Y716504D01*
X108876Y716534D01*
X108672Y716569D01*
X108469Y716609D01*
X108267Y716654D01*
X108066Y716704D01*
X107866Y716759D01*
X107668Y716819D01*
X107471Y716883D01*
X107276Y716953D01*
X107083Y717026D01*
X106892Y717105D01*
X106702Y717188D01*
X106515Y717276D01*
X106329Y717369D01*
X106146Y717466D01*
X105966Y717567D01*
X62728Y742530D01*
X57315Y732509D01*
X52133Y722367D01*
X47182Y712109D01*
X42467Y701742D01*
X37988Y691270D01*
X33750Y680698D01*
X29753Y670033D01*
X26001Y659279D01*
X22494Y648443D01*
X19235Y637529D01*
X67461Y624607D01*
X67660Y624551D01*
X67858Y624491D01*
X68054Y624425D01*
X68249Y624354D01*
X68442Y624279D01*
X68633Y624200D01*
X68822Y624115D01*
X69009Y624026D01*
X69194Y623933D01*
X69376Y623835D01*
X69556Y623732D01*
X69733Y623625D01*
X69908Y623514D01*
X70080Y623399D01*
X70249Y623280D01*
X70415Y623156D01*
X70578Y623029D01*
X70738Y622897D01*
X70895Y622762D01*
X71048Y622623D01*
X71198Y622480D01*
X71344Y622334D01*
X71487Y622184D01*
X71626Y622031D01*
X71761Y621874D01*
X71893Y621714D01*
X72020Y621551D01*
X72144Y621385D01*
X72263Y621216D01*
X72378Y621044D01*
X72489Y620869D01*
X72596Y620692D01*
X72699Y620512D01*
X72797Y620330D01*
X72890Y620145D01*
X72979Y619958D01*
X73064Y619769D01*
X73143Y619578D01*
X73218Y619385D01*
X73289Y619190D01*
X73355Y618994D01*
X73415Y618796D01*
X73471Y618597D01*
X73523Y618396D01*
X73569Y618195D01*
X73610Y617992D01*
X73646Y617788D01*
X73678Y617583D01*
X73704Y617378D01*
X73726Y617172D01*
X73742Y616966D01*
X73753Y616759D01*
X73760Y616552D01*
X73761Y616345D01*
X73757Y616138D01*
X73748Y615931D01*
X73734Y615725D01*
X73716Y615519D01*
X73692Y615313D01*
X73663Y615108D01*
X73629Y614904D01*
X73590Y614701D01*
X73546Y614498D01*
X73498Y614297D01*
X73444Y614097D01*
X73386Y613899D01*
X73322Y613702D01*
X73254Y613506D01*
X73182Y613312D01*
X73104Y613120D01*
X73022Y612930D01*
X72935Y612742D01*
X72844Y612557D01*
X72748Y612373D01*
X72648Y612192D01*
X72543Y612013D01*
X72434Y611837D01*
X72321Y611664D01*
X72204Y611493D01*
X72082Y611326D01*
X71957Y611161D01*
X71827Y611000D01*
X71694Y610841D01*
X71557Y610686D01*
X71416Y610535D01*
X71271Y610387D01*
X71123Y610242D01*
X70972Y610101D01*
X70817Y609964D01*
X70658Y609831D01*
X70497Y609701D01*
X70332Y609576D01*
X70165Y609454D01*
X69994Y609337D01*
X69821Y609224D01*
X69645Y609115D01*
X69466Y609010D01*
X69285Y608910D01*
X69101Y608814D01*
X68916Y608723D01*
X68728Y608636D01*
X68538Y608554D01*
X68346Y608476D01*
X68152Y608404D01*
X67956Y608336D01*
X67759Y608272D01*
X67561Y608214D01*
X67361Y608160D01*
X67160Y608112D01*
X66957Y608068D01*
X66754Y608029D01*
X66550Y607995D01*
X66345Y607966D01*
X66139Y607942D01*
X65933Y607924D01*
X65727Y607910D01*
X65520Y607901D01*
X65313Y607897D01*
X65106Y607898D01*
X64899Y607905D01*
X64692Y607916D01*
X64486Y607932D01*
X64280Y607954D01*
X64075Y607980D01*
X63870Y608012D01*
X63666Y608048D01*
X63463Y608089D01*
X63262Y608135D01*
X63061Y608187D01*
X63061Y608186D02*
X14835Y621108D01*
X427000Y405000D02*
X435000Y405000D01*
X435140Y405002D01*
X435280Y405008D01*
X435420Y405018D01*
X435560Y405031D01*
X435699Y405049D01*
X435838Y405071D01*
X435975Y405096D01*
X436113Y405125D01*
X436249Y405158D01*
X436384Y405195D01*
X436518Y405236D01*
X436651Y405281D01*
X436783Y405329D01*
X436913Y405381D01*
X437042Y405436D01*
X437169Y405495D01*
X437295Y405558D01*
X437419Y405624D01*
X437540Y405693D01*
X437660Y405766D01*
X437778Y405843D01*
X437893Y405922D01*
X438007Y406005D01*
X438117Y406091D01*
X438226Y406180D01*
X438332Y406272D01*
X438435Y406367D01*
X438536Y406464D01*
X438633Y406565D01*
X438728Y406668D01*
X438820Y406774D01*
X438909Y406883D01*
X438995Y406993D01*
X439078Y407107D01*
X439157Y407222D01*
X439234Y407340D01*
X439307Y407460D01*
X439376Y407581D01*
X439442Y407705D01*
X439505Y407831D01*
X439564Y407958D01*
X439619Y408087D01*
X439671Y408217D01*
X439719Y408349D01*
X439764Y408482D01*
X439805Y408616D01*
X439842Y408751D01*
X439875Y408887D01*
X439904Y409025D01*
X439929Y409162D01*
X439951Y409301D01*
X439969Y409440D01*
X439982Y409580D01*
X439992Y409720D01*
X439998Y409860D01*
X440000Y410000D01*
X440000Y590000D01*
X439998Y590140D01*
X439992Y590280D01*
X439982Y590420D01*
X439969Y590560D01*
X439951Y590699D01*
X439929Y590838D01*
X439904Y590975D01*
X439875Y591113D01*
X439842Y591249D01*
X439805Y591384D01*
X439764Y591518D01*
X439719Y591651D01*
X439671Y591783D01*
X439619Y591913D01*
X439564Y592042D01*
X439505Y592169D01*
X439442Y592295D01*
X439376Y592419D01*
X439307Y592540D01*
X439234Y592660D01*
X439157Y592778D01*
X439078Y592893D01*
X438995Y593007D01*
X438909Y593117D01*
X438820Y593226D01*
X438728Y593332D01*
X438633Y593435D01*
X438536Y593536D01*
X438435Y593633D01*
X438332Y593728D01*
X438226Y593820D01*
X438117Y593909D01*
X438007Y593995D01*
X437893Y594078D01*
X437778Y594157D01*
X437660Y594234D01*
X437540Y594307D01*
X437419Y594376D01*
X437295Y594442D01*
X437169Y594505D01*
X437042Y594564D01*
X436913Y594619D01*
X436783Y594671D01*
X436651Y594719D01*
X436518Y594764D01*
X436384Y594805D01*
X436249Y594842D01*
X436113Y594875D01*
X435975Y594904D01*
X435838Y594929D01*
X435699Y594951D01*
X435560Y594969D01*
X435420Y594982D01*
X435280Y594992D01*
X435140Y594998D01*
X435000Y595000D01*
X427000Y595000D01*
X426860Y594998D01*
X426720Y594992D01*
X426580Y594982D01*
X426440Y594969D01*
X426301Y594951D01*
X426162Y594929D01*
X426025Y594904D01*
X425887Y594875D01*
X425751Y594842D01*
X425616Y594805D01*
X425482Y594764D01*
X425349Y594719D01*
X425217Y594671D01*
X425087Y594619D01*
X424958Y594564D01*
X424831Y594505D01*
X424705Y594442D01*
X424581Y594376D01*
X424460Y594307D01*
X424340Y594234D01*
X424222Y594157D01*
X424107Y594078D01*
X423993Y593995D01*
X423883Y593909D01*
X423774Y593820D01*
X423668Y593728D01*
X423565Y593633D01*
X423464Y593536D01*
X423367Y593435D01*
X423272Y593332D01*
X423180Y593226D01*
X423091Y593117D01*
X423005Y593007D01*
X422922Y592893D01*
X422843Y592778D01*
X422766Y592660D01*
X422693Y592540D01*
X422624Y592419D01*
X422558Y592295D01*
X422495Y592169D01*
X422436Y592042D01*
X422381Y591913D01*
X422329Y591783D01*
X422281Y591651D01*
X422236Y591518D01*
X422195Y591384D01*
X422158Y591249D01*
X422125Y591113D01*
X422096Y590975D01*
X422071Y590838D01*
X422049Y590699D01*
X422031Y590560D01*
X422018Y590420D01*
X422008Y590280D01*
X422002Y590140D01*
X422000Y590000D01*
X422000Y564600D01*
X368800Y564600D01*
X368660Y564598D01*
X368520Y564592D01*
X368380Y564582D01*
X368240Y564569D01*
X368101Y564551D01*
X367962Y564529D01*
X367825Y564504D01*
X367687Y564475D01*
X367551Y564442D01*
X367416Y564405D01*
X367282Y564364D01*
X367149Y564319D01*
X367017Y564271D01*
X366887Y564219D01*
X366758Y564164D01*
X366631Y564105D01*
X366505Y564042D01*
X366381Y563976D01*
X366260Y563907D01*
X366140Y563834D01*
X366022Y563757D01*
X365907Y563678D01*
X365793Y563595D01*
X365683Y563509D01*
X365574Y563420D01*
X365468Y563328D01*
X365365Y563233D01*
X365264Y563136D01*
X365167Y563035D01*
X365072Y562932D01*
X364980Y562826D01*
X364891Y562717D01*
X364805Y562607D01*
X364722Y562493D01*
X364643Y562378D01*
X364566Y562260D01*
X364493Y562140D01*
X364424Y562019D01*
X364358Y561895D01*
X364295Y561769D01*
X364236Y561642D01*
X364181Y561513D01*
X364129Y561383D01*
X364081Y561251D01*
X364036Y561118D01*
X363995Y560984D01*
X363958Y560849D01*
X363925Y560713D01*
X363896Y560575D01*
X363871Y560438D01*
X363849Y560299D01*
X363831Y560160D01*
X363818Y560020D01*
X363808Y559880D01*
X363802Y559740D01*
X363800Y559600D01*
X363800Y440400D01*
X363802Y440260D01*
X363808Y440120D01*
X363818Y439980D01*
X363831Y439840D01*
X363849Y439701D01*
X363871Y439562D01*
X363896Y439425D01*
X363925Y439287D01*
X363958Y439151D01*
X363995Y439016D01*
X364036Y438882D01*
X364081Y438749D01*
X364129Y438617D01*
X364181Y438487D01*
X364236Y438358D01*
X364295Y438231D01*
X364358Y438105D01*
X364424Y437981D01*
X364493Y437860D01*
X364566Y437740D01*
X364643Y437622D01*
X364722Y437507D01*
X364805Y437393D01*
X364891Y437283D01*
X364980Y437174D01*
X365072Y437068D01*
X365167Y436965D01*
X365264Y436864D01*
X365365Y436767D01*
X365468Y436672D01*
X365574Y436580D01*
X365683Y436491D01*
X365793Y436405D01*
X365907Y436322D01*
X366022Y436243D01*
X366140Y436166D01*
X366260Y436093D01*
X366381Y436024D01*
X366505Y435958D01*
X366631Y435895D01*
X366758Y435836D01*
X366887Y435781D01*
X367017Y435729D01*
X367149Y435681D01*
X367282Y435636D01*
X367416Y435595D01*
X367551Y435558D01*
X367687Y435525D01*
X367825Y435496D01*
X367962Y435471D01*
X368101Y435449D01*
X368240Y435431D01*
X368380Y435418D01*
X368520Y435408D01*
X368660Y435402D01*
X368800Y435400D01*
X422000Y435400D01*
X422000Y410000D01*
X422002Y409860D01*
X422008Y409720D01*
X422018Y409580D01*
X422031Y409440D01*
X422049Y409301D01*
X422071Y409162D01*
X422096Y409025D01*
X422125Y408887D01*
X422158Y408751D01*
X422195Y408616D01*
X422236Y408482D01*
X422281Y408349D01*
X422329Y408217D01*
X422381Y408087D01*
X422436Y407958D01*
X422495Y407831D01*
X422558Y407705D01*
X422624Y407581D01*
X422693Y407460D01*
X422766Y407340D01*
X422843Y407222D01*
X422922Y407107D01*
X423005Y406993D01*
X423091Y406883D01*
X423180Y406774D01*
X423272Y406668D01*
X423367Y406565D01*
X423464Y406464D01*
X423565Y406367D01*
X423668Y406272D01*
X423774Y406180D01*
X423883Y406091D01*
X423993Y406005D01*
X424107Y405922D01*
X424222Y405843D01*
X424340Y405766D01*
X424460Y405693D01*
X424581Y405624D01*
X424705Y405558D01*
X424831Y405495D01*
X424958Y405436D01*
X425087Y405381D01*
X425217Y405329D01*
X425349Y405281D01*
X425482Y405236D01*
X425616Y405195D01*
X425751Y405158D01*
X425887Y405125D01*
X426025Y405096D01*
X426162Y405071D01*
X426301Y405049D01*
X426440Y405031D01*
X426580Y405018D01*
X426720Y405008D01*
X426860Y405002D01*
X427000Y405000D01*
D11*
X759270Y525593D03*
X729668Y546165D03*
X734079Y521151D03*
X754682Y550576D03*
X743812Y591826D03*
X709894Y604035D03*
X720629Y581015D03*
X732914Y614770D03*
X711738Y651800D03*
X675816Y654815D03*
X692143Y635358D03*
X695274Y671142D03*
X665234Y701429D03*
X629756Y695044D03*
X650562Y680475D03*
X644325Y715850D03*
X611170Y737327D03*
X580015Y719192D03*
X604550Y712618D03*
X586589Y743727D03*
X545958Y758013D03*
X520558Y732433D03*
X545958Y732433D03*
X520558Y757833D03*
X477613Y761116D03*
X459699Y729833D03*
X484234Y736407D03*
X453125Y754368D03*
X410794Y746425D03*
X401586Y711572D03*
X423584Y724272D03*
X388886Y733569D03*
X350054Y714940D03*
X350181Y678891D03*
X368142Y696852D03*
X332221Y696852D03*
X299533Y668807D03*
X308986Y634019D03*
X321686Y656017D03*
X286989Y646719D03*
X262673Y611170D03*
X280808Y580015D03*
X287382Y604550D03*
X256273Y586589D03*
X241987Y545958D03*
X267567Y520558D03*
X267567Y545958D03*
X242167Y520558D03*
X238884Y477613D03*
X270167Y459699D03*
X263593Y484234D03*
X245632Y453125D03*
X253575Y410794D03*
X288428Y401586D03*
X275728Y423584D03*
X266431Y388886D03*
X285060Y350054D03*
X321109Y350181D03*
X303148Y368142D03*
X303148Y332221D03*
X331193Y299533D03*
X365981Y308986D03*
X343983Y321686D03*
X353281Y286989D03*
X388830Y262673D03*
X419985Y280808D03*
X395450Y287382D03*
X413411Y256273D03*
X454042Y241987D03*
X479442Y267567D03*
X454042Y267567D03*
X479442Y242167D03*
X522387Y238884D03*
X540301Y270167D03*
X515766Y263593D03*
X546875Y245632D03*
X589206Y253575D03*
X598414Y288428D03*
X576416Y275728D03*
X611114Y266431D03*
X649946Y285060D03*
X649819Y321109D03*
X631858Y303148D03*
X667779Y303148D03*
X700467Y331193D03*
X691014Y365981D03*
X678314Y343983D03*
X713011Y353281D03*
X737327Y388830D03*
X719192Y419985D03*
X712618Y395450D03*
X743727Y413411D03*
X758013Y454042D03*
X732433Y479442D03*
X732433Y454042D03*
X757833Y479442D03*
D12*
X500000Y500000D03*
D13*
X320000Y500000D03*
X570000Y360000D03*
D11*
X409300Y576200D03*
X383900Y576200D03*
X358500Y576200D03*
X409300Y423800D03*
X383900Y423800D03*
X358500Y423800D03*
X554200Y576200D03*
X554200Y525400D03*
X554200Y500000D03*
X554200Y474600D03*
X652500Y500000D03*
X652500Y550800D03*
X652500Y525400D03*
X554200Y550800D03*
X554200Y449200D03*
X554200Y423800D03*
X652500Y474600D03*
X652500Y449200D03*
D14*
X700000Y495000D03*
M02*
