G04 EAGLE Gerber RS-274X export*
G75*
%MOMM*%
%FSLAX34Y34*%
%LPD*%
%INStencil_Only_Top*%
%IPPOS*%
%AMOC8*
5,1,8,0,0,1.08239X$1,22.5*%
G01*
%ADD10R,1.200000X0.550000*%
%ADD11R,1.200000X0.700000*%
%ADD12R,1.200000X0.450000*%
%ADD13R,1.200000X0.600000*%
%ADD14R,1.300000X1.500000*%


D10*
G36*
X78541Y167634D02*
X67917Y173211D01*
X70473Y178080D01*
X81097Y172503D01*
X78541Y167634D01*
G37*
D11*
G36*
X73659Y158337D02*
X63035Y163915D01*
X66289Y170111D01*
X76913Y164533D01*
X73659Y158337D01*
G37*
D12*
G36*
X70173Y151696D02*
X59549Y157273D01*
X61641Y161258D01*
X72265Y155681D01*
X70173Y151696D01*
G37*
D13*
G36*
X65989Y143728D02*
X55366Y149305D01*
X58155Y154618D01*
X68778Y149041D01*
X65989Y143728D01*
G37*
D10*
G36*
X472415Y413992D02*
X471578Y425962D01*
X477063Y426346D01*
X477900Y414376D01*
X472415Y413992D01*
G37*
D11*
G36*
X461940Y413260D02*
X461102Y425230D01*
X468084Y425718D01*
X468922Y413748D01*
X461940Y413260D01*
G37*
D12*
G36*
X454459Y412737D02*
X453621Y424707D01*
X458109Y425021D01*
X458947Y413051D01*
X454459Y412737D01*
G37*
D13*
G36*
X445480Y412109D02*
X444643Y424079D01*
X450628Y424497D01*
X451465Y412527D01*
X445480Y412109D01*
G37*
D10*
G36*
X403639Y405499D02*
X401082Y417223D01*
X406455Y418395D01*
X409012Y406671D01*
X403639Y405499D01*
G37*
D11*
G36*
X393380Y403263D02*
X390824Y414986D01*
X397662Y416477D01*
X400218Y404754D01*
X393380Y403263D01*
G37*
D12*
G36*
X386052Y401665D02*
X383496Y413388D01*
X387892Y414347D01*
X390448Y402624D01*
X386052Y401665D01*
G37*
D13*
G36*
X377259Y399748D02*
X374702Y411472D01*
X380563Y412750D01*
X383120Y401026D01*
X377259Y399748D01*
G37*
D10*
G36*
X116191Y225733D02*
X106484Y232785D01*
X109717Y237235D01*
X119424Y230183D01*
X116191Y225733D01*
G37*
D11*
G36*
X110020Y217238D02*
X100313Y224291D01*
X104428Y229954D01*
X114135Y222901D01*
X110020Y217238D01*
G37*
D12*
G36*
X105611Y211171D02*
X95904Y218223D01*
X98549Y221863D01*
X108256Y214811D01*
X105611Y211171D01*
G37*
D13*
G36*
X100321Y203890D02*
X90614Y210942D01*
X94141Y215796D01*
X103848Y208744D01*
X100321Y203890D01*
G37*
D10*
G36*
X161923Y277819D02*
X153336Y286199D01*
X157177Y290135D01*
X165764Y281755D01*
X161923Y277819D01*
G37*
D11*
G36*
X154589Y270304D02*
X146002Y278684D01*
X150891Y283694D01*
X159478Y275314D01*
X154589Y270304D01*
G37*
D12*
G36*
X149351Y264936D02*
X140764Y273316D01*
X143907Y276536D01*
X152494Y268156D01*
X149351Y264936D01*
G37*
D13*
G36*
X143065Y258495D02*
X134478Y266875D01*
X138669Y271169D01*
X147256Y262789D01*
X143065Y258495D01*
G37*
D10*
G36*
X214728Y322612D02*
X207457Y332157D01*
X211832Y335490D01*
X219103Y325945D01*
X214728Y322612D01*
G37*
D11*
G36*
X206376Y316249D02*
X199105Y325793D01*
X204674Y330035D01*
X211945Y320491D01*
X206376Y316249D01*
G37*
D12*
G36*
X200410Y311704D02*
X193139Y321249D01*
X196718Y323976D01*
X203989Y314431D01*
X200410Y311704D01*
G37*
D13*
G36*
X193251Y306250D02*
X185980Y315794D01*
X190753Y319430D01*
X198024Y309886D01*
X193251Y306250D01*
G37*
D10*
G36*
X273426Y359411D02*
X267609Y369905D01*
X272420Y372571D01*
X278237Y362077D01*
X273426Y359411D01*
G37*
D11*
G36*
X264243Y354320D02*
X258425Y364814D01*
X264547Y368208D01*
X270365Y357714D01*
X264243Y354320D01*
G37*
D12*
G36*
X257682Y350684D02*
X251866Y361178D01*
X255802Y363360D01*
X261618Y352866D01*
X257682Y350684D01*
G37*
D13*
G36*
X249811Y346321D02*
X243995Y356816D01*
X249243Y359725D01*
X255059Y349230D01*
X249811Y346321D01*
G37*
D10*
G36*
X336815Y387211D02*
X332593Y398442D01*
X337741Y400377D01*
X341963Y389146D01*
X336815Y387211D01*
G37*
D11*
G36*
X326986Y383516D02*
X322764Y394747D01*
X329316Y397210D01*
X333538Y385979D01*
X326986Y383516D01*
G37*
D12*
G36*
X319965Y380877D02*
X315744Y392109D01*
X319957Y393693D01*
X324178Y382461D01*
X319965Y380877D01*
G37*
D13*
G36*
X311541Y377711D02*
X307319Y388942D01*
X312935Y391053D01*
X317157Y379822D01*
X311541Y377711D01*
G37*
D10*
G36*
X922592Y150811D02*
X933216Y156388D01*
X935772Y151519D01*
X925148Y145942D01*
X922592Y150811D01*
G37*
D11*
G36*
X917711Y160106D02*
X928335Y165684D01*
X931589Y159488D01*
X920965Y153910D01*
X917711Y160106D01*
G37*
D12*
G36*
X914224Y166749D02*
X924848Y172326D01*
X926940Y168341D01*
X916316Y162764D01*
X914224Y166749D01*
G37*
D13*
G36*
X910041Y174717D02*
X920664Y180294D01*
X923453Y174981D01*
X912830Y169404D01*
X910041Y174717D01*
G37*
D10*
G36*
X843647Y264220D02*
X852234Y272600D01*
X856075Y268664D01*
X847488Y260284D01*
X843647Y264220D01*
G37*
D11*
G36*
X836314Y271735D02*
X844901Y280115D01*
X849790Y275105D01*
X841203Y266725D01*
X836314Y271735D01*
G37*
D12*
G36*
X831076Y277103D02*
X839663Y285483D01*
X842806Y282263D01*
X834219Y273883D01*
X831076Y277103D01*
G37*
D13*
G36*
X824790Y283544D02*
X833377Y291924D01*
X837568Y287630D01*
X828981Y279250D01*
X824790Y283544D01*
G37*
D10*
G36*
X735491Y350199D02*
X741308Y360693D01*
X746119Y358027D01*
X740302Y347533D01*
X735491Y350199D01*
G37*
D11*
G36*
X726308Y355290D02*
X732126Y365784D01*
X738248Y362390D01*
X732430Y351896D01*
X726308Y355290D01*
G37*
D12*
G36*
X719749Y358926D02*
X725565Y369420D01*
X729501Y367238D01*
X723685Y356744D01*
X719749Y358926D01*
G37*
D13*
G36*
X711877Y363289D02*
X717693Y373784D01*
X722941Y370875D01*
X717125Y360380D01*
X711877Y363289D01*
G37*
D10*
G36*
X607226Y401452D02*
X609783Y413176D01*
X615156Y412004D01*
X612599Y400280D01*
X607226Y401452D01*
G37*
D11*
G36*
X596967Y403689D02*
X599523Y415412D01*
X606361Y413921D01*
X603805Y402198D01*
X596967Y403689D01*
G37*
D12*
G36*
X589639Y405287D02*
X592195Y417010D01*
X596591Y416051D01*
X594035Y404328D01*
X589639Y405287D01*
G37*
D13*
G36*
X580846Y407204D02*
X583403Y418928D01*
X589264Y417650D01*
X586707Y405926D01*
X580846Y407204D01*
G37*
D10*
G36*
X538841Y412667D02*
X539678Y424637D01*
X545163Y424253D01*
X544326Y412283D01*
X538841Y412667D01*
G37*
D11*
G36*
X528365Y413399D02*
X529203Y425369D01*
X536185Y424881D01*
X535347Y412911D01*
X528365Y413399D01*
G37*
D12*
G36*
X520884Y413923D02*
X521722Y425893D01*
X526210Y425579D01*
X525372Y413609D01*
X520884Y413923D01*
G37*
D13*
G36*
X511906Y414550D02*
X512743Y426520D01*
X518728Y426102D01*
X517891Y414132D01*
X511906Y414550D01*
G37*
D10*
G36*
X673271Y380526D02*
X677493Y391757D01*
X682641Y389822D01*
X678419Y378591D01*
X673271Y380526D01*
G37*
D11*
G36*
X663442Y384220D02*
X667664Y395451D01*
X674216Y392988D01*
X669994Y381757D01*
X663442Y384220D01*
G37*
D12*
G36*
X656422Y386859D02*
X660643Y398091D01*
X664856Y396507D01*
X660635Y385275D01*
X656422Y386859D01*
G37*
D13*
G36*
X647997Y390025D02*
X652219Y401256D01*
X657835Y399145D01*
X653613Y387914D01*
X647997Y390025D01*
G37*
D10*
G36*
X792686Y311098D02*
X799957Y320643D01*
X804332Y317310D01*
X797061Y307765D01*
X792686Y311098D01*
G37*
D11*
G36*
X784333Y317461D02*
X791604Y327005D01*
X797173Y322763D01*
X789902Y313219D01*
X784333Y317461D01*
G37*
D12*
G36*
X778367Y322006D02*
X785638Y331551D01*
X789217Y328824D01*
X781946Y319279D01*
X778367Y322006D01*
G37*
D13*
G36*
X771208Y327460D02*
X778479Y337004D01*
X783252Y333368D01*
X775981Y323824D01*
X771208Y327460D01*
G37*
D10*
G36*
X887276Y210362D02*
X896983Y217414D01*
X900216Y212964D01*
X890509Y205912D01*
X887276Y210362D01*
G37*
D11*
G36*
X881104Y218856D02*
X890811Y225909D01*
X894926Y220246D01*
X885219Y213193D01*
X881104Y218856D01*
G37*
D12*
G36*
X876696Y224924D02*
X886403Y231976D01*
X889048Y228336D01*
X879341Y221284D01*
X876696Y224924D01*
G37*
D13*
G36*
X871406Y232205D02*
X881113Y239257D01*
X884640Y234403D01*
X874933Y227351D01*
X871406Y232205D01*
G37*
D14*
G36*
X141293Y154798D02*
X134442Y143750D01*
X121695Y151654D01*
X128546Y162702D01*
X141293Y154798D01*
G37*
G36*
X151305Y170946D02*
X144454Y159898D01*
X131707Y167802D01*
X138558Y178850D01*
X151305Y170946D01*
G37*
G36*
X317978Y330266D02*
X329778Y335719D01*
X336070Y322104D01*
X324270Y316651D01*
X317978Y330266D01*
G37*
G36*
X300730Y322296D02*
X312530Y327749D01*
X318822Y314134D01*
X307022Y308681D01*
X300730Y322296D01*
G37*
G36*
X679770Y327749D02*
X691570Y322296D01*
X685278Y308681D01*
X673478Y314134D01*
X679770Y327749D01*
G37*
G36*
X662522Y335719D02*
X674322Y330266D01*
X668030Y316651D01*
X656230Y322104D01*
X662522Y335719D01*
G37*
G36*
X863754Y162702D02*
X870605Y151654D01*
X857858Y143750D01*
X851007Y154798D01*
X863754Y162702D01*
G37*
G36*
X853742Y178850D02*
X860593Y167802D01*
X847846Y159898D01*
X840995Y170946D01*
X853742Y178850D01*
G37*
M02*
