M48
;GenerationSoftware,Autodesk,EAGLE,9.5.0*%
;CreationDate,2019-09-08T18:09:47Z*%
FMAT,2
ICI,OFF
METRIC,TZ,000.000
T2C0.400
T1C1.000
%
G90
M71
T1
X44854Y35530
X47394Y38070
X44854Y38070
X47394Y35530
T2
X36535Y38525
X30217Y36102
X42909Y40614
X49395Y41255
X56464Y39723
X24511Y32676
X19167Y28525
X14518Y23679
X10733Y18275
X62950Y38135
X69018Y35768
X75113Y32648
X80485Y28191
X84994Y23734
X89030Y18358
X8337Y13158
X90633Y12068
M30