G04 EAGLE Gerber RS-274X export*
G75*
%MOMM*%
%FSLAX34Y34*%
%LPD*%
%INMask_Bottom*%
%IPPOS*%
%AMOC8*
5,1,8,0,0,1.08239X$1,22.5*%
G01*
%ADD10C,0.000000*%
%ADD11C,1.903200*%
%ADD12R,1.009600X1.009600*%
%ADD13C,1.009600*%

G36*
X1000020Y-10758D02*
X1000020Y-10758D01*
X1000039Y-10760D01*
X1000141Y-10738D01*
X1000243Y-10722D01*
X1000260Y-10712D01*
X1000280Y-10708D01*
X1000369Y-10655D01*
X1000460Y-10606D01*
X1000474Y-10592D01*
X1000491Y-10582D01*
X1000558Y-10503D01*
X1000630Y-10428D01*
X1000638Y-10410D01*
X1000651Y-10395D01*
X1000690Y-10299D01*
X1000733Y-10205D01*
X1000735Y-10185D01*
X1000743Y-10167D01*
X1000761Y-10000D01*
X1000761Y50000D01*
X1000758Y50020D01*
X1000760Y50039D01*
X1000738Y50141D01*
X1000722Y50243D01*
X1000712Y50260D01*
X1000708Y50280D01*
X1000655Y50369D01*
X1000606Y50460D01*
X1000592Y50474D01*
X1000582Y50491D01*
X1000503Y50558D01*
X1000428Y50630D01*
X1000410Y50638D01*
X1000395Y50651D01*
X1000299Y50690D01*
X1000205Y50733D01*
X1000185Y50735D01*
X1000167Y50743D01*
X1000000Y50761D01*
X-10000Y50761D01*
X-10020Y50758D01*
X-10039Y50760D01*
X-10141Y50738D01*
X-10243Y50722D01*
X-10260Y50712D01*
X-10280Y50708D01*
X-10369Y50655D01*
X-10460Y50606D01*
X-10474Y50592D01*
X-10491Y50582D01*
X-10558Y50503D01*
X-10630Y50428D01*
X-10638Y50410D01*
X-10651Y50395D01*
X-10690Y50299D01*
X-10733Y50205D01*
X-10735Y50185D01*
X-10743Y50167D01*
X-10761Y50000D01*
X-10761Y-10000D01*
X-10758Y-10020D01*
X-10760Y-10039D01*
X-10738Y-10141D01*
X-10722Y-10243D01*
X-10712Y-10260D01*
X-10708Y-10280D01*
X-10655Y-10369D01*
X-10606Y-10460D01*
X-10592Y-10474D01*
X-10582Y-10491D01*
X-10503Y-10558D01*
X-10428Y-10630D01*
X-10410Y-10638D01*
X-10395Y-10651D01*
X-10299Y-10690D01*
X-10205Y-10733D01*
X-10185Y-10735D01*
X-10167Y-10743D01*
X-10000Y-10761D01*
X1000000Y-10761D01*
X1000020Y-10758D01*
G37*
D10*
X992282Y0D02*
X990613Y12144D01*
X988646Y24243D01*
X986384Y36290D01*
X983826Y48278D01*
X980976Y60200D01*
X977834Y72048D01*
X974403Y83816D01*
X970685Y95496D01*
X966681Y107081D01*
X962394Y118565D01*
X957827Y129940D01*
X952983Y141200D01*
X947864Y152338D01*
X942474Y163347D01*
X936815Y174220D01*
X930892Y184952D01*
X924707Y195535D01*
X918265Y205963D01*
X911569Y216230D01*
X904623Y226330D01*
X897432Y236257D01*
X890000Y246004D01*
X882331Y255567D01*
X874430Y264938D01*
X866301Y274113D01*
X857950Y283086D01*
X849382Y291851D01*
X840601Y300404D01*
X831613Y308739D01*
X822424Y316851D01*
X813039Y324736D01*
X803463Y332388D01*
X793702Y339803D01*
X783763Y346977D01*
X773650Y353904D01*
X763371Y360582D01*
X752932Y367006D01*
X742338Y373172D01*
X731596Y379076D01*
X720712Y384715D01*
X709694Y390086D01*
X698547Y395185D01*
X687278Y400009D01*
X675895Y404556D01*
X664404Y408822D01*
X652811Y412806D01*
X641125Y416503D01*
X629351Y419914D01*
X617497Y423034D01*
X605570Y425863D01*
X593578Y428399D01*
X581527Y430640D01*
X569424Y432585D01*
X557278Y434233D01*
X545095Y435583D01*
X532882Y436633D01*
X520647Y437384D01*
X508398Y437835D01*
X496141Y437985D01*
X483884Y437835D01*
X471635Y437384D01*
X459400Y436633D01*
X447187Y435583D01*
X435004Y434233D01*
X422858Y432585D01*
X410755Y430640D01*
X398704Y428399D01*
X386712Y425863D01*
X374785Y423034D01*
X362931Y419914D01*
X351157Y416503D01*
X339471Y412806D01*
X327878Y408822D01*
X316387Y404556D01*
X305004Y400009D01*
X293735Y395185D01*
X282588Y390086D01*
X271570Y384715D01*
X260686Y379076D01*
X249944Y373172D01*
X239350Y367006D01*
X228911Y360582D01*
X218632Y353904D01*
X208519Y346977D01*
X198580Y339803D01*
X188819Y332388D01*
X179243Y324736D01*
X169858Y316851D01*
X160669Y308739D01*
X151681Y300404D01*
X142900Y291851D01*
X134332Y283086D01*
X125981Y274113D01*
X117852Y264938D01*
X109951Y255567D01*
X102282Y246004D01*
X94850Y236257D01*
X87659Y226330D01*
X80713Y216230D01*
X74017Y205963D01*
X67575Y195535D01*
X61390Y184952D01*
X55467Y174220D01*
X49808Y163347D01*
X44418Y152338D01*
X39299Y141200D01*
X34455Y129940D01*
X29888Y118565D01*
X25601Y107081D01*
X21597Y95496D01*
X17879Y83816D01*
X14448Y72048D01*
X11306Y60200D01*
X8456Y48278D01*
X5898Y36290D01*
X3636Y24243D01*
X1669Y12144D01*
X0Y0D01*
X933295Y30000D02*
X933298Y30207D01*
X933305Y30414D01*
X933318Y30620D01*
X933335Y30827D01*
X933358Y31032D01*
X933386Y31238D01*
X933418Y31442D01*
X933456Y31646D01*
X933498Y31848D01*
X933546Y32050D01*
X933598Y32250D01*
X933655Y32449D01*
X933717Y32646D01*
X933784Y32842D01*
X933856Y33036D01*
X933932Y33229D01*
X934013Y33419D01*
X934099Y33608D01*
X934189Y33794D01*
X934283Y33978D01*
X934383Y34160D01*
X934486Y34339D01*
X934594Y34516D01*
X934706Y34690D01*
X934822Y34861D01*
X934943Y35030D01*
X935067Y35195D01*
X935196Y35357D01*
X935328Y35516D01*
X935464Y35672D01*
X935604Y35825D01*
X935748Y35974D01*
X935895Y36119D01*
X936046Y36261D01*
X936200Y36399D01*
X936358Y36534D01*
X936518Y36664D01*
X936682Y36790D01*
X936849Y36913D01*
X937019Y37031D01*
X937192Y37146D01*
X937367Y37256D01*
X937545Y37361D01*
X937726Y37463D01*
X937908Y37559D01*
X938094Y37652D01*
X938281Y37740D01*
X938471Y37823D01*
X938662Y37902D01*
X938855Y37976D01*
X939051Y38045D01*
X939247Y38109D01*
X939445Y38169D01*
X939645Y38224D01*
X939846Y38274D01*
X940048Y38319D01*
X940251Y38359D01*
X940455Y38394D01*
X940660Y38424D01*
X940865Y38449D01*
X941071Y38469D01*
X941278Y38484D01*
X941485Y38494D01*
X941692Y38499D01*
X941898Y38499D01*
X942105Y38494D01*
X942312Y38484D01*
X942519Y38469D01*
X942725Y38449D01*
X942930Y38424D01*
X943135Y38394D01*
X943339Y38359D01*
X943542Y38319D01*
X943744Y38274D01*
X943945Y38224D01*
X944145Y38169D01*
X944343Y38109D01*
X944539Y38045D01*
X944735Y37976D01*
X944928Y37902D01*
X945119Y37823D01*
X945309Y37740D01*
X945496Y37652D01*
X945682Y37559D01*
X945864Y37463D01*
X946045Y37361D01*
X946223Y37256D01*
X946398Y37146D01*
X946571Y37031D01*
X946741Y36913D01*
X946908Y36790D01*
X947072Y36664D01*
X947232Y36534D01*
X947390Y36399D01*
X947544Y36261D01*
X947695Y36119D01*
X947842Y35974D01*
X947986Y35825D01*
X948126Y35672D01*
X948262Y35516D01*
X948394Y35357D01*
X948523Y35195D01*
X948647Y35030D01*
X948768Y34861D01*
X948884Y34690D01*
X948996Y34516D01*
X949104Y34339D01*
X949207Y34160D01*
X949307Y33978D01*
X949401Y33794D01*
X949491Y33608D01*
X949577Y33419D01*
X949658Y33229D01*
X949734Y33036D01*
X949806Y32842D01*
X949873Y32646D01*
X949935Y32449D01*
X949992Y32250D01*
X950044Y32050D01*
X950092Y31848D01*
X950134Y31646D01*
X950172Y31442D01*
X950204Y31238D01*
X950232Y31032D01*
X950255Y30827D01*
X950272Y30620D01*
X950285Y30414D01*
X950292Y30207D01*
X950295Y30000D01*
X891307Y0D02*
X889674Y9644D01*
X887804Y19246D01*
X885701Y28799D01*
X883365Y38297D01*
X880797Y47736D01*
X877999Y57109D01*
X874972Y66411D01*
X871719Y75636D01*
X868242Y84778D01*
X864542Y93833D01*
X860621Y102795D01*
X856483Y111658D01*
X852129Y120418D01*
X847562Y129068D01*
X842785Y137604D01*
X837801Y146020D01*
X832612Y154313D01*
X827223Y162476D01*
X821635Y170504D01*
X815852Y178394D01*
X809879Y186140D01*
X803717Y193737D01*
X797372Y201182D01*
X790847Y208469D01*
X784145Y215594D01*
X777271Y222553D01*
X770229Y229342D01*
X763023Y235957D01*
X755658Y242394D01*
X748137Y248649D01*
X740466Y254718D01*
X732648Y260597D01*
X724689Y266284D01*
X716594Y271774D01*
X708366Y277065D01*
X700012Y282153D01*
X691536Y287035D01*
X682942Y291708D01*
X674238Y296170D01*
X665426Y300418D01*
X656514Y304449D01*
X647505Y308260D01*
X638406Y311851D01*
X629222Y315217D01*
X619958Y318358D01*
X610621Y321272D01*
X601215Y323956D01*
X591746Y326410D01*
X582219Y328631D01*
X572642Y330619D01*
X563018Y332372D01*
X553355Y333889D01*
X543657Y335170D01*
X533931Y336212D01*
X524183Y337017D01*
X514417Y337583D01*
X504641Y337910D01*
X504641Y388000D02*
X504638Y388207D01*
X504631Y388414D01*
X504618Y388620D01*
X504601Y388827D01*
X504578Y389032D01*
X504550Y389238D01*
X504518Y389442D01*
X504480Y389646D01*
X504438Y389848D01*
X504390Y390050D01*
X504338Y390250D01*
X504281Y390449D01*
X504219Y390646D01*
X504152Y390842D01*
X504080Y391036D01*
X504004Y391229D01*
X503923Y391419D01*
X503837Y391608D01*
X503747Y391794D01*
X503653Y391978D01*
X503553Y392160D01*
X503450Y392339D01*
X503342Y392516D01*
X503230Y392690D01*
X503114Y392861D01*
X502993Y393030D01*
X502869Y393195D01*
X502740Y393357D01*
X502608Y393516D01*
X502472Y393672D01*
X502332Y393825D01*
X502188Y393974D01*
X502041Y394119D01*
X501890Y394261D01*
X501736Y394399D01*
X501578Y394534D01*
X501418Y394664D01*
X501254Y394790D01*
X501087Y394913D01*
X500917Y395031D01*
X500744Y395146D01*
X500569Y395256D01*
X500391Y395361D01*
X500210Y395463D01*
X500028Y395559D01*
X499842Y395652D01*
X499655Y395740D01*
X499465Y395823D01*
X499274Y395902D01*
X499081Y395976D01*
X498885Y396045D01*
X498689Y396109D01*
X498491Y396169D01*
X498291Y396224D01*
X498090Y396274D01*
X497888Y396319D01*
X497685Y396359D01*
X497481Y396394D01*
X497276Y396424D01*
X497071Y396449D01*
X496865Y396469D01*
X496658Y396484D01*
X496451Y396494D01*
X496244Y396499D01*
X496038Y396499D01*
X495831Y396494D01*
X495624Y396484D01*
X495417Y396469D01*
X495211Y396449D01*
X495006Y396424D01*
X494801Y396394D01*
X494597Y396359D01*
X494394Y396319D01*
X494192Y396274D01*
X493991Y396224D01*
X493791Y396169D01*
X493593Y396109D01*
X493397Y396045D01*
X493201Y395976D01*
X493008Y395902D01*
X492817Y395823D01*
X492627Y395740D01*
X492440Y395652D01*
X492254Y395559D01*
X492072Y395463D01*
X491891Y395361D01*
X491713Y395256D01*
X491538Y395146D01*
X491365Y395031D01*
X491195Y394913D01*
X491028Y394790D01*
X490864Y394664D01*
X490704Y394534D01*
X490546Y394399D01*
X490392Y394261D01*
X490241Y394119D01*
X490094Y393974D01*
X489950Y393825D01*
X489810Y393672D01*
X489674Y393516D01*
X489542Y393357D01*
X489413Y393195D01*
X489289Y393030D01*
X489168Y392861D01*
X489052Y392690D01*
X488940Y392516D01*
X488832Y392339D01*
X488729Y392160D01*
X488629Y391978D01*
X488535Y391794D01*
X488445Y391608D01*
X488359Y391419D01*
X488278Y391229D01*
X488202Y391036D01*
X488130Y390842D01*
X488063Y390646D01*
X488001Y390449D01*
X487944Y390250D01*
X487892Y390050D01*
X487844Y389848D01*
X487802Y389646D01*
X487764Y389442D01*
X487732Y389238D01*
X487704Y389032D01*
X487681Y388827D01*
X487664Y388620D01*
X487651Y388414D01*
X487644Y388207D01*
X487641Y388000D01*
X256500Y252910D02*
X256012Y252904D01*
X255525Y252886D01*
X255039Y252857D01*
X254553Y252815D01*
X254068Y252762D01*
X253585Y252697D01*
X253104Y252620D01*
X252625Y252531D01*
X252148Y252431D01*
X251673Y252319D01*
X251202Y252196D01*
X250733Y252061D01*
X250269Y251915D01*
X249807Y251757D01*
X249350Y251589D01*
X248897Y251409D01*
X248448Y251218D01*
X248005Y251016D01*
X247566Y250804D01*
X247133Y250581D01*
X246705Y250347D01*
X246283Y250104D01*
X245867Y249850D01*
X245457Y249585D01*
X245054Y249311D01*
X244658Y249028D01*
X244268Y248734D01*
X243887Y248431D01*
X243887Y248432D02*
X236380Y242178D01*
X229028Y235743D01*
X221836Y229131D01*
X214807Y222344D01*
X207945Y215388D01*
X201256Y208267D01*
X194743Y200984D01*
X188410Y193544D01*
X182260Y185952D01*
X176298Y178212D01*
X170526Y170328D01*
X164949Y162306D01*
X159569Y154150D01*
X154390Y145865D01*
X149415Y137456D01*
X144647Y128928D01*
X140089Y120287D01*
X135743Y111536D01*
X131612Y102682D01*
X127698Y93729D01*
X124005Y84684D01*
X120533Y75551D01*
X117286Y66336D01*
X114265Y57044D01*
X111471Y47682D01*
X108908Y38254D01*
X106575Y28766D01*
X104474Y19224D01*
X102608Y9634D01*
X100976Y0D01*
X58988Y30000D02*
X58985Y30207D01*
X58978Y30414D01*
X58965Y30620D01*
X58948Y30827D01*
X58925Y31032D01*
X58897Y31238D01*
X58865Y31442D01*
X58827Y31646D01*
X58785Y31848D01*
X58737Y32050D01*
X58685Y32250D01*
X58628Y32449D01*
X58566Y32646D01*
X58499Y32842D01*
X58427Y33036D01*
X58351Y33229D01*
X58270Y33419D01*
X58184Y33608D01*
X58094Y33794D01*
X58000Y33978D01*
X57900Y34160D01*
X57797Y34339D01*
X57689Y34516D01*
X57577Y34690D01*
X57461Y34861D01*
X57340Y35030D01*
X57216Y35195D01*
X57087Y35357D01*
X56955Y35516D01*
X56819Y35672D01*
X56679Y35825D01*
X56535Y35974D01*
X56388Y36119D01*
X56237Y36261D01*
X56083Y36399D01*
X55925Y36534D01*
X55765Y36664D01*
X55601Y36790D01*
X55434Y36913D01*
X55264Y37031D01*
X55091Y37146D01*
X54916Y37256D01*
X54738Y37361D01*
X54557Y37463D01*
X54375Y37559D01*
X54189Y37652D01*
X54002Y37740D01*
X53812Y37823D01*
X53621Y37902D01*
X53428Y37976D01*
X53232Y38045D01*
X53036Y38109D01*
X52838Y38169D01*
X52638Y38224D01*
X52437Y38274D01*
X52235Y38319D01*
X52032Y38359D01*
X51828Y38394D01*
X51623Y38424D01*
X51418Y38449D01*
X51212Y38469D01*
X51005Y38484D01*
X50798Y38494D01*
X50591Y38499D01*
X50385Y38499D01*
X50178Y38494D01*
X49971Y38484D01*
X49764Y38469D01*
X49558Y38449D01*
X49353Y38424D01*
X49148Y38394D01*
X48944Y38359D01*
X48741Y38319D01*
X48539Y38274D01*
X48338Y38224D01*
X48138Y38169D01*
X47940Y38109D01*
X47744Y38045D01*
X47548Y37976D01*
X47355Y37902D01*
X47164Y37823D01*
X46974Y37740D01*
X46787Y37652D01*
X46601Y37559D01*
X46419Y37463D01*
X46238Y37361D01*
X46060Y37256D01*
X45885Y37146D01*
X45712Y37031D01*
X45542Y36913D01*
X45375Y36790D01*
X45211Y36664D01*
X45051Y36534D01*
X44893Y36399D01*
X44739Y36261D01*
X44588Y36119D01*
X44441Y35974D01*
X44297Y35825D01*
X44157Y35672D01*
X44021Y35516D01*
X43889Y35357D01*
X43760Y35195D01*
X43636Y35030D01*
X43515Y34861D01*
X43399Y34690D01*
X43287Y34516D01*
X43179Y34339D01*
X43076Y34160D01*
X42976Y33978D01*
X42882Y33794D01*
X42792Y33608D01*
X42706Y33419D01*
X42625Y33229D01*
X42549Y33036D01*
X42477Y32842D01*
X42410Y32646D01*
X42348Y32449D01*
X42291Y32250D01*
X42239Y32050D01*
X42191Y31848D01*
X42149Y31646D01*
X42111Y31442D01*
X42079Y31238D01*
X42051Y31032D01*
X42028Y30827D01*
X42011Y30620D01*
X41998Y30414D01*
X41991Y30207D01*
X41988Y30000D01*
X950295Y0D02*
X992282Y0D01*
X990613Y12144D01*
X988646Y24243D01*
X986384Y36290D01*
X983826Y48278D01*
X980976Y60200D01*
X977834Y72048D01*
X974403Y83816D01*
X970685Y95496D01*
X966681Y107081D01*
X962394Y118565D01*
X957827Y129940D01*
X952983Y141200D01*
X947864Y152338D01*
X942474Y163347D01*
X936815Y174220D01*
X930892Y184952D01*
X924707Y195535D01*
X918265Y205963D01*
X911569Y216230D01*
X904623Y226330D01*
X897432Y236257D01*
X890000Y246004D01*
X882331Y255567D01*
X874430Y264938D01*
X866301Y274113D01*
X857950Y283086D01*
X849382Y291851D01*
X840601Y300404D01*
X831613Y308739D01*
X822424Y316851D01*
X813039Y324736D01*
X803463Y332388D01*
X793702Y339803D01*
X783763Y346977D01*
X773650Y353904D01*
X763371Y360582D01*
X752932Y367006D01*
X742338Y373172D01*
X731596Y379076D01*
X720712Y384715D01*
X709694Y390086D01*
X698547Y395185D01*
X687278Y400009D01*
X675895Y404556D01*
X664404Y408822D01*
X652811Y412806D01*
X641125Y416503D01*
X629351Y419914D01*
X617497Y423034D01*
X605570Y425863D01*
X593578Y428399D01*
X581527Y430640D01*
X569424Y432585D01*
X557278Y434233D01*
X545095Y435583D01*
X532882Y436633D01*
X520647Y437384D01*
X508398Y437835D01*
X496141Y437985D01*
X483884Y437835D01*
X471635Y437384D01*
X459400Y436633D01*
X447187Y435583D01*
X435004Y434233D01*
X422858Y432585D01*
X410755Y430640D01*
X398704Y428399D01*
X386712Y425863D01*
X374785Y423034D01*
X362931Y419914D01*
X351157Y416503D01*
X339471Y412806D01*
X327878Y408822D01*
X316387Y404556D01*
X305004Y400009D01*
X293735Y395185D01*
X282588Y390086D01*
X271570Y384715D01*
X260686Y379076D01*
X249944Y373172D01*
X239350Y367006D01*
X228911Y360582D01*
X218632Y353904D01*
X208519Y346977D01*
X198580Y339803D01*
X188819Y332388D01*
X179243Y324736D01*
X169858Y316851D01*
X160669Y308739D01*
X151681Y300404D01*
X142900Y291851D01*
X134332Y283086D01*
X125981Y274113D01*
X117852Y264938D01*
X109951Y255567D01*
X102282Y246004D01*
X94850Y236257D01*
X87659Y226330D01*
X80713Y216230D01*
X74017Y205963D01*
X67575Y195535D01*
X61390Y184952D01*
X55467Y174220D01*
X49808Y163347D01*
X44418Y152338D01*
X39299Y141200D01*
X34455Y129940D01*
X29888Y118565D01*
X25601Y107081D01*
X21597Y95496D01*
X17879Y83816D01*
X14448Y72048D01*
X11306Y60200D01*
X8456Y48278D01*
X5898Y36290D01*
X3636Y24243D01*
X1669Y12144D01*
X0Y0D01*
X41988Y0D01*
X41988Y30000D01*
X41991Y30207D01*
X41998Y30414D01*
X42011Y30620D01*
X42028Y30827D01*
X42051Y31032D01*
X42079Y31238D01*
X42111Y31442D01*
X42149Y31646D01*
X42191Y31848D01*
X42239Y32050D01*
X42291Y32250D01*
X42348Y32449D01*
X42410Y32646D01*
X42477Y32842D01*
X42549Y33036D01*
X42625Y33229D01*
X42706Y33419D01*
X42792Y33608D01*
X42882Y33794D01*
X42976Y33978D01*
X43076Y34160D01*
X43179Y34339D01*
X43287Y34516D01*
X43399Y34690D01*
X43515Y34861D01*
X43636Y35030D01*
X43760Y35195D01*
X43889Y35357D01*
X44021Y35516D01*
X44157Y35672D01*
X44297Y35825D01*
X44441Y35974D01*
X44588Y36119D01*
X44739Y36261D01*
X44893Y36399D01*
X45051Y36534D01*
X45211Y36664D01*
X45375Y36790D01*
X45542Y36913D01*
X45712Y37031D01*
X45885Y37146D01*
X46060Y37256D01*
X46238Y37361D01*
X46419Y37463D01*
X46601Y37559D01*
X46787Y37652D01*
X46974Y37740D01*
X47164Y37823D01*
X47355Y37902D01*
X47548Y37976D01*
X47744Y38045D01*
X47940Y38109D01*
X48138Y38169D01*
X48338Y38224D01*
X48539Y38274D01*
X48741Y38319D01*
X48944Y38359D01*
X49148Y38394D01*
X49353Y38424D01*
X49558Y38449D01*
X49764Y38469D01*
X49971Y38484D01*
X50178Y38494D01*
X50385Y38499D01*
X50591Y38499D01*
X50798Y38494D01*
X51005Y38484D01*
X51212Y38469D01*
X51418Y38449D01*
X51623Y38424D01*
X51828Y38394D01*
X52032Y38359D01*
X52235Y38319D01*
X52437Y38274D01*
X52638Y38224D01*
X52838Y38169D01*
X53036Y38109D01*
X53232Y38045D01*
X53428Y37976D01*
X53621Y37902D01*
X53812Y37823D01*
X54002Y37740D01*
X54189Y37652D01*
X54375Y37559D01*
X54557Y37463D01*
X54738Y37361D01*
X54916Y37256D01*
X55091Y37146D01*
X55264Y37031D01*
X55434Y36913D01*
X55601Y36790D01*
X55765Y36664D01*
X55925Y36534D01*
X56083Y36399D01*
X56237Y36261D01*
X56388Y36119D01*
X56535Y35974D01*
X56679Y35825D01*
X56819Y35672D01*
X56955Y35516D01*
X57087Y35357D01*
X57216Y35195D01*
X57340Y35030D01*
X57461Y34861D01*
X57577Y34690D01*
X57689Y34516D01*
X57797Y34339D01*
X57900Y34160D01*
X58000Y33978D01*
X58094Y33794D01*
X58184Y33608D01*
X58270Y33419D01*
X58351Y33229D01*
X58427Y33036D01*
X58499Y32842D01*
X58566Y32646D01*
X58628Y32449D01*
X58685Y32250D01*
X58737Y32050D01*
X58785Y31848D01*
X58827Y31646D01*
X58865Y31442D01*
X58897Y31238D01*
X58925Y31032D01*
X58948Y30827D01*
X58965Y30620D01*
X58978Y30414D01*
X58985Y30207D01*
X58988Y30000D01*
X58988Y0D01*
X100975Y0D01*
X100976Y0D02*
X102608Y9634D01*
X104474Y19224D01*
X106575Y28766D01*
X108908Y38254D01*
X111471Y47682D01*
X114265Y57044D01*
X117286Y66336D01*
X120533Y75551D01*
X124005Y84684D01*
X127698Y93729D01*
X131612Y102682D01*
X135743Y111536D01*
X140089Y120287D01*
X144647Y128928D01*
X149415Y137456D01*
X154390Y145865D01*
X159569Y154150D01*
X164949Y162306D01*
X170526Y170328D01*
X176298Y178212D01*
X182260Y185952D01*
X188410Y193544D01*
X194743Y200984D01*
X201256Y208267D01*
X207945Y215388D01*
X214807Y222344D01*
X221836Y229131D01*
X229028Y235743D01*
X236380Y242178D01*
X243887Y248432D01*
X243887Y248431D02*
X244268Y248734D01*
X244658Y249028D01*
X245054Y249311D01*
X245457Y249585D01*
X245867Y249850D01*
X246283Y250104D01*
X246705Y250347D01*
X247133Y250581D01*
X247566Y250804D01*
X248005Y251016D01*
X248448Y251218D01*
X248897Y251409D01*
X249350Y251589D01*
X249807Y251757D01*
X250269Y251915D01*
X250733Y252061D01*
X251202Y252196D01*
X251673Y252319D01*
X252148Y252431D01*
X252625Y252531D01*
X253104Y252620D01*
X253585Y252697D01*
X254068Y252762D01*
X254553Y252815D01*
X255039Y252857D01*
X255525Y252886D01*
X256012Y252904D01*
X256500Y252910D01*
X487641Y252910D01*
X487641Y388000D01*
X487644Y388207D01*
X487651Y388414D01*
X487664Y388620D01*
X487681Y388827D01*
X487704Y389032D01*
X487732Y389238D01*
X487764Y389442D01*
X487802Y389646D01*
X487844Y389848D01*
X487892Y390050D01*
X487944Y390250D01*
X488001Y390449D01*
X488063Y390646D01*
X488130Y390842D01*
X488202Y391036D01*
X488278Y391229D01*
X488359Y391419D01*
X488445Y391608D01*
X488535Y391794D01*
X488629Y391978D01*
X488729Y392160D01*
X488832Y392339D01*
X488940Y392516D01*
X489052Y392690D01*
X489168Y392861D01*
X489289Y393030D01*
X489413Y393195D01*
X489542Y393357D01*
X489674Y393516D01*
X489810Y393672D01*
X489950Y393825D01*
X490094Y393974D01*
X490241Y394119D01*
X490392Y394261D01*
X490546Y394399D01*
X490704Y394534D01*
X490864Y394664D01*
X491028Y394790D01*
X491195Y394913D01*
X491365Y395031D01*
X491538Y395146D01*
X491713Y395256D01*
X491891Y395361D01*
X492072Y395463D01*
X492254Y395559D01*
X492440Y395652D01*
X492627Y395740D01*
X492817Y395823D01*
X493008Y395902D01*
X493201Y395976D01*
X493397Y396045D01*
X493593Y396109D01*
X493791Y396169D01*
X493991Y396224D01*
X494192Y396274D01*
X494394Y396319D01*
X494597Y396359D01*
X494801Y396394D01*
X495006Y396424D01*
X495211Y396449D01*
X495417Y396469D01*
X495624Y396484D01*
X495831Y396494D01*
X496038Y396499D01*
X496244Y396499D01*
X496451Y396494D01*
X496658Y396484D01*
X496865Y396469D01*
X497071Y396449D01*
X497276Y396424D01*
X497481Y396394D01*
X497685Y396359D01*
X497888Y396319D01*
X498090Y396274D01*
X498291Y396224D01*
X498491Y396169D01*
X498689Y396109D01*
X498885Y396045D01*
X499081Y395976D01*
X499274Y395902D01*
X499465Y395823D01*
X499655Y395740D01*
X499842Y395652D01*
X500028Y395559D01*
X500210Y395463D01*
X500391Y395361D01*
X500569Y395256D01*
X500744Y395146D01*
X500917Y395031D01*
X501087Y394913D01*
X501254Y394790D01*
X501418Y394664D01*
X501578Y394534D01*
X501736Y394399D01*
X501890Y394261D01*
X502041Y394119D01*
X502188Y393974D01*
X502332Y393825D01*
X502472Y393672D01*
X502608Y393516D01*
X502740Y393357D01*
X502869Y393195D01*
X502993Y393030D01*
X503114Y392861D01*
X503230Y392690D01*
X503342Y392516D01*
X503450Y392339D01*
X503553Y392160D01*
X503653Y391978D01*
X503747Y391794D01*
X503837Y391608D01*
X503923Y391419D01*
X504004Y391229D01*
X504080Y391036D01*
X504152Y390842D01*
X504219Y390646D01*
X504281Y390449D01*
X504338Y390250D01*
X504390Y390050D01*
X504438Y389848D01*
X504480Y389646D01*
X504518Y389442D01*
X504550Y389238D01*
X504578Y389032D01*
X504601Y388827D01*
X504618Y388620D01*
X504631Y388414D01*
X504638Y388207D01*
X504641Y388000D01*
X504641Y337910D01*
X514417Y337583D01*
X524183Y337017D01*
X533931Y336212D01*
X543657Y335170D01*
X553355Y333889D01*
X563018Y332372D01*
X572642Y330619D01*
X582219Y328631D01*
X591746Y326410D01*
X601215Y323956D01*
X610621Y321272D01*
X619958Y318358D01*
X629222Y315217D01*
X638406Y311851D01*
X647505Y308260D01*
X656514Y304449D01*
X665426Y300418D01*
X674238Y296170D01*
X682942Y291708D01*
X691536Y287035D01*
X700012Y282153D01*
X708366Y277065D01*
X716594Y271774D01*
X724689Y266284D01*
X732648Y260597D01*
X740466Y254718D01*
X748137Y248649D01*
X755658Y242394D01*
X763023Y235957D01*
X770229Y229342D01*
X777271Y222553D01*
X784145Y215594D01*
X790847Y208469D01*
X797372Y201182D01*
X803717Y193737D01*
X809879Y186140D01*
X815852Y178394D01*
X821635Y170504D01*
X827223Y162476D01*
X832612Y154313D01*
X837801Y146020D01*
X842785Y137604D01*
X847562Y129068D01*
X852129Y120418D01*
X856483Y111658D01*
X860621Y102795D01*
X864542Y93833D01*
X868242Y84778D01*
X871719Y75636D01*
X874972Y66411D01*
X877999Y57109D01*
X880797Y47736D01*
X883365Y38297D01*
X885701Y28799D01*
X887804Y19246D01*
X889674Y9644D01*
X891307Y0D01*
X933295Y0D01*
X933295Y30000D01*
X933298Y30207D01*
X933305Y30414D01*
X933318Y30620D01*
X933335Y30827D01*
X933358Y31032D01*
X933386Y31238D01*
X933418Y31442D01*
X933456Y31646D01*
X933498Y31848D01*
X933546Y32050D01*
X933598Y32250D01*
X933655Y32449D01*
X933717Y32646D01*
X933784Y32842D01*
X933856Y33036D01*
X933932Y33229D01*
X934013Y33419D01*
X934099Y33608D01*
X934189Y33794D01*
X934283Y33978D01*
X934383Y34160D01*
X934486Y34339D01*
X934594Y34516D01*
X934706Y34690D01*
X934822Y34861D01*
X934943Y35030D01*
X935067Y35195D01*
X935196Y35357D01*
X935328Y35516D01*
X935464Y35672D01*
X935604Y35825D01*
X935748Y35974D01*
X935895Y36119D01*
X936046Y36261D01*
X936200Y36399D01*
X936358Y36534D01*
X936518Y36664D01*
X936682Y36790D01*
X936849Y36913D01*
X937019Y37031D01*
X937192Y37146D01*
X937367Y37256D01*
X937545Y37361D01*
X937726Y37463D01*
X937908Y37559D01*
X938094Y37652D01*
X938281Y37740D01*
X938471Y37823D01*
X938662Y37902D01*
X938855Y37976D01*
X939051Y38045D01*
X939247Y38109D01*
X939445Y38169D01*
X939645Y38224D01*
X939846Y38274D01*
X940048Y38319D01*
X940251Y38359D01*
X940455Y38394D01*
X940660Y38424D01*
X940865Y38449D01*
X941071Y38469D01*
X941278Y38484D01*
X941485Y38494D01*
X941692Y38499D01*
X941898Y38499D01*
X942105Y38494D01*
X942312Y38484D01*
X942519Y38469D01*
X942725Y38449D01*
X942930Y38424D01*
X943135Y38394D01*
X943339Y38359D01*
X943542Y38319D01*
X943744Y38274D01*
X943945Y38224D01*
X944145Y38169D01*
X944343Y38109D01*
X944539Y38045D01*
X944735Y37976D01*
X944928Y37902D01*
X945119Y37823D01*
X945309Y37740D01*
X945496Y37652D01*
X945682Y37559D01*
X945864Y37463D01*
X946045Y37361D01*
X946223Y37256D01*
X946398Y37146D01*
X946571Y37031D01*
X946741Y36913D01*
X946908Y36790D01*
X947072Y36664D01*
X947232Y36534D01*
X947390Y36399D01*
X947544Y36261D01*
X947695Y36119D01*
X947842Y35974D01*
X947986Y35825D01*
X948126Y35672D01*
X948262Y35516D01*
X948394Y35357D01*
X948523Y35195D01*
X948647Y35030D01*
X948768Y34861D01*
X948884Y34690D01*
X948996Y34516D01*
X949104Y34339D01*
X949207Y34160D01*
X949307Y33978D01*
X949401Y33794D01*
X949491Y33608D01*
X949577Y33419D01*
X949658Y33229D01*
X949734Y33036D01*
X949806Y32842D01*
X949873Y32646D01*
X949935Y32449D01*
X949992Y32250D01*
X950044Y32050D01*
X950092Y31848D01*
X950134Y31646D01*
X950172Y31442D01*
X950204Y31238D01*
X950232Y31032D01*
X950255Y30827D01*
X950272Y30620D01*
X950285Y30414D01*
X950292Y30207D01*
X950295Y30000D01*
X950295Y0D01*
D11*
X448540Y355300D03*
X473940Y380700D03*
X448540Y380700D03*
X473940Y355300D03*
D12*
X365351Y385252D03*
X302167Y361018D03*
X429091Y406143D03*
X493945Y412550D03*
X564644Y397229D03*
X245107Y326757D03*
X191666Y285253D03*
X145182Y236785D03*
X107328Y182747D03*
X629498Y381352D03*
X690177Y357675D03*
X751133Y326478D03*
X804854Y281910D03*
X849945Y237342D03*
X890305Y183582D03*
D13*
X83368Y131583D03*
X906326Y120680D03*
M02*
