G04 EAGLE Gerber RS-274X export*
G75*
%MOMM*%
%FSLAX34Y34*%
%LPD*%
%INBottom_Copper*%
%IPPOS*%
%AMOC8*
5,1,8,0,0,1.08239X$1,22.5*%
G01*
%ADD10C,0.000000*%
%ADD11C,0.177800*%
%ADD12C,1.700000*%
%ADD13R,0.806400X0.806400*%
%ADD14C,0.254000*%
%ADD15C,0.152400*%
%ADD16C,0.806400*%

G36*
X37478Y2544D02*
X37478Y2544D01*
X37508Y2542D01*
X37676Y2564D01*
X37845Y2581D01*
X37874Y2590D01*
X37904Y2594D01*
X38064Y2649D01*
X38227Y2699D01*
X38253Y2713D01*
X38282Y2723D01*
X38428Y2809D01*
X38577Y2890D01*
X38600Y2910D01*
X38626Y2925D01*
X38753Y3038D01*
X38883Y3148D01*
X38901Y3171D01*
X38924Y3192D01*
X39025Y3328D01*
X39131Y3461D01*
X39144Y3488D01*
X39162Y3512D01*
X39235Y3665D01*
X39312Y3817D01*
X39320Y3846D01*
X39333Y3873D01*
X39373Y4039D01*
X39418Y4202D01*
X39420Y4232D01*
X39427Y4261D01*
X39447Y4540D01*
X39447Y32520D01*
X41634Y37061D01*
X45574Y40203D01*
X50488Y41325D01*
X55401Y40203D01*
X59342Y37061D01*
X61528Y32520D01*
X61528Y4540D01*
X61531Y4510D01*
X61529Y4480D01*
X61551Y4311D01*
X61568Y4143D01*
X61577Y4114D01*
X61581Y4084D01*
X61636Y3923D01*
X61686Y3761D01*
X61701Y3734D01*
X61711Y3706D01*
X61796Y3560D01*
X61878Y3411D01*
X61898Y3387D01*
X61913Y3361D01*
X62026Y3235D01*
X62135Y3105D01*
X62159Y3086D01*
X62179Y3064D01*
X62315Y2963D01*
X62448Y2857D01*
X62476Y2843D01*
X62500Y2825D01*
X62653Y2753D01*
X62805Y2676D01*
X62834Y2668D01*
X62861Y2655D01*
X63026Y2615D01*
X63190Y2570D01*
X63220Y2567D01*
X63249Y2560D01*
X63528Y2541D01*
X97092Y2541D01*
X97166Y2548D01*
X97241Y2546D01*
X97365Y2568D01*
X97489Y2581D01*
X97561Y2603D01*
X97635Y2616D01*
X97751Y2662D01*
X97871Y2699D01*
X97937Y2735D01*
X98006Y2762D01*
X98111Y2830D01*
X98221Y2890D01*
X98279Y2939D01*
X98341Y2979D01*
X98431Y3067D01*
X98527Y3148D01*
X98573Y3206D01*
X98627Y3259D01*
X98697Y3362D01*
X98775Y3461D01*
X98809Y3528D01*
X98851Y3589D01*
X98899Y3705D01*
X98956Y3817D01*
X98976Y3889D01*
X99005Y3958D01*
X99052Y4163D01*
X99062Y4202D01*
X99063Y4213D01*
X99067Y4230D01*
X101324Y18620D01*
X110353Y54397D01*
X122617Y89198D01*
X138013Y122731D01*
X156412Y154715D01*
X177660Y184882D01*
X201578Y212978D01*
X227966Y238769D01*
X242022Y250190D01*
X242284Y250403D01*
X242285Y250403D01*
X245298Y252852D01*
X252616Y255451D01*
X256408Y255451D01*
X483101Y255451D01*
X483131Y255454D01*
X483161Y255452D01*
X483330Y255474D01*
X483499Y255491D01*
X483527Y255500D01*
X483557Y255504D01*
X483718Y255559D01*
X483880Y255609D01*
X483907Y255623D01*
X483935Y255633D01*
X484081Y255719D01*
X484231Y255800D01*
X484254Y255820D01*
X484280Y255835D01*
X484406Y255948D01*
X484536Y256058D01*
X484555Y256081D01*
X484577Y256102D01*
X484679Y256238D01*
X484784Y256371D01*
X484798Y256398D01*
X484816Y256422D01*
X484888Y256575D01*
X484965Y256727D01*
X484973Y256756D01*
X484986Y256783D01*
X485026Y256949D01*
X485072Y257112D01*
X485074Y257142D01*
X485081Y257171D01*
X485100Y257450D01*
X485100Y346020D01*
X485099Y346035D01*
X485100Y346050D01*
X485079Y346234D01*
X485060Y346417D01*
X485056Y346432D01*
X485054Y346447D01*
X484997Y346622D01*
X484942Y346799D01*
X484935Y346812D01*
X484930Y346827D01*
X484840Y346986D01*
X484751Y347149D01*
X484741Y347161D01*
X484733Y347174D01*
X484613Y347313D01*
X484493Y347455D01*
X484481Y347464D01*
X484471Y347476D01*
X484326Y347588D01*
X484180Y347703D01*
X484167Y347710D01*
X484155Y347719D01*
X483989Y347800D01*
X483824Y347884D01*
X483810Y347888D01*
X483796Y347894D01*
X483616Y347941D01*
X483439Y347990D01*
X483424Y347991D01*
X483409Y347995D01*
X483225Y348005D01*
X483041Y348018D01*
X483026Y348016D01*
X483011Y348017D01*
X482829Y347990D01*
X482645Y347966D01*
X482630Y347961D01*
X482615Y347959D01*
X482442Y347897D01*
X482267Y347837D01*
X482254Y347829D01*
X482240Y347824D01*
X482082Y347728D01*
X481922Y347635D01*
X481911Y347624D01*
X481898Y347617D01*
X481687Y347433D01*
X481133Y346879D01*
X479727Y345857D01*
X478178Y345068D01*
X476525Y344531D01*
X476439Y344517D01*
X476439Y354800D01*
X476436Y354830D01*
X476438Y354860D01*
X476416Y355029D01*
X476399Y355197D01*
X476390Y355226D01*
X476386Y355256D01*
X476368Y355309D01*
X476410Y355462D01*
X476413Y355492D01*
X476420Y355522D01*
X476439Y355800D01*
X476439Y366083D01*
X476525Y366069D01*
X478178Y365532D01*
X479727Y364743D01*
X481133Y363721D01*
X481687Y363167D01*
X481699Y363157D01*
X481709Y363145D01*
X481853Y363031D01*
X481997Y362914D01*
X482010Y362907D01*
X482022Y362897D01*
X482186Y362814D01*
X482350Y362727D01*
X482365Y362723D01*
X482378Y362716D01*
X482555Y362667D01*
X482733Y362615D01*
X482748Y362614D01*
X482763Y362610D01*
X482946Y362597D01*
X483131Y362581D01*
X483146Y362583D01*
X483161Y362582D01*
X483344Y362606D01*
X483528Y362627D01*
X483543Y362632D01*
X483557Y362634D01*
X483731Y362693D01*
X483908Y362751D01*
X483921Y362758D01*
X483935Y362763D01*
X484095Y362857D01*
X484255Y362948D01*
X484267Y362958D01*
X484280Y362965D01*
X484417Y363088D01*
X484557Y363210D01*
X484566Y363222D01*
X484577Y363232D01*
X484687Y363379D01*
X484800Y363526D01*
X484807Y363540D01*
X484816Y363552D01*
X484894Y363719D01*
X484976Y363885D01*
X484980Y363900D01*
X484986Y363914D01*
X485030Y364093D01*
X485076Y364272D01*
X485077Y364287D01*
X485081Y364302D01*
X485100Y364580D01*
X485100Y372857D01*
X485099Y372872D01*
X485100Y372887D01*
X485079Y373071D01*
X485060Y373254D01*
X485056Y373269D01*
X485054Y373284D01*
X484997Y373459D01*
X484942Y373636D01*
X484935Y373649D01*
X484930Y373663D01*
X484840Y373823D01*
X484751Y373986D01*
X484741Y373998D01*
X484734Y374011D01*
X484613Y374150D01*
X484493Y374291D01*
X484481Y374301D01*
X484471Y374312D01*
X484325Y374425D01*
X484180Y374540D01*
X484167Y374546D01*
X484155Y374556D01*
X483989Y374637D01*
X483824Y374721D01*
X483810Y374725D01*
X483796Y374731D01*
X483618Y374778D01*
X483439Y374827D01*
X483424Y374828D01*
X483409Y374832D01*
X483226Y374842D01*
X483041Y374855D01*
X483026Y374853D01*
X483011Y374854D01*
X482828Y374827D01*
X482645Y374803D01*
X482631Y374798D01*
X482615Y374796D01*
X482442Y374733D01*
X482267Y374674D01*
X482254Y374666D01*
X482240Y374661D01*
X482082Y374565D01*
X481922Y374471D01*
X481911Y374461D01*
X481898Y374453D01*
X481687Y374270D01*
X479619Y372201D01*
X475934Y370675D01*
X471946Y370675D01*
X468261Y372201D01*
X465441Y375021D01*
X463915Y378706D01*
X463915Y382694D01*
X465441Y386379D01*
X468261Y389199D01*
X471946Y390725D01*
X475998Y390725D01*
X476144Y390681D01*
X476151Y390680D01*
X476157Y390678D01*
X476350Y390662D01*
X476542Y390644D01*
X476549Y390645D01*
X476555Y390644D01*
X476749Y390666D01*
X476939Y390687D01*
X476945Y390689D01*
X476952Y390689D01*
X477135Y390749D01*
X477320Y390808D01*
X477326Y390811D01*
X477332Y390813D01*
X477499Y390907D01*
X477669Y391002D01*
X477674Y391006D01*
X477680Y391009D01*
X477825Y391136D01*
X477972Y391261D01*
X477976Y391267D01*
X477981Y391271D01*
X478158Y391487D01*
X480652Y395006D01*
X481800Y396626D01*
X483786Y399430D01*
X489559Y403160D01*
X496303Y404478D01*
X503055Y403196D01*
X508847Y399498D01*
X510080Y397779D01*
X510213Y397628D01*
X510340Y397482D01*
X510342Y397481D01*
X510344Y397479D01*
X510498Y397362D01*
X510658Y397240D01*
X510661Y397239D01*
X510662Y397238D01*
X510670Y397234D01*
X510906Y397111D01*
X776736Y281237D01*
X776904Y281184D01*
X777069Y281126D01*
X777098Y281121D01*
X777117Y281115D01*
X777168Y281109D01*
X777344Y281080D01*
X777738Y281042D01*
X777744Y281034D01*
X777836Y280943D01*
X777922Y280845D01*
X777978Y280803D01*
X778028Y280753D01*
X778136Y280682D01*
X778240Y280603D01*
X778321Y280561D01*
X778362Y280534D01*
X778407Y280516D01*
X778487Y280474D01*
X778496Y280470D01*
X778641Y280102D01*
X778721Y279946D01*
X778797Y279788D01*
X778815Y279764D01*
X778823Y279747D01*
X778856Y279707D01*
X778960Y279561D01*
X904862Y126963D01*
X904962Y126864D01*
X905056Y126759D01*
X905104Y126724D01*
X905146Y126682D01*
X905263Y126605D01*
X905376Y126521D01*
X905430Y126496D01*
X905480Y126463D01*
X905610Y126411D01*
X905738Y126351D01*
X905795Y126337D01*
X905851Y126315D01*
X905989Y126289D01*
X906126Y126256D01*
X906201Y126251D01*
X906243Y126243D01*
X906297Y126244D01*
X906404Y126236D01*
X907431Y126236D01*
X909473Y125390D01*
X911036Y123827D01*
X911882Y121785D01*
X911882Y119574D01*
X911036Y117532D01*
X909473Y115969D01*
X907431Y115123D01*
X905220Y115123D01*
X903178Y115969D01*
X901615Y117532D01*
X900769Y119574D01*
X900769Y121837D01*
X900773Y121847D01*
X900782Y121905D01*
X900798Y121960D01*
X900811Y122102D01*
X900833Y122242D01*
X900830Y122300D01*
X900835Y122358D01*
X900820Y122499D01*
X900813Y122641D01*
X900798Y122698D01*
X900792Y122755D01*
X900749Y122891D01*
X900714Y123028D01*
X900689Y123081D01*
X900671Y123136D01*
X900602Y123260D01*
X900540Y123388D01*
X900498Y123448D01*
X900477Y123485D01*
X900442Y123526D01*
X900378Y123615D01*
X774893Y275707D01*
X774801Y275798D01*
X774715Y275896D01*
X774659Y275939D01*
X774609Y275988D01*
X774501Y276059D01*
X774397Y276138D01*
X774373Y276151D01*
X774369Y276153D01*
X774355Y276160D01*
X774317Y276180D01*
X774276Y276207D01*
X774230Y276225D01*
X774150Y276267D01*
X509980Y391417D01*
X509941Y391430D01*
X509904Y391448D01*
X509751Y391491D01*
X509600Y391539D01*
X509559Y391544D01*
X509519Y391555D01*
X509361Y391566D01*
X509203Y391584D01*
X509162Y391580D01*
X509121Y391583D01*
X508963Y391562D01*
X508805Y391548D01*
X508765Y391536D01*
X508725Y391531D01*
X508574Y391479D01*
X508422Y391434D01*
X508386Y391415D01*
X508347Y391401D01*
X508210Y391321D01*
X508070Y391246D01*
X508038Y391220D01*
X508002Y391199D01*
X507884Y391093D01*
X507761Y390992D01*
X507736Y390960D01*
X507705Y390933D01*
X507610Y390805D01*
X507510Y390682D01*
X507491Y390645D01*
X507466Y390612D01*
X507399Y390469D01*
X507325Y390328D01*
X507314Y390288D01*
X507296Y390251D01*
X507258Y390097D01*
X507214Y389944D01*
X507211Y389903D01*
X507201Y389863D01*
X507182Y389584D01*
X507182Y342354D01*
X507183Y342345D01*
X507182Y342336D01*
X507203Y342147D01*
X507222Y341957D01*
X507224Y341948D01*
X507225Y341939D01*
X507283Y341757D01*
X507340Y341575D01*
X507344Y341567D01*
X507347Y341559D01*
X507441Y341391D01*
X507531Y341225D01*
X507537Y341218D01*
X507542Y341210D01*
X507665Y341066D01*
X507789Y340920D01*
X507796Y340914D01*
X507802Y340907D01*
X507952Y340790D01*
X508102Y340671D01*
X508110Y340667D01*
X508117Y340662D01*
X508288Y340577D01*
X508458Y340490D01*
X508467Y340488D01*
X508475Y340484D01*
X508660Y340434D01*
X508843Y340384D01*
X508852Y340383D01*
X508861Y340381D01*
X509139Y340356D01*
X523408Y340053D01*
X560599Y335789D01*
X597234Y328092D01*
X632996Y317029D01*
X667578Y302695D01*
X700680Y285214D01*
X732017Y264736D01*
X761318Y241439D01*
X788331Y215523D01*
X812823Y187212D01*
X834581Y156750D01*
X853419Y124401D01*
X869173Y90443D01*
X881709Y55169D01*
X890916Y18885D01*
X893215Y4230D01*
X893234Y4158D01*
X893244Y4084D01*
X893284Y3965D01*
X893316Y3844D01*
X893349Y3777D01*
X893373Y3706D01*
X893437Y3598D01*
X893492Y3485D01*
X893538Y3426D01*
X893575Y3361D01*
X893659Y3268D01*
X893736Y3169D01*
X893792Y3120D01*
X893842Y3064D01*
X893943Y2989D01*
X894037Y2907D01*
X894102Y2870D01*
X894162Y2825D01*
X894276Y2772D01*
X894385Y2710D01*
X894456Y2687D01*
X894524Y2655D01*
X894646Y2625D01*
X894765Y2587D01*
X894839Y2578D01*
X894912Y2560D01*
X895122Y2546D01*
X895162Y2541D01*
X895173Y2542D01*
X895190Y2541D01*
X928755Y2541D01*
X928785Y2544D01*
X928815Y2542D01*
X928983Y2564D01*
X929152Y2581D01*
X929181Y2590D01*
X929211Y2594D01*
X929371Y2649D01*
X929534Y2699D01*
X929560Y2713D01*
X929589Y2723D01*
X929735Y2809D01*
X929884Y2890D01*
X929907Y2910D01*
X929933Y2925D01*
X930060Y3038D01*
X930189Y3148D01*
X930208Y3171D01*
X930231Y3192D01*
X930332Y3328D01*
X930438Y3461D01*
X930451Y3488D01*
X930469Y3512D01*
X930542Y3665D01*
X930619Y3817D01*
X930627Y3846D01*
X930639Y3873D01*
X930680Y4039D01*
X930725Y4202D01*
X930727Y4232D01*
X930734Y4261D01*
X930754Y4540D01*
X930754Y32520D01*
X932941Y37061D01*
X936881Y40203D01*
X941795Y41325D01*
X946708Y40203D01*
X950649Y37061D01*
X952835Y32520D01*
X952835Y4540D01*
X952838Y4510D01*
X952836Y4480D01*
X952858Y4311D01*
X952875Y4143D01*
X952884Y4114D01*
X952888Y4084D01*
X952943Y3923D01*
X952993Y3761D01*
X953008Y3734D01*
X953018Y3706D01*
X953103Y3560D01*
X953185Y3411D01*
X953204Y3387D01*
X953220Y3361D01*
X953333Y3235D01*
X953442Y3105D01*
X953466Y3086D01*
X953486Y3064D01*
X953622Y2963D01*
X953755Y2857D01*
X953782Y2843D01*
X953807Y2825D01*
X953960Y2753D01*
X954111Y2676D01*
X954141Y2668D01*
X954168Y2655D01*
X954333Y2615D01*
X954496Y2570D01*
X954527Y2567D01*
X954556Y2560D01*
X954835Y2541D01*
X987025Y2541D01*
X987201Y2558D01*
X987376Y2572D01*
X987399Y2578D01*
X987423Y2581D01*
X987591Y2633D01*
X987761Y2681D01*
X987782Y2692D01*
X987804Y2699D01*
X987960Y2784D01*
X988116Y2864D01*
X988134Y2879D01*
X988155Y2890D01*
X988290Y3004D01*
X988427Y3114D01*
X988442Y3133D01*
X988460Y3148D01*
X988570Y3286D01*
X988682Y3421D01*
X988694Y3442D01*
X988708Y3461D01*
X988788Y3618D01*
X988872Y3773D01*
X988879Y3796D01*
X988889Y3817D01*
X988936Y3987D01*
X988987Y4155D01*
X988990Y4179D01*
X988996Y4202D01*
X989008Y4377D01*
X989025Y4553D01*
X989023Y4582D01*
X989024Y4600D01*
X989017Y4651D01*
X989003Y4831D01*
X986590Y21212D01*
X986579Y21257D01*
X986567Y21341D01*
X977430Y63788D01*
X977413Y63841D01*
X977385Y63958D01*
X964567Y105443D01*
X964546Y105494D01*
X964508Y105608D01*
X948107Y145811D01*
X948081Y145860D01*
X948034Y145970D01*
X928176Y184583D01*
X928146Y184629D01*
X928089Y184735D01*
X904927Y221461D01*
X904893Y221505D01*
X904827Y221605D01*
X878539Y256162D01*
X878501Y256202D01*
X878427Y256297D01*
X849213Y288419D01*
X849172Y288457D01*
X849090Y288544D01*
X817177Y317985D01*
X817132Y318019D01*
X817043Y318098D01*
X782674Y344633D01*
X782627Y344663D01*
X782531Y344734D01*
X745971Y368158D01*
X745922Y368183D01*
X745820Y368246D01*
X707350Y388379D01*
X707298Y388400D01*
X707191Y388453D01*
X667106Y405141D01*
X667053Y405157D01*
X666942Y405201D01*
X625549Y418315D01*
X625495Y418327D01*
X625380Y418361D01*
X582999Y427801D01*
X582944Y427807D01*
X582826Y427831D01*
X539781Y433524D01*
X539726Y433526D01*
X539607Y433539D01*
X496229Y435442D01*
X496173Y435439D01*
X496054Y435442D01*
X452675Y433539D01*
X452620Y433532D01*
X452501Y433524D01*
X409456Y427831D01*
X409402Y427818D01*
X409283Y427801D01*
X366902Y418361D01*
X366849Y418343D01*
X366733Y418315D01*
X325341Y405201D01*
X325290Y405179D01*
X325176Y405141D01*
X285091Y388453D01*
X285042Y388427D01*
X284933Y388379D01*
X246462Y368246D01*
X246416Y368215D01*
X246311Y368158D01*
X209751Y344734D01*
X209708Y344700D01*
X209608Y344633D01*
X175240Y318098D01*
X175199Y318060D01*
X175106Y317985D01*
X143192Y288544D01*
X143156Y288502D01*
X143069Y288419D01*
X113856Y256297D01*
X113822Y256252D01*
X113744Y256162D01*
X87455Y221605D01*
X87426Y221558D01*
X87355Y221461D01*
X64193Y184735D01*
X64168Y184685D01*
X64106Y184583D01*
X44248Y145970D01*
X44228Y145918D01*
X44175Y145811D01*
X27774Y105608D01*
X27758Y105555D01*
X27715Y105443D01*
X14897Y63958D01*
X14886Y63903D01*
X14852Y63788D01*
X5715Y21341D01*
X5710Y21295D01*
X5692Y21212D01*
X3279Y4831D01*
X3271Y4654D01*
X3258Y4480D01*
X3261Y4456D01*
X3260Y4432D01*
X3287Y4258D01*
X3310Y4084D01*
X3318Y4061D01*
X3322Y4038D01*
X3383Y3872D01*
X3440Y3706D01*
X3452Y3685D01*
X3460Y3663D01*
X3553Y3513D01*
X3642Y3361D01*
X3658Y3344D01*
X3670Y3323D01*
X3791Y3195D01*
X3908Y3064D01*
X3928Y3050D01*
X3944Y3032D01*
X4088Y2930D01*
X4229Y2825D01*
X4250Y2815D01*
X4270Y2801D01*
X4431Y2730D01*
X4590Y2655D01*
X4613Y2649D01*
X4635Y2640D01*
X4807Y2602D01*
X4978Y2560D01*
X5007Y2558D01*
X5025Y2554D01*
X5076Y2553D01*
X5257Y2541D01*
X37448Y2541D01*
X37478Y2544D01*
G37*
%LPC*%
G36*
X82262Y126026D02*
X82262Y126026D01*
X80220Y126872D01*
X78657Y128435D01*
X77811Y130478D01*
X77811Y132688D01*
X78657Y134731D01*
X80220Y136294D01*
X82262Y137140D01*
X83596Y137140D01*
X83702Y137150D01*
X83809Y137151D01*
X83901Y137170D01*
X83994Y137180D01*
X84096Y137211D01*
X84200Y137233D01*
X84286Y137270D01*
X84375Y137298D01*
X84469Y137349D01*
X84567Y137391D01*
X84644Y137444D01*
X84726Y137489D01*
X84807Y137558D01*
X84895Y137619D01*
X84988Y137711D01*
X85031Y137747D01*
X85053Y137774D01*
X85094Y137815D01*
X228348Y299776D01*
X228442Y299906D01*
X228540Y300032D01*
X228563Y300075D01*
X228581Y300100D01*
X228605Y300152D01*
X228673Y300278D01*
X228853Y300677D01*
X228954Y300727D01*
X229087Y300784D01*
X229132Y300816D01*
X229181Y300840D01*
X229296Y300929D01*
X229415Y301012D01*
X229464Y301061D01*
X229496Y301085D01*
X229532Y301127D01*
X229592Y301186D01*
X230027Y301213D01*
X230185Y301238D01*
X230344Y301258D01*
X230391Y301272D01*
X230421Y301277D01*
X230475Y301297D01*
X230612Y301338D01*
X437223Y379411D01*
X437285Y379442D01*
X437350Y379464D01*
X437463Y379531D01*
X437580Y379589D01*
X437635Y379631D01*
X437695Y379666D01*
X437792Y379754D01*
X437896Y379834D01*
X437941Y379887D01*
X437992Y379933D01*
X438070Y380038D01*
X438156Y380137D01*
X438189Y380198D01*
X438231Y380253D01*
X438286Y380372D01*
X438350Y380486D01*
X438371Y380552D01*
X438401Y380615D01*
X438432Y380742D01*
X438472Y380867D01*
X438479Y380935D01*
X438496Y381003D01*
X438512Y381234D01*
X438515Y381264D01*
X438515Y381271D01*
X438515Y381281D01*
X438515Y382694D01*
X440041Y386379D01*
X442861Y389199D01*
X446546Y390725D01*
X450534Y390725D01*
X454219Y389199D01*
X457039Y386379D01*
X458565Y382694D01*
X458565Y378706D01*
X457039Y375021D01*
X454219Y372201D01*
X450534Y370675D01*
X446546Y370675D01*
X442861Y372201D01*
X441332Y373731D01*
X441327Y373735D01*
X441323Y373740D01*
X441173Y373861D01*
X441023Y373984D01*
X441017Y373987D01*
X441012Y373991D01*
X440840Y374080D01*
X440669Y374170D01*
X440663Y374172D01*
X440658Y374175D01*
X440472Y374228D01*
X440286Y374282D01*
X440280Y374283D01*
X440274Y374285D01*
X440082Y374300D01*
X439888Y374316D01*
X439882Y374316D01*
X439876Y374316D01*
X439684Y374293D01*
X439491Y374270D01*
X439485Y374268D01*
X439479Y374268D01*
X439212Y374187D01*
X233019Y296273D01*
X232889Y296208D01*
X232756Y296150D01*
X232711Y296119D01*
X232662Y296095D01*
X232547Y296006D01*
X232428Y295923D01*
X232378Y295874D01*
X232347Y295849D01*
X232311Y295808D01*
X232229Y295727D01*
X89426Y134276D01*
X89318Y134126D01*
X89209Y133979D01*
X89202Y133965D01*
X89193Y133952D01*
X89117Y133783D01*
X89039Y133618D01*
X89035Y133602D01*
X89028Y133588D01*
X88987Y133408D01*
X88944Y133230D01*
X88942Y133211D01*
X88940Y133198D01*
X88939Y133155D01*
X88924Y132951D01*
X88924Y130478D01*
X88078Y128435D01*
X86515Y126872D01*
X84473Y126026D01*
X82262Y126026D01*
G37*
%LPD*%
%LPC*%
G36*
X375066Y267731D02*
X375066Y267731D01*
X374344Y268092D01*
X374342Y268093D01*
X374340Y268094D01*
X374082Y268201D01*
X373321Y268455D01*
X373293Y268490D01*
X373219Y268553D01*
X373207Y268565D01*
X372952Y269331D01*
X372951Y269333D01*
X372951Y269335D01*
X372844Y269593D01*
X372485Y270311D01*
X372490Y270355D01*
X372482Y270452D01*
X372484Y270548D01*
X372466Y270650D01*
X372457Y270753D01*
X372423Y270886D01*
X372413Y270941D01*
X372401Y270972D01*
X372388Y271024D01*
X369200Y280589D01*
X369198Y280592D01*
X369197Y280596D01*
X369116Y280775D01*
X369036Y280953D01*
X369034Y280956D01*
X369032Y280960D01*
X368916Y281120D01*
X368803Y281278D01*
X368800Y281280D01*
X368798Y281284D01*
X368654Y281416D01*
X368511Y281549D01*
X368507Y281552D01*
X368504Y281554D01*
X368336Y281656D01*
X368170Y281758D01*
X368166Y281759D01*
X368162Y281761D01*
X367979Y281827D01*
X367794Y281894D01*
X367790Y281895D01*
X367786Y281896D01*
X367592Y281925D01*
X367399Y281953D01*
X367395Y281953D01*
X367391Y281954D01*
X367191Y281942D01*
X367001Y281933D01*
X366997Y281932D01*
X366992Y281931D01*
X366800Y281881D01*
X366614Y281833D01*
X366610Y281831D01*
X366606Y281830D01*
X366431Y281744D01*
X366254Y281659D01*
X366251Y281656D01*
X366247Y281654D01*
X366095Y281537D01*
X365937Y281416D01*
X365934Y281413D01*
X365931Y281411D01*
X365742Y281205D01*
X365217Y280549D01*
X363704Y280381D01*
X363587Y280356D01*
X363468Y280340D01*
X363392Y280314D01*
X363313Y280297D01*
X363204Y280250D01*
X363090Y280211D01*
X363021Y280170D01*
X362947Y280138D01*
X362849Y280069D01*
X362746Y280009D01*
X362686Y279955D01*
X362620Y279909D01*
X362538Y279822D01*
X362448Y279742D01*
X362400Y279678D01*
X362345Y279619D01*
X362281Y279518D01*
X362210Y279422D01*
X362175Y279349D01*
X362133Y279281D01*
X362091Y279169D01*
X362040Y279060D01*
X362021Y278982D01*
X361992Y278907D01*
X361973Y278789D01*
X361945Y278672D01*
X361937Y278565D01*
X361929Y278512D01*
X361931Y278469D01*
X361925Y278394D01*
X361925Y274805D01*
X361928Y274774D01*
X361926Y274744D01*
X361948Y274576D01*
X361965Y274407D01*
X361974Y274378D01*
X361978Y274348D01*
X362033Y274188D01*
X362083Y274026D01*
X362098Y273999D01*
X362108Y273970D01*
X362193Y273824D01*
X362275Y273675D01*
X362294Y273652D01*
X362310Y273626D01*
X362423Y273500D01*
X362532Y273370D01*
X362556Y273351D01*
X362576Y273328D01*
X362712Y273227D01*
X362845Y273122D01*
X362872Y273108D01*
X362897Y273090D01*
X363050Y273018D01*
X363201Y272941D01*
X363231Y272933D01*
X363258Y272920D01*
X363423Y272879D01*
X363586Y272834D01*
X363617Y272832D01*
X363646Y272825D01*
X363925Y272805D01*
X364956Y272805D01*
X366370Y271391D01*
X366370Y269392D01*
X364956Y267978D01*
X354067Y267978D01*
X353454Y268591D01*
X353431Y268610D01*
X353411Y268633D01*
X353276Y268736D01*
X353145Y268843D01*
X353118Y268857D01*
X353094Y268876D01*
X352942Y268951D01*
X352792Y269030D01*
X352762Y269038D01*
X352735Y269051D01*
X352571Y269094D01*
X352408Y269142D01*
X352378Y269145D01*
X352349Y269152D01*
X352180Y269161D01*
X352010Y269176D01*
X351980Y269172D01*
X351950Y269174D01*
X351782Y269150D01*
X351613Y269130D01*
X351585Y269121D01*
X351555Y269116D01*
X351395Y269059D01*
X351234Y269006D01*
X351207Y268991D01*
X351179Y268981D01*
X351034Y268893D01*
X350886Y268809D01*
X350863Y268789D01*
X350837Y268774D01*
X350627Y268591D01*
X350014Y267978D01*
X347125Y267978D01*
X345127Y269976D01*
X345077Y270017D01*
X345032Y270065D01*
X344923Y270143D01*
X344818Y270229D01*
X344760Y270259D01*
X344707Y270297D01*
X344584Y270352D01*
X344465Y270415D01*
X344402Y270434D01*
X344342Y270460D01*
X344211Y270490D01*
X344081Y270528D01*
X344016Y270533D01*
X343953Y270547D01*
X343818Y270550D01*
X343683Y270561D01*
X343618Y270554D01*
X343553Y270555D01*
X343421Y270531D01*
X343287Y270516D01*
X343225Y270495D01*
X343160Y270484D01*
X343035Y270434D01*
X342907Y270392D01*
X342850Y270360D01*
X342789Y270335D01*
X342576Y270204D01*
X342559Y270195D01*
X342556Y270192D01*
X342551Y270189D01*
X339456Y267978D01*
X335800Y267978D01*
X332826Y270102D01*
X332321Y271574D01*
X332303Y271613D01*
X332227Y271801D01*
X331568Y273154D01*
X330769Y276616D01*
X330769Y280169D01*
X331568Y283632D01*
X331628Y283754D01*
X331629Y283757D01*
X331631Y283760D01*
X331698Y283944D01*
X331766Y284129D01*
X331767Y284132D01*
X331768Y284135D01*
X331773Y284165D01*
X331795Y284197D01*
X331861Y284276D01*
X331930Y284396D01*
X331961Y284443D01*
X331974Y284472D01*
X332000Y284518D01*
X332227Y284984D01*
X332242Y285025D01*
X332321Y285212D01*
X332826Y286683D01*
X335800Y288807D01*
X339456Y288807D01*
X342430Y286683D01*
X342934Y285212D01*
X342953Y285172D01*
X343028Y284984D01*
X343688Y283632D01*
X344487Y280169D01*
X344487Y276616D01*
X344378Y276143D01*
X344370Y276087D01*
X344355Y276032D01*
X344345Y275889D01*
X344327Y275747D01*
X344331Y275690D01*
X344327Y275633D01*
X344346Y275491D01*
X344356Y275349D01*
X344372Y275294D01*
X344379Y275237D01*
X344426Y275102D01*
X344464Y274964D01*
X344490Y274913D01*
X344509Y274859D01*
X344581Y274736D01*
X344646Y274609D01*
X344682Y274564D01*
X344711Y274515D01*
X344806Y274408D01*
X344896Y274296D01*
X344939Y274260D01*
X344977Y274217D01*
X345092Y274132D01*
X345202Y274040D01*
X345252Y274013D01*
X345298Y273979D01*
X345427Y273918D01*
X345553Y273850D01*
X345607Y273833D01*
X345659Y273809D01*
X345798Y273775D01*
X345935Y273733D01*
X345992Y273727D01*
X346047Y273714D01*
X346326Y273694D01*
X350014Y273694D01*
X351071Y272637D01*
X351095Y272618D01*
X351114Y272595D01*
X351249Y272492D01*
X351380Y272384D01*
X351407Y272370D01*
X351431Y272352D01*
X351584Y272277D01*
X351734Y272198D01*
X351763Y272190D01*
X351790Y272176D01*
X351954Y272133D01*
X352117Y272086D01*
X352147Y272083D01*
X352177Y272076D01*
X352345Y272066D01*
X352515Y272052D01*
X352545Y272055D01*
X352575Y272054D01*
X352743Y272078D01*
X352912Y272098D01*
X352941Y272107D01*
X352971Y272111D01*
X353131Y272169D01*
X353292Y272222D01*
X353318Y272236D01*
X353346Y272247D01*
X353492Y272335D01*
X353639Y272418D01*
X353662Y272438D01*
X353688Y272454D01*
X353899Y272637D01*
X354067Y272805D01*
X355099Y272805D01*
X355129Y272808D01*
X355159Y272806D01*
X355327Y272828D01*
X355496Y272845D01*
X355525Y272854D01*
X355555Y272858D01*
X355715Y272913D01*
X355878Y272963D01*
X355904Y272978D01*
X355933Y272988D01*
X356079Y273073D01*
X356228Y273155D01*
X356251Y273174D01*
X356277Y273190D01*
X356404Y273303D01*
X356533Y273412D01*
X356552Y273436D01*
X356575Y273456D01*
X356676Y273592D01*
X356782Y273725D01*
X356795Y273752D01*
X356813Y273777D01*
X356885Y273930D01*
X356962Y274081D01*
X356971Y274111D01*
X356983Y274138D01*
X357024Y274303D01*
X357069Y274466D01*
X357071Y274497D01*
X357078Y274526D01*
X357098Y274805D01*
X357098Y286149D01*
X357092Y286203D01*
X357086Y286370D01*
X356985Y287280D01*
X357632Y287927D01*
X357666Y287969D01*
X357779Y288092D01*
X358351Y288807D01*
X358352Y288807D01*
X359267Y288807D01*
X359321Y288813D01*
X359488Y288820D01*
X360397Y288921D01*
X360398Y288920D01*
X361045Y288273D01*
X361087Y288239D01*
X361210Y288126D01*
X364112Y285804D01*
X364147Y285782D01*
X364177Y285754D01*
X364314Y285674D01*
X364447Y285587D01*
X364486Y285572D01*
X364521Y285551D01*
X364671Y285499D01*
X364819Y285441D01*
X364860Y285434D01*
X364899Y285420D01*
X365056Y285399D01*
X365212Y285372D01*
X365254Y285373D01*
X365295Y285367D01*
X365453Y285378D01*
X365612Y285382D01*
X365652Y285391D01*
X365693Y285394D01*
X365846Y285436D01*
X366001Y285471D01*
X366039Y285489D01*
X366078Y285499D01*
X366220Y285571D01*
X366365Y285636D01*
X366398Y285661D01*
X366435Y285679D01*
X366560Y285777D01*
X366688Y285871D01*
X366716Y285901D01*
X366749Y285926D01*
X366851Y286047D01*
X366959Y286164D01*
X366980Y286200D01*
X367007Y286231D01*
X367149Y286471D01*
X368097Y288367D01*
X369994Y289000D01*
X371783Y288105D01*
X373246Y283714D01*
X373294Y283607D01*
X373296Y283601D01*
X373299Y283596D01*
X373310Y283572D01*
X373368Y283426D01*
X373392Y283389D01*
X373410Y283350D01*
X373501Y283223D01*
X373587Y283091D01*
X373617Y283060D01*
X373642Y283025D01*
X373757Y282919D01*
X373867Y282807D01*
X373903Y282783D01*
X373935Y282753D01*
X374069Y282672D01*
X374199Y282584D01*
X374239Y282568D01*
X374276Y282545D01*
X374423Y282492D01*
X374568Y282432D01*
X374611Y282424D01*
X374651Y282409D01*
X374806Y282386D01*
X374960Y282356D01*
X375004Y282356D01*
X375046Y282350D01*
X375202Y282358D01*
X375360Y282359D01*
X375402Y282368D01*
X375445Y282370D01*
X375597Y282409D01*
X375750Y282442D01*
X375790Y282459D01*
X375832Y282470D01*
X375973Y282538D01*
X376117Y282601D01*
X376152Y282625D01*
X376191Y282644D01*
X376316Y282740D01*
X376445Y282829D01*
X376474Y282860D01*
X376509Y282887D01*
X376612Y283005D01*
X376720Y283118D01*
X376743Y283155D01*
X376772Y283187D01*
X376849Y283324D01*
X376933Y283456D01*
X376953Y283506D01*
X376970Y283534D01*
X376987Y283588D01*
X377039Y283714D01*
X378503Y288105D01*
X380292Y289000D01*
X382189Y288367D01*
X383083Y286579D01*
X377898Y271024D01*
X377875Y270923D01*
X377843Y270824D01*
X377831Y270728D01*
X377810Y270634D01*
X377808Y270531D01*
X377796Y270428D01*
X377803Y270332D01*
X377803Y270315D01*
X377442Y269593D01*
X377441Y269591D01*
X377440Y269589D01*
X377334Y269331D01*
X377080Y268569D01*
X377044Y268541D01*
X376982Y268468D01*
X376970Y268456D01*
X376204Y268201D01*
X376202Y268200D01*
X376200Y268200D01*
X375942Y268092D01*
X375224Y267734D01*
X375179Y267739D01*
X375083Y267731D01*
X375066Y267731D01*
G37*
%LPD*%
%LPC*%
G36*
X446546Y345275D02*
X446546Y345275D01*
X442861Y346801D01*
X440041Y349621D01*
X438515Y353306D01*
X438515Y357294D01*
X440041Y360979D01*
X442861Y363799D01*
X446546Y365325D01*
X450534Y365325D01*
X454219Y363799D01*
X457039Y360979D01*
X458565Y357294D01*
X458565Y353306D01*
X457039Y349621D01*
X454219Y346801D01*
X450534Y345275D01*
X446546Y345275D01*
G37*
%LPD*%
%LPC*%
G36*
X463157Y357799D02*
X463157Y357799D01*
X463171Y357885D01*
X463708Y359538D01*
X464497Y361087D01*
X465519Y362493D01*
X466747Y363721D01*
X468153Y364743D01*
X469702Y365532D01*
X471355Y366069D01*
X471441Y366083D01*
X471441Y357799D01*
X463157Y357799D01*
G37*
%LPD*%
%LPC*%
G36*
X471355Y344531D02*
X471355Y344531D01*
X469702Y345068D01*
X468153Y345857D01*
X466747Y346879D01*
X465519Y348107D01*
X464497Y349513D01*
X463708Y351062D01*
X463171Y352715D01*
X463157Y352801D01*
X471441Y352801D01*
X471441Y344517D01*
X471355Y344531D01*
G37*
%LPD*%
D10*
X992282Y0D02*
X990613Y12144D01*
X988646Y24243D01*
X986384Y36290D01*
X983826Y48278D01*
X980976Y60200D01*
X977834Y72048D01*
X974403Y83816D01*
X970685Y95496D01*
X966681Y107081D01*
X962394Y118565D01*
X957827Y129940D01*
X952983Y141200D01*
X947864Y152338D01*
X942474Y163347D01*
X936815Y174220D01*
X930892Y184952D01*
X924707Y195535D01*
X918265Y205963D01*
X911569Y216230D01*
X904623Y226330D01*
X897432Y236257D01*
X890000Y246004D01*
X882331Y255567D01*
X874430Y264938D01*
X866301Y274113D01*
X857950Y283086D01*
X849382Y291851D01*
X840601Y300404D01*
X831613Y308739D01*
X822424Y316851D01*
X813039Y324736D01*
X803463Y332388D01*
X793702Y339803D01*
X783763Y346977D01*
X773650Y353904D01*
X763371Y360582D01*
X752932Y367006D01*
X742338Y373172D01*
X731596Y379076D01*
X720712Y384715D01*
X709694Y390086D01*
X698547Y395185D01*
X687278Y400009D01*
X675895Y404556D01*
X664404Y408822D01*
X652811Y412806D01*
X641125Y416503D01*
X629351Y419914D01*
X617497Y423034D01*
X605570Y425863D01*
X593578Y428399D01*
X581527Y430640D01*
X569424Y432585D01*
X557278Y434233D01*
X545095Y435583D01*
X532882Y436633D01*
X520647Y437384D01*
X508398Y437835D01*
X496141Y437985D01*
X483884Y437835D01*
X471635Y437384D01*
X459400Y436633D01*
X447187Y435583D01*
X435004Y434233D01*
X422858Y432585D01*
X410755Y430640D01*
X398704Y428399D01*
X386712Y425863D01*
X374785Y423034D01*
X362931Y419914D01*
X351157Y416503D01*
X339471Y412806D01*
X327878Y408822D01*
X316387Y404556D01*
X305004Y400009D01*
X293735Y395185D01*
X282588Y390086D01*
X271570Y384715D01*
X260686Y379076D01*
X249944Y373172D01*
X239350Y367006D01*
X228911Y360582D01*
X218632Y353904D01*
X208519Y346977D01*
X198580Y339803D01*
X188819Y332388D01*
X179243Y324736D01*
X169858Y316851D01*
X160669Y308739D01*
X151681Y300404D01*
X142900Y291851D01*
X134332Y283086D01*
X125981Y274113D01*
X117852Y264938D01*
X109951Y255567D01*
X102282Y246004D01*
X94850Y236257D01*
X87659Y226330D01*
X80713Y216230D01*
X74017Y205963D01*
X67575Y195535D01*
X61390Y184952D01*
X55467Y174220D01*
X49808Y163347D01*
X44418Y152338D01*
X39299Y141200D01*
X34455Y129940D01*
X29888Y118565D01*
X25601Y107081D01*
X21597Y95496D01*
X17879Y83816D01*
X14448Y72048D01*
X11306Y60200D01*
X8456Y48278D01*
X5898Y36290D01*
X3636Y24243D01*
X1669Y12144D01*
X0Y0D01*
X933295Y30000D02*
X933298Y30207D01*
X933305Y30414D01*
X933318Y30620D01*
X933335Y30827D01*
X933358Y31032D01*
X933386Y31238D01*
X933418Y31442D01*
X933456Y31646D01*
X933498Y31848D01*
X933546Y32050D01*
X933598Y32250D01*
X933655Y32449D01*
X933717Y32646D01*
X933784Y32842D01*
X933856Y33036D01*
X933932Y33229D01*
X934013Y33419D01*
X934099Y33608D01*
X934189Y33794D01*
X934283Y33978D01*
X934383Y34160D01*
X934486Y34339D01*
X934594Y34516D01*
X934706Y34690D01*
X934822Y34861D01*
X934943Y35030D01*
X935067Y35195D01*
X935196Y35357D01*
X935328Y35516D01*
X935464Y35672D01*
X935604Y35825D01*
X935748Y35974D01*
X935895Y36119D01*
X936046Y36261D01*
X936200Y36399D01*
X936358Y36534D01*
X936518Y36664D01*
X936682Y36790D01*
X936849Y36913D01*
X937019Y37031D01*
X937192Y37146D01*
X937367Y37256D01*
X937545Y37361D01*
X937726Y37463D01*
X937908Y37559D01*
X938094Y37652D01*
X938281Y37740D01*
X938471Y37823D01*
X938662Y37902D01*
X938855Y37976D01*
X939051Y38045D01*
X939247Y38109D01*
X939445Y38169D01*
X939645Y38224D01*
X939846Y38274D01*
X940048Y38319D01*
X940251Y38359D01*
X940455Y38394D01*
X940660Y38424D01*
X940865Y38449D01*
X941071Y38469D01*
X941278Y38484D01*
X941485Y38494D01*
X941692Y38499D01*
X941898Y38499D01*
X942105Y38494D01*
X942312Y38484D01*
X942519Y38469D01*
X942725Y38449D01*
X942930Y38424D01*
X943135Y38394D01*
X943339Y38359D01*
X943542Y38319D01*
X943744Y38274D01*
X943945Y38224D01*
X944145Y38169D01*
X944343Y38109D01*
X944539Y38045D01*
X944735Y37976D01*
X944928Y37902D01*
X945119Y37823D01*
X945309Y37740D01*
X945496Y37652D01*
X945682Y37559D01*
X945864Y37463D01*
X946045Y37361D01*
X946223Y37256D01*
X946398Y37146D01*
X946571Y37031D01*
X946741Y36913D01*
X946908Y36790D01*
X947072Y36664D01*
X947232Y36534D01*
X947390Y36399D01*
X947544Y36261D01*
X947695Y36119D01*
X947842Y35974D01*
X947986Y35825D01*
X948126Y35672D01*
X948262Y35516D01*
X948394Y35357D01*
X948523Y35195D01*
X948647Y35030D01*
X948768Y34861D01*
X948884Y34690D01*
X948996Y34516D01*
X949104Y34339D01*
X949207Y34160D01*
X949307Y33978D01*
X949401Y33794D01*
X949491Y33608D01*
X949577Y33419D01*
X949658Y33229D01*
X949734Y33036D01*
X949806Y32842D01*
X949873Y32646D01*
X949935Y32449D01*
X949992Y32250D01*
X950044Y32050D01*
X950092Y31848D01*
X950134Y31646D01*
X950172Y31442D01*
X950204Y31238D01*
X950232Y31032D01*
X950255Y30827D01*
X950272Y30620D01*
X950285Y30414D01*
X950292Y30207D01*
X950295Y30000D01*
X891307Y0D02*
X889674Y9644D01*
X887804Y19246D01*
X885701Y28799D01*
X883365Y38297D01*
X880797Y47736D01*
X877999Y57109D01*
X874972Y66411D01*
X871719Y75636D01*
X868242Y84778D01*
X864542Y93833D01*
X860621Y102795D01*
X856483Y111658D01*
X852129Y120418D01*
X847562Y129068D01*
X842785Y137604D01*
X837801Y146020D01*
X832612Y154313D01*
X827223Y162476D01*
X821635Y170504D01*
X815852Y178394D01*
X809879Y186140D01*
X803717Y193737D01*
X797372Y201182D01*
X790847Y208469D01*
X784145Y215594D01*
X777271Y222553D01*
X770229Y229342D01*
X763023Y235957D01*
X755658Y242394D01*
X748137Y248649D01*
X740466Y254718D01*
X732648Y260597D01*
X724689Y266284D01*
X716594Y271774D01*
X708366Y277065D01*
X700012Y282153D01*
X691536Y287035D01*
X682942Y291708D01*
X674238Y296170D01*
X665426Y300418D01*
X656514Y304449D01*
X647505Y308260D01*
X638406Y311851D01*
X629222Y315217D01*
X619958Y318358D01*
X610621Y321272D01*
X601215Y323956D01*
X591746Y326410D01*
X582219Y328631D01*
X572642Y330619D01*
X563018Y332372D01*
X553355Y333889D01*
X543657Y335170D01*
X533931Y336212D01*
X524183Y337017D01*
X514417Y337583D01*
X504641Y337910D01*
X504641Y388000D02*
X504638Y388207D01*
X504631Y388414D01*
X504618Y388620D01*
X504601Y388827D01*
X504578Y389032D01*
X504550Y389238D01*
X504518Y389442D01*
X504480Y389646D01*
X504438Y389848D01*
X504390Y390050D01*
X504338Y390250D01*
X504281Y390449D01*
X504219Y390646D01*
X504152Y390842D01*
X504080Y391036D01*
X504004Y391229D01*
X503923Y391419D01*
X503837Y391608D01*
X503747Y391794D01*
X503653Y391978D01*
X503553Y392160D01*
X503450Y392339D01*
X503342Y392516D01*
X503230Y392690D01*
X503114Y392861D01*
X502993Y393030D01*
X502869Y393195D01*
X502740Y393357D01*
X502608Y393516D01*
X502472Y393672D01*
X502332Y393825D01*
X502188Y393974D01*
X502041Y394119D01*
X501890Y394261D01*
X501736Y394399D01*
X501578Y394534D01*
X501418Y394664D01*
X501254Y394790D01*
X501087Y394913D01*
X500917Y395031D01*
X500744Y395146D01*
X500569Y395256D01*
X500391Y395361D01*
X500210Y395463D01*
X500028Y395559D01*
X499842Y395652D01*
X499655Y395740D01*
X499465Y395823D01*
X499274Y395902D01*
X499081Y395976D01*
X498885Y396045D01*
X498689Y396109D01*
X498491Y396169D01*
X498291Y396224D01*
X498090Y396274D01*
X497888Y396319D01*
X497685Y396359D01*
X497481Y396394D01*
X497276Y396424D01*
X497071Y396449D01*
X496865Y396469D01*
X496658Y396484D01*
X496451Y396494D01*
X496244Y396499D01*
X496038Y396499D01*
X495831Y396494D01*
X495624Y396484D01*
X495417Y396469D01*
X495211Y396449D01*
X495006Y396424D01*
X494801Y396394D01*
X494597Y396359D01*
X494394Y396319D01*
X494192Y396274D01*
X493991Y396224D01*
X493791Y396169D01*
X493593Y396109D01*
X493397Y396045D01*
X493201Y395976D01*
X493008Y395902D01*
X492817Y395823D01*
X492627Y395740D01*
X492440Y395652D01*
X492254Y395559D01*
X492072Y395463D01*
X491891Y395361D01*
X491713Y395256D01*
X491538Y395146D01*
X491365Y395031D01*
X491195Y394913D01*
X491028Y394790D01*
X490864Y394664D01*
X490704Y394534D01*
X490546Y394399D01*
X490392Y394261D01*
X490241Y394119D01*
X490094Y393974D01*
X489950Y393825D01*
X489810Y393672D01*
X489674Y393516D01*
X489542Y393357D01*
X489413Y393195D01*
X489289Y393030D01*
X489168Y392861D01*
X489052Y392690D01*
X488940Y392516D01*
X488832Y392339D01*
X488729Y392160D01*
X488629Y391978D01*
X488535Y391794D01*
X488445Y391608D01*
X488359Y391419D01*
X488278Y391229D01*
X488202Y391036D01*
X488130Y390842D01*
X488063Y390646D01*
X488001Y390449D01*
X487944Y390250D01*
X487892Y390050D01*
X487844Y389848D01*
X487802Y389646D01*
X487764Y389442D01*
X487732Y389238D01*
X487704Y389032D01*
X487681Y388827D01*
X487664Y388620D01*
X487651Y388414D01*
X487644Y388207D01*
X487641Y388000D01*
X256500Y252910D02*
X256012Y252904D01*
X255525Y252886D01*
X255039Y252857D01*
X254553Y252815D01*
X254068Y252762D01*
X253585Y252697D01*
X253104Y252620D01*
X252625Y252531D01*
X252148Y252431D01*
X251673Y252319D01*
X251202Y252196D01*
X250733Y252061D01*
X250269Y251915D01*
X249807Y251757D01*
X249350Y251589D01*
X248897Y251409D01*
X248448Y251218D01*
X248005Y251016D01*
X247566Y250804D01*
X247133Y250581D01*
X246705Y250347D01*
X246283Y250104D01*
X245867Y249850D01*
X245457Y249585D01*
X245054Y249311D01*
X244658Y249028D01*
X244268Y248734D01*
X243887Y248431D01*
X243887Y248432D02*
X236380Y242178D01*
X229028Y235743D01*
X221836Y229131D01*
X214807Y222344D01*
X207945Y215388D01*
X201256Y208267D01*
X194743Y200984D01*
X188410Y193544D01*
X182260Y185952D01*
X176298Y178212D01*
X170526Y170328D01*
X164949Y162306D01*
X159569Y154150D01*
X154390Y145865D01*
X149415Y137456D01*
X144647Y128928D01*
X140089Y120287D01*
X135743Y111536D01*
X131612Y102682D01*
X127698Y93729D01*
X124005Y84684D01*
X120533Y75551D01*
X117286Y66336D01*
X114265Y57044D01*
X111471Y47682D01*
X108908Y38254D01*
X106575Y28766D01*
X104474Y19224D01*
X102608Y9634D01*
X100976Y0D01*
X58988Y30000D02*
X58985Y30207D01*
X58978Y30414D01*
X58965Y30620D01*
X58948Y30827D01*
X58925Y31032D01*
X58897Y31238D01*
X58865Y31442D01*
X58827Y31646D01*
X58785Y31848D01*
X58737Y32050D01*
X58685Y32250D01*
X58628Y32449D01*
X58566Y32646D01*
X58499Y32842D01*
X58427Y33036D01*
X58351Y33229D01*
X58270Y33419D01*
X58184Y33608D01*
X58094Y33794D01*
X58000Y33978D01*
X57900Y34160D01*
X57797Y34339D01*
X57689Y34516D01*
X57577Y34690D01*
X57461Y34861D01*
X57340Y35030D01*
X57216Y35195D01*
X57087Y35357D01*
X56955Y35516D01*
X56819Y35672D01*
X56679Y35825D01*
X56535Y35974D01*
X56388Y36119D01*
X56237Y36261D01*
X56083Y36399D01*
X55925Y36534D01*
X55765Y36664D01*
X55601Y36790D01*
X55434Y36913D01*
X55264Y37031D01*
X55091Y37146D01*
X54916Y37256D01*
X54738Y37361D01*
X54557Y37463D01*
X54375Y37559D01*
X54189Y37652D01*
X54002Y37740D01*
X53812Y37823D01*
X53621Y37902D01*
X53428Y37976D01*
X53232Y38045D01*
X53036Y38109D01*
X52838Y38169D01*
X52638Y38224D01*
X52437Y38274D01*
X52235Y38319D01*
X52032Y38359D01*
X51828Y38394D01*
X51623Y38424D01*
X51418Y38449D01*
X51212Y38469D01*
X51005Y38484D01*
X50798Y38494D01*
X50591Y38499D01*
X50385Y38499D01*
X50178Y38494D01*
X49971Y38484D01*
X49764Y38469D01*
X49558Y38449D01*
X49353Y38424D01*
X49148Y38394D01*
X48944Y38359D01*
X48741Y38319D01*
X48539Y38274D01*
X48338Y38224D01*
X48138Y38169D01*
X47940Y38109D01*
X47744Y38045D01*
X47548Y37976D01*
X47355Y37902D01*
X47164Y37823D01*
X46974Y37740D01*
X46787Y37652D01*
X46601Y37559D01*
X46419Y37463D01*
X46238Y37361D01*
X46060Y37256D01*
X45885Y37146D01*
X45712Y37031D01*
X45542Y36913D01*
X45375Y36790D01*
X45211Y36664D01*
X45051Y36534D01*
X44893Y36399D01*
X44739Y36261D01*
X44588Y36119D01*
X44441Y35974D01*
X44297Y35825D01*
X44157Y35672D01*
X44021Y35516D01*
X43889Y35357D01*
X43760Y35195D01*
X43636Y35030D01*
X43515Y34861D01*
X43399Y34690D01*
X43287Y34516D01*
X43179Y34339D01*
X43076Y34160D01*
X42976Y33978D01*
X42882Y33794D01*
X42792Y33608D01*
X42706Y33419D01*
X42625Y33229D01*
X42549Y33036D01*
X42477Y32842D01*
X42410Y32646D01*
X42348Y32449D01*
X42291Y32250D01*
X42239Y32050D01*
X42191Y31848D01*
X42149Y31646D01*
X42111Y31442D01*
X42079Y31238D01*
X42051Y31032D01*
X42028Y30827D01*
X42011Y30620D01*
X41998Y30414D01*
X41991Y30207D01*
X41988Y30000D01*
X950295Y0D02*
X992282Y0D01*
X990613Y12144D01*
X988646Y24243D01*
X986384Y36290D01*
X983826Y48278D01*
X980976Y60200D01*
X977834Y72048D01*
X974403Y83816D01*
X970685Y95496D01*
X966681Y107081D01*
X962394Y118565D01*
X957827Y129940D01*
X952983Y141200D01*
X947864Y152338D01*
X942474Y163347D01*
X936815Y174220D01*
X930892Y184952D01*
X924707Y195535D01*
X918265Y205963D01*
X911569Y216230D01*
X904623Y226330D01*
X897432Y236257D01*
X890000Y246004D01*
X882331Y255567D01*
X874430Y264938D01*
X866301Y274113D01*
X857950Y283086D01*
X849382Y291851D01*
X840601Y300404D01*
X831613Y308739D01*
X822424Y316851D01*
X813039Y324736D01*
X803463Y332388D01*
X793702Y339803D01*
X783763Y346977D01*
X773650Y353904D01*
X763371Y360582D01*
X752932Y367006D01*
X742338Y373172D01*
X731596Y379076D01*
X720712Y384715D01*
X709694Y390086D01*
X698547Y395185D01*
X687278Y400009D01*
X675895Y404556D01*
X664404Y408822D01*
X652811Y412806D01*
X641125Y416503D01*
X629351Y419914D01*
X617497Y423034D01*
X605570Y425863D01*
X593578Y428399D01*
X581527Y430640D01*
X569424Y432585D01*
X557278Y434233D01*
X545095Y435583D01*
X532882Y436633D01*
X520647Y437384D01*
X508398Y437835D01*
X496141Y437985D01*
X483884Y437835D01*
X471635Y437384D01*
X459400Y436633D01*
X447187Y435583D01*
X435004Y434233D01*
X422858Y432585D01*
X410755Y430640D01*
X398704Y428399D01*
X386712Y425863D01*
X374785Y423034D01*
X362931Y419914D01*
X351157Y416503D01*
X339471Y412806D01*
X327878Y408822D01*
X316387Y404556D01*
X305004Y400009D01*
X293735Y395185D01*
X282588Y390086D01*
X271570Y384715D01*
X260686Y379076D01*
X249944Y373172D01*
X239350Y367006D01*
X228911Y360582D01*
X218632Y353904D01*
X208519Y346977D01*
X198580Y339803D01*
X188819Y332388D01*
X179243Y324736D01*
X169858Y316851D01*
X160669Y308739D01*
X151681Y300404D01*
X142900Y291851D01*
X134332Y283086D01*
X125981Y274113D01*
X117852Y264938D01*
X109951Y255567D01*
X102282Y246004D01*
X94850Y236257D01*
X87659Y226330D01*
X80713Y216230D01*
X74017Y205963D01*
X67575Y195535D01*
X61390Y184952D01*
X55467Y174220D01*
X49808Y163347D01*
X44418Y152338D01*
X39299Y141200D01*
X34455Y129940D01*
X29888Y118565D01*
X25601Y107081D01*
X21597Y95496D01*
X17879Y83816D01*
X14448Y72048D01*
X11306Y60200D01*
X8456Y48278D01*
X5898Y36290D01*
X3636Y24243D01*
X1669Y12144D01*
X0Y0D01*
X41988Y0D01*
X41988Y30000D01*
X41991Y30207D01*
X41998Y30414D01*
X42011Y30620D01*
X42028Y30827D01*
X42051Y31032D01*
X42079Y31238D01*
X42111Y31442D01*
X42149Y31646D01*
X42191Y31848D01*
X42239Y32050D01*
X42291Y32250D01*
X42348Y32449D01*
X42410Y32646D01*
X42477Y32842D01*
X42549Y33036D01*
X42625Y33229D01*
X42706Y33419D01*
X42792Y33608D01*
X42882Y33794D01*
X42976Y33978D01*
X43076Y34160D01*
X43179Y34339D01*
X43287Y34516D01*
X43399Y34690D01*
X43515Y34861D01*
X43636Y35030D01*
X43760Y35195D01*
X43889Y35357D01*
X44021Y35516D01*
X44157Y35672D01*
X44297Y35825D01*
X44441Y35974D01*
X44588Y36119D01*
X44739Y36261D01*
X44893Y36399D01*
X45051Y36534D01*
X45211Y36664D01*
X45375Y36790D01*
X45542Y36913D01*
X45712Y37031D01*
X45885Y37146D01*
X46060Y37256D01*
X46238Y37361D01*
X46419Y37463D01*
X46601Y37559D01*
X46787Y37652D01*
X46974Y37740D01*
X47164Y37823D01*
X47355Y37902D01*
X47548Y37976D01*
X47744Y38045D01*
X47940Y38109D01*
X48138Y38169D01*
X48338Y38224D01*
X48539Y38274D01*
X48741Y38319D01*
X48944Y38359D01*
X49148Y38394D01*
X49353Y38424D01*
X49558Y38449D01*
X49764Y38469D01*
X49971Y38484D01*
X50178Y38494D01*
X50385Y38499D01*
X50591Y38499D01*
X50798Y38494D01*
X51005Y38484D01*
X51212Y38469D01*
X51418Y38449D01*
X51623Y38424D01*
X51828Y38394D01*
X52032Y38359D01*
X52235Y38319D01*
X52437Y38274D01*
X52638Y38224D01*
X52838Y38169D01*
X53036Y38109D01*
X53232Y38045D01*
X53428Y37976D01*
X53621Y37902D01*
X53812Y37823D01*
X54002Y37740D01*
X54189Y37652D01*
X54375Y37559D01*
X54557Y37463D01*
X54738Y37361D01*
X54916Y37256D01*
X55091Y37146D01*
X55264Y37031D01*
X55434Y36913D01*
X55601Y36790D01*
X55765Y36664D01*
X55925Y36534D01*
X56083Y36399D01*
X56237Y36261D01*
X56388Y36119D01*
X56535Y35974D01*
X56679Y35825D01*
X56819Y35672D01*
X56955Y35516D01*
X57087Y35357D01*
X57216Y35195D01*
X57340Y35030D01*
X57461Y34861D01*
X57577Y34690D01*
X57689Y34516D01*
X57797Y34339D01*
X57900Y34160D01*
X58000Y33978D01*
X58094Y33794D01*
X58184Y33608D01*
X58270Y33419D01*
X58351Y33229D01*
X58427Y33036D01*
X58499Y32842D01*
X58566Y32646D01*
X58628Y32449D01*
X58685Y32250D01*
X58737Y32050D01*
X58785Y31848D01*
X58827Y31646D01*
X58865Y31442D01*
X58897Y31238D01*
X58925Y31032D01*
X58948Y30827D01*
X58965Y30620D01*
X58978Y30414D01*
X58985Y30207D01*
X58988Y30000D01*
X58988Y0D01*
X100975Y0D01*
X100976Y0D02*
X102608Y9634D01*
X104474Y19224D01*
X106575Y28766D01*
X108908Y38254D01*
X111471Y47682D01*
X114265Y57044D01*
X117286Y66336D01*
X120533Y75551D01*
X124005Y84684D01*
X127698Y93729D01*
X131612Y102682D01*
X135743Y111536D01*
X140089Y120287D01*
X144647Y128928D01*
X149415Y137456D01*
X154390Y145865D01*
X159569Y154150D01*
X164949Y162306D01*
X170526Y170328D01*
X176298Y178212D01*
X182260Y185952D01*
X188410Y193544D01*
X194743Y200984D01*
X201256Y208267D01*
X207945Y215388D01*
X214807Y222344D01*
X221836Y229131D01*
X229028Y235743D01*
X236380Y242178D01*
X243887Y248432D01*
X243887Y248431D02*
X244268Y248734D01*
X244658Y249028D01*
X245054Y249311D01*
X245457Y249585D01*
X245867Y249850D01*
X246283Y250104D01*
X246705Y250347D01*
X247133Y250581D01*
X247566Y250804D01*
X248005Y251016D01*
X248448Y251218D01*
X248897Y251409D01*
X249350Y251589D01*
X249807Y251757D01*
X250269Y251915D01*
X250733Y252061D01*
X251202Y252196D01*
X251673Y252319D01*
X252148Y252431D01*
X252625Y252531D01*
X253104Y252620D01*
X253585Y252697D01*
X254068Y252762D01*
X254553Y252815D01*
X255039Y252857D01*
X255525Y252886D01*
X256012Y252904D01*
X256500Y252910D01*
X487641Y252910D01*
X487641Y388000D01*
X487644Y388207D01*
X487651Y388414D01*
X487664Y388620D01*
X487681Y388827D01*
X487704Y389032D01*
X487732Y389238D01*
X487764Y389442D01*
X487802Y389646D01*
X487844Y389848D01*
X487892Y390050D01*
X487944Y390250D01*
X488001Y390449D01*
X488063Y390646D01*
X488130Y390842D01*
X488202Y391036D01*
X488278Y391229D01*
X488359Y391419D01*
X488445Y391608D01*
X488535Y391794D01*
X488629Y391978D01*
X488729Y392160D01*
X488832Y392339D01*
X488940Y392516D01*
X489052Y392690D01*
X489168Y392861D01*
X489289Y393030D01*
X489413Y393195D01*
X489542Y393357D01*
X489674Y393516D01*
X489810Y393672D01*
X489950Y393825D01*
X490094Y393974D01*
X490241Y394119D01*
X490392Y394261D01*
X490546Y394399D01*
X490704Y394534D01*
X490864Y394664D01*
X491028Y394790D01*
X491195Y394913D01*
X491365Y395031D01*
X491538Y395146D01*
X491713Y395256D01*
X491891Y395361D01*
X492072Y395463D01*
X492254Y395559D01*
X492440Y395652D01*
X492627Y395740D01*
X492817Y395823D01*
X493008Y395902D01*
X493201Y395976D01*
X493397Y396045D01*
X493593Y396109D01*
X493791Y396169D01*
X493991Y396224D01*
X494192Y396274D01*
X494394Y396319D01*
X494597Y396359D01*
X494801Y396394D01*
X495006Y396424D01*
X495211Y396449D01*
X495417Y396469D01*
X495624Y396484D01*
X495831Y396494D01*
X496038Y396499D01*
X496244Y396499D01*
X496451Y396494D01*
X496658Y396484D01*
X496865Y396469D01*
X497071Y396449D01*
X497276Y396424D01*
X497481Y396394D01*
X497685Y396359D01*
X497888Y396319D01*
X498090Y396274D01*
X498291Y396224D01*
X498491Y396169D01*
X498689Y396109D01*
X498885Y396045D01*
X499081Y395976D01*
X499274Y395902D01*
X499465Y395823D01*
X499655Y395740D01*
X499842Y395652D01*
X500028Y395559D01*
X500210Y395463D01*
X500391Y395361D01*
X500569Y395256D01*
X500744Y395146D01*
X500917Y395031D01*
X501087Y394913D01*
X501254Y394790D01*
X501418Y394664D01*
X501578Y394534D01*
X501736Y394399D01*
X501890Y394261D01*
X502041Y394119D01*
X502188Y393974D01*
X502332Y393825D01*
X502472Y393672D01*
X502608Y393516D01*
X502740Y393357D01*
X502869Y393195D01*
X502993Y393030D01*
X503114Y392861D01*
X503230Y392690D01*
X503342Y392516D01*
X503450Y392339D01*
X503553Y392160D01*
X503653Y391978D01*
X503747Y391794D01*
X503837Y391608D01*
X503923Y391419D01*
X504004Y391229D01*
X504080Y391036D01*
X504152Y390842D01*
X504219Y390646D01*
X504281Y390449D01*
X504338Y390250D01*
X504390Y390050D01*
X504438Y389848D01*
X504480Y389646D01*
X504518Y389442D01*
X504550Y389238D01*
X504578Y389032D01*
X504601Y388827D01*
X504618Y388620D01*
X504631Y388414D01*
X504638Y388207D01*
X504641Y388000D01*
X504641Y337910D01*
X514417Y337583D01*
X524183Y337017D01*
X533931Y336212D01*
X543657Y335170D01*
X553355Y333889D01*
X563018Y332372D01*
X572642Y330619D01*
X582219Y328631D01*
X591746Y326410D01*
X601215Y323956D01*
X610621Y321272D01*
X619958Y318358D01*
X629222Y315217D01*
X638406Y311851D01*
X647505Y308260D01*
X656514Y304449D01*
X665426Y300418D01*
X674238Y296170D01*
X682942Y291708D01*
X691536Y287035D01*
X700012Y282153D01*
X708366Y277065D01*
X716594Y271774D01*
X724689Y266284D01*
X732648Y260597D01*
X740466Y254718D01*
X748137Y248649D01*
X755658Y242394D01*
X763023Y235957D01*
X770229Y229342D01*
X777271Y222553D01*
X784145Y215594D01*
X790847Y208469D01*
X797372Y201182D01*
X803717Y193737D01*
X809879Y186140D01*
X815852Y178394D01*
X821635Y170504D01*
X827223Y162476D01*
X832612Y154313D01*
X837801Y146020D01*
X842785Y137604D01*
X847562Y129068D01*
X852129Y120418D01*
X856483Y111658D01*
X860621Y102795D01*
X864542Y93833D01*
X868242Y84778D01*
X871719Y75636D01*
X874972Y66411D01*
X877999Y57109D01*
X880797Y47736D01*
X883365Y38297D01*
X885701Y28799D01*
X887804Y19246D01*
X889674Y9644D01*
X891307Y0D01*
X933295Y0D01*
X933295Y30000D01*
X933298Y30207D01*
X933305Y30414D01*
X933318Y30620D01*
X933335Y30827D01*
X933358Y31032D01*
X933386Y31238D01*
X933418Y31442D01*
X933456Y31646D01*
X933498Y31848D01*
X933546Y32050D01*
X933598Y32250D01*
X933655Y32449D01*
X933717Y32646D01*
X933784Y32842D01*
X933856Y33036D01*
X933932Y33229D01*
X934013Y33419D01*
X934099Y33608D01*
X934189Y33794D01*
X934283Y33978D01*
X934383Y34160D01*
X934486Y34339D01*
X934594Y34516D01*
X934706Y34690D01*
X934822Y34861D01*
X934943Y35030D01*
X935067Y35195D01*
X935196Y35357D01*
X935328Y35516D01*
X935464Y35672D01*
X935604Y35825D01*
X935748Y35974D01*
X935895Y36119D01*
X936046Y36261D01*
X936200Y36399D01*
X936358Y36534D01*
X936518Y36664D01*
X936682Y36790D01*
X936849Y36913D01*
X937019Y37031D01*
X937192Y37146D01*
X937367Y37256D01*
X937545Y37361D01*
X937726Y37463D01*
X937908Y37559D01*
X938094Y37652D01*
X938281Y37740D01*
X938471Y37823D01*
X938662Y37902D01*
X938855Y37976D01*
X939051Y38045D01*
X939247Y38109D01*
X939445Y38169D01*
X939645Y38224D01*
X939846Y38274D01*
X940048Y38319D01*
X940251Y38359D01*
X940455Y38394D01*
X940660Y38424D01*
X940865Y38449D01*
X941071Y38469D01*
X941278Y38484D01*
X941485Y38494D01*
X941692Y38499D01*
X941898Y38499D01*
X942105Y38494D01*
X942312Y38484D01*
X942519Y38469D01*
X942725Y38449D01*
X942930Y38424D01*
X943135Y38394D01*
X943339Y38359D01*
X943542Y38319D01*
X943744Y38274D01*
X943945Y38224D01*
X944145Y38169D01*
X944343Y38109D01*
X944539Y38045D01*
X944735Y37976D01*
X944928Y37902D01*
X945119Y37823D01*
X945309Y37740D01*
X945496Y37652D01*
X945682Y37559D01*
X945864Y37463D01*
X946045Y37361D01*
X946223Y37256D01*
X946398Y37146D01*
X946571Y37031D01*
X946741Y36913D01*
X946908Y36790D01*
X947072Y36664D01*
X947232Y36534D01*
X947390Y36399D01*
X947544Y36261D01*
X947695Y36119D01*
X947842Y35974D01*
X947986Y35825D01*
X948126Y35672D01*
X948262Y35516D01*
X948394Y35357D01*
X948523Y35195D01*
X948647Y35030D01*
X948768Y34861D01*
X948884Y34690D01*
X948996Y34516D01*
X949104Y34339D01*
X949207Y34160D01*
X949307Y33978D01*
X949401Y33794D01*
X949491Y33608D01*
X949577Y33419D01*
X949658Y33229D01*
X949734Y33036D01*
X949806Y32842D01*
X949873Y32646D01*
X949935Y32449D01*
X949992Y32250D01*
X950044Y32050D01*
X950092Y31848D01*
X950134Y31646D01*
X950172Y31442D01*
X950204Y31238D01*
X950232Y31032D01*
X950255Y30827D01*
X950272Y30620D01*
X950285Y30414D01*
X950292Y30207D01*
X950295Y30000D01*
X950295Y0D01*
D11*
X375143Y270392D02*
X380477Y286394D01*
X369809Y286394D02*
X375143Y270392D01*
X363957Y282838D02*
X359512Y286394D01*
X359512Y270392D01*
X363957Y270392D02*
X355067Y270392D01*
X349014Y270392D02*
X349014Y271281D01*
X348125Y271281D01*
X348125Y270392D01*
X349014Y270392D01*
X342073Y278393D02*
X342069Y278708D01*
X342058Y279022D01*
X342039Y279337D01*
X342013Y279650D01*
X341979Y279963D01*
X341938Y280275D01*
X341889Y280586D01*
X341833Y280896D01*
X341770Y281205D01*
X341699Y281511D01*
X341621Y281816D01*
X341536Y282119D01*
X341443Y282420D01*
X341343Y282719D01*
X341236Y283015D01*
X341123Y283309D01*
X341002Y283599D01*
X340874Y283887D01*
X340739Y284172D01*
X340739Y284171D02*
X340701Y284277D01*
X340658Y284382D01*
X340613Y284486D01*
X340563Y284588D01*
X340510Y284688D01*
X340454Y284787D01*
X340394Y284883D01*
X340331Y284977D01*
X340265Y285069D01*
X340196Y285159D01*
X340124Y285246D01*
X340048Y285331D01*
X339970Y285413D01*
X339889Y285492D01*
X339806Y285569D01*
X339719Y285642D01*
X339631Y285713D01*
X339540Y285780D01*
X339446Y285845D01*
X339351Y285906D01*
X339253Y285963D01*
X339154Y286018D01*
X339053Y286068D01*
X338950Y286116D01*
X338845Y286160D01*
X338739Y286200D01*
X338632Y286236D01*
X338523Y286269D01*
X338414Y286298D01*
X338303Y286323D01*
X338192Y286344D01*
X338080Y286362D01*
X337967Y286375D01*
X337854Y286385D01*
X337741Y286391D01*
X337628Y286393D01*
X337515Y286391D01*
X337402Y286385D01*
X337289Y286375D01*
X337176Y286362D01*
X337064Y286344D01*
X336953Y286323D01*
X336842Y286298D01*
X336733Y286269D01*
X336624Y286236D01*
X336517Y286200D01*
X336411Y286160D01*
X336306Y286116D01*
X336203Y286068D01*
X336102Y286018D01*
X336003Y285963D01*
X335905Y285906D01*
X335810Y285845D01*
X335716Y285780D01*
X335625Y285713D01*
X335537Y285642D01*
X335450Y285569D01*
X335367Y285492D01*
X335286Y285413D01*
X335208Y285331D01*
X335132Y285246D01*
X335060Y285159D01*
X334991Y285069D01*
X334925Y284977D01*
X334862Y284883D01*
X334802Y284787D01*
X334746Y284688D01*
X334693Y284588D01*
X334643Y284486D01*
X334598Y284382D01*
X334555Y284277D01*
X334517Y284171D01*
X334517Y284172D02*
X334382Y283887D01*
X334254Y283599D01*
X334133Y283309D01*
X334020Y283015D01*
X333913Y282719D01*
X333813Y282420D01*
X333720Y282119D01*
X333635Y281816D01*
X333557Y281511D01*
X333486Y281205D01*
X333423Y280896D01*
X333367Y280586D01*
X333318Y280275D01*
X333277Y279963D01*
X333243Y279650D01*
X333217Y279337D01*
X333198Y279022D01*
X333187Y278708D01*
X333183Y278393D01*
X342073Y278393D02*
X342069Y278078D01*
X342058Y277764D01*
X342039Y277449D01*
X342013Y277136D01*
X341979Y276823D01*
X341938Y276511D01*
X341889Y276200D01*
X341833Y275890D01*
X341770Y275581D01*
X341699Y275275D01*
X341621Y274970D01*
X341536Y274667D01*
X341443Y274366D01*
X341343Y274067D01*
X341236Y273771D01*
X341123Y273477D01*
X341002Y273187D01*
X340874Y272899D01*
X340739Y272614D01*
X340701Y272508D01*
X340658Y272403D01*
X340613Y272299D01*
X340563Y272197D01*
X340510Y272097D01*
X340454Y271998D01*
X340394Y271902D01*
X340331Y271808D01*
X340265Y271716D01*
X340196Y271626D01*
X340124Y271539D01*
X340048Y271454D01*
X339970Y271372D01*
X339889Y271293D01*
X339806Y271216D01*
X339719Y271143D01*
X339631Y271072D01*
X339540Y271005D01*
X339446Y270940D01*
X339351Y270879D01*
X339253Y270822D01*
X339154Y270767D01*
X339053Y270717D01*
X338950Y270669D01*
X338845Y270625D01*
X338739Y270585D01*
X338632Y270549D01*
X338523Y270516D01*
X338414Y270487D01*
X338303Y270462D01*
X338192Y270441D01*
X338080Y270423D01*
X337967Y270410D01*
X337854Y270400D01*
X337741Y270394D01*
X337628Y270392D01*
X334517Y272614D02*
X334382Y272899D01*
X334254Y273187D01*
X334133Y273477D01*
X334020Y273771D01*
X333913Y274067D01*
X333813Y274366D01*
X333720Y274667D01*
X333635Y274970D01*
X333557Y275275D01*
X333486Y275581D01*
X333423Y275890D01*
X333367Y276200D01*
X333318Y276511D01*
X333277Y276823D01*
X333243Y277136D01*
X333217Y277449D01*
X333198Y277764D01*
X333187Y278078D01*
X333183Y278393D01*
X334517Y272614D02*
X334555Y272508D01*
X334598Y272403D01*
X334643Y272299D01*
X334693Y272197D01*
X334746Y272097D01*
X334802Y271998D01*
X334862Y271902D01*
X334925Y271808D01*
X334991Y271716D01*
X335060Y271626D01*
X335132Y271539D01*
X335208Y271454D01*
X335286Y271372D01*
X335367Y271293D01*
X335450Y271216D01*
X335537Y271143D01*
X335625Y271072D01*
X335716Y271005D01*
X335810Y270940D01*
X335905Y270879D01*
X336003Y270822D01*
X336102Y270767D01*
X336203Y270717D01*
X336306Y270669D01*
X336411Y270625D01*
X336517Y270585D01*
X336624Y270549D01*
X336733Y270516D01*
X336842Y270487D01*
X336953Y270462D01*
X337064Y270441D01*
X337176Y270423D01*
X337289Y270410D01*
X337402Y270400D01*
X337515Y270394D01*
X337628Y270392D01*
X341184Y273948D02*
X334072Y282838D01*
D12*
X448540Y355300D03*
X473940Y380700D03*
X448540Y380700D03*
X473940Y355300D03*
D13*
X365351Y385252D03*
X302167Y361018D03*
X429091Y406143D03*
X493945Y412550D03*
X564644Y397229D03*
X245107Y326757D03*
X191666Y285253D03*
X145182Y236785D03*
X107328Y182747D03*
X629498Y381352D03*
X690177Y357675D03*
X751133Y326478D03*
X804854Y281910D03*
X849945Y237342D03*
X890305Y183582D03*
D14*
X448540Y380700D02*
X230922Y298467D01*
X83468Y131757D01*
D15*
X83368Y131583D01*
D16*
X83368Y131583D03*
D14*
X473940Y380700D02*
X484080Y395010D01*
X484081Y395010D02*
X484296Y395307D01*
X484519Y395598D01*
X484750Y395884D01*
X484986Y396165D01*
X485230Y396439D01*
X485481Y396707D01*
X485737Y396969D01*
X486000Y397225D01*
X486270Y397475D01*
X486545Y397717D01*
X486826Y397953D01*
X487113Y398182D01*
X487405Y398404D01*
X487703Y398619D01*
X488006Y398826D01*
X488313Y399026D01*
X488626Y399218D01*
X488943Y399403D01*
X489265Y399580D01*
X489590Y399749D01*
X489920Y399910D01*
X490254Y400063D01*
X490591Y400208D01*
X490932Y400344D01*
X491276Y400472D01*
X491623Y400592D01*
X491972Y400703D01*
X492325Y400806D01*
X492680Y400900D01*
X493037Y400985D01*
X493395Y401061D01*
X493756Y401129D01*
X494118Y401188D01*
X494482Y401238D01*
X494847Y401279D01*
X495212Y401312D01*
X495578Y401335D01*
X495945Y401349D01*
X496312Y401355D01*
X496679Y401351D01*
X497046Y401339D01*
X497412Y401318D01*
X497778Y401287D01*
X498143Y401248D01*
X498507Y401200D01*
X498869Y401143D01*
X499230Y401077D01*
X499590Y401003D01*
X499947Y400919D01*
X500302Y400827D01*
X500655Y400727D01*
X501006Y400617D01*
X501353Y400500D01*
X501698Y400373D01*
X502039Y400239D01*
X502377Y400096D01*
X502712Y399945D01*
X503042Y399786D01*
X503369Y399618D01*
X503691Y399443D01*
X504010Y399260D01*
X504323Y399070D01*
X504632Y398871D01*
X504936Y398666D01*
X505235Y398453D01*
X505528Y398232D01*
X505816Y398005D01*
X506099Y397771D01*
X506375Y397529D01*
X506646Y397282D01*
X506910Y397027D01*
X507169Y396766D01*
X507421Y396499D01*
X507666Y396226D01*
X507904Y395947D01*
X508136Y395663D01*
X508360Y395372D01*
X508578Y395077D01*
X776319Y278371D01*
X906278Y120856D01*
D15*
X906326Y120680D01*
D16*
X906326Y120680D03*
M02*
