G04 EAGLE Gerber RS-274X export*
G75*
%MOMM*%
%FSLAX34Y34*%
%LPD*%
%INMask_Top*%
%IPPOS*%
%AMOC8*
5,1,8,0,0,1.08239X$1,22.5*%
G01*
%ADD10C,0.000000*%
%ADD11C,4.000000*%
%ADD12C,6.045200*%


D10*
X92000Y184000D02*
X89777Y183973D01*
X87555Y183893D01*
X85336Y183758D01*
X83121Y183571D01*
X80911Y183329D01*
X78707Y183035D01*
X76511Y182687D01*
X74324Y182286D01*
X72148Y181833D01*
X69983Y181327D01*
X67831Y180769D01*
X65693Y180159D01*
X63570Y179497D01*
X61464Y178785D01*
X59376Y178021D01*
X57307Y177208D01*
X55258Y176345D01*
X53231Y175432D01*
X51226Y174471D01*
X49245Y173462D01*
X47290Y172405D01*
X45360Y171301D01*
X43457Y170151D01*
X41583Y168955D01*
X39738Y167715D01*
X37924Y166430D01*
X36141Y165101D01*
X34391Y163730D01*
X32675Y162317D01*
X30993Y160863D01*
X29347Y159369D01*
X27737Y157835D01*
X26165Y156263D01*
X24631Y154653D01*
X23137Y153007D01*
X21683Y151325D01*
X20270Y149609D01*
X18899Y147859D01*
X17570Y146076D01*
X16285Y144262D01*
X15045Y142417D01*
X13849Y140543D01*
X12699Y138640D01*
X11595Y136710D01*
X10538Y134755D01*
X9529Y132774D01*
X8568Y130769D01*
X7655Y128742D01*
X6792Y126693D01*
X5979Y124624D01*
X5215Y122536D01*
X4503Y120430D01*
X3841Y118307D01*
X3231Y116169D01*
X2673Y114017D01*
X2167Y111852D01*
X1714Y109676D01*
X1313Y107489D01*
X965Y105293D01*
X671Y103089D01*
X429Y100879D01*
X242Y98664D01*
X107Y96445D01*
X27Y94223D01*
X0Y92000D01*
X27Y89777D01*
X107Y87555D01*
X242Y85336D01*
X429Y83121D01*
X671Y80911D01*
X965Y78707D01*
X1313Y76511D01*
X1714Y74324D01*
X2167Y72148D01*
X2673Y69983D01*
X3231Y67831D01*
X3841Y65693D01*
X4503Y63570D01*
X5215Y61464D01*
X5979Y59376D01*
X6792Y57307D01*
X7655Y55258D01*
X8568Y53231D01*
X9529Y51226D01*
X10538Y49245D01*
X11595Y47290D01*
X12699Y45360D01*
X13849Y43457D01*
X15045Y41583D01*
X16285Y39738D01*
X17570Y37924D01*
X18899Y36141D01*
X20270Y34391D01*
X21683Y32675D01*
X23137Y30993D01*
X24631Y29347D01*
X26165Y27737D01*
X27737Y26165D01*
X29347Y24631D01*
X30993Y23137D01*
X32675Y21683D01*
X34391Y20270D01*
X36141Y18899D01*
X37924Y17570D01*
X39738Y16285D01*
X41583Y15045D01*
X43457Y13849D01*
X45360Y12699D01*
X47290Y11595D01*
X49245Y10538D01*
X51226Y9529D01*
X53231Y8568D01*
X55258Y7655D01*
X57307Y6792D01*
X59376Y5979D01*
X61464Y5215D01*
X63570Y4503D01*
X65693Y3841D01*
X67831Y3231D01*
X69983Y2673D01*
X72148Y2167D01*
X74324Y1714D01*
X76511Y1313D01*
X78707Y965D01*
X80911Y671D01*
X83121Y429D01*
X85336Y242D01*
X87555Y107D01*
X89777Y27D01*
X92000Y0D01*
X94223Y27D01*
X96445Y107D01*
X98664Y242D01*
X100879Y429D01*
X103089Y671D01*
X105293Y965D01*
X107489Y1313D01*
X109676Y1714D01*
X111852Y2167D01*
X114017Y2673D01*
X116169Y3231D01*
X118307Y3841D01*
X120430Y4503D01*
X122536Y5215D01*
X124624Y5979D01*
X126693Y6792D01*
X128742Y7655D01*
X130769Y8568D01*
X132774Y9529D01*
X134755Y10538D01*
X136710Y11595D01*
X138640Y12699D01*
X140543Y13849D01*
X142417Y15045D01*
X144262Y16285D01*
X146076Y17570D01*
X147859Y18899D01*
X149609Y20270D01*
X151325Y21683D01*
X153007Y23137D01*
X154653Y24631D01*
X156263Y26165D01*
X157835Y27737D01*
X159369Y29347D01*
X160863Y30993D01*
X162317Y32675D01*
X163730Y34391D01*
X165101Y36141D01*
X166430Y37924D01*
X167715Y39738D01*
X168955Y41583D01*
X170151Y43457D01*
X171301Y45360D01*
X172405Y47290D01*
X173462Y49245D01*
X174471Y51226D01*
X175432Y53231D01*
X176345Y55258D01*
X177208Y57307D01*
X178021Y59376D01*
X178785Y61464D01*
X179497Y63570D01*
X180159Y65693D01*
X180769Y67831D01*
X181327Y69983D01*
X181833Y72148D01*
X182286Y74324D01*
X182687Y76511D01*
X183035Y78707D01*
X183329Y80911D01*
X183571Y83121D01*
X183758Y85336D01*
X183893Y87555D01*
X183973Y89777D01*
X184000Y92000D01*
X183973Y94223D01*
X183893Y96445D01*
X183758Y98664D01*
X183571Y100879D01*
X183329Y103089D01*
X183035Y105293D01*
X182687Y107489D01*
X182286Y109676D01*
X181833Y111852D01*
X181327Y114017D01*
X180769Y116169D01*
X180159Y118307D01*
X179497Y120430D01*
X178785Y122536D01*
X178021Y124624D01*
X177208Y126693D01*
X176345Y128742D01*
X175432Y130769D01*
X174471Y132774D01*
X173462Y134755D01*
X172405Y136710D01*
X171301Y138640D01*
X170151Y140543D01*
X168955Y142417D01*
X167715Y144262D01*
X166430Y146076D01*
X165101Y147859D01*
X163730Y149609D01*
X162317Y151325D01*
X160863Y153007D01*
X159369Y154653D01*
X157835Y156263D01*
X156263Y157835D01*
X154653Y159369D01*
X153007Y160863D01*
X151325Y162317D01*
X149609Y163730D01*
X147859Y165101D01*
X146076Y166430D01*
X144262Y167715D01*
X142417Y168955D01*
X140543Y170151D01*
X138640Y171301D01*
X136710Y172405D01*
X134755Y173462D01*
X132774Y174471D01*
X130769Y175432D01*
X128742Y176345D01*
X126693Y177208D01*
X124624Y178021D01*
X122536Y178785D01*
X120430Y179497D01*
X118307Y180159D01*
X116169Y180769D01*
X114017Y181327D01*
X111852Y181833D01*
X109676Y182286D01*
X107489Y182687D01*
X105293Y183035D01*
X103089Y183329D01*
X100879Y183571D01*
X98664Y183758D01*
X96445Y183893D01*
X94223Y183973D01*
X92000Y184000D01*
D11*
X30000Y92000D02*
X30018Y90502D01*
X30072Y89005D01*
X30163Y87509D01*
X30289Y86016D01*
X30452Y84527D01*
X30651Y83042D01*
X30885Y81562D01*
X31155Y80088D01*
X31461Y78621D01*
X31802Y77162D01*
X32178Y75712D01*
X32589Y74271D01*
X33034Y72841D01*
X33515Y71422D01*
X34029Y70014D01*
X34577Y68620D01*
X35159Y67239D01*
X35774Y65873D01*
X36422Y64522D01*
X37102Y63187D01*
X37814Y61869D01*
X38558Y60568D01*
X39333Y59286D01*
X40139Y58023D01*
X40975Y56780D01*
X41841Y55557D01*
X42736Y54356D01*
X43660Y53177D01*
X44612Y52020D01*
X45592Y50886D01*
X46599Y49777D01*
X47633Y48692D01*
X48692Y47633D01*
X49777Y46599D01*
X50886Y45592D01*
X52020Y44612D01*
X53177Y43660D01*
X54356Y42736D01*
X55557Y41841D01*
X56780Y40975D01*
X58023Y40139D01*
X59286Y39333D01*
X60568Y38558D01*
X61869Y37814D01*
X63187Y37102D01*
X64522Y36422D01*
X65873Y35774D01*
X67239Y35159D01*
X68620Y34577D01*
X70014Y34029D01*
X71422Y33515D01*
X72841Y33034D01*
X74271Y32589D01*
X75712Y32178D01*
X77162Y31802D01*
X78621Y31461D01*
X80088Y31155D01*
X81562Y30885D01*
X83042Y30651D01*
X84527Y30452D01*
X86016Y30289D01*
X87509Y30163D01*
X89005Y30072D01*
X90502Y30018D01*
X92000Y30000D01*
X93498Y30018D01*
X94995Y30072D01*
X96491Y30163D01*
X97984Y30289D01*
X99473Y30452D01*
X100958Y30651D01*
X102438Y30885D01*
X103912Y31155D01*
X105379Y31461D01*
X106838Y31802D01*
X108288Y32178D01*
X109729Y32589D01*
X111159Y33034D01*
X112578Y33515D01*
X113986Y34029D01*
X115380Y34577D01*
X116761Y35159D01*
X118127Y35774D01*
X119478Y36422D01*
X120813Y37102D01*
X122131Y37814D01*
X123432Y38558D01*
X124714Y39333D01*
X125977Y40139D01*
X127220Y40975D01*
X128443Y41841D01*
X129644Y42736D01*
X130823Y43660D01*
X131980Y44612D01*
X133114Y45592D01*
X134223Y46599D01*
X135308Y47633D01*
X136367Y48692D01*
X137401Y49777D01*
X138408Y50886D01*
X139388Y52020D01*
X140340Y53177D01*
X141264Y54356D01*
X142159Y55557D01*
X143025Y56780D01*
X143861Y58023D01*
X144667Y59286D01*
X145442Y60568D01*
X146186Y61869D01*
X146898Y63187D01*
X147578Y64522D01*
X148226Y65873D01*
X148841Y67239D01*
X149423Y68620D01*
X149971Y70014D01*
X150485Y71422D01*
X150966Y72841D01*
X151411Y74271D01*
X151822Y75712D01*
X152198Y77162D01*
X152539Y78621D01*
X152845Y80088D01*
X153115Y81562D01*
X153349Y83042D01*
X153548Y84527D01*
X153711Y86016D01*
X153837Y87509D01*
X153928Y89005D01*
X153982Y90502D01*
X154000Y92000D01*
X153982Y93498D01*
X153928Y94995D01*
X153837Y96491D01*
X153711Y97984D01*
X153548Y99473D01*
X153349Y100958D01*
X153115Y102438D01*
X152845Y103912D01*
X152539Y105379D01*
X152198Y106838D01*
X151822Y108288D01*
X151411Y109729D01*
X150966Y111159D01*
X150485Y112578D01*
X149971Y113986D01*
X149423Y115380D01*
X148841Y116761D01*
X148226Y118127D01*
X147578Y119478D01*
X146898Y120813D01*
X146186Y122131D01*
X145442Y123432D01*
X144667Y124714D01*
X143861Y125977D01*
X143025Y127220D01*
X142159Y128443D01*
X141264Y129644D01*
X140340Y130823D01*
X139388Y131980D01*
X138408Y133114D01*
X137401Y134223D01*
X136367Y135308D01*
X135308Y136367D01*
X134223Y137401D01*
X133114Y138408D01*
X131980Y139388D01*
X130823Y140340D01*
X129644Y141264D01*
X128443Y142159D01*
X127220Y143025D01*
X125977Y143861D01*
X124714Y144667D01*
X123432Y145442D01*
X122131Y146186D01*
X120813Y146898D01*
X119478Y147578D01*
X118127Y148226D01*
X116761Y148841D01*
X115380Y149423D01*
X113986Y149971D01*
X112578Y150485D01*
X111159Y150966D01*
X109729Y151411D01*
X108288Y151822D01*
X106838Y152198D01*
X105379Y152539D01*
X103912Y152845D01*
X102438Y153115D01*
X100958Y153349D01*
X99473Y153548D01*
X97984Y153711D01*
X96491Y153837D01*
X94995Y153928D01*
X93498Y153982D01*
X92000Y154000D01*
X90502Y153982D01*
X89005Y153928D01*
X87509Y153837D01*
X86016Y153711D01*
X84527Y153548D01*
X83042Y153349D01*
X81562Y153115D01*
X80088Y152845D01*
X78621Y152539D01*
X77162Y152198D01*
X75712Y151822D01*
X74271Y151411D01*
X72841Y150966D01*
X71422Y150485D01*
X70014Y149971D01*
X68620Y149423D01*
X67239Y148841D01*
X65873Y148226D01*
X64522Y147578D01*
X63187Y146898D01*
X61869Y146186D01*
X60568Y145442D01*
X59286Y144667D01*
X58023Y143861D01*
X56780Y143025D01*
X55557Y142159D01*
X54356Y141264D01*
X53177Y140340D01*
X52020Y139388D01*
X50886Y138408D01*
X49777Y137401D01*
X48692Y136367D01*
X47633Y135308D01*
X46599Y134223D01*
X45592Y133114D01*
X44612Y131980D01*
X43660Y130823D01*
X42736Y129644D01*
X41841Y128443D01*
X40975Y127220D01*
X40139Y125977D01*
X39333Y124714D01*
X38558Y123432D01*
X37814Y122131D01*
X37102Y120813D01*
X36422Y119478D01*
X35774Y118127D01*
X35159Y116761D01*
X34577Y115380D01*
X34029Y113986D01*
X33515Y112578D01*
X33034Y111159D01*
X32589Y109729D01*
X32178Y108288D01*
X31802Y106838D01*
X31461Y105379D01*
X31155Y103912D01*
X30885Y102438D01*
X30651Y100958D01*
X30452Y99473D01*
X30289Y97984D01*
X30163Y96491D01*
X30072Y94995D01*
X30018Y93498D01*
X30000Y92000D01*
D12*
X92000Y92000D03*
M02*
