G04 EAGLE Gerber RS-274X export*
G75*
%MOMM*%
%FSLAX34Y34*%
%LPD*%
%INOutline_Milling*%
%IPPOS*%
%AMOC8*
5,1,8,0,0,1.08239X$1,22.5*%
G01*
%ADD10C,0.000000*%


D10*
X92000Y184000D02*
X89777Y183973D01*
X87555Y183893D01*
X85336Y183758D01*
X83121Y183571D01*
X80911Y183329D01*
X78707Y183035D01*
X76511Y182687D01*
X74324Y182286D01*
X72148Y181833D01*
X69983Y181327D01*
X67831Y180769D01*
X65693Y180159D01*
X63570Y179497D01*
X61464Y178785D01*
X59376Y178021D01*
X57307Y177208D01*
X55258Y176345D01*
X53231Y175432D01*
X51226Y174471D01*
X49245Y173462D01*
X47290Y172405D01*
X45360Y171301D01*
X43457Y170151D01*
X41583Y168955D01*
X39738Y167715D01*
X37924Y166430D01*
X36141Y165101D01*
X34391Y163730D01*
X32675Y162317D01*
X30993Y160863D01*
X29347Y159369D01*
X27737Y157835D01*
X26165Y156263D01*
X24631Y154653D01*
X23137Y153007D01*
X21683Y151325D01*
X20270Y149609D01*
X18899Y147859D01*
X17570Y146076D01*
X16285Y144262D01*
X15045Y142417D01*
X13849Y140543D01*
X12699Y138640D01*
X11595Y136710D01*
X10538Y134755D01*
X9529Y132774D01*
X8568Y130769D01*
X7655Y128742D01*
X6792Y126693D01*
X5979Y124624D01*
X5215Y122536D01*
X4503Y120430D01*
X3841Y118307D01*
X3231Y116169D01*
X2673Y114017D01*
X2167Y111852D01*
X1714Y109676D01*
X1313Y107489D01*
X965Y105293D01*
X671Y103089D01*
X429Y100879D01*
X242Y98664D01*
X107Y96445D01*
X27Y94223D01*
X0Y92000D01*
X27Y89777D01*
X107Y87555D01*
X242Y85336D01*
X429Y83121D01*
X671Y80911D01*
X965Y78707D01*
X1313Y76511D01*
X1714Y74324D01*
X2167Y72148D01*
X2673Y69983D01*
X3231Y67831D01*
X3841Y65693D01*
X4503Y63570D01*
X5215Y61464D01*
X5979Y59376D01*
X6792Y57307D01*
X7655Y55258D01*
X8568Y53231D01*
X9529Y51226D01*
X10538Y49245D01*
X11595Y47290D01*
X12699Y45360D01*
X13849Y43457D01*
X15045Y41583D01*
X16285Y39738D01*
X17570Y37924D01*
X18899Y36141D01*
X20270Y34391D01*
X21683Y32675D01*
X23137Y30993D01*
X24631Y29347D01*
X26165Y27737D01*
X27737Y26165D01*
X29347Y24631D01*
X30993Y23137D01*
X32675Y21683D01*
X34391Y20270D01*
X36141Y18899D01*
X37924Y17570D01*
X39738Y16285D01*
X41583Y15045D01*
X43457Y13849D01*
X45360Y12699D01*
X47290Y11595D01*
X49245Y10538D01*
X51226Y9529D01*
X53231Y8568D01*
X55258Y7655D01*
X57307Y6792D01*
X59376Y5979D01*
X61464Y5215D01*
X63570Y4503D01*
X65693Y3841D01*
X67831Y3231D01*
X69983Y2673D01*
X72148Y2167D01*
X74324Y1714D01*
X76511Y1313D01*
X78707Y965D01*
X80911Y671D01*
X83121Y429D01*
X85336Y242D01*
X87555Y107D01*
X89777Y27D01*
X92000Y0D01*
X94223Y27D01*
X96445Y107D01*
X98664Y242D01*
X100879Y429D01*
X103089Y671D01*
X105293Y965D01*
X107489Y1313D01*
X109676Y1714D01*
X111852Y2167D01*
X114017Y2673D01*
X116169Y3231D01*
X118307Y3841D01*
X120430Y4503D01*
X122536Y5215D01*
X124624Y5979D01*
X126693Y6792D01*
X128742Y7655D01*
X130769Y8568D01*
X132774Y9529D01*
X134755Y10538D01*
X136710Y11595D01*
X138640Y12699D01*
X140543Y13849D01*
X142417Y15045D01*
X144262Y16285D01*
X146076Y17570D01*
X147859Y18899D01*
X149609Y20270D01*
X151325Y21683D01*
X153007Y23137D01*
X154653Y24631D01*
X156263Y26165D01*
X157835Y27737D01*
X159369Y29347D01*
X160863Y30993D01*
X162317Y32675D01*
X163730Y34391D01*
X165101Y36141D01*
X166430Y37924D01*
X167715Y39738D01*
X168955Y41583D01*
X170151Y43457D01*
X171301Y45360D01*
X172405Y47290D01*
X173462Y49245D01*
X174471Y51226D01*
X175432Y53231D01*
X176345Y55258D01*
X177208Y57307D01*
X178021Y59376D01*
X178785Y61464D01*
X179497Y63570D01*
X180159Y65693D01*
X180769Y67831D01*
X181327Y69983D01*
X181833Y72148D01*
X182286Y74324D01*
X182687Y76511D01*
X183035Y78707D01*
X183329Y80911D01*
X183571Y83121D01*
X183758Y85336D01*
X183893Y87555D01*
X183973Y89777D01*
X184000Y92000D01*
X183973Y94223D01*
X183893Y96445D01*
X183758Y98664D01*
X183571Y100879D01*
X183329Y103089D01*
X183035Y105293D01*
X182687Y107489D01*
X182286Y109676D01*
X181833Y111852D01*
X181327Y114017D01*
X180769Y116169D01*
X180159Y118307D01*
X179497Y120430D01*
X178785Y122536D01*
X178021Y124624D01*
X177208Y126693D01*
X176345Y128742D01*
X175432Y130769D01*
X174471Y132774D01*
X173462Y134755D01*
X172405Y136710D01*
X171301Y138640D01*
X170151Y140543D01*
X168955Y142417D01*
X167715Y144262D01*
X166430Y146076D01*
X165101Y147859D01*
X163730Y149609D01*
X162317Y151325D01*
X160863Y153007D01*
X159369Y154653D01*
X157835Y156263D01*
X156263Y157835D01*
X154653Y159369D01*
X153007Y160863D01*
X151325Y162317D01*
X149609Y163730D01*
X147859Y165101D01*
X146076Y166430D01*
X144262Y167715D01*
X142417Y168955D01*
X140543Y170151D01*
X138640Y171301D01*
X136710Y172405D01*
X134755Y173462D01*
X132774Y174471D01*
X130769Y175432D01*
X128742Y176345D01*
X126693Y177208D01*
X124624Y178021D01*
X122536Y178785D01*
X120430Y179497D01*
X118307Y180159D01*
X116169Y180769D01*
X114017Y181327D01*
X111852Y181833D01*
X109676Y182286D01*
X107489Y182687D01*
X105293Y183035D01*
X103089Y183329D01*
X100879Y183571D01*
X98664Y183758D01*
X96445Y183893D01*
X94223Y183973D01*
X92000Y184000D01*
M02*
